<?xml version="1.0" encoding="UTF-8"?>
<svg xmlns="http://www.w3.org/2000/svg" xmlns:xlink="http://www.w3.org/1999/xlink" width="53.323" height="62.135" viewBox="0 0 53.323 62.135">
<defs>
<clipPath id="clip-0">
<path clip-rule="nonzero" d="M 0.03125 0 L 52.625 0 L 52.625 61.28125 L 0.03125 61.28125 Z M 0.03125 0 "/>
</clipPath>
<clipPath id="clip-1">
<path clip-rule="nonzero" d="M 0.03125 24 L 42 24 L 42 47 L 0.03125 47 Z M 0.03125 24 "/>
</clipPath>
</defs>
<g clip-path="url(#clip-0)">
<path fill-rule="nonzero" fill="rgb(89.99939%, 89.99939%, 89.99939%)" fill-opacity="1" d="M 0.03125 61.28125 L 52.625 61.28125 L 52.625 0 L 0.03125 0 Z M 0.03125 61.28125 "/>
</g>
<path fill-rule="nonzero" fill="rgb(45.179749%, 39.69574%, 33.924866%)" fill-opacity="1" d="M 34.871094 57.589844 C 34.871094 56.203125 31.992188 55.074219 28.441406 55.074219 C 24.890625 55.074219 22.011719 56.203125 22.011719 57.589844 C 22.011719 58.980469 24.890625 60.105469 28.441406 60.105469 C 31.992188 60.105469 34.871094 58.980469 34.871094 57.589844 Z M 34.871094 57.589844 "/>
<path fill-rule="nonzero" fill="rgb(45.179749%, 39.69574%, 33.924866%)" fill-opacity="1" d="M 20.613281 57.589844 C 20.613281 56.203125 17.734375 55.074219 14.183594 55.074219 C 10.628906 55.074219 7.75 56.203125 7.75 57.589844 C 7.75 58.980469 10.628906 60.105469 14.183594 60.105469 C 17.734375 60.105469 20.613281 58.980469 20.613281 57.589844 Z M 20.613281 57.589844 "/>
<path fill-rule="nonzero" fill="rgb(45.179749%, 39.69574%, 33.924866%)" fill-opacity="1" d="M 51.765625 19.066406 C 30.910156 16.738281 34.90625 46.234375 20.632812 53.453125 C 51.144531 61.28125 44.046875 30.171875 51.765625 19.066406 Z M 51.765625 19.066406 "/>
<g clip-path="url(#clip-1)">
<path fill-rule="nonzero" fill="rgb(83.422852%, 78.805542%, 73.838806%)" fill-opacity="1" d="M 9.949219 24.191406 C 8.0625 23.503906 4.738281 27.886719 2.519531 33.980469 C 0.300781 40.074219 0.03125 45.574219 1.917969 46.257812 C 3.804688 46.945312 7.132812 42.5625 9.351562 36.46875 C 11.566406 30.375 11.835938 24.878906 9.949219 24.191406 Z M 40.703125 46.257812 C 42.589844 45.574219 42.320312 40.074219 40.101562 33.980469 C 37.886719 27.886719 34.558594 23.503906 32.671875 24.191406 C 30.785156 24.878906 31.054688 30.375 33.273438 36.46875 C 35.492188 42.5625 38.816406 46.945312 40.703125 46.257812 Z M 40.703125 46.257812 "/>
</g>
<path fill-rule="nonzero" fill="rgb(61.225891%, 56.272888%, 50.498962%)" fill-opacity="1" d="M 35.847656 40.816406 C 35.847656 56.753906 29.699219 58.429688 21.3125 58.429688 C 12.921875 58.429688 6.773438 56.753906 6.773438 40.816406 C 6.773438 25.441406 12.921875 12.859375 21.3125 12.859375 C 29.699219 12.859375 35.847656 25.441406 35.847656 40.816406 Z M 35.847656 40.816406 "/>
<path fill-rule="nonzero" fill="rgb(83.422852%, 78.805542%, 73.838806%)" fill-opacity="1" d="M 30.535156 19.847656 L 12.085938 19.847656 C 7.332031 33.828125 18.515625 36.621094 21.3125 46.40625 C 24.105469 36.621094 35.289062 33.828125 30.535156 19.847656 Z M 30.535156 19.847656 "/>
<path fill-rule="nonzero" fill="rgb(45.179749%, 39.69574%, 33.924866%)" fill-opacity="1" d="M 30.535156 19.847656 L 12.085938 19.847656 C 8.730469 32.429688 18.515625 35.226562 21.3125 43.613281 C 24.105469 35.226562 33.890625 32.429688 30.535156 19.847656 Z M 30.535156 19.847656 "/>
<path fill-rule="nonzero" fill="rgb(45.179749%, 39.69574%, 33.924866%)" fill-opacity="1" d="M 31.183594 7.902344 C 33.375 6.714844 38.691406 2.457031 37.855469 1.238281 C 37.007812 0.015625 30.324219 2.289062 28.136719 3.480469 C 25.949219 4.667969 24.859375 6.625 25.699219 7.847656 C 26.539062 9.066406 28.992188 9.09375 31.183594 7.902344 Z M 31.183594 7.902344 "/>
<path fill-rule="nonzero" fill="rgb(45.179749%, 39.69574%, 33.924866%)" fill-opacity="1" d="M 11.4375 7.902344 C 9.246094 6.714844 3.929688 2.457031 4.769531 1.238281 C 5.613281 0.015625 12.296875 2.289062 14.488281 3.480469 C 16.671875 4.667969 17.761719 6.625 16.925781 7.847656 C 16.082031 9.066406 13.628906 9.09375 11.4375 7.902344 Z M 11.4375 7.902344 "/>
<path fill-rule="nonzero" fill="rgb(83.422852%, 78.805542%, 73.838806%)" fill-opacity="1" d="M 32.734375 8.761719 C 34.390625 7.402344 38.660156 2.199219 37.699219 1.265625 C 36.734375 0.34375 30.910156 4.046875 29.253906 5.40625 C 27.597656 6.773438 27.035156 8.621094 27.996094 9.546875 C 28.960938 10.472656 31.078125 10.121094 32.734375 8.761719 Z M 9.886719 8.761719 C 8.230469 7.402344 3.964844 2.199219 4.921875 1.265625 C 5.886719 0.34375 11.710938 4.046875 13.367188 5.40625 C 15.023438 6.773438 15.585938 8.621094 14.625 9.546875 C 13.660156 10.472656 11.542969 10.121094 9.886719 8.761719 Z M 9.886719 8.761719 "/>
<path fill-rule="nonzero" fill="rgb(61.225891%, 56.272888%, 50.498962%)" fill-opacity="1" d="M 30.535156 15.375 C 25.785156 20.6875 24.105469 21.246094 23.546875 33.828125 C 23.269531 35.226562 19.355469 35.226562 19.074219 33.828125 C 18.515625 21.246094 16.835938 20.6875 12.085938 15.65625 C 8.730469 11.460938 15.160156 5.871094 21.3125 5.871094 C 27.460938 5.871094 33.890625 11.460938 30.535156 15.65625 Z M 30.535156 15.375 "/>
<path fill-rule="nonzero" fill="rgb(83.422852%, 78.805542%, 73.838806%)" fill-opacity="1" d="M 31.117188 14.5625 C 31.117188 14.5625 29.308594 11.492188 25.703125 13.796875 C 22.089844 16.101562 23.0625 33.761719 23.0625 33.761719 C 23.0625 33.761719 24.972656 24.679688 27.78125 22.921875 C 31.371094 20.671875 31.117188 14.5625 31.117188 14.5625 Z M 11.503906 14.5625 C 11.503906 14.5625 13.3125 11.492188 16.917969 13.796875 C 20.53125 16.101562 19.558594 33.761719 19.558594 33.761719 C 19.558594 33.761719 17.648438 24.679688 14.839844 22.921875 C 11.25 20.671875 11.503906 14.5625 11.503906 14.5625 Z M 11.503906 14.5625 "/>
<path fill-rule="nonzero" fill="rgb(45.179749%, 39.69574%, 33.924866%)" fill-opacity="1" d="M 23.546875 32.988281 C 23.546875 32.214844 22.546875 31.589844 21.3125 31.589844 C 20.074219 31.589844 19.074219 32.214844 19.074219 32.988281 C 19.074219 33.761719 20.074219 34.386719 21.3125 34.386719 C 22.546875 34.386719 23.546875 33.761719 23.546875 32.988281 Z M 23.546875 32.988281 "/>
<path fill-rule="nonzero" fill="rgb(45.179749%, 39.69574%, 33.924866%)" fill-opacity="1" d="M 29.140625 15.65625 C 29.140625 14.882812 28.511719 14.257812 27.742188 14.257812 C 26.96875 14.257812 26.34375 14.882812 26.34375 15.65625 C 26.34375 16.425781 26.96875 17.050781 27.742188 17.050781 C 28.511719 17.050781 29.140625 16.425781 29.140625 15.65625 Z M 29.140625 15.65625 "/>
<path fill-rule="nonzero" fill="rgb(45.179749%, 39.69574%, 33.924866%)" fill-opacity="1" d="M 16.277344 15.65625 C 16.277344 14.882812 15.652344 14.257812 14.882812 14.257812 C 14.109375 14.257812 13.484375 14.882812 13.484375 15.65625 C 13.484375 16.425781 14.109375 17.050781 14.882812 17.050781 C 15.652344 17.050781 16.277344 16.425781 16.277344 15.65625 Z M 16.277344 15.65625 "/>
</svg>
