<?xml version="1.0" encoding="UTF-8"?>
<svg xmlns="http://www.w3.org/2000/svg" xmlns:xlink="http://www.w3.org/1999/xlink" width="84.68" height="61.532" viewBox="0 0 84.68 61.532">
<defs>
<clipPath id="clip-0">
<path clip-rule="nonzero" d="M 0.160156 0 L 84.203125 0 L 84.203125 61.066406 L 0.160156 61.066406 Z M 0.160156 0 "/>
</clipPath>
</defs>
<g clip-path="url(#clip-0)">
<path fill-rule="nonzero" fill="rgb(89.99939%, 89.99939%, 89.99939%)" fill-opacity="1" d="M 0.160156 61.066406 L 84.203125 61.066406 L 84.203125 0 L 0.160156 0 Z M 0.160156 61.066406 "/>
</g>
<path fill-rule="nonzero" fill="rgb(88.749695%, 54.998779%, 21.24939%)" fill-opacity="1" d="M 56.246094 41.355469 C 56.246094 52.609375 52.027344 59.078125 42.179688 59.078125 C 32.335938 59.078125 28.113281 52.609375 28.113281 41.355469 C 16.863281 18.847656 30.929688 17.441406 42.179688 17.441406 C 53.433594 17.441406 67.5 18.847656 56.246094 41.355469 Z M 56.246094 41.355469 "/>
<path fill-rule="nonzero" fill="rgb(87.5%, 50%, 12.5%)" fill-opacity="1" d="M 53.433594 14.347656 C 53.433594 6.578125 48.394531 0.28125 42.179688 0.28125 C 35.964844 0.28125 30.929688 6.578125 30.929688 14.347656 C 30.929688 22.117188 35.964844 28.414062 42.179688 28.414062 C 48.394531 28.414062 53.433594 22.117188 53.433594 14.347656 Z M 53.433594 14.347656 "/>
<path fill-rule="nonzero" fill="rgb(64.99939%, 50%, 34.999084%)" fill-opacity="1" d="M 51.183594 14.347656 C 51.183594 8.132812 47.152344 3.09375 42.179688 3.09375 C 37.210938 3.09375 33.179688 8.132812 33.179688 14.347656 C 33.179688 20.5625 37.210938 25.601562 42.179688 25.601562 C 47.152344 25.601562 51.183594 20.5625 51.183594 14.347656 Z M 51.183594 14.347656 "/>
<path fill-rule="nonzero" fill="rgb(34.999084%, 19.999695%, 4.998779%)" fill-opacity="1" d="M 41.054688 10.410156 C 41.054688 9.789062 40.550781 9.285156 39.929688 9.285156 C 39.308594 9.285156 38.804688 9.789062 38.804688 10.410156 C 38.804688 11.03125 39.308594 11.535156 39.929688 11.535156 C 40.550781 11.535156 41.054688 11.03125 41.054688 10.410156 Z M 41.054688 10.410156 "/>
<path fill-rule="nonzero" fill="rgb(34.999084%, 19.999695%, 4.998779%)" fill-opacity="1" d="M 45.558594 10.410156 C 45.558594 9.789062 45.054688 9.285156 44.433594 9.285156 C 43.808594 9.285156 43.308594 9.789062 43.308594 10.410156 C 43.308594 11.03125 43.808594 11.535156 44.433594 11.535156 C 45.054688 11.535156 45.558594 11.03125 45.558594 10.410156 Z M 45.558594 10.410156 "/>
<path fill-rule="nonzero" fill="rgb(71.998596%, 59.999084%, 47.999573%)" fill-opacity="1" d="M 50.058594 20.253906 C 50.058594 17.148438 46.53125 14.628906 42.179688 14.628906 C 37.832031 14.628906 34.304688 17.148438 34.304688 20.253906 C 34.304688 23.363281 37.832031 25.882812 42.179688 25.882812 C 46.53125 25.882812 50.058594 23.363281 50.058594 20.253906 Z M 50.058594 20.253906 "/>
<path fill="none" stroke-width="0.3985" stroke-linecap="butt" stroke-linejoin="miter" stroke="rgb(32.499695%, 25%, 17.498779%)" stroke-opacity="1" stroke-miterlimit="10" d="M 3.544768 42.522101 C 1.435094 40.750919 -1.638891 40.750919 -3.74463 42.522101 " transform="matrix(0.992452, 0, 0, -0.992452, 42.181208, 63.861284)"/>
<path fill-rule="nonzero" fill="rgb(45.498657%, 34.999084%, 24.499512%)" fill-opacity="1" d="M 41.945312 17.652344 C 41.675781 17.183594 41.179688 16.957031 40.84375 17.152344 C 40.507812 17.347656 40.457031 17.886719 40.726562 18.355469 C 41 18.828125 41.492188 19.050781 41.828125 18.859375 C 42.164062 18.664062 42.21875 18.125 41.945312 17.652344 Z M 41.945312 17.652344 "/>
<path fill-rule="nonzero" fill="rgb(45.498657%, 34.999084%, 24.499512%)" fill-opacity="1" d="M 43.632812 18.355469 C 43.90625 17.886719 43.855469 17.347656 43.515625 17.152344 C 43.179688 16.957031 42.6875 17.183594 42.417969 17.652344 C 42.144531 18.125 42.195312 18.664062 42.53125 18.859375 C 42.867188 19.050781 43.363281 18.828125 43.632812 18.355469 Z M 43.632812 18.355469 "/>
<path fill-rule="nonzero" fill="rgb(64.99939%, 50%, 34.999084%)" fill-opacity="1" d="M 68.480469 59.640625 C 70.808594 58.296875 69.425781 56.574219 65.390625 55.796875 C 61.355469 55.019531 56.191406 55.484375 53.863281 56.828125 C 52.355469 57.699219 52.355469 58.769531 53.863281 59.640625 C 54.9375 60.242188 57.457031 60.824219 59.484375 60.945312 C 61.511719 61.066406 62.28125 60.679688 61.207031 60.078125 C 60.863281 59.890625 60.355469 59.691406 59.738281 59.507812 Z M 68.480469 59.640625 "/>
<path fill-rule="nonzero" fill="rgb(64.99939%, 50%, 34.999084%)" fill-opacity="1" d="M 15.882812 59.640625 C 13.550781 58.296875 14.933594 56.574219 18.972656 55.796875 C 23.007812 55.019531 28.171875 55.484375 30.5 56.828125 C 32.007812 57.699219 32.007812 58.769531 30.5 59.640625 C 29.421875 60.242188 26.90625 60.824219 24.878906 60.945312 C 22.851562 61.066406 22.078125 60.679688 23.15625 60.078125 C 23.5 59.890625 24.003906 59.691406 24.625 59.507812 Z M 15.882812 59.640625 "/>
<path fill-rule="nonzero" fill="rgb(78.749084%, 44.999695%, 11.248779%)" fill-opacity="1" d="M 59.792969 47.714844 C 67.484375 40.023438 72.382812 32.453125 70.734375 30.804688 C 69.085938 29.160156 61.515625 34.058594 53.828125 41.746094 C 46.136719 49.4375 41.238281 57.007812 42.886719 58.65625 C 44.535156 60.304688 52.105469 55.40625 59.792969 47.714844 Z M 59.792969 47.714844 "/>
<path fill-rule="nonzero" fill="rgb(78.749084%, 44.999695%, 11.248779%)" fill-opacity="1" d="M 65.527344 47.121094 C 70.191406 39.046875 72.332031 31.558594 70.3125 30.394531 C 68.296875 29.230469 62.882812 34.828125 58.21875 42.902344 C 53.558594 50.976562 51.414062 58.464844 53.433594 59.628906 C 55.453125 60.796875 60.867188 55.195312 65.527344 47.121094 Z M 65.527344 47.121094 "/>
<path fill-rule="nonzero" fill="rgb(78.749084%, 44.999695%, 11.248779%)" fill-opacity="1" d="M 30.535156 41.746094 C 22.84375 34.058594 15.273438 29.160156 13.628906 30.804688 C 11.980469 32.453125 16.878906 40.023438 24.566406 47.714844 C 32.257812 55.40625 39.828125 60.304688 41.476562 58.65625 C 43.125 57.007812 38.226562 49.4375 30.535156 41.746094 Z M 30.535156 41.746094 "/>
<path fill-rule="nonzero" fill="rgb(78.749084%, 44.999695%, 11.248779%)" fill-opacity="1" d="M 26.144531 42.902344 C 21.480469 34.828125 16.066406 29.230469 14.046875 30.394531 C 12.03125 31.558594 14.171875 39.046875 18.832031 47.121094 C 23.496094 55.195312 28.910156 60.796875 30.929688 59.628906 C 32.945312 58.464844 30.804688 50.976562 26.144531 42.902344 Z M 26.144531 42.902344 "/>
<path fill-rule="nonzero" fill="rgb(87.5%, 50%, 12.5%)" fill-opacity="1" d="M 18.972656 32.351562 C 27.046875 27.6875 32.644531 22.273438 31.480469 20.253906 C 30.316406 18.238281 22.824219 20.378906 14.753906 25.039062 C 6.679688 29.703125 1.078125 35.117188 2.242188 37.136719 C 3.410156 39.152344 10.898438 37.011719 18.972656 32.351562 Z M 18.972656 32.351562 "/>
<path fill-rule="nonzero" fill="rgb(68.499756%, 54.998779%, 41.500854%)" fill-opacity="1" d="M 40.347656 32.914062 C 42.675781 34.261719 41.292969 35.980469 37.257812 36.757812 C 33.222656 37.535156 28.058594 37.074219 25.730469 35.726562 C 24.222656 34.859375 24.222656 33.785156 25.730469 32.914062 C 26.804688 32.316406 29.324219 31.730469 31.351562 31.609375 C 33.378906 31.488281 34.148438 31.878906 33.074219 32.476562 C 32.730469 32.667969 32.222656 32.863281 31.605469 33.050781 Z M 40.347656 32.914062 "/>
<path fill-rule="nonzero" fill="rgb(87.5%, 50%, 12.5%)" fill-opacity="1" d="M 27.269531 32.492188 C 23.980469 30.660156 15.980469 30.445312 9.402344 32.007812 C 2.824219 33.570312 0.160156 36.324219 3.453125 38.15625 C 6.742188 39.988281 14.742188 40.207031 21.320312 38.644531 C 24.121094 37.976562 26.335938 37.058594 27.582031 36.046875 Z M 27.269531 32.492188 "/>
<path fill-rule="nonzero" fill="rgb(87.5%, 50%, 12.5%)" fill-opacity="1" d="M 69.609375 25.039062 C 61.535156 20.378906 54.046875 18.238281 52.882812 20.253906 C 51.71875 22.273438 57.316406 27.6875 65.390625 32.351562 C 73.464844 37.011719 80.953125 39.152344 82.117188 37.136719 C 83.285156 35.117188 77.683594 29.703125 69.609375 25.039062 Z M 69.609375 25.039062 "/>
<path fill-rule="nonzero" fill="rgb(68.499756%, 54.998779%, 41.500854%)" fill-opacity="1" d="M 44.015625 32.914062 C 41.683594 34.261719 43.066406 35.980469 47.105469 36.757812 C 51.140625 37.535156 56.304688 37.074219 58.632812 35.726562 C 60.140625 34.859375 60.140625 33.785156 58.632812 32.914062 C 57.554688 32.316406 55.039062 31.730469 53.011719 31.609375 C 50.984375 31.488281 50.210938 31.878906 51.289062 32.476562 C 51.632812 32.667969 52.136719 32.863281 52.757812 33.050781 Z M 44.015625 32.914062 "/>
<path fill-rule="nonzero" fill="rgb(87.5%, 50%, 12.5%)" fill-opacity="1" d="M 57.089844 32.492188 C 60.382812 30.660156 68.382812 30.445312 74.960938 32.007812 C 81.539062 33.570312 84.203125 36.324219 80.910156 38.15625 C 77.621094 39.988281 69.621094 40.207031 63.042969 38.644531 C 60.242188 37.976562 58.023438 37.058594 56.78125 36.046875 Z M 57.089844 32.492188 "/>
</svg>
