<?xml version="1.0" encoding="UTF-8"?>
<svg xmlns="http://www.w3.org/2000/svg" xmlns:xlink="http://www.w3.org/1999/xlink" width="139.221" height="64.287" viewBox="0 0 139.221 64.287">
<defs>
<clipPath id="clip-0">
<path clip-rule="nonzero" d="M 0.378906 0 L 138.070312 0 L 138.070312 63.582031 L 0.378906 63.582031 Z M 0.378906 0 "/>
</clipPath>
<clipPath id="clip-1">
<path clip-rule="nonzero" d="M 73 57 L 75 57 L 75 63.582031 L 73 63.582031 Z M 73 57 "/>
</clipPath>
<clipPath id="clip-2">
<path clip-rule="nonzero" d="M 74 57 L 77 57 L 77 63.582031 L 74 63.582031 Z M 74 57 "/>
</clipPath>
<clipPath id="clip-3">
<path clip-rule="nonzero" d="M 63 57 L 66 57 L 66 63.582031 L 63 63.582031 Z M 63 57 "/>
</clipPath>
<clipPath id="clip-4">
<path clip-rule="nonzero" d="M 61 57 L 65 57 L 65 63.582031 L 61 63.582031 Z M 61 57 "/>
</clipPath>
</defs>
<g clip-path="url(#clip-0)">
<path fill-rule="nonzero" fill="rgb(89.99939%, 89.99939%, 89.99939%)" fill-opacity="1" d="M 0.378906 63.582031 L 138.070312 63.582031 L 138.070312 0 L 0.378906 0 Z M 0.378906 63.582031 "/>
</g>
<path fill-rule="nonzero" fill="rgb(25%, 25%, 25%)" fill-opacity="1" d="M 5.140625 45.703125 C 0.378906 31.308594 25.800781 20.585938 41.65625 18.574219 C 46.777344 22.25 55.605469 27.109375 59.410156 28.914062 L 59.410156 47.921875 C 55.101562 44.257812 49.519531 43.023438 44.257812 45.703125 C 38.664062 40.003906 30.242188 40.175781 25.425781 45.703125 C 21.425781 40.011719 9.375 39.601562 5.140625 45.703125 Z M 5.140625 45.703125 "/>
<path fill-rule="nonzero" fill="rgb(25%, 25%, 25%)" fill-opacity="1" d="M 133.308594 45.703125 C 138.074219 31.308594 112.648438 20.585938 96.796875 18.574219 C 91.671875 22.25 82.84375 27.109375 79.039062 28.914062 L 79.039062 47.921875 C 83.347656 44.257812 88.929688 43.023438 94.191406 45.703125 C 99.785156 40.003906 108.207031 40.175781 113.023438 45.703125 C 117.023438 40.011719 129.074219 39.601562 133.308594 45.703125 Z M 133.308594 45.703125 "/>
<path fill-rule="nonzero" fill="rgb(25%, 25%, 25%)" fill-opacity="1" d="M 59.417969 14.820312 C 59.417969 14.820312 55.980469 9.679688 58.300781 2.546875 C 62.042969 0 66.554688 9.058594 69.882812 9.207031 Z M 59.417969 14.820312 "/>
<path fill-rule="nonzero" fill="rgb(25%, 25%, 25%)" fill-opacity="1" d="M 79.03125 14.820312 C 79.03125 14.820312 82.46875 9.679688 80.148438 2.546875 C 76.40625 0 71.898438 9.058594 68.570312 9.207031 Z M 79.03125 14.820312 "/>
<path fill-rule="nonzero" fill="rgb(25%, 25%, 25%)" fill-opacity="1" d="M 81.839844 41.152344 C 81.839844 30.3125 76.191406 21.527344 69.226562 21.527344 C 62.257812 21.527344 56.609375 30.3125 56.609375 41.152344 C 56.609375 51.992188 62.257812 60.777344 69.226562 60.777344 C 76.191406 60.777344 81.839844 51.992188 81.839844 41.152344 Z M 81.839844 41.152344 "/>
<path fill-rule="nonzero" fill="rgb(25%, 25%, 25%)" fill-opacity="1" d="M 81.28125 20.125 C 81.28125 13.46875 75.882812 8.070312 69.226562 8.070312 C 62.566406 8.070312 57.167969 13.46875 57.167969 20.125 C 57.167969 26.785156 62.566406 32.179688 69.226562 32.179688 C 75.882812 32.179688 81.28125 26.785156 81.28125 20.125 Z M 81.28125 20.125 "/>
<g clip-path="url(#clip-1)">
<path fill-rule="nonzero" fill="rgb(100%, 50%, 0%)" fill-opacity="1" d="M 74.972656 60.777344 C 74.972656 59.230469 74.59375 57.972656 74.132812 57.972656 C 73.667969 57.972656 73.289062 59.230469 73.289062 60.777344 C 73.289062 62.328125 73.667969 63.582031 74.132812 63.582031 C 74.59375 63.582031 74.972656 62.328125 74.972656 60.777344 Z M 74.972656 60.777344 "/>
</g>
<g clip-path="url(#clip-2)">
<path fill-rule="nonzero" fill="rgb(100%, 50%, 0%)" fill-opacity="1" d="M 76.324219 60.210938 C 75.792969 58.753906 75.011719 57.703125 74.574219 57.863281 C 74.136719 58.023438 74.214844 59.332031 74.742188 60.785156 C 75.273438 62.242188 76.054688 63.292969 76.492188 63.132812 C 76.929688 62.972656 76.851562 61.664062 76.324219 60.210938 Z M 76.324219 60.210938 "/>
</g>
<path fill-rule="nonzero" fill="rgb(100%, 50%, 0%)" fill-opacity="1" d="M 77.578125 59.394531 C 76.582031 58.210938 75.488281 57.492188 75.132812 57.789062 C 74.777344 58.085938 75.292969 59.292969 76.289062 60.476562 C 77.285156 61.664062 78.382812 62.382812 78.738281 62.085938 C 79.09375 61.785156 78.574219 60.582031 77.578125 59.394531 Z M 77.578125 59.394531 "/>
<g clip-path="url(#clip-3)">
<path fill-rule="nonzero" fill="rgb(100%, 50%, 0%)" fill-opacity="1" d="M 65.160156 60.777344 C 65.160156 59.230469 64.78125 57.972656 64.320312 57.972656 C 63.855469 57.972656 63.476562 59.230469 63.476562 60.777344 C 63.476562 62.328125 63.855469 63.582031 64.320312 63.582031 C 64.78125 63.582031 65.160156 62.328125 65.160156 60.777344 Z M 65.160156 60.777344 "/>
</g>
<g clip-path="url(#clip-4)">
<path fill-rule="nonzero" fill="rgb(100%, 50%, 0%)" fill-opacity="1" d="M 63.707031 60.785156 C 64.238281 59.332031 64.3125 58.023438 63.875 57.863281 C 63.4375 57.703125 62.65625 58.753906 62.125 60.210938 C 61.597656 61.664062 61.519531 62.972656 61.957031 63.132812 C 62.394531 63.292969 63.175781 62.242188 63.707031 60.785156 Z M 63.707031 60.785156 "/>
</g>
<path fill-rule="nonzero" fill="rgb(100%, 50%, 0%)" fill-opacity="1" d="M 62.160156 60.476562 C 63.15625 59.292969 63.671875 58.085938 63.316406 57.789062 C 62.960938 57.492188 61.867188 58.210938 60.871094 59.394531 C 59.875 60.582031 59.355469 61.785156 59.710938 62.085938 C 60.070312 62.382812 61.164062 61.664062 62.160156 60.476562 Z M 62.160156 60.476562 "/>
<path fill-rule="nonzero" fill="rgb(100%, 100%, 100%)" fill-opacity="1" d="M 66.941406 16.554688 C 66.535156 14.269531 64.972656 12.632812 63.449219 12.902344 C 61.921875 13.167969 61.015625 15.242188 61.417969 17.527344 C 61.820312 19.816406 63.382812 21.453125 64.910156 21.183594 C 66.433594 20.914062 67.34375 18.84375 66.941406 16.554688 Z M 66.941406 16.554688 "/>
<path fill-rule="nonzero" fill="rgb(0%, 0%, 0%)" fill-opacity="1" d="M 66.019531 17.410156 C 65.960938 16.304688 65.46875 15.433594 64.914062 15.464844 C 64.363281 15.492188 63.960938 16.410156 64.019531 17.515625 C 64.078125 18.617188 64.570312 19.492188 65.125 19.460938 C 65.675781 19.433594 66.078125 18.515625 66.019531 17.410156 Z M 66.019531 17.410156 "/>
<path fill-rule="nonzero" fill="rgb(100%, 100%, 100%)" fill-opacity="1" d="M 77.03125 17.527344 C 77.433594 15.242188 76.527344 13.167969 75 12.902344 C 73.476562 12.632812 71.914062 14.269531 71.511719 16.554688 C 71.105469 18.84375 72.015625 20.914062 73.539062 21.183594 C 75.066406 21.453125 76.628906 19.816406 77.03125 17.527344 Z M 77.03125 17.527344 "/>
<path fill-rule="nonzero" fill="rgb(0%, 0%, 0%)" fill-opacity="1" d="M 74.429688 17.515625 C 74.488281 16.410156 74.085938 15.492188 73.535156 15.464844 C 72.984375 15.433594 72.488281 16.304688 72.429688 17.410156 C 72.371094 18.515625 72.773438 19.433594 73.324219 19.460938 C 73.878906 19.492188 74.371094 18.617188 74.429688 17.515625 Z M 74.429688 17.515625 "/>
<path fill="none" stroke-width="0.3985" stroke-linecap="butt" stroke-linejoin="miter" stroke="rgb(0%, 0%, 0%)" stroke-opacity="1" stroke-miterlimit="10" d="M 5.100704 40.253844 C 3.603816 38.468636 1.269617 37.619478 -1.025085 38.022334 C -2.533822 38.286956 -3.900375 39.076871 -4.887768 40.253844 " transform="matrix(0.989031, 0, 0, -0.989031, 69.224778, 63.581821)"/>
</svg>
