<?xml version="1.0" encoding="UTF-8"?>
<svg xmlns="http://www.w3.org/2000/svg" xmlns:xlink="http://www.w3.org/1999/xlink" width="46.116" height="60.378" viewBox="0 0 46.116 60.378">
<defs>
<clipPath id="clip-0">
<path clip-rule="nonzero" d="M 0 0.261719 L 45.25 0.261719 L 45.25 59.503906 L 0 59.503906 Z M 0 0.261719 "/>
</clipPath>
</defs>
<g clip-path="url(#clip-0)">
<path fill-rule="nonzero" fill="rgb(89.99939%, 89.99939%, 89.99939%)" fill-opacity="1" d="M 0 59.503906 L 45.25 59.503906 L 45.25 0.261719 L 0 0.261719 Z M 0 59.503906 "/>
</g>
<path fill-rule="nonzero" fill="rgb(52.49939%, 34.999084%, 17.498779%)" fill-opacity="1" d="M 43.484375 41.929688 C 45.25 40.449219 43.878906 35.910156 40.421875 31.792969 C 36.964844 27.671875 32.734375 25.535156 30.96875 27.015625 C 29.203125 28.496094 30.574219 33.035156 34.03125 37.15625 C 37.488281 41.273438 41.71875 43.410156 43.484375 41.929688 Z M 43.484375 41.929688 "/>
<path fill-rule="nonzero" fill="rgb(52.49939%, 34.999084%, 17.498779%)" fill-opacity="1" d="M 14.28125 27.015625 C 12.515625 25.535156 8.28125 27.671875 4.828125 31.792969 C 1.371094 35.910156 0 40.449219 1.765625 41.929688 C 3.53125 43.410156 7.761719 41.273438 11.21875 37.15625 C 14.675781 33.035156 16.042969 28.496094 14.28125 27.015625 Z M 14.28125 27.015625 "/>
<path fill-rule="nonzero" fill="rgb(52.49939%, 34.999084%, 17.498779%)" fill-opacity="1" d="M 37.921875 38.644531 C 37.921875 28.660156 31.074219 20.566406 22.625 20.566406 C 14.175781 20.566406 7.328125 28.660156 7.328125 38.644531 C 7.328125 48.628906 14.175781 56.722656 22.625 56.722656 C 31.074219 56.722656 37.921875 48.628906 37.921875 38.644531 Z M 37.921875 38.644531 "/>
<path fill-rule="nonzero" fill="rgb(87.5%, 74.95575%, 62.414551%)" fill-opacity="1" d="M 32.359375 40.035156 C 32.359375 33.890625 28 28.910156 22.625 28.910156 C 17.246094 28.910156 12.890625 33.890625 12.890625 40.035156 C 12.890625 46.179688 17.246094 51.160156 22.625 51.160156 C 28 51.160156 32.359375 46.179688 32.359375 40.035156 Z M 32.359375 40.035156 "/>
<path fill-rule="nonzero" fill="rgb(52.49939%, 34.999084%, 17.498779%)" fill-opacity="1" d="M 42.234375 51.160156 C 42.234375 46.859375 38.746094 43.375 34.445312 43.375 C 30.144531 43.375 26.65625 46.859375 26.65625 51.160156 C 26.65625 55.460938 30.144531 58.949219 34.445312 58.949219 C 38.746094 58.949219 42.234375 55.460938 42.234375 51.160156 Z M 42.234375 51.160156 "/>
<path fill-rule="nonzero" fill="rgb(52.49939%, 34.999084%, 17.498779%)" fill-opacity="1" d="M 18.589844 51.160156 C 18.589844 46.859375 15.105469 43.375 10.804688 43.375 C 6.503906 43.375 3.015625 46.859375 3.015625 51.160156 C 3.015625 55.460938 6.503906 58.949219 10.804688 58.949219 C 15.105469 58.949219 18.589844 55.460938 18.589844 51.160156 Z M 18.589844 51.160156 "/>
<path fill-rule="nonzero" fill="rgb(87.5%, 74.95575%, 62.414551%)" fill-opacity="1" d="M 39.171875 51.160156 C 39.171875 48.550781 37.054688 46.433594 34.445312 46.433594 C 31.832031 46.433594 29.71875 48.550781 29.71875 51.160156 C 29.71875 53.773438 31.832031 55.890625 34.445312 55.890625 C 37.054688 55.890625 39.171875 53.773438 39.171875 51.160156 Z M 39.171875 51.160156 "/>
<path fill-rule="nonzero" fill="rgb(87.5%, 74.95575%, 62.414551%)" fill-opacity="1" d="M 15.53125 51.160156 C 15.53125 48.550781 13.414062 46.433594 10.804688 46.433594 C 8.191406 46.433594 6.074219 48.550781 6.074219 51.160156 C 6.074219 53.773438 8.191406 55.890625 10.804688 55.890625 C 13.414062 55.890625 15.53125 53.773438 15.53125 51.160156 Z M 15.53125 51.160156 "/>
<path fill-rule="nonzero" fill="rgb(52.49939%, 34.999084%, 17.498779%)" fill-opacity="1" d="M 37.226562 5.269531 C 37.226562 2.964844 35.359375 1.097656 33.054688 1.097656 C 30.75 1.097656 28.882812 2.964844 28.882812 5.269531 C 28.882812 7.574219 30.75 9.441406 33.054688 9.441406 C 35.359375 9.441406 37.226562 7.574219 37.226562 5.269531 Z M 37.226562 5.269531 "/>
<path fill-rule="nonzero" fill="rgb(52.49939%, 34.999084%, 17.498779%)" fill-opacity="1" d="M 16.367188 5.269531 C 16.367188 2.964844 14.5 1.097656 12.195312 1.097656 C 9.890625 1.097656 8.023438 2.964844 8.023438 5.269531 C 8.023438 7.574219 9.890625 9.441406 12.195312 9.441406 C 14.5 9.441406 16.367188 7.574219 16.367188 5.269531 Z M 16.367188 5.269531 "/>
<path fill-rule="nonzero" fill="rgb(87.5%, 74.95575%, 62.414551%)" fill-opacity="1" d="M 35.835938 5.269531 C 35.835938 3.730469 34.589844 2.488281 33.054688 2.488281 C 31.519531 2.488281 30.273438 3.730469 30.273438 5.269531 C 30.273438 6.804688 31.519531 8.050781 33.054688 8.050781 C 34.589844 8.050781 35.835938 6.804688 35.835938 5.269531 Z M 35.835938 5.269531 "/>
<path fill-rule="nonzero" fill="rgb(87.5%, 74.95575%, 62.414551%)" fill-opacity="1" d="M 14.976562 5.269531 C 14.976562 3.730469 13.730469 2.488281 12.195312 2.488281 C 10.65625 2.488281 9.414062 3.730469 9.414062 5.269531 C 9.414062 6.804688 10.65625 8.050781 12.195312 8.050781 C 13.730469 8.050781 14.976562 6.804688 14.976562 5.269531 Z M 14.976562 5.269531 "/>
<path fill-rule="nonzero" fill="rgb(52.49939%, 34.999084%, 17.498779%)" fill-opacity="1" d="M 36.53125 16.394531 C 36.53125 8.714844 30.304688 2.488281 22.625 2.488281 C 14.945312 2.488281 8.71875 8.714844 8.71875 16.394531 C 8.71875 24.074219 14.945312 30.300781 22.625 30.300781 C 30.304688 30.300781 36.53125 24.074219 36.53125 16.394531 Z M 36.53125 16.394531 "/>
<path fill-rule="nonzero" fill="rgb(87.5%, 74.95575%, 62.414551%)" fill-opacity="1" d="M 30.410156 20.566406 C 30.410156 17.492188 26.925781 15.003906 22.625 15.003906 C 18.324219 15.003906 14.835938 17.492188 14.835938 20.566406 C 14.835938 23.636719 18.324219 26.128906 22.625 26.128906 C 26.925781 26.128906 30.410156 23.636719 30.410156 20.566406 Z M 30.410156 20.566406 "/>
<path fill-rule="nonzero" fill="rgb(92.498779%, 55.462646%, 39.588928%)" fill-opacity="1" d="M 26.796875 17.785156 C 26.796875 16.554688 24.929688 15.558594 22.625 15.558594 C 20.320312 15.558594 18.453125 16.554688 18.453125 17.785156 C 18.453125 19.011719 20.320312 20.007812 22.625 20.007812 C 24.929688 20.007812 26.796875 19.011719 26.796875 17.785156 Z M 26.796875 17.785156 "/>
<path fill-rule="nonzero" fill="rgb(22.04895%, 14.698792%, 7.348633%)" fill-opacity="1" d="M 19.703125 12.222656 C 19.703125 11.453125 19.082031 10.832031 18.3125 10.832031 C 17.546875 10.832031 16.921875 11.453125 16.921875 12.222656 C 16.921875 12.988281 17.546875 13.613281 18.3125 13.613281 C 19.082031 13.613281 19.703125 12.988281 19.703125 12.222656 Z M 19.703125 12.222656 "/>
<path fill-rule="nonzero" fill="rgb(22.04895%, 14.698792%, 7.348633%)" fill-opacity="1" d="M 28.324219 12.222656 C 28.324219 11.453125 27.703125 10.832031 26.933594 10.832031 C 26.167969 10.832031 25.542969 11.453125 25.542969 12.222656 C 25.542969 12.988281 26.167969 13.613281 26.933594 13.613281 C 27.703125 13.613281 28.324219 12.988281 28.324219 12.222656 Z M 28.324219 12.222656 "/>
<path fill="none" stroke-width="0.3985" stroke-linecap="butt" stroke-linejoin="miter" stroke="rgb(22.04895%, 14.698792%, 7.348633%)" stroke-opacity="1" stroke-miterlimit="10" d="M 4.109225 39.119729 C 3.253282 36.762901 0.649624 35.552638 -1.703223 36.40858 C -2.96126 36.86641 -3.956543 37.857711 -4.414372 39.119729 " transform="matrix(0.981191, 0, 0, -0.981191, 22.624313, 59.505039)"/>
</svg>
