<?xml version="1.0" encoding="UTF-8"?>
<svg xmlns="http://www.w3.org/2000/svg" xmlns:xlink="http://www.w3.org/1999/xlink" width="49.89" height="65.196" viewBox="0 0 49.89 65.196">
<defs>
<clipPath id="clip-0">
<path clip-rule="nonzero" d="M 0.25 0 L 49.53125 0 L 49.53125 64.402344 L 0.25 64.402344 Z M 0.25 0 "/>
</clipPath>
</defs>
<g clip-path="url(#clip-0)">
<path fill-rule="nonzero" fill="rgb(89.99939%, 89.99939%, 89.99939%)" fill-opacity="1" d="M 0.25 64.402344 L 49.53125 64.402344 L 49.53125 0 L 0.25 0 Z M 0.25 64.402344 "/>
</g>
<path fill-rule="nonzero" fill="rgb(69.999695%, 93.998718%, 100%)" fill-opacity="1" d="M 47.292969 32.199219 C 47.292969 26.789062 42.902344 22.398438 37.492188 22.398438 C 32.078125 22.398438 27.691406 26.789062 27.691406 32.199219 C 27.691406 37.613281 32.078125 42 37.492188 42 C 42.902344 42 47.292969 37.613281 47.292969 32.199219 Z M 48.691406 44.800781 C 48.691406 39.386719 44.304688 35 38.890625 35 C 33.480469 35 29.089844 39.386719 29.089844 44.800781 C 29.089844 50.214844 33.480469 54.601562 38.890625 54.601562 C 44.304688 54.601562 48.691406 50.214844 48.691406 44.800781 Z M 48.691406 44.800781 "/>
<path fill-rule="nonzero" fill="rgb(69.999695%, 93.998718%, 100%)" fill-opacity="1" d="M 22.089844 32.199219 C 22.089844 26.789062 17.703125 22.398438 12.289062 22.398438 C 6.878906 22.398438 2.488281 26.789062 2.488281 32.199219 C 2.488281 37.613281 6.878906 42 12.289062 42 C 17.703125 42 22.089844 37.613281 22.089844 32.199219 Z M 20.691406 44.800781 C 20.691406 39.386719 16.304688 35 10.890625 35 C 5.476562 35 1.089844 39.386719 1.089844 44.800781 C 1.089844 50.214844 5.476562 54.601562 10.890625 54.601562 C 16.304688 54.601562 20.691406 50.214844 20.691406 44.800781 Z M 20.691406 44.800781 "/>
<path fill-rule="nonzero" fill="rgb(98.94104%, 82.312012%, 2.116394%)" fill-opacity="1" d="M 24.890625 8.398438 C 16.066406 8.398438 9.730469 19.527344 16.488281 25.199219 C 10.269531 42.289062 6.707031 63.003906 24.890625 63.003906 C 43.074219 63.003906 40.976562 41.679688 33.292969 25.199219 C 40.050781 19.527344 33.714844 8.398438 24.890625 8.398438 Z M 24.890625 8.398438 "/>
<path fill-rule="nonzero" fill="rgb(0%, 0%, 0%)" fill-opacity="1" d="M 14.125 32.40625 C 13.75 33.691406 13.40625 34.976562 13.09375 36.257812 C 15.398438 37.171875 20.121094 37.800781 25.589844 37.800781 C 30.558594 37.800781 34.910156 37.28125 37.394531 36.5 C 37.058594 35.207031 36.667969 33.910156 36.238281 32.617188 C 33.671875 33.21875 29.859375 33.601562 25.589844 33.601562 C 20.84375 33.601562 16.65625 33.128906 14.125 32.40625 Z M 12.277344 40.0625 C 12.042969 41.324219 11.859375 42.5625 11.71875 43.777344 C 12.640625 45.144531 18.496094 46.199219 25.589844 46.199219 C 31.703125 46.199219 36.890625 45.417969 38.796875 44.324219 C 38.679688 43.039062 38.492188 41.722656 38.253906 40.390625 C 36.015625 41.339844 31.195312 42 25.589844 42 C 19.367188 42 14.097656 41.1875 12.277344 40.0625 Z M 11.589844 49 L 11.589844 50.96875 C 11.695312 52.015625 11.871094 53.015625 12.113281 53.960938 C 13.765625 55.136719 19.171875 56 25.589844 56 C 30.886719 56 35.488281 55.414062 37.871094 54.546875 C 38.355469 53.121094 38.671875 51.570312 38.820312 49.910156 C 36.929688 51.011719 31.730469 51.800781 25.589844 51.800781 C 17.859375 51.800781 11.589844 50.550781 11.589844 49 Z M 14.730469 59.167969 C 16.851562 61.578125 20.121094 63.003906 24.890625 63.003906 C 29.378906 63.003906 32.632812 61.699219 34.871094 59.492188 C 32.398438 59.933594 29.15625 60.203125 25.589844 60.203125 C 21.207031 60.203125 17.300781 59.796875 14.730469 59.167969 Z M 14.730469 59.167969 "/>
<path fill-rule="nonzero" fill="rgb(0%, 0%, 0%)" fill-opacity="1" d="M 22.089844 16.800781 C 22.089844 16.027344 21.464844 15.398438 20.691406 15.398438 C 19.917969 15.398438 19.289062 16.027344 19.289062 16.800781 C 19.289062 17.574219 19.917969 18.199219 20.691406 18.199219 C 21.464844 18.199219 22.089844 17.574219 22.089844 16.800781 Z M 22.089844 16.800781 "/>
<path fill-rule="nonzero" fill="rgb(0%, 0%, 0%)" fill-opacity="1" d="M 30.492188 16.800781 C 30.492188 16.027344 29.863281 15.398438 29.089844 15.398438 C 28.316406 15.398438 27.691406 16.027344 27.691406 16.800781 C 27.691406 17.574219 28.316406 18.199219 29.089844 18.199219 C 29.863281 18.199219 30.492188 17.574219 30.492188 16.800781 Z M 30.492188 16.800781 "/>
<path fill-rule="nonzero" fill="rgb(0%, 0%, 0%)" fill-opacity="1" d="M 19.667969 41.730469 C 18.359375 38.929688 16.503906 37.027344 15.523438 37.484375 C 14.542969 37.941406 14.804688 40.585938 16.113281 43.390625 C 17.421875 46.191406 19.277344 48.09375 20.257812 47.636719 C 21.238281 47.179688 20.972656 44.535156 19.667969 41.730469 Z M 19.667969 41.730469 "/>
<path fill-rule="nonzero" fill="rgb(0%, 0%, 0%)" fill-opacity="1" d="M 33.667969 43.390625 C 34.976562 40.585938 35.238281 37.941406 34.257812 37.484375 C 33.277344 37.027344 31.421875 38.929688 30.113281 41.730469 C 28.808594 44.535156 28.542969 47.179688 29.523438 47.636719 C 30.503906 48.09375 32.359375 46.191406 33.667969 43.390625 Z M 33.667969 43.390625 "/>
<path fill="none" stroke-width="0.3985" stroke-linecap="butt" stroke-linejoin="miter" stroke="rgb(0%, 0%, 0%)" stroke-opacity="1" stroke-miterlimit="10" d="M 3.258398 45.356344 C 2.218385 44.114655 0.593118 43.521492 -1.000514 43.802256 C -2.052391 43.988114 -3.005406 44.537779 -3.689521 45.356344 " transform="matrix(0.987818, 0, 0, -0.987818, 24.89067, 67.202259)"/>
<path fill-rule="nonzero" fill="rgb(0%, 0%, 0%)" fill-opacity="1" d="M 20.65625 13.164062 L 17.972656 3.15625 L 19.324219 2.792969 L 22.007812 12.800781 Z M 20.65625 13.164062 "/>
<path fill-rule="nonzero" fill="rgb(0%, 0%, 0%)" fill-opacity="1" d="M 29.125 13.164062 L 31.808594 3.15625 L 30.457031 2.792969 L 27.773438 12.800781 Z M 29.125 13.164062 "/>
<path fill-rule="nonzero" fill="rgb(0%, 0%, 0%)" fill-opacity="1" d="M 20.691406 2.796875 C 20.691406 1.714844 19.8125 0.839844 18.730469 0.839844 C 17.648438 0.839844 16.769531 1.714844 16.769531 2.796875 C 16.769531 3.882812 17.648438 4.757812 18.730469 4.757812 C 19.8125 4.757812 20.691406 3.882812 20.691406 2.796875 Z M 20.691406 2.796875 "/>
<path fill-rule="nonzero" fill="rgb(0%, 0%, 0%)" fill-opacity="1" d="M 33.011719 2.796875 C 33.011719 1.714844 32.132812 0.839844 31.050781 0.839844 C 29.96875 0.839844 29.089844 1.714844 29.089844 2.796875 C 29.089844 3.882812 29.96875 4.757812 31.050781 4.757812 C 32.132812 4.757812 33.011719 3.882812 33.011719 2.796875 Z M 33.011719 2.796875 "/>
</svg>
