<?xml version="1.0" encoding="UTF-8"?>
<svg xmlns="http://www.w3.org/2000/svg" xmlns:xlink="http://www.w3.org/1999/xlink" width="54.045" height="67.634" viewBox="0 0 54.045 67.634">
<defs>
<clipPath id="clip-0">
<path clip-rule="nonzero" d="M 0 0.40625 L 53.105469 0.40625 L 53.105469 66.867188 L 0 66.867188 Z M 0 0.40625 "/>
</clipPath>
<clipPath id="clip-1">
<path clip-rule="nonzero" d="M 27 62 L 38 62 L 38 66.867188 L 27 66.867188 Z M 27 62 "/>
</clipPath>
<clipPath id="clip-2">
<path clip-rule="nonzero" d="M 15 62 L 26 62 L 26 66.867188 L 15 66.867188 Z M 15 62 "/>
</clipPath>
<clipPath id="clip-3">
<path clip-rule="nonzero" d="M 18 0.40625 L 47 0.40625 L 47 26 L 18 26 Z M 18 0.40625 "/>
</clipPath>
<clipPath id="clip-4">
<path clip-rule="nonzero" d="M 6 0.40625 L 35 0.40625 L 35 26 L 6 26 Z M 6 0.40625 "/>
</clipPath>
</defs>
<g clip-path="url(#clip-0)">
<path fill-rule="nonzero" fill="rgb(89.99939%, 89.99939%, 89.99939%)" fill-opacity="1" d="M 0 66.867188 L 53.105469 66.867188 L 53.105469 0.40625 L 0 0.40625 Z M 0 66.867188 "/>
</g>
<path fill-rule="nonzero" fill="rgb(79.998779%, 0%, 0%)" fill-opacity="1" d="M 23.890625 27.808594 C 20.742188 20.726562 7.277344 32.582031 3.785156 39.503906 C 0.636719 45.738281 0 56.867188 6.066406 60.328125 C 9.875 62.5 15.292969 58.320312 18.046875 54.90625 C 23.851562 47.71875 28.195312 37.484375 23.890625 27.808594 Z M 23.890625 27.808594 "/>
<path fill-rule="nonzero" fill="rgb(79.998779%, 0%, 0%)" fill-opacity="1" d="M 29.214844 27.808594 C 32.363281 20.726562 45.828125 32.582031 49.320312 39.503906 C 52.46875 45.738281 53.105469 56.867188 47.039062 60.328125 C 43.230469 62.5 37.8125 58.320312 35.058594 54.90625 C 29.253906 47.71875 24.914062 37.484375 29.214844 27.808594 Z M 29.214844 27.808594 "/>
<path fill-rule="nonzero" fill="rgb(9.999084%, 9.999084%, 9.999084%)" fill-opacity="1" d="M 23.210938 43.746094 C 23.210938 42.515625 22.210938 41.519531 20.980469 41.519531 C 19.75 41.519531 18.753906 42.515625 18.753906 43.746094 C 18.753906 44.976562 19.75 45.976562 20.980469 45.976562 C 22.210938 45.976562 23.210938 44.976562 23.210938 43.746094 Z M 14.855469 45.140625 C 14.855469 43.910156 13.855469 42.910156 12.625 42.910156 C 11.394531 42.910156 10.398438 43.910156 10.398438 45.140625 C 10.398438 46.371094 11.394531 47.367188 12.625 47.367188 C 13.855469 47.367188 14.855469 46.371094 14.855469 45.140625 Z M 6.496094 46.53125 C 6.496094 45.300781 5.5 44.304688 4.269531 44.304688 C 3.039062 44.304688 2.039062 45.300781 2.039062 46.53125 C 2.039062 47.765625 3.039062 48.761719 4.269531 48.761719 C 5.5 48.761719 6.496094 47.765625 6.496094 46.53125 Z M 19.03125 50.710938 C 19.03125 49.480469 18.035156 48.484375 16.804688 48.484375 C 15.574219 48.484375 14.574219 49.480469 14.574219 50.710938 C 14.574219 51.941406 15.574219 52.941406 16.804688 52.941406 C 18.035156 52.941406 19.03125 51.941406 19.03125 50.710938 Z M 10.675781 53.496094 C 10.675781 52.265625 9.679688 51.269531 8.449219 51.269531 C 7.214844 51.269531 6.21875 52.265625 6.21875 53.496094 C 6.21875 54.726562 7.214844 55.726562 8.449219 55.726562 C 9.679688 55.726562 10.675781 54.726562 10.675781 53.496094 Z M 20.425781 38.175781 C 20.425781 36.945312 19.425781 35.949219 18.195312 35.949219 C 16.964844 35.949219 15.96875 36.945312 15.96875 38.175781 C 15.96875 39.40625 16.964844 40.40625 18.195312 40.40625 C 19.425781 40.40625 20.425781 39.40625 20.425781 38.175781 Z M 12.066406 36.785156 C 12.066406 35.554688 11.070312 34.554688 9.839844 34.554688 C 8.609375 34.554688 7.613281 35.554688 7.613281 36.785156 C 7.613281 38.015625 8.609375 39.011719 9.839844 39.011719 C 11.070312 39.011719 12.066406 38.015625 12.066406 36.785156 Z M 19.03125 29.820312 C 19.03125 28.589844 18.035156 27.59375 16.804688 27.59375 C 15.574219 27.59375 14.574219 28.589844 14.574219 29.820312 C 14.574219 31.050781 15.574219 32.046875 16.804688 32.046875 C 18.035156 32.046875 19.03125 31.050781 19.03125 29.820312 Z M 34.351562 43.746094 C 34.351562 42.515625 33.355469 41.519531 32.125 41.519531 C 30.894531 41.519531 29.894531 42.515625 29.894531 43.746094 C 29.894531 44.976562 30.894531 45.976562 32.125 45.976562 C 33.355469 45.976562 34.351562 44.976562 34.351562 43.746094 Z M 42.707031 45.140625 C 42.707031 43.910156 41.710938 42.910156 40.480469 42.910156 C 39.25 42.910156 38.25 43.910156 38.25 45.140625 C 38.25 46.371094 39.25 47.367188 40.480469 47.367188 C 41.710938 47.367188 42.707031 46.371094 42.707031 45.140625 Z M 51.066406 46.53125 C 51.066406 45.300781 50.066406 44.304688 48.835938 44.304688 C 47.605469 44.304688 46.609375 45.300781 46.609375 46.53125 C 46.609375 47.765625 47.605469 48.761719 48.835938 48.761719 C 50.066406 48.761719 51.066406 47.765625 51.066406 46.53125 Z M 38.53125 50.710938 C 38.53125 49.480469 37.53125 48.484375 36.300781 48.484375 C 35.070312 48.484375 34.074219 49.480469 34.074219 50.710938 C 34.074219 51.941406 35.070312 52.941406 36.300781 52.941406 C 37.53125 52.941406 38.53125 51.941406 38.53125 50.710938 Z M 46.886719 53.496094 C 46.886719 52.265625 45.890625 51.269531 44.65625 51.269531 C 43.425781 51.269531 42.429688 52.265625 42.429688 53.496094 C 42.429688 54.726562 43.425781 55.726562 44.65625 55.726562 C 45.890625 55.726562 46.886719 54.726562 46.886719 53.496094 Z M 37.136719 38.175781 C 37.136719 36.945312 36.140625 35.949219 34.910156 35.949219 C 33.679688 35.949219 32.679688 36.945312 32.679688 38.175781 C 32.679688 39.40625 33.679688 40.40625 34.910156 40.40625 C 36.140625 40.40625 37.136719 39.40625 37.136719 38.175781 Z M 45.492188 36.785156 C 45.492188 35.554688 44.496094 34.554688 43.265625 34.554688 C 42.035156 34.554688 41.039062 35.554688 41.039062 36.785156 C 41.039062 38.015625 42.035156 39.011719 43.265625 39.011719 C 44.496094 39.011719 45.492188 38.015625 45.492188 36.785156 Z M 38.53125 29.820312 C 38.53125 28.589844 37.53125 27.59375 36.300781 27.59375 C 35.070312 27.59375 34.074219 28.589844 34.074219 29.820312 C 34.074219 31.050781 35.070312 32.046875 36.300781 32.046875 C 37.53125 32.046875 38.53125 31.050781 38.53125 29.820312 Z M 38.53125 29.820312 "/>
<g clip-path="url(#clip-1)">
<path fill-rule="nonzero" fill="rgb(79.998779%, 0%, 0%)" fill-opacity="1" d="M 37.136719 64.636719 C 37.136719 63.714844 34.894531 62.96875 32.125 62.96875 C 29.355469 62.96875 27.109375 63.714844 27.109375 64.636719 C 27.109375 65.5625 29.355469 66.308594 32.125 66.308594 C 34.894531 66.308594 37.136719 65.5625 37.136719 64.636719 Z M 37.136719 64.636719 "/>
</g>
<g clip-path="url(#clip-2)">
<path fill-rule="nonzero" fill="rgb(79.998779%, 0%, 0%)" fill-opacity="1" d="M 25.996094 64.636719 C 25.996094 63.714844 23.75 62.96875 20.980469 62.96875 C 18.214844 62.96875 15.96875 63.714844 15.96875 64.636719 C 15.96875 65.5625 18.214844 66.308594 20.980469 66.308594 C 23.75 66.308594 25.996094 65.5625 25.996094 64.636719 Z M 25.996094 64.636719 "/>
</g>
<path fill-rule="nonzero" fill="rgb(9.999084%, 9.999084%, 9.999084%)" fill-opacity="1" d="M 41.871094 46.53125 C 41.871094 56.28125 41.871094 65.195312 26.554688 65.195312 C 11.234375 65.195312 11.234375 56.28125 11.234375 46.53125 C 11.234375 35.949219 18.195312 27.3125 26.554688 27.3125 C 34.910156 27.3125 41.871094 35.949219 41.871094 46.53125 Z M 41.871094 46.53125 "/>
<path fill-rule="nonzero" fill="rgb(9.999084%, 9.999084%, 9.999084%)" fill-opacity="1" d="M 36.859375 20.070312 C 36.859375 14.378906 32.246094 9.765625 26.554688 9.765625 C 20.859375 9.765625 16.246094 14.378906 16.246094 20.070312 C 16.246094 25.761719 20.859375 30.378906 26.554688 30.378906 C 32.246094 30.378906 36.859375 25.761719 36.859375 20.070312 Z M 36.859375 20.070312 "/>
<path fill-rule="nonzero" fill="rgb(100%, 100%, 100%)" fill-opacity="1" d="M 32.039062 18.679688 C 32.039062 17.371094 31.203125 16.3125 30.175781 16.3125 C 29.144531 16.3125 28.308594 17.371094 28.308594 18.679688 C 28.308594 19.984375 29.144531 21.046875 30.175781 21.046875 C 31.203125 21.046875 32.039062 19.984375 32.039062 18.679688 Z M 32.039062 18.679688 "/>
<path fill-rule="nonzero" fill="rgb(100%, 100%, 100%)" fill-opacity="1" d="M 24.796875 18.679688 C 24.796875 17.371094 23.960938 16.3125 22.929688 16.3125 C 21.902344 16.3125 21.066406 17.371094 21.066406 18.679688 C 21.066406 19.984375 21.902344 21.046875 22.929688 21.046875 C 23.960938 21.046875 24.796875 19.984375 24.796875 18.679688 Z M 24.796875 18.679688 "/>
<path fill-rule="nonzero" fill="rgb(0%, 0%, 0%)" fill-opacity="1" d="M 30.425781 19.234375 C 30.425781 18.789062 30.1875 18.429688 29.894531 18.429688 C 29.601562 18.429688 29.367188 18.789062 29.367188 19.234375 C 29.367188 19.683594 29.601562 20.042969 29.894531 20.042969 C 30.1875 20.042969 30.425781 19.683594 30.425781 19.234375 Z M 30.425781 19.234375 "/>
<path fill-rule="nonzero" fill="rgb(0%, 0%, 0%)" fill-opacity="1" d="M 23.738281 19.234375 C 23.738281 18.789062 23.503906 18.429688 23.210938 18.429688 C 22.917969 18.429688 22.679688 18.789062 22.679688 19.234375 C 22.679688 19.683594 22.917969 20.042969 23.210938 20.042969 C 23.503906 20.042969 23.738281 19.683594 23.738281 19.234375 Z M 23.738281 19.234375 "/>
<path fill-rule="nonzero" fill="rgb(79.998779%, 0%, 0%)" fill-opacity="1" d="M 21.1875 41.792969 C 19.597656 39.523438 17.59375 38.1875 16.714844 38.804688 C 15.832031 39.421875 16.402344 41.761719 17.992188 44.03125 C 19.578125 46.296875 21.582031 47.636719 22.464844 47.019531 C 23.347656 46.402344 22.773438 44.0625 21.1875 41.792969 Z M 21.1875 41.792969 "/>
<path fill-rule="nonzero" fill="rgb(79.998779%, 0%, 0%)" fill-opacity="1" d="M 35.113281 44.03125 C 36.703125 41.761719 37.273438 39.421875 36.390625 38.804688 C 35.511719 38.1875 33.507812 39.523438 31.917969 41.792969 C 30.332031 44.0625 29.757812 46.402344 30.640625 47.019531 C 31.523438 47.636719 33.527344 46.296875 35.113281 44.03125 Z M 35.113281 44.03125 "/>
<path fill="none" stroke-width="0.3985" stroke-linecap="butt" stroke-linejoin="miter" stroke="rgb(100%, 0%, 0%)" stroke-opacity="1" stroke-miterlimit="10" d="M 3.261647 44.219298 C 2.220125 42.979012 0.594237 42.386696 -1.003824 42.66894 C -2.053296 42.855778 -3.003387 43.404366 -3.687134 44.219298 " transform="matrix(0.982636, 0, 0, -0.982636, 26.5528, 67.424146)"/>
<g clip-path="url(#clip-3)">
<path fill="none" stroke-width="0.79701" stroke-linecap="butt" stroke-linejoin="miter" stroke="rgb(79.998779%, 0%, 0%)" stroke-opacity="1" stroke-miterlimit="10" d="M 3.213943 54.169412 C 2.597776 58.216242 2.79654 62.358479 4.557586 64.676064 C 6.946727 67.804606 9.292139 65.228627 9.276238 62.907067 C 9.256362 60.494075 6.342485 57.894245 5.607059 61.054588 " transform="matrix(0.982636, 0, 0, -0.982636, 26.5528, 67.424146)"/>
</g>
<g clip-path="url(#clip-4)">
<path fill="none" stroke-width="0.79701" stroke-linecap="butt" stroke-linejoin="miter" stroke="rgb(79.998779%, 0%, 0%)" stroke-opacity="1" stroke-miterlimit="10" d="M -3.214077 54.169412 C -2.597909 58.216242 -2.796673 62.358479 -4.55772 64.676064 C -6.942885 67.804606 -9.292272 65.228627 -9.276371 62.907067 C -9.256495 60.494075 -6.342618 57.894245 -5.607192 61.054588 " transform="matrix(0.982636, 0, 0, -0.982636, 26.5528, 67.424146)"/>
</g>
</svg>
