<?xml version="1.0" encoding="UTF-8"?>
<svg xmlns="http://www.w3.org/2000/svg" xmlns:xlink="http://www.w3.org/1999/xlink" width="62.079" height="60.094" viewBox="0 0 62.079 60.094">
<defs>
<clipPath id="clip-0">
<path clip-rule="nonzero" d="M 0.0078125 0 L 61.164062 0 L 61.164062 59.203125 L 0.0078125 59.203125 Z M 0.0078125 0 "/>
</clipPath>
<clipPath id="clip-1">
<path clip-rule="nonzero" d="M 0.0078125 15 L 31 15 L 31 58 L 0.0078125 58 Z M 0.0078125 15 "/>
</clipPath>
</defs>
<g clip-path="url(#clip-0)">
<path fill-rule="nonzero" fill="rgb(89.99939%, 89.99939%, 89.99939%)" fill-opacity="1" d="M 0.0078125 59.203125 L 61.164062 59.203125 L 61.164062 0 L 0.0078125 0 Z M 0.0078125 59.203125 "/>
</g>
<path fill-rule="nonzero" fill="rgb(14.99939%, 14.99939%, 14.99939%)" fill-opacity="1" d="M 24.023438 48.03125 C 31.003906 37.699219 36.03125 20.105469 44.96875 15.917969 C 52.507812 12.566406 64.792969 24.574219 59.210938 24.851562 C 41.335938 5.304688 39.660156 45.238281 29.609375 51.660156 Z M 24.023438 48.03125 "/>
<g clip-path="url(#clip-1)">
<path fill-rule="nonzero" fill="rgb(14.99939%, 14.99939%, 14.99939%)" fill-opacity="1" d="M 30.898438 42.011719 C 30.898438 56.902344 24.746094 57.246094 15.644531 57.246094 C 6.542969 57.246094 0.390625 56.902344 0.390625 42.011719 C 0.136719 27.125 7.058594 15.167969 15.644531 15.167969 C 24.234375 15.167969 31.15625 27.125 30.898438 42.011719 Z M 30.898438 42.011719 "/>
</g>
<path fill-rule="nonzero" fill="rgb(14.99939%, 14.99939%, 14.99939%)" fill-opacity="1" d="M 18.996094 5.046875 C 20.113281 1.71875 25.976562 0 25.976562 0.558594 C 25.976562 0.558594 26.535156 8.933594 23.242188 8.933594 C 20.925781 9.492188 18.996094 9.492188 18.996094 5.046875 Z M 18.996094 5.046875 "/>
<path fill-rule="nonzero" fill="rgb(14.99939%, 14.99939%, 14.99939%)" fill-opacity="1" d="M 12.292969 5.046875 C 11.175781 1.71875 5.3125 0 5.3125 0.558594 C 5.3125 0.558594 4.753906 8.933594 8.046875 8.933594 C 10.363281 9.492188 12.292969 9.492188 12.292969 5.046875 Z M 12.292969 5.046875 "/>
<path fill-rule="nonzero" fill="rgb(14.99939%, 14.99939%, 14.99939%)" fill-opacity="1" d="M 27.933594 16.195312 C 27.933594 9.410156 22.433594 3.910156 15.644531 3.910156 C 8.859375 3.910156 3.359375 9.410156 3.359375 16.195312 C 3.359375 22.980469 8.859375 28.484375 15.644531 28.484375 C 22.433594 28.484375 27.933594 22.980469 27.933594 16.195312 Z M 27.933594 16.195312 "/>
<path fill-rule="nonzero" fill="rgb(99.293518%, 86.508179%, 1.411438%)" fill-opacity="1" d="M 12.8125 13.148438 C 12.8125 13.148438 11.59375 14.042969 10.503906 13.726562 C 9.414062 13.410156 8.867188 12.007812 8.867188 12.007812 C 8.867188 12.007812 10.082031 11.109375 11.171875 11.425781 C 12.261719 11.742188 12.8125 13.148438 12.8125 13.148438 Z M 12.8125 13.148438 "/>
<path fill-rule="nonzero" fill="rgb(99.293518%, 86.508179%, 1.411438%)" fill-opacity="1" d="M 18.476562 13.148438 C 18.476562 13.148438 19.699219 14.042969 20.785156 13.726562 C 21.875 13.410156 22.421875 12.007812 22.421875 12.007812 C 22.421875 12.007812 21.207031 11.109375 20.121094 11.425781 C 19.03125 11.742188 18.476562 13.148438 18.476562 13.148438 Z M 18.476562 13.148438 "/>
<path fill-rule="nonzero" fill="rgb(0%, 0%, 0%)" fill-opacity="1" d="M 10.84375 11.53125 C 11.261719 12.105469 11.261719 12.996094 10.84375 13.566406 C 10.421875 12.996094 10.421875 12.105469 10.84375 11.53125 Z M 10.84375 11.53125 "/>
<path fill-rule="nonzero" fill="rgb(0%, 0%, 0%)" fill-opacity="1" d="M 20.449219 11.53125 C 20.867188 12.105469 20.867188 12.996094 20.449219 13.566406 C 20.03125 12.996094 20.03125 12.105469 20.449219 11.53125 Z M 20.449219 11.53125 "/>
<path fill="none" stroke-width="0.19925" stroke-linecap="butt" stroke-linejoin="miter" stroke="rgb(75%, 75%, 75%)" stroke-opacity="1" stroke-miterlimit="10" d="M -4.537192 43.285686 C -4.537192 43.285686 -1.757627 40.252352 -0.00106915 44.10647 C 1.755489 40.252352 4.535053 43.285686 4.535053 43.285686 " transform="matrix(0.985148, 0, 0, -0.985148, 15.645585, 61.99435)"/>
<path fill-rule="nonzero" fill="rgb(89.99939%, 57.998657%, 57.998657%)" fill-opacity="1" d="M 13.71875 16.050781 C 14.183594 15.601562 17.109375 15.601562 17.574219 16.050781 C 17.878906 16.613281 16.222656 18.710938 15.644531 18.710938 C 15.070312 18.710938 13.410156 16.613281 13.71875 16.050781 Z M 13.71875 16.050781 "/>
<path fill-rule="nonzero" fill="rgb(75%, 75%, 75%)" fill-opacity="1" d="M 17.847656 17.464844 C 20.277344 17.035156 21.472656 18.878906 23.898438 19.308594 L 23.898438 19.027344 C 21.5 18.605469 20.246094 17.042969 17.847656 17.464844 Z M 17.847656 17.464844 "/>
<path fill-rule="nonzero" fill="rgb(75%, 75%, 75%)" fill-opacity="1" d="M 13.445312 17.464844 C 11.015625 17.035156 9.816406 18.878906 7.390625 19.308594 L 7.390625 19.027344 C 9.789062 18.605469 11.042969 17.042969 13.445312 17.464844 Z M 13.445312 17.464844 "/>
<path fill-rule="nonzero" fill="rgb(75%, 75%, 75%)" fill-opacity="1" d="M 17.746094 17.085938 C 20.066406 16.242188 21.707031 17.007812 24.027344 17.851562 L 24.027344 17.574219 C 21.71875 16.730469 20.058594 16.246094 17.746094 17.085938 Z M 17.746094 17.085938 "/>
<path fill-rule="nonzero" fill="rgb(75%, 75%, 75%)" fill-opacity="1" d="M 13.546875 17.085938 C 11.226562 16.242188 9.582031 17.007812 7.261719 17.851562 L 7.261719 17.574219 C 9.574219 16.730469 11.234375 16.246094 13.546875 17.085938 Z M 13.546875 17.085938 "/>
<path fill-rule="nonzero" fill="rgb(75%, 75%, 75%)" fill-opacity="1" d="M 17.519531 16.632812 C 19.59375 15.289062 21.738281 14.621094 23.8125 15.96875 L 23.8125 15.6875 C 21.730469 14.335938 19.601562 15.28125 17.519531 16.632812 Z M 17.519531 16.632812 "/>
<path fill-rule="nonzero" fill="rgb(75%, 75%, 75%)" fill-opacity="1" d="M 13.773438 16.632812 C 11.695312 15.289062 9.550781 14.621094 7.476562 15.96875 L 7.476562 15.6875 C 9.5625 14.335938 11.6875 15.28125 13.773438 16.632812 Z M 13.773438 16.632812 "/>
<path fill-rule="nonzero" fill="rgb(14.99939%, 14.99939%, 14.99939%)" fill-opacity="1" d="M 13.550781 53.617188 C 13.550781 50.839844 11.300781 48.589844 8.523438 48.589844 C 5.75 48.589844 3.496094 50.839844 3.496094 53.617188 C 3.496094 56.394531 5.75 58.644531 8.523438 58.644531 C 11.300781 58.644531 13.550781 56.394531 13.550781 53.617188 Z M 13.550781 53.617188 "/>
<path fill-rule="nonzero" fill="rgb(14.99939%, 14.99939%, 14.99939%)" fill-opacity="1" d="M 27.792969 53.617188 C 27.792969 50.839844 25.542969 48.589844 22.765625 48.589844 C 19.992188 48.589844 17.742188 50.839844 17.742188 53.617188 C 17.742188 56.394531 19.992188 58.644531 22.765625 58.644531 C 25.542969 58.644531 27.792969 56.394531 27.792969 53.617188 Z M 27.792969 53.617188 "/>
</svg>
