<?xml version="1.0" encoding="UTF-8"?>
<svg xmlns="http://www.w3.org/2000/svg" xmlns:xlink="http://www.w3.org/1999/xlink" width="54.426" height="64.347" viewBox="0 0 54.426 64.347">
<defs>
<clipPath id="clip-0">
<path clip-rule="nonzero" d="M 0 0.0117188 L 53.859375 0.0117188 L 53.859375 63.6875 L 0 63.6875 Z M 0 0.0117188 "/>
</clipPath>
<clipPath id="clip-1">
<path clip-rule="nonzero" d="M 37 29 L 53.859375 29 L 53.859375 37 L 37 37 Z M 37 29 "/>
</clipPath>
<clipPath id="clip-2">
<path clip-rule="nonzero" d="M 25 0.0117188 L 31 0.0117188 L 31 12 L 25 12 Z M 25 0.0117188 "/>
</clipPath>
<clipPath id="clip-3">
<path clip-rule="nonzero" d="M 30 57 L 33 57 L 33 63.6875 L 30 63.6875 Z M 30 57 "/>
</clipPath>
<clipPath id="clip-4">
<path clip-rule="nonzero" d="M 21 57 L 23 57 L 23 63.6875 L 21 63.6875 Z M 21 57 "/>
</clipPath>
</defs>
<g clip-path="url(#clip-0)">
<path fill-rule="nonzero" fill="rgb(89.99939%, 89.99939%, 89.99939%)" fill-opacity="1" d="M 0 63.6875 L 53.859375 63.6875 L 53.859375 0.0117188 L 0 0.0117188 Z M 0 63.6875 "/>
</g>
<path fill-rule="nonzero" fill="rgb(93.699646%, 72.839355%, 19.448853%)" fill-opacity="1" d="M 46.476562 46.910156 C 47.597656 46.386719 46.917969 42.546875 44.953125 38.335938 C 42.988281 34.125 40.484375 31.132812 39.363281 31.65625 C 38.238281 32.179688 38.921875 36.019531 40.882812 40.234375 C 42.847656 44.445312 45.351562 47.433594 46.476562 46.910156 Z M 46.476562 46.910156 "/>
<path fill-rule="nonzero" fill="rgb(93.699646%, 72.839355%, 19.448853%)" fill-opacity="1" d="M 51.035156 41.65625 C 51.882812 40.75 49.8125 37.445312 46.410156 34.277344 C 43.011719 31.105469 39.570312 29.273438 38.726562 30.179688 C 37.882812 31.085938 39.953125 34.390625 43.351562 37.558594 C 46.75 40.730469 50.191406 42.5625 51.035156 41.65625 Z M 51.035156 41.65625 "/>
<g clip-path="url(#clip-1)">
<path fill-rule="nonzero" fill="rgb(93.699646%, 72.839355%, 19.448853%)" fill-opacity="1" d="M 53.445312 35.433594 C 53.828125 34.253906 50.554688 32.132812 46.136719 30.699219 C 41.714844 29.261719 37.820312 29.054688 37.4375 30.230469 C 37.054688 31.410156 40.328125 33.53125 44.75 34.96875 C 49.167969 36.402344 53.0625 36.613281 53.445312 35.433594 Z M 53.445312 35.433594 "/>
</g>
<path fill-rule="nonzero" fill="rgb(93.699646%, 72.839355%, 19.448853%)" fill-opacity="1" d="M 14.496094 31.65625 C 13.371094 31.132812 10.871094 34.125 8.90625 38.335938 C 6.941406 42.546875 6.261719 46.386719 7.382812 46.910156 C 8.507812 47.433594 11.007812 44.445312 12.972656 40.234375 C 14.9375 36.019531 15.621094 32.179688 14.496094 31.65625 Z M 14.496094 31.65625 "/>
<path fill-rule="nonzero" fill="rgb(93.699646%, 72.839355%, 19.448853%)" fill-opacity="1" d="M 15.132812 30.179688 C 14.285156 29.273438 10.84375 31.105469 7.445312 34.277344 C 4.046875 37.445312 1.976562 40.75 2.820312 41.65625 C 3.667969 42.5625 7.109375 40.730469 10.507812 37.558594 C 13.90625 34.390625 15.976562 31.085938 15.132812 30.179688 Z M 15.132812 30.179688 "/>
<path fill-rule="nonzero" fill="rgb(93.699646%, 72.839355%, 19.448853%)" fill-opacity="1" d="M 16.417969 30.230469 C 16.035156 29.054688 12.140625 29.261719 7.722656 30.699219 C 3.300781 32.132812 0.0273438 34.253906 0.410156 35.433594 C 0.792969 36.613281 4.6875 36.402344 9.109375 34.96875 C 13.527344 33.53125 16.800781 31.410156 16.417969 30.230469 Z M 16.417969 30.230469 "/>
<path fill-rule="nonzero" fill="rgb(93.699646%, 85.998535%, 66.299438%)" fill-opacity="1" d="M 26.929688 56.675781 C 10.097656 56.675781 11.5 47.699219 11.5 40.6875 C 11.5 35.078125 13.464844 32.269531 15.988281 26.660156 C 17.953125 21.613281 17.953125 7.304688 26.929688 7.304688 C 35.90625 7.304688 35.90625 21.613281 37.867188 26.660156 C 40.394531 32.269531 42.355469 35.078125 42.355469 40.6875 C 42.355469 47.699219 43.757812 56.675781 26.929688 56.675781 Z M 26.929688 56.675781 "/>
<path fill-rule="nonzero" fill="rgb(93.699646%, 72.839355%, 19.448853%)" fill-opacity="1" d="M 15.988281 26.660156 C 17.953125 21.613281 17.953125 7.304688 26.929688 7.304688 C 35.90625 7.304688 35.90625 21.613281 37.867188 26.660156 C 37.21875 27.039062 37.632812 28.503906 36.980469 28.882812 C 36.488281 29.113281 35.757812 28.65625 34.992188 28.175781 C 34.230469 27.699219 33.5 27.242188 33.003906 27.472656 C 32.484375 27.632812 32.246094 28.460938 32 29.328125 C 31.753906 30.195312 31.515625 31.023438 30.996094 31.183594 C 30.460938 31.265625 29.882812 30.628906 29.28125 29.957031 C 28.675781 29.289062 28.097656 28.648438 27.5625 28.734375 C 27.019531 28.746094 26.5625 29.476562 26.085938 30.242188 C 25.609375 31.007812 25.15625 31.738281 24.613281 31.746094 C 24.070312 31.683594 23.691406 30.910156 23.296875 30.101562 C 22.902344 29.289062 22.519531 28.515625 21.980469 28.453125 C 21.453125 28.3125 20.816406 28.890625 20.148438 29.496094 C 19.480469 30.101562 18.84375 30.679688 18.316406 30.539062 C 17.417969 28.933594 17.644531 27.421875 16.953125 27.132812 L 16.269531 26.660156 Z M 15.988281 26.660156 "/>
<g clip-path="url(#clip-2)">
<path fill-rule="nonzero" fill="rgb(100%, 0%, 0%)" fill-opacity="1" d="M 30.160156 0.328125 C 29.289062 0.0117188 27.636719 2.347656 26.46875 5.550781 C 25.304688 8.753906 25.066406 11.609375 25.941406 11.925781 C 26.8125 12.246094 28.464844 9.90625 29.632812 6.703125 C 30.796875 3.5 31.035156 0.648438 30.160156 0.328125 Z M 30.160156 0.328125 "/>
</g>
<path fill-rule="nonzero" fill="rgb(100%, 0%, 0%)" fill-opacity="1" d="M 25.921875 2.398438 C 24.992188 2.433594 24.3125 4.59375 24.40625 7.222656 C 24.496094 9.855469 25.324219 11.964844 26.253906 11.929688 C 27.183594 11.898438 27.863281 9.738281 27.769531 7.105469 C 27.675781 4.476562 26.851562 2.367188 25.921875 2.398438 Z M 25.921875 2.398438 "/>
<path fill-rule="nonzero" fill="rgb(100%, 0%, 0%)" fill-opacity="1" d="M 22.523438 4.503906 C 21.71875 4.96875 22.007812 6.976562 23.171875 8.988281 C 24.332031 11 25.925781 12.257812 26.734375 11.792969 C 27.539062 11.328125 27.25 9.320312 26.085938 7.304688 C 24.925781 5.292969 23.328125 4.039062 22.523438 4.503906 Z M 22.523438 4.503906 "/>
<path fill-rule="nonzero" fill="rgb(94.999695%, 94.999695%, 94.999695%)" fill-opacity="1" d="M 32.398438 15.441406 C 32.398438 14.355469 31.644531 13.476562 30.714844 13.476562 C 29.785156 13.476562 29.03125 14.355469 29.03125 15.441406 C 29.03125 16.523438 29.785156 17.40625 30.714844 17.40625 C 31.644531 17.40625 32.398438 16.523438 32.398438 15.441406 Z M 32.398438 15.441406 "/>
<path fill-rule="nonzero" fill="rgb(94.999695%, 94.999695%, 94.999695%)" fill-opacity="1" d="M 24.824219 15.441406 C 24.824219 14.355469 24.070312 13.476562 23.140625 13.476562 C 22.210938 13.476562 21.460938 14.355469 21.460938 15.441406 C 21.460938 16.523438 22.210938 17.40625 23.140625 17.40625 C 24.070312 17.40625 24.824219 16.523438 24.824219 15.441406 Z M 24.824219 15.441406 "/>
<path fill-rule="nonzero" fill="rgb(22.499084%, 14.99939%, 7.499695%)" fill-opacity="1" d="M 30.882812 16 C 30.882812 15.582031 30.671875 15.246094 30.40625 15.246094 C 30.144531 15.246094 29.929688 15.582031 29.929688 16 C 29.929688 16.421875 30.144531 16.757812 30.40625 16.757812 C 30.671875 16.757812 30.882812 16.421875 30.882812 16 Z M 30.882812 16 "/>
<path fill-rule="nonzero" fill="rgb(22.499084%, 14.99939%, 7.499695%)" fill-opacity="1" d="M 23.925781 16 C 23.925781 15.582031 23.714844 15.246094 23.449219 15.246094 C 23.1875 15.246094 22.972656 15.582031 22.972656 16 C 22.972656 16.421875 23.1875 16.757812 23.449219 16.757812 C 23.714844 16.757812 23.925781 16.421875 23.925781 16 Z M 23.925781 16 "/>
<path fill-rule="nonzero" fill="rgb(100%, 0%, 0%)" fill-opacity="1" d="M 26.863281 22.277344 C 27.285156 21.109375 27.15625 19.996094 26.574219 19.785156 C 25.992188 19.570312 25.175781 20.34375 24.753906 21.507812 C 24.328125 22.671875 24.457031 23.789062 25.039062 24 C 25.621094 24.214844 26.4375 23.441406 26.863281 22.277344 Z M 26.863281 22.277344 "/>
<path fill-rule="nonzero" fill="rgb(100%, 0%, 0%)" fill-opacity="1" d="M 29.105469 21.507812 C 28.679688 20.34375 27.867188 19.570312 27.285156 19.785156 C 26.699219 19.996094 26.574219 21.109375 26.996094 22.277344 C 27.421875 23.441406 28.234375 24.214844 28.820312 24 C 29.402344 23.789062 29.527344 22.671875 29.105469 21.507812 Z M 29.105469 21.507812 "/>
<path fill-rule="nonzero" fill="rgb(100%, 94.898987%, 0%)" fill-opacity="1" d="M 24.40625 18.246094 L 26.929688 21.613281 L 29.453125 18.246094 C 27.992188 17.019531 25.863281 17.019531 24.40625 18.246094 Z M 24.40625 18.246094 "/>
<path fill-rule="nonzero" fill="rgb(100%, 54.998779%, 0%)" fill-opacity="1" d="M 33.101562 57.515625 C 33.101562 55.96875 32.722656 54.710938 32.257812 54.710938 C 31.792969 54.710938 31.417969 55.96875 31.417969 57.515625 C 31.417969 59.066406 31.792969 60.324219 32.257812 60.324219 C 32.722656 60.324219 33.101562 59.066406 33.101562 57.515625 Z M 33.101562 57.515625 "/>
<path fill-rule="nonzero" fill="rgb(100%, 54.998779%, 0%)" fill-opacity="1" d="M 22.441406 57.515625 C 22.441406 55.96875 22.0625 54.710938 21.597656 54.710938 C 21.132812 54.710938 20.757812 55.96875 20.757812 57.515625 C 20.757812 59.066406 21.132812 60.324219 21.597656 60.324219 C 22.0625 60.324219 22.441406 59.066406 22.441406 57.515625 Z M 22.441406 57.515625 "/>
<g clip-path="url(#clip-3)">
<path fill-rule="nonzero" fill="rgb(100%, 54.998779%, 0%)" fill-opacity="1" d="M 32.679688 60.324219 C 32.679688 58.773438 32.304688 57.515625 31.839844 57.515625 C 31.375 57.515625 30.996094 58.773438 30.996094 60.324219 C 30.996094 61.871094 31.375 63.128906 31.839844 63.128906 C 32.304688 63.128906 32.679688 61.871094 32.679688 60.324219 Z M 32.679688 60.324219 "/>
</g>
<path fill-rule="nonzero" fill="rgb(100%, 54.998779%, 0%)" fill-opacity="1" d="M 34.03125 59.753906 C 33.5 58.296875 32.71875 57.246094 32.28125 57.40625 C 31.84375 57.5625 31.921875 58.875 32.449219 60.328125 C 32.980469 61.785156 33.761719 62.835938 34.199219 62.675781 C 34.636719 62.519531 34.5625 61.210938 34.03125 59.753906 Z M 34.03125 59.753906 "/>
<path fill-rule="nonzero" fill="rgb(100%, 54.998779%, 0%)" fill-opacity="1" d="M 35.289062 58.941406 C 34.292969 57.753906 33.195312 57.035156 32.839844 57.332031 C 32.484375 57.628906 33.003906 58.835938 34 60.023438 C 34.992188 61.207031 36.089844 61.929688 36.445312 61.628906 C 36.800781 61.332031 36.285156 60.125 35.289062 58.941406 Z M 35.289062 58.941406 "/>
<g clip-path="url(#clip-4)">
<path fill-rule="nonzero" fill="rgb(100%, 54.998779%, 0%)" fill-opacity="1" d="M 22.863281 60.324219 C 22.863281 58.773438 22.484375 57.515625 22.019531 57.515625 C 21.554688 57.515625 21.179688 58.773438 21.179688 60.324219 C 21.179688 61.871094 21.554688 63.128906 22.019531 63.128906 C 22.484375 63.128906 22.863281 61.871094 22.863281 60.324219 Z M 22.863281 60.324219 "/>
</g>
<path fill-rule="nonzero" fill="rgb(100%, 54.998779%, 0%)" fill-opacity="1" d="M 21.40625 60.328125 C 21.9375 58.875 22.011719 57.5625 21.578125 57.40625 C 21.140625 57.246094 20.355469 58.296875 19.828125 59.753906 C 19.296875 61.210938 19.222656 62.519531 19.65625 62.675781 C 20.09375 62.835938 20.878906 61.785156 21.40625 60.328125 Z M 21.40625 60.328125 "/>
<path fill-rule="nonzero" fill="rgb(100%, 54.998779%, 0%)" fill-opacity="1" d="M 19.859375 60.023438 C 20.855469 58.835938 21.375 57.628906 21.019531 57.332031 C 20.664062 57.035156 19.566406 57.753906 18.570312 58.941406 C 17.574219 60.125 17.054688 61.332031 17.410156 61.628906 C 17.769531 61.929688 18.863281 61.207031 19.859375 60.023438 Z M 19.859375 60.023438 "/>
</svg>
