<?xml version="1.0" encoding="UTF-8"?>
<svg xmlns="http://www.w3.org/2000/svg" xmlns:xlink="http://www.w3.org/1999/xlink" width="73.726" height="62.362" viewBox="0 0 73.726 62.362">
<defs>
<clipPath id="clip-0">
<path clip-rule="nonzero" d="M 0.238281 0 L 73.21875 0 L 73.21875 61.730469 L 0.238281 61.730469 Z M 0.238281 0 "/>
</clipPath>
<clipPath id="clip-1">
<path clip-rule="nonzero" d="M 24 56 L 38 56 L 38 61.730469 L 24 61.730469 Z M 24 56 "/>
</clipPath>
<clipPath id="clip-2">
<path clip-rule="nonzero" d="M 10 56 L 24 56 L 24 61.730469 L 10 61.730469 Z M 10 56 "/>
</clipPath>
<clipPath id="clip-3">
<path clip-rule="nonzero" d="M 40 28 L 52 28 L 52 37 L 40 37 Z M 40 28 "/>
</clipPath>
<clipPath id="clip-4">
<path clip-rule="nonzero" d="M 31.789062 48.835938 C 41.714844 41.175781 44.296875 22.058594 53.28125 17.847656 C 60.863281 14.476562 73.21875 26.550781 67.601562 26.832031 C 49.632812 7.175781 48.058594 47.007812 37.839844 53.785156 C 32.824219 57.113281 18.859375 61.402344 19.855469 55.429688 C 20.773438 49.972656 25.234375 53.898438 31.789062 48.835938 Z M 31.789062 48.835938 "/>
</clipPath>
<clipPath id="clip-5">
<path clip-rule="nonzero" d="M 43 22 L 55 22 L 55 31 L 43 31 Z M 43 22 "/>
</clipPath>
<clipPath id="clip-6">
<path clip-rule="nonzero" d="M 31.789062 48.835938 C 41.714844 41.175781 44.296875 22.058594 53.28125 17.847656 C 60.863281 14.476562 73.21875 26.550781 67.601562 26.832031 C 49.632812 7.175781 48.058594 47.007812 37.839844 53.785156 C 32.824219 57.113281 18.859375 61.402344 19.855469 55.429688 C 20.773438 49.972656 25.234375 53.898438 31.789062 48.835938 Z M 31.789062 48.835938 "/>
</clipPath>
<clipPath id="clip-7">
<path clip-rule="nonzero" d="M 47 17 L 57 17 L 57 28 L 47 28 Z M 47 17 "/>
</clipPath>
<clipPath id="clip-8">
<path clip-rule="nonzero" d="M 31.789062 48.835938 C 41.714844 41.175781 44.296875 22.058594 53.28125 17.847656 C 60.863281 14.476562 73.21875 26.550781 67.601562 26.832031 C 49.632812 7.175781 48.058594 47.007812 37.839844 53.785156 C 32.824219 57.113281 18.859375 61.402344 19.855469 55.429688 C 20.773438 49.972656 25.234375 53.898438 31.789062 48.835938 Z M 31.789062 48.835938 "/>
</clipPath>
<clipPath id="clip-9">
<path clip-rule="nonzero" d="M 55 17 L 60 17 L 60 26 L 55 26 Z M 55 17 "/>
</clipPath>
<clipPath id="clip-10">
<path clip-rule="nonzero" d="M 31.789062 48.835938 C 41.714844 41.175781 44.296875 22.058594 53.28125 17.847656 C 60.863281 14.476562 73.21875 26.550781 67.601562 26.832031 C 49.632812 7.175781 48.058594 47.007812 37.839844 53.785156 C 32.824219 57.113281 18.859375 61.402344 19.855469 55.429688 C 20.773438 49.972656 25.234375 53.898438 31.789062 48.835938 Z M 31.789062 48.835938 "/>
</clipPath>
<clipPath id="clip-11">
<path clip-rule="nonzero" d="M 61 17 L 70 17 L 70 28 L 61 28 Z M 61 17 "/>
</clipPath>
<clipPath id="clip-12">
<path clip-rule="nonzero" d="M 31.789062 48.835938 C 41.714844 41.175781 44.296875 22.058594 53.28125 17.847656 C 60.863281 14.476562 73.21875 26.550781 67.601562 26.832031 C 49.632812 7.175781 48.058594 47.007812 37.839844 53.785156 C 32.824219 57.113281 18.859375 61.402344 19.855469 55.429688 C 20.773438 49.972656 25.234375 53.898438 31.789062 48.835938 Z M 31.789062 48.835938 "/>
</clipPath>
<clipPath id="clip-13">
<path clip-rule="nonzero" d="M 33 42 L 45 42 L 45 51 L 33 51 Z M 33 42 "/>
</clipPath>
<clipPath id="clip-14">
<path clip-rule="nonzero" d="M 31.789062 48.835938 C 41.714844 41.175781 44.296875 22.058594 53.28125 17.847656 C 60.863281 14.476562 73.21875 26.550781 67.601562 26.832031 C 49.632812 7.175781 48.058594 47.007812 37.839844 53.785156 C 32.824219 57.113281 18.859375 61.402344 19.855469 55.429688 C 20.773438 49.972656 25.234375 53.898438 31.789062 48.835938 Z M 31.789062 48.835938 "/>
</clipPath>
<clipPath id="clip-15">
<path clip-rule="nonzero" d="M 36 35 L 48 35 L 48 44 L 36 44 Z M 36 35 "/>
</clipPath>
<clipPath id="clip-16">
<path clip-rule="nonzero" d="M 31.789062 48.835938 C 41.714844 41.175781 44.296875 22.058594 53.28125 17.847656 C 60.863281 14.476562 73.21875 26.550781 67.601562 26.832031 C 49.632812 7.175781 48.058594 47.007812 37.839844 53.785156 C 32.824219 57.113281 18.859375 61.402344 19.855469 55.429688 C 20.773438 49.972656 25.234375 53.898438 31.789062 48.835938 Z M 31.789062 48.835938 "/>
</clipPath>
<clipPath id="clip-17">
<path clip-rule="nonzero" d="M 28 47 L 39 47 L 39 57 L 28 57 Z M 28 47 "/>
</clipPath>
<clipPath id="clip-18">
<path clip-rule="nonzero" d="M 31.789062 48.835938 C 41.714844 41.175781 44.296875 22.058594 53.28125 17.847656 C 60.863281 14.476562 73.21875 26.550781 67.601562 26.832031 C 49.632812 7.175781 48.058594 47.007812 37.839844 53.785156 C 32.824219 57.113281 18.859375 61.402344 19.855469 55.429688 C 20.773438 49.972656 25.234375 53.898438 31.789062 48.835938 Z M 31.789062 48.835938 "/>
</clipPath>
<clipPath id="clip-19">
<path clip-rule="nonzero" d="M 21 50 L 30 50 L 30 59 L 21 59 Z M 21 50 "/>
</clipPath>
<clipPath id="clip-20">
<path clip-rule="nonzero" d="M 31.789062 48.835938 C 41.714844 41.175781 44.296875 22.058594 53.28125 17.847656 C 60.863281 14.476562 73.21875 26.550781 67.601562 26.832031 C 49.632812 7.175781 48.058594 47.007812 37.839844 53.785156 C 32.824219 57.113281 18.859375 61.402344 19.855469 55.429688 C 20.773438 49.972656 25.234375 53.898438 31.789062 48.835938 Z M 31.789062 48.835938 "/>
</clipPath>
<clipPath id="clip-21">
<path clip-rule="nonzero" d="M 0.238281 25 L 12 25 L 12 48 L 0.238281 48 Z M 0.238281 25 "/>
</clipPath>
</defs>
<g clip-path="url(#clip-0)">
<path fill-rule="nonzero" fill="rgb(89.99939%, 89.99939%, 89.99939%)" fill-opacity="1" d="M 0.238281 61.730469 L 73.21875 61.730469 L 73.21875 0 L 0.238281 0 Z M 0.238281 61.730469 "/>
</g>
<g clip-path="url(#clip-1)">
<path fill-rule="nonzero" fill="rgb(61.199951%, 51.499939%, 39.399719%)" fill-opacity="1" d="M 37.417969 58.925781 C 37.417969 57.53125 34.527344 56.398438 30.964844 56.398438 C 27.398438 56.398438 24.507812 57.53125 24.507812 58.925781 C 24.507812 60.320312 27.398438 61.449219 30.964844 61.449219 C 34.527344 61.449219 37.417969 60.320312 37.417969 58.925781 Z M 37.417969 58.925781 "/>
</g>
<g clip-path="url(#clip-2)">
<path fill-rule="nonzero" fill="rgb(61.199951%, 51.499939%, 39.399719%)" fill-opacity="1" d="M 23.105469 58.925781 C 23.105469 57.53125 20.214844 56.398438 16.652344 56.398438 C 13.089844 56.398438 10.199219 57.53125 10.199219 58.925781 C 10.199219 60.320312 13.089844 61.449219 16.652344 61.449219 C 20.214844 61.449219 23.105469 60.320312 23.105469 58.925781 Z M 23.105469 58.925781 "/>
</g>
<path fill-rule="nonzero" fill="rgb(38.249207%, 32.18689%, 24.624634%)" fill-opacity="1" d="M 31.789062 48.835938 C 41.714844 41.175781 44.296875 22.058594 53.28125 17.847656 C 60.863281 14.476562 73.21875 26.550781 67.601562 26.832031 C 49.632812 7.175781 48.058594 47.007812 37.839844 53.785156 C 32.824219 57.113281 18.859375 61.402344 19.855469 55.429688 C 20.773438 49.972656 25.234375 53.898438 31.789062 48.835938 Z M 31.789062 48.835938 "/>
<g clip-path="url(#clip-3)">
<g clip-path="url(#clip-4)">
<path fill-rule="nonzero" fill="rgb(79.264832%, 71.583557%, 62.615967%)" fill-opacity="1" d="M 40.695312 30.675781 L 42.097656 28.246094 L 51.816406 33.859375 L 50.414062 36.289062 Z M 40.695312 30.675781 "/>
</g>
</g>
<g clip-path="url(#clip-5)">
<g clip-path="url(#clip-6)">
<path fill-rule="nonzero" fill="rgb(79.264832%, 71.583557%, 62.615967%)" fill-opacity="1" d="M 43.5 25.066406 L 44.902344 22.636719 L 54.621094 28.246094 L 53.21875 30.675781 Z M 43.5 25.066406 "/>
</g>
</g>
<g clip-path="url(#clip-7)">
<g clip-path="url(#clip-8)">
<path fill-rule="nonzero" fill="rgb(79.264832%, 71.583557%, 62.615967%)" fill-opacity="1" d="M 47.183594 19.050781 L 49.335938 17.246094 L 56.550781 25.84375 L 54.398438 27.648438 Z M 47.183594 19.050781 "/>
</g>
</g>
<g clip-path="url(#clip-9)">
<g clip-path="url(#clip-10)">
<path fill-rule="nonzero" fill="rgb(79.264832%, 71.583557%, 62.615967%)" fill-opacity="1" d="M 55.121094 14.359375 L 57.886719 13.871094 L 59.835938 24.925781 L 57.070312 25.410156 Z M 55.121094 14.359375 "/>
</g>
</g>
<g clip-path="url(#clip-11)">
<g clip-path="url(#clip-12)">
<path fill-rule="nonzero" fill="rgb(79.264832%, 71.583557%, 62.615967%)" fill-opacity="1" d="M 68.429688 17.246094 L 70.578125 19.050781 L 63.363281 27.648438 L 61.214844 25.84375 Z M 68.429688 17.246094 "/>
</g>
</g>
<g clip-path="url(#clip-13)">
<g clip-path="url(#clip-14)">
<path fill-rule="nonzero" fill="rgb(79.264832%, 71.583557%, 62.615967%)" fill-opacity="1" d="M 33.679688 44.707031 L 35.082031 42.277344 L 44.800781 47.886719 L 43.398438 50.320312 Z M 33.679688 44.707031 "/>
</g>
</g>
<g clip-path="url(#clip-15)">
<g clip-path="url(#clip-16)">
<path fill-rule="nonzero" fill="rgb(79.264832%, 71.583557%, 62.615967%)" fill-opacity="1" d="M 36.484375 37.691406 L 37.886719 35.261719 L 47.609375 40.875 L 46.203125 43.304688 Z M 36.484375 37.691406 "/>
</g>
</g>
<g clip-path="url(#clip-17)">
<g clip-path="url(#clip-18)">
<path fill-rule="nonzero" fill="rgb(79.264832%, 71.583557%, 62.615967%)" fill-opacity="1" d="M 28.425781 49.378906 L 30.230469 47.226562 L 38.828125 54.441406 L 37.023438 56.589844 Z M 28.425781 49.378906 "/>
</g>
</g>
<g clip-path="url(#clip-19)">
<g clip-path="url(#clip-20)">
<path fill-rule="nonzero" fill="rgb(79.264832%, 71.583557%, 62.615967%)" fill-opacity="1" d="M 21.191406 51.960938 L 23.621094 50.558594 L 29.230469 60.277344 L 26.800781 61.679688 Z M 21.191406 51.960938 "/>
</g>
</g>
<g clip-path="url(#clip-21)">
<path fill-rule="nonzero" fill="rgb(61.199951%, 51.499939%, 39.399719%)" fill-opacity="1" d="M 10.300781 25.402344 C 8.40625 24.714844 5.070312 29.113281 2.84375 35.230469 C 0.617188 41.34375 0.347656 46.863281 2.238281 47.550781 C 4.132812 48.242188 7.472656 43.839844 9.699219 37.726562 C 11.925781 31.609375 12.195312 26.089844 10.300781 25.402344 Z M 10.300781 25.402344 "/>
</g>
<path fill-rule="nonzero" fill="rgb(61.199951%, 51.499939%, 39.399719%)" fill-opacity="1" d="M 45.375 47.550781 C 47.269531 46.863281 47 41.34375 44.773438 35.230469 C 42.546875 29.113281 39.207031 24.714844 37.3125 25.402344 C 35.421875 26.089844 35.691406 31.609375 37.917969 37.726562 C 40.144531 43.839844 43.484375 48.242188 45.375 47.550781 Z M 45.375 47.550781 "/>
<path fill-rule="nonzero" fill="rgb(38.249207%, 32.18689%, 24.624634%)" fill-opacity="1" d="M 40.503906 38.722656 C 40.503906 57.242188 33.769531 59.484375 23.808594 59.484375 C 13.847656 59.484375 7.113281 57.242188 7.113281 38.722656 C 6.832031 20.203125 14.40625 5.332031 23.808594 5.332031 C 33.207031 5.332031 40.785156 20.203125 40.503906 38.722656 Z M 40.503906 38.722656 "/>
<path fill-rule="nonzero" fill="rgb(79.264832%, 71.583557%, 62.615967%)" fill-opacity="1" d="M 37.835938 14.027344 C 37.835938 20.203125 29.417969 29.460938 23.808594 31.988281 C 18.195312 29.460938 9.777344 20.203125 9.777344 14.027344 C 14.265625 0 33.347656 0 37.835938 14.027344 Z M 37.835938 14.027344 "/>
<path fill-rule="nonzero" fill="rgb(61.199951%, 51.499939%, 39.399719%)" fill-opacity="1" d="M 9.960938 15.59375 C 9.960938 15.59375 18.429688 14.597656 19.960938 15.902344 C 21.84375 30.863281 21.84375 30.863281 21.84375 30.863281 C 16.539062 27.585938 10.898438 20.582031 9.960938 15.59375 Z M 37.65625 15.59375 C 37.65625 15.59375 29.1875 14.597656 27.65625 15.902344 C 25.773438 30.863281 25.773438 30.863281 25.773438 30.863281 C 31.074219 27.585938 36.714844 20.582031 37.65625 15.59375 Z M 37.65625 15.59375 "/>
<path fill-rule="nonzero" fill="rgb(25.749207%, 19.68689%, 12.124634%)" fill-opacity="1" d="M 26.332031 29.519531 C 26.332031 28.125 25.203125 26.992188 23.808594 26.992188 C 22.414062 26.992188 21.28125 28.125 21.28125 29.519531 C 21.28125 30.914062 22.414062 32.042969 23.808594 32.042969 C 25.203125 32.042969 26.332031 30.914062 26.332031 29.519531 Z M 26.332031 29.519531 "/>
<path fill-rule="nonzero" fill="rgb(25.749207%, 19.68689%, 12.124634%)" fill-opacity="1" d="M 31.664062 19.082031 C 31.664062 18.304688 31.035156 17.675781 30.261719 17.675781 C 29.484375 17.675781 28.859375 18.304688 28.859375 19.082031 C 28.859375 19.855469 29.484375 20.484375 30.261719 20.484375 C 31.035156 20.484375 31.664062 19.855469 31.664062 19.082031 Z M 31.664062 19.082031 "/>
<path fill-rule="nonzero" fill="rgb(25.749207%, 19.68689%, 12.124634%)" fill-opacity="1" d="M 18.757812 19.082031 C 18.757812 18.304688 18.128906 17.675781 17.355469 17.675781 C 16.578125 17.675781 15.949219 18.304688 15.949219 19.082031 C 15.949219 19.855469 16.578125 20.484375 17.355469 20.484375 C 18.128906 20.484375 18.757812 19.855469 18.757812 19.082031 Z M 18.757812 19.082031 "/>
<path fill-rule="nonzero" fill="rgb(79.264832%, 71.583557%, 62.615967%)" fill-opacity="1" d="M 39.519531 7.855469 C 39.519531 5.996094 38.011719 4.488281 36.152344 4.488281 C 34.292969 4.488281 32.785156 5.996094 32.785156 7.855469 C 32.785156 9.714844 34.292969 11.222656 36.152344 11.222656 C 38.011719 11.222656 39.519531 9.714844 39.519531 7.855469 Z M 39.519531 7.855469 "/>
<path fill-rule="nonzero" fill="rgb(79.264832%, 71.583557%, 62.615967%)" fill-opacity="1" d="M 14.828125 7.855469 C 14.828125 5.996094 13.320312 4.488281 11.460938 4.488281 C 9.601562 4.488281 8.09375 5.996094 8.09375 7.855469 C 8.09375 9.714844 9.601562 11.222656 11.460938 11.222656 C 13.320312 11.222656 14.828125 9.714844 14.828125 7.855469 Z M 14.828125 7.855469 "/>
<path fill-rule="nonzero" fill="rgb(61.199951%, 51.499939%, 39.399719%)" fill-opacity="1" d="M 38.679688 7.855469 C 38.679688 6.460938 37.546875 5.332031 36.152344 5.332031 C 34.757812 5.332031 33.628906 6.460938 33.628906 7.855469 C 33.628906 9.25 34.757812 10.382812 36.152344 10.382812 C 37.546875 10.382812 38.679688 9.25 38.679688 7.855469 Z M 38.679688 7.855469 "/>
<path fill-rule="nonzero" fill="rgb(61.199951%, 51.499939%, 39.399719%)" fill-opacity="1" d="M 13.988281 7.855469 C 13.988281 6.460938 12.855469 5.332031 11.460938 5.332031 C 10.066406 5.332031 8.9375 6.460938 8.9375 7.855469 C 8.9375 9.25 10.066406 10.382812 11.460938 10.382812 C 12.855469 10.382812 13.988281 9.25 13.988281 7.855469 Z M 13.988281 7.855469 "/>
</svg>
