<?xml version="1.0" encoding="UTF-8"?>
<svg xmlns="http://www.w3.org/2000/svg" xmlns:xlink="http://www.w3.org/1999/xlink" width="73.726" height="62.362" viewBox="0 0 73.726 62.362">
<defs>
<clipPath id="clip-0">
<path clip-rule="nonzero" d="M 0.238281 0 L 73.21875 0 L 73.21875 61.730469 L 0.238281 61.730469 Z M 0.238281 0 "/>
</clipPath>
<clipPath id="clip-1">
<path clip-rule="nonzero" d="M 10 56 L 24 56 L 24 61.730469 L 10 61.730469 Z M 10 56 "/>
</clipPath>
<clipPath id="clip-2">
<path clip-rule="nonzero" d="M 24 56 L 38 56 L 38 61.730469 L 24 61.730469 Z M 24 56 "/>
</clipPath>
<clipPath id="clip-3">
<path clip-rule="nonzero" d="M 0.238281 25 L 12 25 L 12 48 L 0.238281 48 Z M 0.238281 25 "/>
</clipPath>
</defs>
<g clip-path="url(#clip-0)">
<path fill-rule="nonzero" fill="rgb(89.99939%, 89.99939%, 89.99939%)" fill-opacity="1" d="M 0.238281 61.730469 L 73.21875 61.730469 L 73.21875 0 L 0.238281 0 Z M 0.238281 61.730469 "/>
</g>
<g clip-path="url(#clip-1)">
<path fill-rule="nonzero" fill="rgb(61.001587%, 51.095581%, 38.735962%)" fill-opacity="1" d="M 23.105469 58.925781 C 23.105469 57.53125 20.214844 56.398438 16.652344 56.398438 C 13.089844 56.398438 10.199219 57.53125 10.199219 58.925781 C 10.199219 60.320312 13.089844 61.449219 16.652344 61.449219 C 20.214844 61.449219 23.105469 60.320312 23.105469 58.925781 Z M 23.105469 58.925781 "/>
</g>
<g clip-path="url(#clip-2)">
<path fill-rule="nonzero" fill="rgb(61.001587%, 51.095581%, 38.735962%)" fill-opacity="1" d="M 37.417969 58.925781 C 37.417969 57.53125 34.527344 56.398438 30.964844 56.398438 C 27.398438 56.398438 24.507812 57.53125 24.507812 58.925781 C 24.507812 60.320312 27.398438 61.449219 30.964844 61.449219 C 34.527344 61.449219 37.417969 60.320312 37.417969 58.925781 Z M 37.417969 58.925781 "/>
</g>
<path fill-rule="nonzero" fill="rgb(38.249207%, 32.18689%, 24.624634%)" fill-opacity="1" d="M 31.789062 48.835938 C 41.714844 41.175781 44.296875 22.058594 53.28125 17.847656 C 60.863281 14.476562 73.21875 26.550781 67.601562 26.832031 C 49.632812 7.175781 48.058594 47.007812 37.839844 53.785156 C 32.824219 57.113281 18.859375 61.402344 19.855469 55.429688 C 20.773438 49.972656 25.234375 53.898438 31.789062 48.835938 Z M 31.789062 48.835938 "/>
<path fill-rule="nonzero" fill="rgb(79.159546%, 70.475769%, 59.762573%)" fill-opacity="1" d="M 65.335938 20.933594 L 63.480469 23.144531 C 64.183594 23.617188 64.914062 24.199219 65.671875 24.898438 L 67.402344 22.835938 C 66.832031 22.203125 66.132812 21.554688 65.335938 20.933594 Z M 65.335938 20.933594 "/>
<path fill-rule="nonzero" fill="rgb(79.159546%, 70.475769%, 59.762573%)" fill-opacity="1" d="M 57.945312 17.414062 L 57.820312 21.523438 C 58.691406 21.367188 59.621094 21.425781 60.621094 21.722656 L 60.726562 18.234375 C 59.8125 17.863281 58.875 17.574219 57.945312 17.414062 Z M 57.945312 17.414062 "/>
<path fill-rule="nonzero" fill="rgb(79.159546%, 70.475769%, 59.762573%)" fill-opacity="1" d="M 52.128906 18.503906 C 51.363281 19 50.648438 19.601562 49.972656 20.300781 L 53.398438 24.421875 C 54.046875 23.648438 54.730469 23.003906 55.460938 22.515625 Z M 52.128906 18.503906 "/>
<path fill-rule="nonzero" fill="rgb(79.159546%, 70.475769%, 59.762573%)" fill-opacity="1" d="M 47.171875 23.945312 C 46.6875 24.710938 46.222656 25.53125 45.757812 26.371094 L 50.457031 29.082031 C 50.898438 28.210938 51.355469 27.398438 51.832031 26.636719 Z M 47.171875 23.945312 "/>
<path fill-rule="nonzero" fill="rgb(79.159546%, 70.475769%, 59.762573%)" fill-opacity="1" d="M 44.160156 29.441406 C 43.75 30.265625 43.339844 31.113281 42.925781 31.96875 L 47.910156 34.84375 C 48.265625 33.960938 48.625 33.074219 48.992188 32.230469 Z M 44.160156 29.441406 "/>
<path fill-rule="nonzero" fill="rgb(79.159546%, 70.475769%, 59.762573%)" fill-opacity="1" d="M 40.566406 36.808594 C 40.140625 37.648438 39.703125 38.476562 39.253906 39.292969 L 44.855469 42.523438 C 45.207031 41.65625 45.566406 40.789062 45.914062 39.898438 Z M 40.566406 36.808594 "/>
<path fill-rule="nonzero" fill="rgb(79.159546%, 70.475769%, 59.762573%)" fill-opacity="1" d="M 36.828125 43.285156 C 36.289062 44.074219 35.726562 44.832031 35.136719 45.546875 L 41.644531 49.308594 C 42.101562 48.535156 42.539062 47.710938 42.964844 46.828125 Z M 36.828125 43.285156 "/>
<path fill-rule="nonzero" fill="rgb(79.159546%, 70.475769%, 59.762573%)" fill-opacity="1" d="M 31.890625 48.757812 C 31.859375 48.78125 31.824219 48.8125 31.789062 48.835938 C 31 49.445312 30.246094 49.917969 29.519531 50.300781 L 34.140625 55.722656 C 35.09375 55.3125 35.976562 54.878906 36.742188 54.449219 Z M 31.890625 48.757812 "/>
<path fill-rule="nonzero" fill="rgb(79.159546%, 70.475769%, 59.762573%)" fill-opacity="1" d="M 26.113281 51.550781 C 25.078125 51.789062 24.152344 51.90625 23.347656 52.050781 L 24.902344 58.332031 C 25.773438 58.246094 26.707031 58.082031 27.675781 57.863281 Z M 26.113281 51.550781 "/>
<g clip-path="url(#clip-3)">
<path fill-rule="nonzero" fill="rgb(61.001587%, 51.095581%, 38.735962%)" fill-opacity="1" d="M 10.300781 25.402344 C 8.40625 24.714844 5.070312 29.113281 2.84375 35.230469 C 0.617188 41.34375 0.347656 46.863281 2.238281 47.550781 C 4.132812 48.242188 7.472656 43.839844 9.699219 37.726562 C 11.925781 31.609375 12.195312 26.089844 10.300781 25.402344 Z M 10.300781 25.402344 "/>
</g>
<path fill-rule="nonzero" fill="rgb(61.001587%, 51.095581%, 38.735962%)" fill-opacity="1" d="M 45.375 47.550781 C 47.269531 46.863281 47 41.34375 44.773438 35.230469 C 42.546875 29.113281 39.207031 24.714844 37.3125 25.402344 C 35.421875 26.089844 35.691406 31.609375 37.917969 37.726562 C 40.144531 43.839844 43.484375 48.242188 45.375 47.550781 Z M 45.375 47.550781 "/>
<path fill-rule="nonzero" fill="rgb(38.249207%, 32.18689%, 24.624634%)" fill-opacity="1" d="M 40.503906 38.722656 C 40.503906 57.242188 33.769531 59.484375 23.808594 59.484375 C 13.847656 59.484375 7.113281 57.242188 7.113281 38.722656 C 6.832031 20.203125 14.40625 5.332031 23.808594 5.332031 C 33.207031 5.332031 40.785156 20.203125 40.503906 38.722656 Z M 40.503906 38.722656 "/>
<path fill-rule="nonzero" fill="rgb(79.159546%, 70.475769%, 59.762573%)" fill-opacity="1" d="M 37.835938 14.027344 C 37.835938 20.203125 29.417969 29.460938 23.808594 31.988281 C 18.195312 29.460938 9.777344 20.203125 9.777344 14.027344 C 14.265625 0 33.347656 0 37.835938 14.027344 Z M 37.835938 14.027344 "/>
<path fill-rule="nonzero" fill="rgb(61.001587%, 51.095581%, 38.735962%)" fill-opacity="1" d="M 9.960938 15.59375 C 9.960938 15.59375 18.429688 14.597656 19.960938 15.902344 C 21.84375 30.863281 21.84375 30.863281 21.84375 30.863281 C 16.539062 27.585938 10.898438 20.582031 9.960938 15.59375 Z M 37.65625 15.59375 C 37.65625 15.59375 29.1875 14.597656 27.65625 15.902344 C 25.773438 30.863281 25.773438 30.863281 25.773438 30.863281 C 31.074219 27.585938 36.714844 20.582031 37.65625 15.59375 Z M 37.65625 15.59375 "/>
<path fill-rule="nonzero" fill="rgb(25.62561%, 23.025513%, 19.779968%)" fill-opacity="1" d="M 26.332031 29.519531 C 26.332031 28.125 25.203125 26.992188 23.808594 26.992188 C 22.414062 26.992188 21.28125 28.125 21.28125 29.519531 C 21.28125 30.914062 22.414062 32.042969 23.808594 32.042969 C 25.203125 32.042969 26.332031 30.914062 26.332031 29.519531 Z M 26.332031 29.519531 "/>
<path fill-rule="nonzero" fill="rgb(25.62561%, 23.025513%, 19.779968%)" fill-opacity="1" d="M 31.664062 19.082031 C 31.664062 18.304688 31.035156 17.675781 30.261719 17.675781 C 29.484375 17.675781 28.859375 18.304688 28.859375 19.082031 C 28.859375 19.855469 29.484375 20.484375 30.261719 20.484375 C 31.035156 20.484375 31.664062 19.855469 31.664062 19.082031 Z M 31.664062 19.082031 "/>
<path fill-rule="nonzero" fill="rgb(25.62561%, 23.025513%, 19.779968%)" fill-opacity="1" d="M 18.757812 19.082031 C 18.757812 18.304688 18.128906 17.675781 17.355469 17.675781 C 16.578125 17.675781 15.949219 18.304688 15.949219 19.082031 C 15.949219 19.855469 16.578125 20.484375 17.355469 20.484375 C 18.128906 20.484375 18.757812 19.855469 18.757812 19.082031 Z M 18.757812 19.082031 "/>
<path fill-rule="nonzero" fill="rgb(79.159546%, 70.475769%, 59.762573%)" fill-opacity="1" d="M 39.519531 7.855469 C 39.519531 5.996094 38.011719 4.488281 36.152344 4.488281 C 34.292969 4.488281 32.785156 5.996094 32.785156 7.855469 C 32.785156 9.714844 34.292969 11.222656 36.152344 11.222656 C 38.011719 11.222656 39.519531 9.714844 39.519531 7.855469 Z M 39.519531 7.855469 "/>
<path fill-rule="nonzero" fill="rgb(79.159546%, 70.475769%, 59.762573%)" fill-opacity="1" d="M 14.828125 7.855469 C 14.828125 5.996094 13.320312 4.488281 11.460938 4.488281 C 9.601562 4.488281 8.09375 5.996094 8.09375 7.855469 C 8.09375 9.714844 9.601562 11.222656 11.460938 11.222656 C 13.320312 11.222656 14.828125 9.714844 14.828125 7.855469 Z M 14.828125 7.855469 "/>
<path fill-rule="nonzero" fill="rgb(61.001587%, 51.095581%, 38.735962%)" fill-opacity="1" d="M 38.679688 7.855469 C 38.679688 6.460938 37.546875 5.332031 36.152344 5.332031 C 34.757812 5.332031 33.628906 6.460938 33.628906 7.855469 C 33.628906 9.25 34.757812 10.382812 36.152344 10.382812 C 37.546875 10.382812 38.679688 9.25 38.679688 7.855469 Z M 38.679688 7.855469 "/>
<path fill-rule="nonzero" fill="rgb(61.001587%, 51.095581%, 38.735962%)" fill-opacity="1" d="M 13.988281 7.855469 C 13.988281 6.460938 12.855469 5.332031 11.460938 5.332031 C 10.066406 5.332031 8.9375 6.460938 8.9375 7.855469 C 8.9375 9.25 10.066406 10.382812 11.460938 10.382812 C 12.855469 10.382812 13.988281 9.25 13.988281 7.855469 Z M 13.988281 7.855469 "/>
</svg>
