<?xml version="1.0" encoding="UTF-8"?>
<svg xmlns="http://www.w3.org/2000/svg" xmlns:xlink="http://www.w3.org/1999/xlink" width="44.778" height="61.795" viewBox="0 0 44.778 61.795">
<defs>
<clipPath id="clip-0">
<path clip-rule="nonzero" d="M 0 0.0507812 L 44.558594 0.0507812 L 44.558594 61.539062 L 0 61.539062 Z M 0 0.0507812 "/>
</clipPath>
<clipPath id="clip-1">
<path clip-rule="nonzero" d="M 16 34 L 44.558594 34 L 44.558594 56 L 16 56 Z M 16 34 "/>
</clipPath>
<clipPath id="clip-2">
<path clip-rule="nonzero" d="M 3 0.0507812 L 32 0.0507812 L 32 29 L 3 29 Z M 3 0.0507812 "/>
</clipPath>
<clipPath id="clip-3">
<path clip-rule="nonzero" d="M 6 42 L 13 42 L 13 61.539062 L 6 61.539062 Z M 6 42 "/>
</clipPath>
<clipPath id="clip-4">
<path clip-rule="nonzero" d="M 22 42 L 29 42 L 29 61.539062 L 22 61.539062 Z M 22 42 "/>
</clipPath>
</defs>
<g clip-path="url(#clip-0)">
<path fill-rule="nonzero" fill="rgb(89.99939%, 89.99939%, 89.99939%)" fill-opacity="1" d="M 0 61.539062 L 44.558594 61.539062 L 44.558594 0.0507812 L 0 0.0507812 Z M 0 61.539062 "/>
</g>
<g clip-path="url(#clip-1)">
<path fill-rule="nonzero" fill="rgb(90.548706%, 78.999329%, 67.449951%)" fill-opacity="1" d="M 41.441406 44.339844 C 34.914062 57.332031 16.492188 57.40625 16.707031 50.863281 C 16.921875 44.320312 27.1875 49.875 33.84375 44.855469 C 38.082031 41.660156 42.144531 34.335938 43.515625 34.984375 C 44.886719 35.636719 43.605469 40.039062 41.441406 44.339844 Z M 41.441406 44.339844 "/>
</g>
<path fill-rule="nonzero" fill="rgb(84.249878%, 64.99939%, 45.748901%)" fill-opacity="1" d="M 32.429688 38.410156 C 32.429688 49.691406 32.429688 58.4375 17.476562 58.71875 C 2.527344 58.4375 2.527344 49.691406 2.527344 38.410156 C 2.527344 27.128906 10.707031 18.101562 17.476562 18.101562 C 24.25 18.101562 32.429688 27.128906 32.429688 38.410156 Z M 32.429688 38.410156 "/>
<g clip-path="url(#clip-2)">
<path fill-rule="nonzero" fill="rgb(90.548706%, 78.999329%, 67.449951%)" fill-opacity="1" d="M 31.863281 9.640625 C 31.863281 14.71875 23.121094 28.539062 17.476562 28.539062 C 11.835938 28.539062 3.09375 14.71875 3.09375 9.640625 C 3.09375 4.5625 9.582031 0.332031 17.476562 0.332031 C 25.375 0.332031 31.863281 4.5625 31.863281 9.640625 Z M 31.863281 9.640625 "/>
</g>
<g clip-path="url(#clip-3)">
<path fill-rule="nonzero" fill="rgb(90.548706%, 78.999329%, 67.449951%)" fill-opacity="1" d="M 12.402344 52.230469 C 12.402344 57.027344 13.246094 61.539062 9.582031 61.257812 C 5.632812 60.976562 6.476562 57.027344 6.476562 52.230469 C 6.476562 47.15625 7.886719 42.925781 9.582031 42.925781 C 11.273438 42.925781 12.402344 47.15625 12.402344 52.230469 Z M 12.402344 52.230469 "/>
</g>
<g clip-path="url(#clip-4)">
<path fill-rule="nonzero" fill="rgb(90.548706%, 78.999329%, 67.449951%)" fill-opacity="1" d="M 22.554688 52.230469 C 22.554688 57.027344 21.710938 61.539062 25.375 61.257812 C 29.324219 60.976562 28.480469 57.027344 28.480469 52.230469 C 28.480469 47.15625 27.070312 42.925781 25.375 42.925781 C 23.683594 42.925781 22.554688 47.15625 22.554688 52.230469 Z M 22.554688 52.230469 "/>
</g>
<path fill-rule="nonzero" fill="rgb(19.999695%, 19.999695%, 19.999695%)" fill-opacity="1" d="M 13.53125 14.71875 C 13.53125 14.09375 13.023438 13.589844 12.402344 13.589844 C 11.777344 13.589844 11.273438 14.09375 11.273438 14.71875 C 11.273438 15.339844 11.777344 15.84375 12.402344 15.84375 C 13.023438 15.84375 13.53125 15.339844 13.53125 14.71875 Z M 13.53125 14.71875 "/>
<path fill-rule="nonzero" fill="rgb(19.999695%, 19.999695%, 19.999695%)" fill-opacity="1" d="M 23.683594 14.71875 C 23.683594 14.09375 23.179688 13.589844 22.554688 13.589844 C 21.933594 13.589844 21.425781 14.09375 21.425781 14.71875 C 21.425781 15.339844 21.933594 15.84375 22.554688 15.84375 C 23.179688 15.84375 23.683594 15.339844 23.683594 14.71875 Z M 23.683594 14.71875 "/>
<path fill-rule="nonzero" fill="rgb(19.999695%, 19.999695%, 19.999695%)" fill-opacity="1" d="M 20.015625 21.203125 C 20.015625 22.050781 18.890625 23.742188 17.476562 23.742188 C 16.066406 23.742188 14.941406 22.050781 14.941406 21.203125 C 14.941406 20.359375 16.066406 19.511719 17.476562 19.511719 C 18.890625 19.511719 20.015625 20.359375 20.015625 21.203125 Z M 20.015625 21.203125 "/>
<path fill-rule="nonzero" fill="rgb(84.249878%, 64.99939%, 45.748901%)" fill-opacity="1" d="M 8.859375 13.304688 C 9.941406 7.167969 9.078125 1.886719 6.929688 1.507812 C 4.78125 1.128906 2.164062 5.796875 1.082031 11.933594 C 0 18.070312 0.863281 23.351562 3.011719 23.730469 C 5.160156 24.109375 7.777344 19.441406 8.859375 13.304688 Z M 8.859375 13.304688 "/>
<path fill-rule="nonzero" fill="rgb(84.249878%, 64.99939%, 45.748901%)" fill-opacity="1" d="M 33.875 11.933594 C 32.792969 5.796875 30.175781 1.128906 28.027344 1.507812 C 25.878906 1.886719 25.015625 7.167969 26.097656 13.304688 C 27.179688 19.441406 29.796875 24.109375 31.945312 23.730469 C 34.09375 23.351562 34.957031 18.070312 33.875 11.933594 Z M 33.875 11.933594 "/>
</svg>
