<?xml version="1.0" encoding="UTF-8"?>
<svg xmlns="http://www.w3.org/2000/svg" xmlns:xlink="http://www.w3.org/1999/xlink" width="48.756" height="61.512" viewBox="0 0 48.756 61.512">
<defs>
<clipPath id="clip-0">
<path clip-rule="nonzero" d="M 0.0703125 0 L 48.441406 0 L 48.441406 61.027344 L 0.0703125 61.027344 Z M 0.0703125 0 "/>
</clipPath>
<clipPath id="clip-1">
<path clip-rule="nonzero" d="M 28 0 L 48.441406 0 L 48.441406 26 L 28 26 Z M 28 0 "/>
</clipPath>
<clipPath id="clip-2">
<path clip-rule="nonzero" d="M 0.0703125 0 L 21 0 L 21 26 L 0.0703125 26 Z M 0.0703125 0 "/>
</clipPath>
<clipPath id="clip-3">
<path clip-rule="nonzero" d="M 11 12 L 48.441406 12 L 48.441406 43 L 11 43 Z M 11 12 "/>
</clipPath>
</defs>
<g clip-path="url(#clip-0)">
<path fill-rule="nonzero" fill="rgb(89.99939%, 89.99939%, 89.99939%)" fill-opacity="1" d="M 0.0703125 61.027344 L 48.441406 61.027344 L 48.441406 0 L 0.0703125 0 Z M 0.0703125 61.027344 "/>
</g>
<path fill-rule="nonzero" fill="rgb(50%, 50%, 50%)" fill-opacity="1" d="M 43.800781 44.382812 C 46.777344 41.886719 46.355469 36.488281 42.859375 32.320312 C 39.367188 28.15625 34.121094 26.804688 31.148438 29.300781 C 28.171875 31.796875 28.59375 37.195312 32.089844 41.359375 C 35.582031 45.523438 40.828125 46.878906 43.800781 44.382812 Z M 43.800781 44.382812 "/>
<path fill-rule="nonzero" fill="rgb(50%, 50%, 50%)" fill-opacity="1" d="M 17.367188 29.300781 C 14.390625 26.804688 9.148438 28.15625 5.652344 32.320312 C 2.160156 36.488281 1.738281 41.886719 4.710938 44.382812 C 7.6875 46.878906 12.929688 45.523438 16.425781 41.359375 C 19.917969 37.195312 20.339844 31.796875 17.367188 29.300781 Z M 17.367188 29.300781 "/>
<path fill-rule="nonzero" fill="rgb(50%, 50%, 50%)" fill-opacity="1" d="M 39.726562 39.933594 C 39.726562 29.839844 32.800781 21.65625 24.257812 21.65625 C 15.714844 21.65625 8.789062 29.839844 8.789062 39.933594 C 8.789062 50.03125 15.714844 58.214844 24.257812 58.214844 C 32.800781 58.214844 39.726562 50.03125 39.726562 39.933594 Z M 39.726562 39.933594 "/>
<path fill-rule="nonzero" fill="rgb(84.999084%, 84.999084%, 84.999084%)" fill-opacity="1" d="M 34.101562 41.339844 C 34.101562 35.128906 29.695312 30.09375 24.257812 30.09375 C 18.820312 30.09375 14.414062 35.128906 14.414062 41.339844 C 14.414062 47.554688 18.820312 52.589844 24.257812 52.589844 C 29.695312 52.589844 34.101562 47.554688 34.101562 41.339844 Z M 34.101562 41.339844 "/>
<path fill-rule="nonzero" fill="rgb(50%, 50%, 50%)" fill-opacity="1" d="M 44.085938 52.589844 C 44.085938 48.242188 40.558594 44.714844 36.210938 44.714844 C 31.859375 44.714844 28.335938 48.242188 28.335938 52.589844 C 28.335938 56.941406 31.859375 60.464844 36.210938 60.464844 C 40.558594 60.464844 44.085938 56.941406 44.085938 52.589844 Z M 44.085938 52.589844 "/>
<path fill-rule="nonzero" fill="rgb(50%, 50%, 50%)" fill-opacity="1" d="M 20.179688 52.589844 C 20.179688 48.242188 16.652344 44.714844 12.304688 44.714844 C 7.957031 44.714844 4.429688 48.242188 4.429688 52.589844 C 4.429688 56.941406 7.957031 60.464844 12.304688 60.464844 C 16.652344 60.464844 20.179688 56.941406 20.179688 52.589844 Z M 20.179688 52.589844 "/>
<path fill-rule="nonzero" fill="rgb(84.999084%, 84.999084%, 84.999084%)" fill-opacity="1" d="M 40.992188 52.589844 C 40.992188 49.949219 38.851562 47.808594 36.210938 47.808594 C 33.570312 47.808594 31.429688 49.949219 31.429688 52.589844 C 31.429688 55.230469 33.570312 57.371094 36.210938 57.371094 C 38.851562 57.371094 40.992188 55.230469 40.992188 52.589844 Z M 40.992188 52.589844 "/>
<path fill-rule="nonzero" fill="rgb(84.999084%, 84.999084%, 84.999084%)" fill-opacity="1" d="M 17.085938 52.589844 C 17.085938 49.949219 14.945312 47.808594 12.304688 47.808594 C 9.664062 47.808594 7.523438 49.949219 7.523438 52.589844 C 7.523438 55.230469 9.664062 57.371094 12.304688 57.371094 C 14.945312 57.371094 17.085938 55.230469 17.085938 52.589844 Z M 17.085938 52.589844 "/>
<path fill-rule="nonzero" fill="rgb(50%, 50%, 50%)" fill-opacity="1" d="M 45.914062 39.933594 C 45.914062 36.828125 43.394531 34.308594 40.289062 34.308594 C 37.179688 34.308594 34.664062 36.828125 34.664062 39.933594 C 34.664062 43.042969 37.179688 45.558594 40.289062 45.558594 C 43.394531 45.558594 45.914062 43.042969 45.914062 39.933594 Z M 45.914062 39.933594 "/>
<path fill-rule="nonzero" fill="rgb(84.999084%, 84.999084%, 84.999084%)" fill-opacity="1" d="M 43.664062 40.214844 C 43.664062 38.351562 42.152344 36.839844 40.289062 36.839844 C 38.425781 36.839844 36.914062 38.351562 36.914062 40.214844 C 36.914062 42.078125 38.425781 43.589844 40.289062 43.589844 C 42.152344 43.589844 43.664062 42.078125 43.664062 40.214844 Z M 43.664062 40.214844 "/>
<path fill-rule="nonzero" fill="rgb(50%, 50%, 50%)" fill-opacity="1" d="M 13.851562 40.214844 C 13.851562 37.109375 11.332031 34.589844 8.226562 34.589844 C 5.121094 34.589844 2.601562 37.109375 2.601562 40.214844 C 2.601562 43.324219 5.121094 45.839844 8.226562 45.839844 C 11.332031 45.839844 13.851562 43.324219 13.851562 40.214844 Z M 13.851562 40.214844 "/>
<path fill-rule="nonzero" fill="rgb(84.999084%, 84.999084%, 84.999084%)" fill-opacity="1" d="M 11.601562 40.214844 C 11.601562 38.351562 10.089844 36.839844 8.226562 36.839844 C 6.363281 36.839844 4.851562 38.351562 4.851562 40.214844 C 4.851562 42.078125 6.363281 43.589844 8.226562 43.589844 C 10.089844 43.589844 11.601562 42.078125 11.601562 40.214844 Z M 11.601562 40.214844 "/>
<g clip-path="url(#clip-1)">
<path fill-rule="nonzero" fill="rgb(50%, 50%, 50%)" fill-opacity="1" d="M 48.164062 13.21875 C 48.164062 6.226562 43.753906 0.5625 38.320312 0.5625 C 32.882812 0.5625 28.476562 6.226562 28.476562 13.21875 C 28.476562 20.207031 32.882812 25.875 38.320312 25.875 C 43.753906 25.875 48.164062 20.207031 48.164062 13.21875 Z M 48.164062 13.21875 "/>
</g>
<g clip-path="url(#clip-2)">
<path fill-rule="nonzero" fill="rgb(50%, 50%, 50%)" fill-opacity="1" d="M 20.039062 13.21875 C 20.039062 6.226562 15.632812 0.5625 10.195312 0.5625 C 4.757812 0.5625 0.351562 6.226562 0.351562 13.21875 C 0.351562 20.207031 4.757812 25.875 10.195312 25.875 C 15.632812 25.875 20.039062 20.207031 20.039062 13.21875 Z M 20.039062 13.21875 "/>
</g>
<path fill-rule="nonzero" fill="rgb(84.999084%, 84.999084%, 84.999084%)" fill-opacity="1" d="M 45.351562 13.21875 C 45.351562 7.78125 42.203125 3.375 38.320312 3.375 C 34.4375 3.375 31.289062 7.78125 31.289062 13.21875 C 31.289062 18.652344 34.4375 23.0625 38.320312 23.0625 C 42.203125 23.0625 45.351562 18.652344 45.351562 13.21875 Z M 45.351562 13.21875 "/>
<path fill-rule="nonzero" fill="rgb(84.999084%, 84.999084%, 84.999084%)" fill-opacity="1" d="M 17.226562 13.21875 C 17.226562 7.78125 14.078125 3.375 10.195312 3.375 C 6.3125 3.375 3.164062 7.78125 3.164062 13.21875 C 3.164062 18.652344 6.3125 23.0625 10.195312 23.0625 C 14.078125 23.0625 17.226562 18.652344 17.226562 13.21875 Z M 17.226562 13.21875 "/>
<path fill-rule="nonzero" fill="rgb(50%, 50%, 50%)" fill-opacity="1" d="M 38.320312 17.4375 C 38.320312 9.667969 32.023438 3.375 24.257812 3.375 C 16.492188 3.375 10.195312 9.667969 10.195312 17.4375 C 10.195312 25.203125 16.492188 31.496094 24.257812 31.496094 C 32.023438 31.496094 38.320312 25.203125 38.320312 17.4375 Z M 38.320312 17.4375 "/>
<path fill-rule="nonzero" fill="rgb(50%, 50%, 50%)" fill-opacity="1" d="M 28.273438 20.601562 C 28.777344 31.75 33.613281 29.316406 43.113281 22.921875 L 44.507812 26.71875 C 33.613281 35.714844 19.738281 38.527344 20.242188 20.601562 "/>
<g clip-path="url(#clip-3)">
<path fill="none" stroke-width="0.59776" stroke-linecap="butt" stroke-linejoin="miter" stroke="rgb(34.999084%, 34.999084%, 34.999084%)" stroke-opacity="1" stroke-miterlimit="10" d="M 4.048342 40.746997 C 4.556246 29.510114 9.430549 31.963015 19.005916 38.408276 L 20.411511 34.581279 C 9.430549 25.513816 -4.554528 22.679003 -4.046624 40.746997 " transform="matrix(0.992129, 0, 0, -0.992129, 24.25696, 61.027841)"/>
</g>
<path fill-rule="nonzero" fill="rgb(34.999084%, 34.999084%, 34.999084%)" fill-opacity="1" d="M 46.195312 24.75 C 46.195312 23.503906 45.1875 22.5 43.945312 22.5 C 42.699219 22.5 41.695312 23.503906 41.695312 24.75 C 41.695312 25.992188 42.699219 27 43.945312 27 C 45.1875 27 46.195312 25.992188 46.195312 24.75 Z M 46.195312 24.75 "/>
<path fill-rule="nonzero" fill="rgb(14.99939%, 14.99939%, 14.99939%)" fill-opacity="1" d="M 21.304688 13.21875 C 21.304688 12.441406 20.675781 11.8125 19.898438 11.8125 C 19.121094 11.8125 18.492188 12.441406 18.492188 13.21875 C 18.492188 13.996094 19.121094 14.625 19.898438 14.625 C 20.675781 14.625 21.304688 13.996094 21.304688 13.21875 Z M 21.304688 13.21875 "/>
<path fill-rule="nonzero" fill="rgb(14.99939%, 14.99939%, 14.99939%)" fill-opacity="1" d="M 30.023438 13.21875 C 30.023438 12.441406 29.394531 11.8125 28.617188 11.8125 C 27.839844 11.8125 27.210938 12.441406 27.210938 13.21875 C 27.210938 13.996094 27.839844 14.625 28.617188 14.625 C 29.394531 14.625 30.023438 13.996094 30.023438 13.21875 Z M 30.023438 13.21875 "/>
</svg>
