<?xml version="1.0" encoding="UTF-8"?>
<svg xmlns="http://www.w3.org/2000/svg" xmlns:xlink="http://www.w3.org/1999/xlink" width="74.187" height="58.677" viewBox="0 0 74.187 58.677">
<defs>
<clipPath id="clip-0">
<path clip-rule="nonzero" d="M 0 0.160156 L 73.382812 0.160156 L 73.382812 58.199219 L 0 58.199219 Z M 0 0.160156 "/>
</clipPath>
<clipPath id="clip-1">
<path clip-rule="nonzero" d="M 21 0.160156 L 27 0.160156 L 27 8 L 21 8 Z M 21 0.160156 "/>
</clipPath>
<clipPath id="clip-2">
<path clip-rule="nonzero" d="M 8 0.160156 L 14 0.160156 L 14 8 L 8 8 Z M 8 0.160156 "/>
</clipPath>
<clipPath id="clip-3">
<path clip-rule="nonzero" d="M 6 52 L 15 52 L 15 57.359375 L 6 57.359375 Z M 6 52 "/>
</clipPath>
<clipPath id="clip-4">
<path clip-rule="nonzero" d="M 20 52 L 30 52 L 30 57.359375 L 20 57.359375 Z M 20 52 "/>
</clipPath>
<clipPath id="clip-5">
<path clip-rule="nonzero" d="M 23 54 L 26 54 L 26 57.359375 L 23 57.359375 Z M 23 54 "/>
</clipPath>
<clipPath id="clip-6">
<path clip-rule="nonzero" d="M 19 55 L 23 55 L 23 57.359375 L 19 57.359375 Z M 19 55 "/>
</clipPath>
<clipPath id="clip-7">
<path clip-rule="nonzero" d="M 26 55 L 30 55 L 30 57.359375 L 26 57.359375 Z M 26 55 "/>
</clipPath>
<clipPath id="clip-8">
<path clip-rule="nonzero" d="M 9 54 L 12 54 L 12 57.359375 L 9 57.359375 Z M 9 54 "/>
</clipPath>
<clipPath id="clip-9">
<path clip-rule="nonzero" d="M 12 55 L 16 55 L 16 57.359375 L 12 57.359375 Z M 12 55 "/>
</clipPath>
<clipPath id="clip-10">
<path clip-rule="nonzero" d="M 5 55 L 9 55 L 9 57.359375 L 5 57.359375 Z M 5 55 "/>
</clipPath>
<clipPath id="clip-11">
<path clip-rule="nonzero" d="M 59 0.160156 L 66 0.160156 L 66 8 L 59 8 Z M 59 0.160156 "/>
</clipPath>
<clipPath id="clip-12">
<path clip-rule="nonzero" d="M 46 0.160156 L 53 0.160156 L 53 8 L 46 8 Z M 46 0.160156 "/>
</clipPath>
<clipPath id="clip-13">
<path clip-rule="nonzero" d="M 44 52 L 54 52 L 54 57.359375 L 44 57.359375 Z M 44 52 "/>
</clipPath>
<clipPath id="clip-14">
<path clip-rule="nonzero" d="M 58 52 L 68 52 L 68 57.359375 L 58 57.359375 Z M 58 52 "/>
</clipPath>
<clipPath id="clip-15">
<path clip-rule="nonzero" d="M 61 54 L 65 54 L 65 57.359375 L 61 57.359375 Z M 61 54 "/>
</clipPath>
<clipPath id="clip-16">
<path clip-rule="nonzero" d="M 58 55 L 61 55 L 61 57.359375 L 58 57.359375 Z M 58 55 "/>
</clipPath>
<clipPath id="clip-17">
<path clip-rule="nonzero" d="M 64 55 L 68 55 L 68 57.359375 L 64 57.359375 Z M 64 55 "/>
</clipPath>
<clipPath id="clip-18">
<path clip-rule="nonzero" d="M 47 54 L 51 54 L 51 57.359375 L 47 57.359375 Z M 47 54 "/>
</clipPath>
<clipPath id="clip-19">
<path clip-rule="nonzero" d="M 50 55 L 54 55 L 54 57.359375 L 50 57.359375 Z M 50 55 "/>
</clipPath>
<clipPath id="clip-20">
<path clip-rule="nonzero" d="M 44 55 L 47 55 L 47 57.359375 L 44 57.359375 Z M 44 55 "/>
</clipPath>
</defs>
<g clip-path="url(#clip-0)">
<path fill-rule="nonzero" fill="rgb(89.99939%, 89.99939%, 89.99939%)" fill-opacity="1" d="M 0 58.199219 L 73.382812 58.199219 L 73.382812 0.160156 L 0 0.160156 Z M 0 58.199219 "/>
</g>
<g clip-path="url(#clip-1)">
<path fill-rule="nonzero" fill="rgb(50%, 50%, 50%)" fill-opacity="1" d="M 26.160156 5.34375 C 27.164062 3.601562 27.003906 1.625 25.796875 0.925781 C 24.589844 0.230469 22.796875 1.078125 21.789062 2.820312 C 20.78125 4.566406 20.945312 6.542969 22.152344 7.238281 C 23.359375 7.9375 25.152344 7.089844 26.160156 5.34375 Z M 26.160156 5.34375 "/>
</g>
<g clip-path="url(#clip-2)">
<path fill-rule="nonzero" fill="rgb(50%, 50%, 50%)" fill-opacity="1" d="M 13.261719 2.820312 C 12.253906 1.078125 10.460938 0.230469 9.253906 0.925781 C 8.046875 1.625 7.882812 3.601562 8.890625 5.34375 C 9.898438 7.089844 11.691406 7.9375 12.898438 7.238281 C 14.105469 6.542969 14.269531 4.566406 13.261719 2.820312 Z M 13.261719 2.820312 "/>
</g>
<path fill-rule="nonzero" fill="rgb(72.499084%, 72.499084%, 72.499084%)" fill-opacity="1" d="M 34.347656 38.570312 C 34.347656 49.789062 27.339844 55.675781 17.523438 55.675781 C 7.710938 55.675781 0.699219 49.789062 0.699219 38.570312 C 0.699219 24.550781 7.710938 14.738281 17.523438 14.738281 C 27.339844 14.738281 34.347656 24.550781 34.347656 38.570312 Z M 34.347656 38.570312 "/>
<path fill-rule="nonzero" fill="rgb(50%, 50%, 50%)" fill-opacity="1" d="M 27.339844 26.234375 C 25.324219 26.234375 23.695312 29.246094 23.695312 32.964844 C 23.695312 36.679688 25.324219 39.695312 27.339844 39.695312 C 29.351562 39.695312 30.984375 36.679688 30.984375 32.964844 C 30.984375 29.246094 29.351562 26.234375 27.339844 26.234375 Z M 27.339844 26.234375 "/>
<path fill-rule="nonzero" fill="rgb(50%, 50%, 50%)" fill-opacity="1" d="M 7.710938 39.695312 C 9.722656 39.695312 11.355469 36.679688 11.355469 32.964844 C 11.355469 29.246094 9.722656 26.234375 7.710938 26.234375 C 5.699219 26.234375 4.066406 29.246094 4.066406 32.964844 C 4.066406 36.679688 5.699219 39.695312 7.710938 39.695312 Z M 7.710938 39.695312 "/>
<path fill-rule="nonzero" fill="rgb(72.499084%, 72.499084%, 72.499084%)" fill-opacity="1" d="M 27.621094 11.652344 C 27.621094 6.078125 23.101562 1.558594 17.523438 1.558594 C 11.949219 1.558594 7.429688 6.078125 7.429688 11.652344 C 7.429688 17.230469 11.949219 21.75 17.523438 21.75 C 23.101562 21.75 27.621094 17.230469 27.621094 11.652344 Z M 27.621094 11.652344 "/>
<path fill-rule="nonzero" fill="rgb(100%, 100%, 100%)" fill-opacity="1" d="M 16.683594 9.691406 C 16.683594 7.832031 15.679688 6.328125 14.441406 6.328125 C 13.203125 6.328125 12.199219 7.832031 12.199219 9.691406 C 12.199219 11.550781 13.203125 13.054688 14.441406 13.054688 C 15.679688 13.054688 16.683594 11.550781 16.683594 9.691406 Z M 16.683594 9.691406 "/>
<path fill-rule="nonzero" fill="rgb(100%, 100%, 100%)" fill-opacity="1" d="M 22.851562 9.691406 C 22.851562 7.832031 21.847656 6.328125 20.609375 6.328125 C 19.371094 6.328125 18.367188 7.832031 18.367188 9.691406 C 18.367188 11.550781 19.371094 13.054688 20.609375 13.054688 C 21.847656 13.054688 22.851562 11.550781 22.851562 9.691406 Z M 22.851562 9.691406 "/>
<path fill-rule="nonzero" fill="rgb(0%, 0%, 0%)" fill-opacity="1" d="M 15.703125 11.09375 C 15.703125 10.007812 15.199219 9.128906 14.582031 9.128906 C 13.960938 9.128906 13.460938 10.007812 13.460938 11.09375 C 13.460938 12.175781 13.960938 13.054688 14.582031 13.054688 C 15.199219 13.054688 15.703125 12.175781 15.703125 11.09375 Z M 15.703125 11.09375 "/>
<path fill-rule="nonzero" fill="rgb(0%, 0%, 0%)" fill-opacity="1" d="M 21.589844 11.09375 C 21.589844 10.007812 21.089844 9.128906 20.46875 9.128906 C 19.851562 9.128906 19.347656 10.007812 19.347656 11.09375 C 19.347656 12.175781 19.851562 13.054688 20.46875 13.054688 C 21.089844 13.054688 21.589844 12.175781 21.589844 11.09375 Z M 21.589844 11.09375 "/>
<path fill-rule="nonzero" fill="rgb(59.999084%, 59.999084%, 59.999084%)" fill-opacity="1" d="M 29.300781 17.542969 C 29.300781 14.445312 24.027344 11.933594 17.523438 11.933594 C 11.019531 11.933594 5.75 14.445312 5.75 17.542969 C 5.75 20.640625 11.019531 23.148438 17.523438 23.148438 C 24.027344 23.148438 29.300781 20.640625 29.300781 17.542969 Z M 29.300781 17.542969 "/>
<path fill-rule="nonzero" fill="rgb(34.999084%, 34.999084%, 34.999084%)" fill-opacity="1" d="M 16.542969 15.300781 C 16.542969 14.757812 16.105469 14.316406 15.5625 14.316406 C 15.019531 14.316406 14.582031 14.757812 14.582031 15.300781 C 14.582031 15.839844 15.019531 16.28125 15.5625 16.28125 C 16.105469 16.28125 16.542969 15.839844 16.542969 15.300781 Z M 16.542969 15.300781 "/>
<path fill-rule="nonzero" fill="rgb(34.999084%, 34.999084%, 34.999084%)" fill-opacity="1" d="M 20.46875 15.300781 C 20.46875 14.757812 20.03125 14.316406 19.488281 14.316406 C 18.945312 14.316406 18.507812 14.757812 18.507812 15.300781 C 18.507812 15.839844 18.945312 16.28125 19.488281 16.28125 C 20.03125 16.28125 20.46875 15.839844 20.46875 15.300781 Z M 20.46875 15.300781 "/>
<path fill="none" stroke-width="0.3985" stroke-linecap="butt" stroke-linejoin="miter" stroke="rgb(34.999084%, 34.999084%, 34.999084%)" stroke-opacity="1" stroke-miterlimit="10" d="M 3.544727 42.519084 C 1.43593 40.753855 -1.636437 40.753855 -3.745234 42.519084 " transform="matrix(0.98916, 0, 0, -0.98916, 17.524948, 61.00349)"/>
<g clip-path="url(#clip-3)">
<path fill-rule="nonzero" fill="rgb(50%, 50%, 50%)" fill-opacity="1" d="M 15 56.796875 C 15 54.164062 12.992188 52.03125 10.515625 52.03125 C 8.039062 52.03125 6.027344 54.164062 6.027344 56.796875 C 6.027344 59.429688 8.039062 61.5625 10.515625 61.5625 C 12.992188 61.5625 15 59.429688 15 56.796875 Z M 15 56.796875 "/>
</g>
<g clip-path="url(#clip-4)">
<path fill-rule="nonzero" fill="rgb(50%, 50%, 50%)" fill-opacity="1" d="M 29.019531 56.796875 C 29.019531 54.164062 27.011719 52.03125 24.535156 52.03125 C 22.058594 52.03125 20.046875 54.164062 20.046875 56.796875 C 20.046875 59.429688 22.058594 61.5625 24.535156 61.5625 C 27.011719 61.5625 29.019531 59.429688 29.019531 56.796875 Z M 29.019531 56.796875 "/>
</g>
<g clip-path="url(#clip-5)">
<path fill-rule="nonzero" fill="rgb(72.499084%, 72.499084%, 72.499084%)" fill-opacity="1" d="M 25.9375 57.359375 C 25.9375 55.808594 25.308594 54.554688 24.535156 54.554688 C 23.761719 54.554688 23.132812 55.808594 23.132812 57.359375 C 23.132812 58.90625 23.761719 60.164062 24.535156 60.164062 C 25.308594 60.164062 25.9375 58.90625 25.9375 57.359375 Z M 25.9375 57.359375 "/>
</g>
<g clip-path="url(#clip-6)">
<path fill-rule="nonzero" fill="rgb(72.499084%, 72.499084%, 72.499084%)" fill-opacity="1" d="M 22.570312 57.917969 C 22.570312 56.371094 21.945312 55.113281 21.171875 55.113281 C 20.394531 55.113281 19.769531 56.371094 19.769531 57.917969 C 19.769531 59.46875 20.394531 60.722656 21.171875 60.722656 C 21.945312 60.722656 22.570312 59.46875 22.570312 57.917969 Z M 22.570312 57.917969 "/>
</g>
<g clip-path="url(#clip-7)">
<path fill-rule="nonzero" fill="rgb(72.499084%, 72.499084%, 72.499084%)" fill-opacity="1" d="M 29.300781 57.917969 C 29.300781 56.371094 28.671875 55.113281 27.898438 55.113281 C 27.125 55.113281 26.496094 56.371094 26.496094 57.917969 C 26.496094 59.46875 27.125 60.722656 27.898438 60.722656 C 28.671875 60.722656 29.300781 59.46875 29.300781 57.917969 Z M 29.300781 57.917969 "/>
</g>
<g clip-path="url(#clip-8)">
<path fill-rule="nonzero" fill="rgb(72.499084%, 72.499084%, 72.499084%)" fill-opacity="1" d="M 11.917969 57.359375 C 11.917969 55.808594 11.289062 54.554688 10.515625 54.554688 C 9.742188 54.554688 9.113281 55.808594 9.113281 57.359375 C 9.113281 58.90625 9.742188 60.164062 10.515625 60.164062 C 11.289062 60.164062 11.917969 58.90625 11.917969 57.359375 Z M 11.917969 57.359375 "/>
</g>
<g clip-path="url(#clip-9)">
<path fill-rule="nonzero" fill="rgb(72.499084%, 72.499084%, 72.499084%)" fill-opacity="1" d="M 15.28125 57.917969 C 15.28125 56.371094 14.652344 55.113281 13.878906 55.113281 C 13.105469 55.113281 12.476562 56.371094 12.476562 57.917969 C 12.476562 59.46875 13.105469 60.722656 13.878906 60.722656 C 14.652344 60.722656 15.28125 59.46875 15.28125 57.917969 Z M 15.28125 57.917969 "/>
</g>
<g clip-path="url(#clip-10)">
<path fill-rule="nonzero" fill="rgb(72.499084%, 72.499084%, 72.499084%)" fill-opacity="1" d="M 8.550781 57.917969 C 8.550781 56.371094 7.925781 55.113281 7.152344 55.113281 C 6.375 55.113281 5.75 56.371094 5.75 57.917969 C 5.75 59.46875 6.375 60.722656 7.152344 60.722656 C 7.925781 60.722656 8.550781 59.46875 8.550781 57.917969 Z M 8.550781 57.917969 "/>
</g>
<g clip-path="url(#clip-11)">
<path fill-rule="nonzero" fill="rgb(50%, 50%, 50%)" fill-opacity="1" d="M 64.492188 5.34375 C 65.5 3.601562 65.335938 1.625 64.128906 0.925781 C 62.921875 0.230469 61.128906 1.078125 60.121094 2.820312 C 59.113281 4.566406 59.277344 6.542969 60.484375 7.238281 C 61.691406 7.9375 63.484375 7.089844 64.492188 5.34375 Z M 64.492188 5.34375 "/>
</g>
<g clip-path="url(#clip-12)">
<path fill-rule="nonzero" fill="rgb(50%, 50%, 50%)" fill-opacity="1" d="M 51.59375 2.820312 C 50.585938 1.078125 48.792969 0.230469 47.585938 0.925781 C 46.378906 1.625 46.21875 3.601562 47.222656 5.34375 C 48.230469 7.089844 50.023438 7.9375 51.230469 7.238281 C 52.4375 6.542969 52.601562 4.566406 51.59375 2.820312 Z M 51.59375 2.820312 "/>
</g>
<path fill-rule="nonzero" fill="rgb(72.499084%, 72.499084%, 72.499084%)" fill-opacity="1" d="M 72.683594 38.570312 C 72.683594 49.789062 65.671875 55.675781 55.859375 55.675781 C 46.042969 55.675781 39.035156 49.789062 39.035156 38.570312 C 39.035156 24.550781 46.042969 14.738281 55.859375 14.738281 C 65.671875 14.738281 72.683594 24.550781 72.683594 38.570312 Z M 72.683594 38.570312 "/>
<path fill-rule="nonzero" fill="rgb(50%, 50%, 50%)" fill-opacity="1" d="M 65.671875 26.234375 C 63.660156 26.234375 62.027344 29.246094 62.027344 32.964844 C 62.027344 36.679688 63.660156 39.695312 65.671875 39.695312 C 67.683594 39.695312 69.316406 36.679688 69.316406 32.964844 C 69.316406 29.246094 67.683594 26.234375 65.671875 26.234375 Z M 65.671875 26.234375 "/>
<path fill-rule="nonzero" fill="rgb(50%, 50%, 50%)" fill-opacity="1" d="M 46.042969 39.695312 C 48.058594 39.695312 49.6875 36.679688 49.6875 32.964844 C 49.6875 29.246094 48.058594 26.234375 46.042969 26.234375 C 44.03125 26.234375 42.398438 29.246094 42.398438 32.964844 C 42.398438 36.679688 44.03125 39.695312 46.042969 39.695312 Z M 46.042969 39.695312 "/>
<path fill-rule="nonzero" fill="rgb(72.499084%, 72.499084%, 72.499084%)" fill-opacity="1" d="M 65.953125 11.652344 C 65.953125 6.078125 61.433594 1.558594 55.859375 1.558594 C 50.28125 1.558594 45.761719 6.078125 45.761719 11.652344 C 45.761719 17.230469 50.28125 21.75 55.859375 21.75 C 61.433594 21.75 65.953125 17.230469 65.953125 11.652344 Z M 65.953125 11.652344 "/>
<path fill-rule="nonzero" fill="rgb(100%, 100%, 100%)" fill-opacity="1" d="M 55.015625 9.691406 C 55.015625 7.832031 54.011719 6.328125 52.773438 6.328125 C 51.535156 6.328125 50.53125 7.832031 50.53125 9.691406 C 50.53125 11.550781 51.535156 13.054688 52.773438 13.054688 C 54.011719 13.054688 55.015625 11.550781 55.015625 9.691406 Z M 55.015625 9.691406 "/>
<path fill-rule="nonzero" fill="rgb(100%, 100%, 100%)" fill-opacity="1" d="M 61.183594 9.691406 C 61.183594 7.832031 60.179688 6.328125 58.941406 6.328125 C 57.703125 6.328125 56.699219 7.832031 56.699219 9.691406 C 56.699219 11.550781 57.703125 13.054688 58.941406 13.054688 C 60.179688 13.054688 61.183594 11.550781 61.183594 9.691406 Z M 61.183594 9.691406 "/>
<path fill-rule="nonzero" fill="rgb(0%, 0%, 0%)" fill-opacity="1" d="M 54.035156 11.09375 C 54.035156 10.007812 53.53125 9.128906 52.914062 9.128906 C 52.292969 9.128906 51.792969 10.007812 51.792969 11.09375 C 51.792969 12.175781 52.292969 13.054688 52.914062 13.054688 C 53.53125 13.054688 54.035156 12.175781 54.035156 11.09375 Z M 54.035156 11.09375 "/>
<path fill-rule="nonzero" fill="rgb(0%, 0%, 0%)" fill-opacity="1" d="M 59.921875 11.09375 C 59.921875 10.007812 59.421875 9.128906 58.800781 9.128906 C 58.183594 9.128906 57.679688 10.007812 57.679688 11.09375 C 57.679688 12.175781 58.183594 13.054688 58.800781 13.054688 C 59.421875 13.054688 59.921875 12.175781 59.921875 11.09375 Z M 59.921875 11.09375 "/>
<path fill-rule="nonzero" fill="rgb(59.999084%, 59.999084%, 59.999084%)" fill-opacity="1" d="M 67.632812 17.542969 C 67.632812 14.445312 62.363281 11.933594 55.859375 11.933594 C 49.355469 11.933594 44.082031 14.445312 44.082031 17.542969 C 44.082031 20.640625 49.355469 23.148438 55.859375 23.148438 C 62.363281 23.148438 67.632812 20.640625 67.632812 17.542969 Z M 67.632812 17.542969 "/>
<path fill-rule="nonzero" fill="rgb(34.999084%, 34.999084%, 34.999084%)" fill-opacity="1" d="M 54.875 15.300781 C 54.875 14.757812 54.4375 14.316406 53.894531 14.316406 C 53.351562 14.316406 52.914062 14.757812 52.914062 15.300781 C 52.914062 15.839844 53.351562 16.28125 53.894531 16.28125 C 54.4375 16.28125 54.875 15.839844 54.875 15.300781 Z M 54.875 15.300781 "/>
<path fill-rule="nonzero" fill="rgb(34.999084%, 34.999084%, 34.999084%)" fill-opacity="1" d="M 58.800781 15.300781 C 58.800781 14.757812 58.363281 14.316406 57.820312 14.316406 C 57.277344 14.316406 56.839844 14.757812 56.839844 15.300781 C 56.839844 15.839844 57.277344 16.28125 57.820312 16.28125 C 58.363281 16.28125 58.800781 15.839844 58.800781 15.300781 Z M 58.800781 15.300781 "/>
<path fill="none" stroke-width="0.3985" stroke-linecap="butt" stroke-linejoin="miter" stroke="rgb(34.999084%, 34.999084%, 34.999084%)" stroke-opacity="1" stroke-miterlimit="10" d="M 3.543831 42.519084 C 1.435034 40.753855 -1.637333 40.753855 -3.746129 42.519084 " transform="matrix(0.98916, 0, 0, -0.98916, 55.857865, 61.00349)"/>
<g clip-path="url(#clip-13)">
<path fill-rule="nonzero" fill="rgb(50%, 50%, 50%)" fill-opacity="1" d="M 53.335938 56.796875 C 53.335938 54.164062 51.324219 52.03125 48.847656 52.03125 C 46.371094 52.03125 44.363281 54.164062 44.363281 56.796875 C 44.363281 59.429688 46.371094 61.5625 48.847656 61.5625 C 51.324219 61.5625 53.335938 59.429688 53.335938 56.796875 Z M 53.335938 56.796875 "/>
</g>
<g clip-path="url(#clip-14)">
<path fill-rule="nonzero" fill="rgb(50%, 50%, 50%)" fill-opacity="1" d="M 67.355469 56.796875 C 67.355469 54.164062 65.34375 52.03125 62.867188 52.03125 C 60.390625 52.03125 58.382812 54.164062 58.382812 56.796875 C 58.382812 59.429688 60.390625 61.5625 62.867188 61.5625 C 65.34375 61.5625 67.355469 59.429688 67.355469 56.796875 Z M 67.355469 56.796875 "/>
</g>
<g clip-path="url(#clip-15)">
<path fill-rule="nonzero" fill="rgb(72.499084%, 72.499084%, 72.499084%)" fill-opacity="1" d="M 64.269531 57.359375 C 64.269531 55.808594 63.640625 54.554688 62.867188 54.554688 C 62.09375 54.554688 61.464844 55.808594 61.464844 57.359375 C 61.464844 58.90625 62.09375 60.164062 62.867188 60.164062 C 63.640625 60.164062 64.269531 58.90625 64.269531 57.359375 Z M 64.269531 57.359375 "/>
</g>
<g clip-path="url(#clip-16)">
<path fill-rule="nonzero" fill="rgb(72.499084%, 72.499084%, 72.499084%)" fill-opacity="1" d="M 60.90625 57.917969 C 60.90625 56.371094 60.277344 55.113281 59.503906 55.113281 C 58.730469 55.113281 58.101562 56.371094 58.101562 57.917969 C 58.101562 59.46875 58.730469 60.722656 59.503906 60.722656 C 60.277344 60.722656 60.90625 59.46875 60.90625 57.917969 Z M 60.90625 57.917969 "/>
</g>
<g clip-path="url(#clip-17)">
<path fill-rule="nonzero" fill="rgb(72.499084%, 72.499084%, 72.499084%)" fill-opacity="1" d="M 67.632812 57.917969 C 67.632812 56.371094 67.007812 55.113281 66.230469 55.113281 C 65.457031 55.113281 64.832031 56.371094 64.832031 57.917969 C 64.832031 59.46875 65.457031 60.722656 66.230469 60.722656 C 67.007812 60.722656 67.632812 59.46875 67.632812 57.917969 Z M 67.632812 57.917969 "/>
</g>
<g clip-path="url(#clip-18)">
<path fill-rule="nonzero" fill="rgb(72.499084%, 72.499084%, 72.499084%)" fill-opacity="1" d="M 50.25 57.359375 C 50.25 55.808594 49.621094 54.554688 48.847656 54.554688 C 48.074219 54.554688 47.445312 55.808594 47.445312 57.359375 C 47.445312 58.90625 48.074219 60.164062 48.847656 60.164062 C 49.621094 60.164062 50.25 58.90625 50.25 57.359375 Z M 50.25 57.359375 "/>
</g>
<g clip-path="url(#clip-19)">
<path fill-rule="nonzero" fill="rgb(72.499084%, 72.499084%, 72.499084%)" fill-opacity="1" d="M 53.613281 57.917969 C 53.613281 56.371094 52.988281 55.113281 52.210938 55.113281 C 51.4375 55.113281 50.8125 56.371094 50.8125 57.917969 C 50.8125 59.46875 51.4375 60.722656 52.210938 60.722656 C 52.988281 60.722656 53.613281 59.46875 53.613281 57.917969 Z M 53.613281 57.917969 "/>
</g>
<g clip-path="url(#clip-20)">
<path fill-rule="nonzero" fill="rgb(72.499084%, 72.499084%, 72.499084%)" fill-opacity="1" d="M 46.886719 57.917969 C 46.886719 56.371094 46.257812 55.113281 45.484375 55.113281 C 44.710938 55.113281 44.082031 56.371094 44.082031 57.917969 C 44.082031 59.46875 44.710938 60.722656 45.484375 60.722656 C 46.257812 60.722656 46.886719 59.46875 46.886719 57.917969 Z M 46.886719 57.917969 "/>
</g>
</svg>
