<?xml version="1.0" encoding="UTF-8"?>
<svg xmlns="http://www.w3.org/2000/svg" xmlns:xlink="http://www.w3.org/1999/xlink" width="35.433" height="58.677" viewBox="0 0 35.433 58.677">
<defs>
<clipPath id="clip-0">
<path clip-rule="nonzero" d="M 0 0.304688 L 34.875 0.304688 L 34.875 58.054688 L 0 58.054688 Z M 0 0.304688 "/>
</clipPath>
<clipPath id="clip-1">
<path clip-rule="nonzero" d="M 21 0.304688 L 27 0.304688 L 27 8 L 21 8 Z M 21 0.304688 "/>
</clipPath>
<clipPath id="clip-2">
<path clip-rule="nonzero" d="M 8 0.304688 L 14 0.304688 L 14 8 L 8 8 Z M 8 0.304688 "/>
</clipPath>
<clipPath id="clip-3">
<path clip-rule="nonzero" d="M 0 14 L 34.875 14 L 34.875 56 L 0 56 Z M 0 14 "/>
</clipPath>
<clipPath id="clip-4">
<path clip-rule="nonzero" d="M 6 51 L 15 51 L 15 57.21875 L 6 57.21875 Z M 6 51 "/>
</clipPath>
<clipPath id="clip-5">
<path clip-rule="nonzero" d="M 19 51 L 29 51 L 29 57.21875 L 19 57.21875 Z M 19 51 "/>
</clipPath>
<clipPath id="clip-6">
<path clip-rule="nonzero" d="M 23 54 L 26 54 L 26 57.21875 L 23 57.21875 Z M 23 54 "/>
</clipPath>
<clipPath id="clip-7">
<path clip-rule="nonzero" d="M 19 54 L 23 54 L 23 57.21875 L 19 57.21875 Z M 19 54 "/>
</clipPath>
<clipPath id="clip-8">
<path clip-rule="nonzero" d="M 26 54 L 30 54 L 30 57.21875 L 26 57.21875 Z M 26 54 "/>
</clipPath>
<clipPath id="clip-9">
<path clip-rule="nonzero" d="M 9 54 L 12 54 L 12 57.21875 L 9 57.21875 Z M 9 54 "/>
</clipPath>
<clipPath id="clip-10">
<path clip-rule="nonzero" d="M 12 54 L 16 54 L 16 57.21875 L 12 57.21875 Z M 12 54 "/>
</clipPath>
<clipPath id="clip-11">
<path clip-rule="nonzero" d="M 5 54 L 9 54 L 9 57.21875 L 5 57.21875 Z M 5 54 "/>
</clipPath>
</defs>
<g clip-path="url(#clip-0)">
<path fill-rule="nonzero" fill="rgb(89.99939%, 89.99939%, 89.99939%)" fill-opacity="1" d="M 0 58.054688 L 34.875 58.054688 L 34.875 0.304688 L 0 0.304688 Z M 0 58.054688 "/>
</g>
<g clip-path="url(#clip-1)">
<path fill-rule="nonzero" fill="rgb(50%, 50%, 50%)" fill-opacity="1" d="M 26.03125 5.464844 C 27.03125 3.730469 26.871094 1.761719 25.667969 1.066406 C 24.46875 0.375 22.683594 1.21875 21.679688 2.953125 C 20.679688 4.6875 20.839844 6.65625 22.042969 7.351562 C 23.242188 8.042969 25.027344 7.199219 26.03125 5.464844 Z M 26.03125 5.464844 "/>
</g>
<g clip-path="url(#clip-2)">
<path fill-rule="nonzero" fill="rgb(50%, 50%, 50%)" fill-opacity="1" d="M 13.195312 2.953125 C 12.195312 1.21875 10.410156 0.375 9.207031 1.066406 C 8.007812 1.761719 7.84375 3.730469 8.847656 5.464844 C 9.847656 7.199219 11.632812 8.042969 12.835938 7.351562 C 14.035156 6.65625 14.195312 4.6875 13.195312 2.953125 Z M 13.195312 2.953125 "/>
</g>
<g clip-path="url(#clip-3)">
<path fill-rule="nonzero" fill="rgb(72.499084%, 72.499084%, 72.499084%)" fill-opacity="1" d="M 34.179688 38.527344 C 34.179688 49.6875 27.203125 55.546875 17.4375 55.546875 C 7.671875 55.546875 0.699219 49.6875 0.699219 38.527344 C 0.699219 24.574219 7.671875 14.8125 17.4375 14.8125 C 27.203125 14.8125 34.179688 24.574219 34.179688 38.527344 Z M 34.179688 38.527344 "/>
</g>
<path fill-rule="nonzero" fill="rgb(50%, 50%, 50%)" fill-opacity="1" d="M 27.203125 26.25 C 25.199219 26.25 23.574219 29.246094 23.574219 32.945312 C 23.574219 36.644531 25.199219 39.640625 27.203125 39.640625 C 29.207031 39.640625 30.832031 36.644531 30.832031 32.945312 C 30.832031 29.246094 29.207031 26.25 27.203125 26.25 Z M 27.203125 26.25 "/>
<path fill-rule="nonzero" fill="rgb(50%, 50%, 50%)" fill-opacity="1" d="M 7.671875 39.640625 C 9.675781 39.640625 11.300781 36.644531 11.300781 32.945312 C 11.300781 29.246094 9.675781 26.25 7.671875 26.25 C 5.667969 26.25 4.046875 29.246094 4.046875 32.945312 C 4.046875 36.644531 5.667969 39.640625 7.671875 39.640625 Z M 7.671875 39.640625 "/>
<path fill-rule="nonzero" fill="rgb(72.499084%, 72.499084%, 72.499084%)" fill-opacity="1" d="M 27.480469 11.742188 C 27.480469 6.195312 22.984375 1.699219 17.4375 1.699219 C 11.890625 1.699219 7.394531 6.195312 7.394531 11.742188 C 7.394531 17.289062 11.890625 21.785156 17.4375 21.785156 C 22.984375 21.785156 27.480469 17.289062 27.480469 11.742188 Z M 27.480469 11.742188 "/>
<path fill-rule="nonzero" fill="rgb(100%, 100%, 100%)" fill-opacity="1" d="M 16.601562 9.789062 C 16.601562 7.941406 15.601562 6.441406 14.367188 6.441406 C 13.136719 6.441406 12.136719 7.941406 12.136719 9.789062 C 12.136719 11.636719 13.136719 13.136719 14.367188 13.136719 C 15.601562 13.136719 16.601562 11.636719 16.601562 9.789062 Z M 16.601562 9.789062 "/>
<path fill-rule="nonzero" fill="rgb(100%, 100%, 100%)" fill-opacity="1" d="M 22.738281 9.789062 C 22.738281 7.941406 21.738281 6.441406 20.507812 6.441406 C 19.273438 6.441406 18.273438 7.941406 18.273438 9.789062 C 18.273438 11.636719 19.273438 13.136719 20.507812 13.136719 C 21.738281 13.136719 22.738281 11.636719 22.738281 9.789062 Z M 22.738281 9.789062 "/>
<path fill-rule="nonzero" fill="rgb(0%, 0%, 0%)" fill-opacity="1" d="M 15.625 11.183594 C 15.625 10.105469 15.125 9.230469 14.507812 9.230469 C 13.890625 9.230469 13.394531 10.105469 13.394531 11.183594 C 13.394531 12.261719 13.890625 13.136719 14.507812 13.136719 C 15.125 13.136719 15.625 12.261719 15.625 11.183594 Z M 15.625 11.183594 "/>
<path fill-rule="nonzero" fill="rgb(0%, 0%, 0%)" fill-opacity="1" d="M 21.484375 11.183594 C 21.484375 10.105469 20.984375 9.230469 20.367188 9.230469 C 19.75 9.230469 19.25 10.105469 19.25 11.183594 C 19.25 12.261719 19.75 13.136719 20.367188 13.136719 C 20.984375 13.136719 21.484375 12.261719 21.484375 11.183594 Z M 21.484375 11.183594 "/>
<path fill-rule="nonzero" fill="rgb(59.999084%, 59.999084%, 59.999084%)" fill-opacity="1" d="M 29.15625 17.601562 C 29.15625 14.519531 23.910156 12.019531 17.4375 12.019531 C 10.964844 12.019531 5.71875 14.519531 5.71875 17.601562 C 5.71875 20.683594 10.964844 23.179688 17.4375 23.179688 C 23.910156 23.179688 29.15625 20.683594 29.15625 17.601562 Z M 29.15625 17.601562 "/>
<path fill-rule="nonzero" fill="rgb(34.999084%, 34.999084%, 34.999084%)" fill-opacity="1" d="M 16.460938 15.367188 C 16.460938 14.828125 16.023438 14.390625 15.484375 14.390625 C 14.945312 14.390625 14.507812 14.828125 14.507812 15.367188 C 14.507812 15.90625 14.945312 16.34375 15.484375 16.34375 C 16.023438 16.34375 16.460938 15.90625 16.460938 15.367188 Z M 16.460938 15.367188 "/>
<path fill-rule="nonzero" fill="rgb(34.999084%, 34.999084%, 34.999084%)" fill-opacity="1" d="M 20.367188 15.367188 C 20.367188 14.828125 19.929688 14.390625 19.390625 14.390625 C 18.851562 14.390625 18.414062 14.828125 18.414062 15.367188 C 18.414062 15.90625 18.851562 16.34375 19.390625 16.34375 C 19.929688 16.34375 20.367188 15.90625 20.367188 15.367188 Z M 20.367188 15.367188 "/>
<path fill="none" stroke-width="0.3985" stroke-linecap="butt" stroke-linejoin="miter" stroke="rgb(34.999084%, 34.999084%, 34.999084%)" stroke-opacity="1" stroke-miterlimit="10" d="M 3.543636 42.519906 C 1.436226 40.753808 -1.639562 40.753808 -3.743003 42.519906 " transform="matrix(0.98425, 0, 0, -0.98425, 17.437957, 60.846311)"/>
<g clip-path="url(#clip-4)">
<path fill-rule="nonzero" fill="rgb(50%, 50%, 50%)" fill-opacity="1" d="M 14.925781 56.660156 C 14.925781 54.042969 12.929688 51.917969 10.460938 51.917969 C 7.996094 51.917969 6 54.042969 6 56.660156 C 6 59.28125 7.996094 61.40625 10.460938 61.40625 C 12.929688 61.40625 14.925781 59.28125 14.925781 56.660156 Z M 14.925781 56.660156 "/>
</g>
<g clip-path="url(#clip-5)">
<path fill-rule="nonzero" fill="rgb(50%, 50%, 50%)" fill-opacity="1" d="M 28.878906 56.660156 C 28.878906 54.042969 26.878906 51.917969 24.414062 51.917969 C 21.949219 51.917969 19.949219 54.042969 19.949219 56.660156 C 19.949219 59.28125 21.949219 61.40625 24.414062 61.40625 C 26.878906 61.40625 28.878906 59.28125 28.878906 56.660156 Z M 28.878906 56.660156 "/>
</g>
<g clip-path="url(#clip-6)">
<path fill-rule="nonzero" fill="rgb(72.499084%, 72.499084%, 72.499084%)" fill-opacity="1" d="M 25.808594 57.21875 C 25.808594 55.679688 25.183594 54.429688 24.414062 54.429688 C 23.640625 54.429688 23.019531 55.679688 23.019531 57.21875 C 23.019531 58.761719 23.640625 60.007812 24.414062 60.007812 C 25.183594 60.007812 25.808594 58.761719 25.808594 57.21875 Z M 25.808594 57.21875 "/>
</g>
<g clip-path="url(#clip-7)">
<path fill-rule="nonzero" fill="rgb(72.499084%, 72.499084%, 72.499084%)" fill-opacity="1" d="M 22.460938 57.777344 C 22.460938 56.234375 21.835938 54.988281 21.066406 54.988281 C 20.292969 54.988281 19.671875 56.234375 19.671875 57.777344 C 19.671875 59.316406 20.292969 60.566406 21.066406 60.566406 C 21.835938 60.566406 22.460938 59.316406 22.460938 57.777344 Z M 22.460938 57.777344 "/>
</g>
<g clip-path="url(#clip-8)">
<path fill-rule="nonzero" fill="rgb(72.499084%, 72.499084%, 72.499084%)" fill-opacity="1" d="M 29.15625 57.777344 C 29.15625 56.234375 28.53125 54.988281 27.761719 54.988281 C 26.992188 54.988281 26.367188 56.234375 26.367188 57.777344 C 26.367188 59.316406 26.992188 60.566406 27.761719 60.566406 C 28.53125 60.566406 29.15625 59.316406 29.15625 57.777344 Z M 29.15625 57.777344 "/>
</g>
<g clip-path="url(#clip-9)">
<path fill-rule="nonzero" fill="rgb(72.499084%, 72.499084%, 72.499084%)" fill-opacity="1" d="M 11.859375 57.21875 C 11.859375 55.679688 11.234375 54.429688 10.460938 54.429688 C 9.691406 54.429688 9.066406 55.679688 9.066406 57.21875 C 9.066406 58.761719 9.691406 60.007812 10.460938 60.007812 C 11.234375 60.007812 11.859375 58.761719 11.859375 57.21875 Z M 11.859375 57.21875 "/>
</g>
<g clip-path="url(#clip-10)">
<path fill-rule="nonzero" fill="rgb(72.499084%, 72.499084%, 72.499084%)" fill-opacity="1" d="M 15.207031 57.777344 C 15.207031 56.234375 14.582031 54.988281 13.8125 54.988281 C 13.039062 54.988281 12.414062 56.234375 12.414062 57.777344 C 12.414062 59.316406 13.039062 60.566406 13.8125 60.566406 C 14.582031 60.566406 15.207031 59.316406 15.207031 57.777344 Z M 15.207031 57.777344 "/>
</g>
<g clip-path="url(#clip-11)">
<path fill-rule="nonzero" fill="rgb(72.499084%, 72.499084%, 72.499084%)" fill-opacity="1" d="M 8.511719 57.777344 C 8.511719 56.234375 7.886719 54.988281 7.113281 54.988281 C 6.34375 54.988281 5.71875 56.234375 5.71875 57.777344 C 5.71875 59.316406 6.34375 60.566406 7.113281 60.566406 C 7.886719 60.566406 8.511719 59.316406 8.511719 57.777344 Z M 8.511719 57.777344 "/>
</g>
</svg>
