<?xml version="1.0" encoding="UTF-8"?>
<svg xmlns="http://www.w3.org/2000/svg" xmlns:xlink="http://www.w3.org/1999/xlink" width="49.89" height="63.78" viewBox="0 0 49.89 63.78">
<defs>
<clipPath id="clip-0">
<path clip-rule="nonzero" d="M 0.03125 0 L 49.75 0 L 49.75 63.5625 L 0.03125 63.5625 Z M 0.03125 0 "/>
</clipPath>
<clipPath id="clip-1">
<path clip-rule="nonzero" d="M 25 58 L 39 58 L 39 63.5625 L 25 63.5625 Z M 25 58 "/>
</clipPath>
<clipPath id="clip-2">
<path clip-rule="nonzero" d="M 11 58 L 25 58 L 25 63.5625 L 11 63.5625 Z M 11 58 "/>
</clipPath>
<clipPath id="clip-3">
<path clip-rule="nonzero" d="M 0.03125 45 L 8 45 L 8 51 L 0.03125 51 Z M 0.03125 45 "/>
</clipPath>
<clipPath id="clip-4">
<path clip-rule="nonzero" d="M 42 45 L 49.75 45 L 49.75 51 L 42 51 Z M 42 45 "/>
</clipPath>
</defs>
<g clip-path="url(#clip-0)">
<path fill-rule="nonzero" fill="rgb(89.99939%, 89.99939%, 89.99939%)" fill-opacity="1" d="M 0.03125 63.5625 L 49.75 63.5625 L 49.75 0 L 0.03125 0 Z M 0.03125 63.5625 "/>
</g>
<g clip-path="url(#clip-1)">
<path fill-rule="nonzero" fill="rgb(31.25%, 31.25%, 31.25%)" fill-opacity="1" d="M 38.589844 60.734375 C 38.589844 59.332031 35.683594 58.195312 32.09375 58.195312 C 28.503906 58.195312 25.597656 59.332031 25.597656 60.734375 C 25.597656 62.140625 28.503906 63.277344 32.09375 63.277344 C 35.683594 63.277344 38.589844 62.140625 38.589844 60.734375 Z M 38.589844 60.734375 "/>
</g>
<g clip-path="url(#clip-2)">
<path fill-rule="nonzero" fill="rgb(31.25%, 31.25%, 31.25%)" fill-opacity="1" d="M 24.183594 60.734375 C 24.183594 59.332031 21.273438 58.195312 17.6875 58.195312 C 14.097656 58.195312 11.1875 59.332031 11.1875 60.734375 C 11.1875 62.140625 14.097656 63.277344 17.6875 63.277344 C 21.273438 63.277344 24.183594 62.140625 24.183594 60.734375 Z M 24.183594 60.734375 "/>
</g>
<path fill-rule="nonzero" fill="rgb(62.5%, 62.5%, 62.5%)" fill-opacity="1" d="M 44.804688 7.0625 C 44.804688 3.472656 41.011719 0.566406 36.332031 0.566406 C 31.652344 0.566406 27.855469 3.472656 27.855469 7.0625 C 27.855469 10.652344 31.652344 13.558594 36.332031 13.558594 C 41.011719 13.558594 44.804688 10.652344 44.804688 7.0625 Z M 44.804688 7.0625 "/>
<path fill-rule="nonzero" fill="rgb(62.5%, 62.5%, 62.5%)" fill-opacity="1" d="M 21.925781 7.0625 C 21.925781 3.472656 18.128906 0.566406 13.449219 0.566406 C 8.769531 0.566406 4.972656 3.472656 4.972656 7.0625 C 4.972656 10.652344 8.769531 13.558594 13.449219 13.558594 C 18.128906 13.558594 21.925781 10.652344 21.925781 7.0625 Z M 21.925781 7.0625 "/>
<path fill-rule="nonzero" fill="rgb(84.999084%, 84.999084%, 84.999084%)" fill-opacity="1" d="M 17.6875 7.0625 C 17.6875 5.191406 15.789062 3.671875 13.449219 3.671875 C 11.109375 3.671875 9.210938 5.191406 9.210938 7.0625 C 9.210938 8.933594 11.109375 10.453125 13.449219 10.453125 C 15.789062 10.453125 17.6875 8.933594 17.6875 7.0625 Z M 17.6875 7.0625 "/>
<path fill-rule="nonzero" fill="rgb(84.999084%, 84.999084%, 84.999084%)" fill-opacity="1" d="M 40.566406 7.0625 C 40.566406 5.191406 38.671875 3.671875 36.332031 3.671875 C 33.992188 3.671875 32.09375 5.191406 32.09375 7.0625 C 32.09375 8.933594 33.992188 10.453125 36.332031 10.453125 C 38.671875 10.453125 40.566406 8.933594 40.566406 7.0625 Z M 40.566406 7.0625 "/>
<path fill-rule="nonzero" fill="rgb(62.5%, 62.5%, 62.5%)" fill-opacity="1" d="M 11.292969 26.988281 C 9.386719 26.292969 6.023438 30.722656 3.785156 36.878906 C 1.542969 43.039062 1.269531 48.59375 3.175781 49.285156 C 5.082031 49.980469 8.445312 45.550781 10.683594 39.394531 C 12.925781 33.234375 13.199219 27.679688 11.292969 26.988281 Z M 11.292969 26.988281 "/>
<g clip-path="url(#clip-3)">
<path fill-rule="nonzero" fill="rgb(31.25%, 31.25%, 31.25%)" fill-opacity="1" d="M 7.03125 49.183594 C 7.457031 48.011719 6.375 46.539062 4.617188 45.902344 C 2.859375 45.261719 1.085938 45.691406 0.660156 46.863281 C 0.230469 48.039062 1.3125 49.507812 3.070312 50.148438 C 4.832031 50.789062 6.601562 50.355469 7.03125 49.183594 Z M 7.03125 49.183594 "/>
</g>
<path fill-rule="nonzero" fill="rgb(62.5%, 62.5%, 62.5%)" fill-opacity="1" d="M 46.605469 49.285156 C 48.511719 48.59375 48.238281 43.039062 45.996094 36.878906 C 43.757812 30.722656 40.394531 26.292969 38.488281 26.988281 C 36.582031 27.679688 36.855469 33.234375 39.09375 39.394531 C 41.335938 45.550781 44.699219 49.980469 46.605469 49.285156 Z M 46.605469 49.285156 "/>
<g clip-path="url(#clip-4)">
<path fill-rule="nonzero" fill="rgb(31.25%, 31.25%, 31.25%)" fill-opacity="1" d="M 49.121094 46.863281 C 48.695312 45.691406 46.921875 45.261719 45.164062 45.902344 C 43.402344 46.539062 42.324219 48.011719 42.75 49.183594 C 43.175781 50.355469 44.949219 50.789062 46.707031 50.148438 C 48.46875 49.507812 49.546875 48.039062 49.121094 46.863281 Z M 49.121094 46.863281 "/>
</g>
<path fill-rule="nonzero" fill="rgb(62.5%, 62.5%, 62.5%)" fill-opacity="1" d="M 41.699219 40.398438 C 41.699219 59.042969 34.917969 61.300781 24.890625 61.300781 C 14.863281 61.300781 8.082031 59.042969 8.082031 40.398438 C 7.800781 21.753906 15.425781 6.78125 24.890625 6.78125 C 34.355469 6.78125 41.980469 21.753906 41.699219 40.398438 Z M 41.699219 40.398438 "/>
<path fill-rule="nonzero" fill="rgb(84.999084%, 84.999084%, 84.999084%)" fill-opacity="1" d="M 36.894531 46.328125 C 36.894531 54.804688 32.09375 58.757812 24.890625 58.757812 C 17.6875 58.757812 12.882812 54.804688 12.882812 46.328125 C 12.882812 37.855469 17.6875 32.488281 24.890625 32.488281 C 31.246094 32.488281 36.894531 37.855469 36.894531 46.328125 Z M 36.894531 46.328125 "/>
<path fill-rule="nonzero" fill="rgb(62.5%, 62.5%, 62.5%)" fill-opacity="1" d="M 40.425781 19.210938 C 40.425781 12.1875 33.472656 6.496094 24.890625 6.496094 C 16.308594 6.496094 9.351562 12.1875 9.351562 19.210938 C 9.351562 26.230469 16.308594 31.921875 24.890625 31.921875 C 33.472656 31.921875 40.425781 26.230469 40.425781 19.210938 Z M 40.425781 19.210938 "/>
<path fill-rule="nonzero" fill="rgb(25%, 25%, 25%)" fill-opacity="1" d="M 20.648438 22.292969 C 19.851562 24.484375 22.554688 26.53125 24.890625 26.53125 C 27.226562 26.53125 29.929688 24.484375 29.128906 22.292969 C 28.535156 20.648438 28.242188 19.566406 27.007812 18.332031 C 25.839844 17.164062 23.941406 17.164062 22.773438 18.332031 C 21.535156 19.566406 21.246094 20.648438 20.648438 22.292969 Z M 20.648438 22.292969 "/>
<path fill-rule="nonzero" fill="rgb(0%, 0%, 0%)" fill-opacity="1" d="M 19.945312 17.230469 C 19.945312 15.984375 18.933594 14.972656 17.6875 14.972656 C 16.4375 14.972656 15.425781 15.984375 15.425781 17.230469 C 15.425781 18.480469 16.4375 19.492188 17.6875 19.492188 C 18.933594 19.492188 19.945312 18.480469 19.945312 17.230469 Z M 19.945312 17.230469 "/>
<path fill-rule="nonzero" fill="rgb(0%, 0%, 0%)" fill-opacity="1" d="M 34.355469 17.230469 C 34.355469 15.984375 33.34375 14.972656 32.09375 14.972656 C 30.847656 14.972656 29.832031 15.984375 29.832031 17.230469 C 29.832031 18.480469 30.847656 19.492188 32.09375 19.492188 C 33.34375 19.492188 34.355469 18.480469 34.355469 17.230469 Z M 34.355469 17.230469 "/>
<path fill-rule="nonzero" fill="rgb(100%, 100%, 100%)" fill-opacity="1" d="M 17.6875 16.667969 C 17.6875 16.433594 17.496094 16.242188 17.261719 16.242188 C 17.027344 16.242188 16.839844 16.433594 16.839844 16.667969 C 16.839844 16.902344 17.027344 17.089844 17.261719 17.089844 C 17.496094 17.089844 17.6875 16.902344 17.6875 16.667969 Z M 17.6875 16.667969 "/>
<path fill-rule="nonzero" fill="rgb(100%, 100%, 100%)" fill-opacity="1" d="M 32.09375 16.667969 C 32.09375 16.433594 31.902344 16.242188 31.671875 16.242188 C 31.4375 16.242188 31.246094 16.433594 31.246094 16.667969 C 31.246094 16.902344 31.4375 17.089844 31.671875 17.089844 C 31.902344 17.089844 32.09375 16.902344 32.09375 16.667969 Z M 32.09375 16.667969 "/>
<path fill="none" stroke-width="0.3985" stroke-linecap="butt" stroke-linejoin="miter" stroke="rgb(25%, 25%, 25%)" stroke-opacity="1" stroke-miterlimit="10" d="M 3.261648 39.400356 C 2.219001 38.161723 0.592316 37.569845 -1.003012 37.852065 C -2.053498 38.036292 -3.002071 38.585053 -3.688023 39.400356 " transform="matrix(0.996563, 0, 0, -0.996563, 24.890189, 66.386011)"/>
</svg>
