<?xml version="1.0" encoding="UTF-8"?>
<svg xmlns="http://www.w3.org/2000/svg" xmlns:xlink="http://www.w3.org/1999/xlink" width="43.37" height="58.677" viewBox="0 0 43.37 58.677">
<defs>
<clipPath id="clip-0">
<path clip-rule="nonzero" d="M 0 0.261719 L 42.75 0.261719 L 42.75 58.097656 L 0 58.097656 Z M 0 0.261719 "/>
</clipPath>
<clipPath id="clip-1">
<path clip-rule="nonzero" d="M 22 0.261719 L 28 0.261719 L 28 8 L 22 8 Z M 22 0.261719 "/>
</clipPath>
<clipPath id="clip-2">
<path clip-rule="nonzero" d="M 7 0.261719 L 13 0.261719 L 13 8 L 7 8 Z M 7 0.261719 "/>
</clipPath>
<clipPath id="clip-3">
<path clip-rule="nonzero" d="M 17 42 L 42.75 42 L 42.75 52 L 17 52 Z M 17 42 "/>
</clipPath>
</defs>
<g clip-path="url(#clip-0)">
<path fill-rule="nonzero" fill="rgb(89.99939%, 89.99939%, 89.99939%)" fill-opacity="1" d="M 0 58.097656 L 42.75 58.097656 L 42.75 0.261719 L 0 0.261719 Z M 0 58.097656 "/>
</g>
<path fill-rule="nonzero" fill="rgb(37.5%, 25%, 12.5%)" fill-opacity="1" d="M 16.765625 55.304688 C 16.765625 53.914062 13.886719 52.789062 10.339844 52.789062 C 6.789062 52.789062 3.910156 53.914062 3.910156 55.304688 C 3.910156 56.691406 6.789062 57.820312 10.339844 57.820312 C 13.886719 57.820312 16.765625 56.691406 16.765625 55.304688 Z M 16.765625 55.304688 "/>
<path fill-rule="nonzero" fill="rgb(37.5%, 25%, 12.5%)" fill-opacity="1" d="M 31.015625 55.304688 C 31.015625 53.914062 28.136719 52.789062 24.589844 52.789062 C 21.039062 52.789062 18.160156 53.914062 18.160156 55.304688 C 18.160156 56.691406 21.039062 57.820312 24.589844 57.820312 C 28.136719 57.820312 31.015625 56.691406 31.015625 55.304688 Z M 31.015625 55.304688 "/>
<g clip-path="url(#clip-1)">
<path fill-rule="nonzero" fill="rgb(37.5%, 25%, 12.5%)" fill-opacity="1" d="M 27.101562 4.171875 C 27.101562 2.164062 25.976562 0.539062 24.589844 0.539062 C 23.199219 0.539062 22.074219 2.164062 22.074219 4.171875 C 22.074219 6.179688 23.199219 7.804688 24.589844 7.804688 C 25.976562 7.804688 27.101562 6.179688 27.101562 4.171875 Z M 27.101562 4.171875 "/>
</g>
<g clip-path="url(#clip-2)">
<path fill-rule="nonzero" fill="rgb(37.5%, 25%, 12.5%)" fill-opacity="1" d="M 12.851562 4.171875 C 12.851562 2.164062 11.726562 0.539062 10.339844 0.539062 C 8.949219 0.539062 7.824219 2.164062 7.824219 4.171875 C 7.824219 6.179688 8.949219 7.804688 10.339844 7.804688 C 11.726562 7.804688 12.851562 6.179688 12.851562 4.171875 Z M 12.851562 4.171875 "/>
</g>
<g clip-path="url(#clip-3)">
<path fill-rule="nonzero" fill="rgb(37.5%, 25%, 12.5%)" fill-opacity="1" d="M 42.207031 42.71875 C 41.648438 50.265625 18.210938 54.738281 17.929688 49.148438 C 17.371094 45.792969 20.546875 48.605469 28.503906 47.472656 C 35.785156 46.433594 42.207031 41.320312 42.207031 42.71875 "/>
</g>
<path fill-rule="nonzero" fill="rgb(75%, 50%, 25%)" fill-opacity="1" d="M 34.089844 35.1875 C 34.089844 53.628906 27.382812 55.863281 17.464844 55.863281 C 7.542969 55.863281 0.839844 53.628906 0.839844 35.1875 C 0.558594 16.746094 8.101562 1.9375 17.464844 1.9375 C 26.824219 1.9375 34.367188 16.746094 34.089844 35.1875 Z M 34.089844 35.1875 "/>
<path fill-rule="nonzero" fill="rgb(87.5%, 75%, 62.5%)" fill-opacity="1" d="M 29.339844 41.054688 C 29.339844 49.4375 24.308594 50.554688 17.464844 50.554688 C 10.617188 50.554688 5.589844 49.4375 5.589844 41.054688 C 5.589844 32.671875 11.175781 25.6875 17.464844 25.6875 C 23.75 25.6875 29.339844 32.671875 29.339844 41.054688 Z M 29.339844 41.054688 "/>
<path fill-rule="nonzero" fill="rgb(37.5%, 25%, 12.5%)" fill-opacity="1" d="M 30.515625 28.605469 C 28.628906 27.917969 26.074219 30.183594 24.808594 33.664062 C 23.539062 37.144531 24.042969 40.523438 25.925781 41.207031 C 27.8125 41.894531 30.367188 39.628906 31.632812 36.148438 C 32.902344 32.667969 32.398438 29.292969 30.515625 28.605469 Z M 30.515625 28.605469 "/>
<path fill-rule="nonzero" fill="rgb(37.5%, 25%, 12.5%)" fill-opacity="1" d="M 9 41.207031 C 10.886719 40.523438 11.386719 37.144531 10.121094 33.664062 C 8.851562 30.183594 6.296875 27.917969 4.414062 28.605469 C 2.527344 29.292969 2.027344 32.667969 3.292969 36.148438 C 4.558594 39.628906 7.113281 41.894531 9 41.207031 Z M 9 41.207031 "/>
<path fill-rule="nonzero" fill="rgb(87.5%, 75%, 62.5%)" fill-opacity="1" d="M 23.890625 19.820312 C 23.890625 17.8125 21.011719 16.1875 17.464844 16.1875 C 13.914062 16.1875 11.035156 17.8125 11.035156 19.820312 C 11.035156 21.824219 13.914062 23.453125 17.464844 23.453125 C 21.011719 23.453125 23.890625 21.824219 23.890625 19.820312 Z M 23.890625 19.820312 "/>
<path fill-rule="nonzero" fill="rgb(37.5%, 25%, 12.5%)" fill-opacity="1" d="M 19.699219 16.1875 C 19.699219 14.953125 18.699219 13.953125 17.464844 13.953125 C 16.230469 13.953125 15.226562 14.953125 15.226562 16.1875 C 15.226562 17.421875 16.230469 18.421875 17.464844 18.421875 C 18.699219 18.421875 19.699219 17.421875 19.699219 16.1875 Z M 19.699219 16.1875 "/>
<path fill-rule="nonzero" fill="rgb(37.5%, 25%, 12.5%)" fill-opacity="1" d="M 14.53125 11.4375 C 14.53125 10.664062 13.902344 10.039062 13.132812 10.039062 C 12.359375 10.039062 11.734375 10.664062 11.734375 11.4375 C 11.734375 12.207031 12.359375 12.832031 13.132812 12.832031 C 13.902344 12.832031 14.53125 12.207031 14.53125 11.4375 Z M 14.53125 11.4375 "/>
<path fill-rule="nonzero" fill="rgb(37.5%, 25%, 12.5%)" fill-opacity="1" d="M 23.191406 11.4375 C 23.191406 10.664062 22.566406 10.039062 21.792969 10.039062 C 21.023438 10.039062 20.398438 10.664062 20.398438 11.4375 C 20.398438 12.207031 21.023438 12.832031 21.792969 12.832031 C 22.566406 12.832031 23.191406 12.207031 23.191406 11.4375 Z M 23.191406 11.4375 "/>
<path fill-rule="nonzero" fill="rgb(37.5%, 25%, 12.5%)" fill-opacity="1" d="M 21.515625 18.703125 C 20.671875 21.023438 18.105469 22.21875 15.785156 21.375 C 14.542969 20.921875 13.566406 19.941406 13.113281 18.703125 L 13.550781 18.703125 C 14.3125 20.789062 16.621094 21.867188 18.707031 21.105469 C 19.824219 20.699219 20.707031 19.820312 21.113281 18.703125 Z M 21.515625 18.703125 "/>
</svg>
