<?xml version="1.0" encoding="UTF-8"?>
<svg xmlns="http://www.w3.org/2000/svg" xmlns:xlink="http://www.w3.org/1999/xlink" width="39.685" height="59.057" viewBox="0 0 39.685 59.057">
<defs>
<clipPath id="clip-0">
<path clip-rule="nonzero" d="M 0.15625 0 L 39.21875 0 L 39.21875 58.128906 L 0.15625 58.128906 Z M 0.15625 0 "/>
</clipPath>
</defs>
<g clip-path="url(#clip-0)">
<path fill-rule="nonzero" fill="rgb(89.99939%, 89.99939%, 89.99939%)" fill-opacity="1" d="M 0.15625 58.128906 L 39.21875 58.128906 L 39.21875 0 L 0.15625 0 Z M 0.15625 58.128906 "/>
</g>
<path fill-rule="nonzero" fill="rgb(75%, 50%, 25%)" fill-opacity="1" d="M 13.953125 42.695312 C 13.953125 47.4375 20.558594 53.816406 25.015625 55.4375 L 27.78125 52.371094 C 24.167969 51.054688 18.179688 46.269531 18.179688 42.425781 "/>
<path fill-rule="nonzero" fill="rgb(37.5%, 25%, 12.5%)" fill-opacity="1" d="M 38.828125 55.746094 C 33.421875 55.746094 30.097656 57.289062 25.015625 55.4375 L 27.78125 52.371094 C 32.027344 53.914062 34.378906 54.960938 38.828125 55.746094 "/>
<path fill-rule="nonzero" fill="rgb(75%, 50%, 25%)" fill-opacity="1" d="M 7.804688 41.144531 C 7.335938 38.488281 4.390625 37.945312 2.675781 37.945312 C 2.128906 37.945312 1.667969 38.382812 1.632812 38.925781 C 1.289062 44.648438 3.761719 49.589844 8.546875 52.753906 C 9 53.046875 8.917969 53.203125 8.386719 53.289062 L 2.800781 54.1875 C 2.261719 54.277344 1.507812 54.5 1.125 54.882812 C 0.972656 55.039062 0.972656 56.414062 1.125 56.566406 C 1.507812 56.949219 2.257812 57.214844 2.800781 57.207031 C 12.894531 57.105469 13.96875 58.128906 13.96875 54.273438 C 13.96875 53.730469 14.050781 52.859375 14.148438 52.328125 L 14.980469 47.753906 "/>
<path fill-rule="nonzero" fill="rgb(75%, 50%, 25%)" fill-opacity="1" d="M 23.199219 41.144531 C 23.667969 38.488281 26.617188 37.945312 28.332031 37.945312 C 28.875 37.945312 29.339844 38.382812 29.371094 38.925781 C 29.714844 44.648438 27.242188 49.589844 22.457031 52.753906 C 22.007812 53.046875 22.085938 53.203125 22.621094 53.289062 L 28.207031 54.1875 C 28.742188 54.277344 29.5 54.5 29.878906 54.882812 C 30.035156 55.039062 30.035156 56.414062 29.878906 56.566406 C 29.5 56.949219 28.746094 57.214844 28.207031 57.207031 C 18.113281 57.105469 17.039062 58.128906 17.039062 54.273438 C 17.039062 53.730469 16.957031 52.859375 16.855469 52.328125 L 16.023438 47.753906 "/>
<path fill-rule="nonzero" fill="rgb(75%, 50%, 25%)" fill-opacity="1" d="M 25.269531 37.945312 C 25.269531 32.550781 20.894531 28.179688 15.503906 28.179688 C 10.109375 28.179688 5.738281 32.550781 5.738281 37.945312 C 5.738281 43.339844 10.109375 47.710938 15.503906 47.710938 C 20.894531 47.710938 25.269531 43.339844 25.269531 37.945312 Z M 25.269531 37.945312 "/>
<path fill-rule="nonzero" fill="rgb(82.499695%, 64.99939%, 47.499084%)" fill-opacity="1" d="M 5.066406 22.597656 C 4.414062 30.074219 10.59375 33.511719 10.59375 41.015625 C 10.59375 46.398438 13.355469 46.398438 13.355469 41.015625 C 13.355469 40.109375 13.261719 39.265625 13.105469 38.460938 C 13.84375 39.304688 14.636719 40.148438 15.503906 41.015625 C 16.367188 40.148438 17.164062 39.304688 17.898438 38.460938 C 17.742188 39.265625 17.652344 40.109375 17.652344 41.015625 C 17.652344 46.398438 20.414062 46.398438 20.414062 41.015625 C 20.414062 33.511719 26.589844 30.074219 25.9375 22.597656 C 25.9375 19.59375 20.714844 15.289062 15.503906 13.390625 C 10.269531 15.296875 5.066406 19.609375 5.066406 22.597656 Z M 5.066406 22.597656 "/>
<path fill-rule="nonzero" fill="rgb(88.749695%, 77.49939%, 66.249084%)" fill-opacity="1" d="M 15.503906 16.460938 C 11.65625 16.460938 7.832031 18.753906 7.832031 22.597656 C 7.832031 28.269531 11.492188 30.867188 15.503906 34.875 C 19.511719 30.867188 23.175781 28.269531 23.175781 22.597656 C 23.175781 18.753906 19.347656 16.460938 15.503906 16.460938 Z M 15.503906 16.460938 "/>
<path fill-rule="nonzero" fill="rgb(37.5%, 25%, 12.5%)" fill-opacity="1" d="M 8.804688 7.253906 C 8.804688 5.558594 7.433594 4.183594 5.738281 4.183594 C 4.042969 4.183594 2.667969 5.558594 2.667969 7.253906 C 2.667969 8.949219 4.042969 10.324219 5.738281 10.324219 C 7.433594 10.324219 8.804688 8.949219 8.804688 7.253906 Z M 8.804688 7.253906 "/>
<path fill-rule="nonzero" fill="rgb(37.5%, 25%, 12.5%)" fill-opacity="1" d="M 28.335938 7.253906 C 28.335938 5.558594 26.964844 4.183594 25.269531 4.183594 C 23.574219 4.183594 22.199219 5.558594 22.199219 7.253906 C 22.199219 8.949219 23.574219 10.324219 25.269531 10.324219 C 26.964844 10.324219 28.335938 8.949219 28.335938 7.253906 Z M 28.335938 7.253906 "/>
<path fill-rule="nonzero" fill="rgb(75%, 50%, 25%)" fill-opacity="1" d="M 24.988281 7.8125 C 24.988281 3.960938 20.742188 0.835938 15.503906 0.835938 C 10.261719 0.835938 6.015625 3.960938 6.015625 7.8125 C 6.015625 11.664062 10.261719 14.785156 15.503906 14.785156 C 20.742188 14.785156 24.988281 11.664062 24.988281 7.8125 Z M 24.988281 7.8125 "/>
<path fill-rule="nonzero" fill="rgb(88.749695%, 77.49939%, 66.249084%)" fill-opacity="1" d="M 26.105469 11.996094 C 26.105469 8.761719 21.359375 6.136719 15.503906 6.136719 C 9.648438 6.136719 4.898438 8.761719 4.898438 11.996094 C 4.898438 15.234375 9.648438 17.855469 15.503906 17.855469 C 21.359375 17.855469 26.105469 15.234375 26.105469 11.996094 Z M 26.105469 11.996094 "/>
<path fill-rule="nonzero" fill="rgb(37.5%, 25%, 12.5%)" fill-opacity="1" d="M 15.992188 12.03125 L 16.722656 10.773438 C 16.992188 10.304688 16.773438 9.921875 16.230469 9.921875 L 14.773438 9.921875 C 14.234375 9.921875 14.011719 10.304688 14.285156 10.773438 L 15.011719 12.03125 C 15.28125 12.5 15.722656 12.5 15.992188 12.03125 Z M 15.992188 12.03125 "/>
<path fill="none" stroke-width="0.3985" stroke-linecap="butt" stroke-linejoin="miter" stroke="rgb(37.5%, 25%, 12.5%)" stroke-opacity="1" stroke-miterlimit="10" d="M 0.00112921 47.825244 C 1.167905 46.531472 3.830851 47.102954 4.366615 48.75787 " transform="matrix(0.984283, 0, 0, -0.984283, 15.502795, 59.429059)"/>
<path fill="none" stroke-width="0.3985" stroke-linecap="butt" stroke-linejoin="miter" stroke="rgb(37.5%, 25%, 12.5%)" stroke-opacity="1" stroke-miterlimit="10" d="M 0.00112921 47.825244 C -1.169615 46.531472 -3.828592 47.102954 -4.364357 48.75787 " transform="matrix(0.984283, 0, 0, -0.984283, 15.502795, 59.429059)"/>
<path fill-rule="nonzero" fill="rgb(56.25%, 37.5%, 18.75%)" fill-opacity="1" d="M 13.292969 5.933594 C 12.675781 4.867188 10.660156 4.875 8.792969 5.957031 C 6.925781 7.035156 5.910156 8.773438 6.527344 9.839844 C 7.144531 10.910156 9.15625 10.898438 11.023438 9.820312 C 12.894531 8.742188 13.910156 7.003906 13.292969 5.933594 Z M 13.292969 5.933594 "/>
<path fill-rule="nonzero" fill="rgb(56.25%, 37.5%, 18.75%)" fill-opacity="1" d="M 24.480469 9.839844 C 25.09375 8.773438 24.082031 7.035156 22.210938 5.957031 C 20.34375 4.875 18.328125 4.867188 17.714844 5.933594 C 17.097656 7.003906 18.113281 8.742188 19.980469 9.820312 C 21.847656 10.898438 23.863281 10.910156 24.480469 9.839844 Z M 24.480469 9.839844 "/>
<path fill-rule="nonzero" fill="rgb(0%, 0%, 0%)" fill-opacity="1" d="M 22.058594 7.53125 C 22.058594 6.683594 21.371094 6 20.523438 6 C 19.675781 6 18.992188 6.683594 18.992188 7.53125 C 18.992188 8.378906 19.675781 9.066406 20.523438 9.066406 C 21.371094 9.066406 22.058594 8.378906 22.058594 7.53125 Z M 22.058594 7.53125 "/>
<path fill-rule="nonzero" fill="rgb(0%, 0%, 0%)" fill-opacity="1" d="M 12.015625 7.53125 C 12.015625 6.683594 11.328125 6 10.480469 6 C 9.632812 6 8.945312 6.683594 8.945312 7.53125 C 8.945312 8.378906 9.632812 9.066406 10.480469 9.066406 C 11.328125 9.066406 12.015625 8.378906 12.015625 7.53125 Z M 12.015625 7.53125 "/>
<path fill-rule="nonzero" fill="rgb(100%, 100%, 100%)" fill-opacity="1" d="M 20.386719 6.972656 C 20.386719 6.820312 20.261719 6.695312 20.105469 6.695312 C 19.953125 6.695312 19.828125 6.820312 19.828125 6.972656 C 19.828125 7.128906 19.953125 7.253906 20.105469 7.253906 C 20.261719 7.253906 20.386719 7.128906 20.386719 6.972656 Z M 20.386719 6.972656 "/>
<path fill-rule="nonzero" fill="rgb(100%, 100%, 100%)" fill-opacity="1" d="M 10.339844 6.972656 C 10.339844 6.820312 10.214844 6.695312 10.0625 6.695312 C 9.90625 6.695312 9.78125 6.820312 9.78125 6.972656 C 9.78125 7.128906 9.90625 7.253906 10.0625 7.253906 C 10.214844 7.253906 10.339844 7.128906 10.339844 6.972656 Z M 10.339844 6.972656 "/>
</svg>
