<?xml version="1.0" encoding="UTF-8"?>
<svg xmlns="http://www.w3.org/2000/svg" xmlns:xlink="http://www.w3.org/1999/xlink" width="43.37" height="61.512" viewBox="0 0 43.37 61.512">
<defs>
<clipPath id="clip-0">
<path clip-rule="nonzero" d="M 0 0.199219 L 42.75 0.199219 L 42.75 60.832031 L 0 60.832031 Z M 0 0.199219 "/>
</clipPath>
<clipPath id="clip-1">
<path clip-rule="nonzero" d="M 3 55 L 17 55 L 17 60.832031 L 3 60.832031 Z M 3 55 "/>
</clipPath>
<clipPath id="clip-2">
<path clip-rule="nonzero" d="M 18 55 L 32 55 L 32 60.832031 L 18 60.832031 Z M 18 55 "/>
</clipPath>
<clipPath id="clip-3">
<path clip-rule="nonzero" d="M 17 45 L 42.75 45 L 42.75 55 L 17 55 Z M 17 45 "/>
</clipPath>
<clipPath id="clip-4">
<path clip-rule="nonzero" d="M 14 0.199219 L 22 0.199219 L 22 7 L 14 7 Z M 14 0.199219 "/>
</clipPath>
</defs>
<g clip-path="url(#clip-0)">
<path fill-rule="nonzero" fill="rgb(89.99939%, 89.99939%, 89.99939%)" fill-opacity="1" d="M 0 60.832031 L 42.75 60.832031 L 42.75 0.199219 L 0 0.199219 Z M 0 60.832031 "/>
</g>
<g clip-path="url(#clip-1)">
<path fill-rule="nonzero" fill="rgb(87.5%, 65.000916%, 52.500916%)" fill-opacity="1" d="M 16.765625 58.039062 C 16.765625 56.648438 13.886719 55.523438 10.339844 55.523438 C 6.789062 55.523438 3.910156 56.648438 3.910156 58.039062 C 3.910156 59.425781 6.789062 60.550781 10.339844 60.550781 C 13.886719 60.550781 16.765625 59.425781 16.765625 58.039062 Z M 16.765625 58.039062 "/>
</g>
<g clip-path="url(#clip-2)">
<path fill-rule="nonzero" fill="rgb(87.5%, 65.000916%, 52.500916%)" fill-opacity="1" d="M 31.015625 58.039062 C 31.015625 56.648438 28.136719 55.523438 24.589844 55.523438 C 21.039062 55.523438 18.160156 56.648438 18.160156 58.039062 C 18.160156 59.425781 21.039062 60.550781 24.589844 60.550781 C 28.136719 60.550781 31.015625 59.425781 31.015625 58.039062 Z M 31.015625 58.039062 "/>
</g>
<g clip-path="url(#clip-3)">
<path fill-rule="nonzero" fill="rgb(50%, 50%, 50%)" fill-opacity="1" d="M 42.207031 45.453125 C 41.648438 53 18.210938 57.472656 17.929688 51.882812 C 17.371094 48.527344 20.546875 51.339844 28.503906 50.207031 C 35.785156 49.167969 42.207031 44.054688 42.207031 45.453125 "/>
</g>
<g clip-path="url(#clip-4)">
<path fill-rule="nonzero" fill="rgb(50%, 50%, 50%)" fill-opacity="1" d="M 14.949219 6.066406 C 14.949219 6.066406 13.832031 0.757812 15.507812 0.199219 C 14.949219 4.109375 18.582031 5.507812 18.582031 5.507812 C 18.582031 5.507812 18.023438 2.15625 19.140625 1.875 C 19.140625 4.671875 21.097656 5.507812 21.097656 5.507812 Z M 14.949219 6.066406 "/>
</g>
<path fill-rule="nonzero" fill="rgb(50%, 50%, 50%)" fill-opacity="1" d="M 34.089844 37.921875 C 34.089844 56.359375 27.382812 58.597656 17.464844 58.597656 C 7.542969 58.597656 0.839844 56.359375 0.839844 37.921875 C 0.558594 19.480469 8.101562 4.671875 17.464844 4.671875 C 26.824219 4.671875 34.367188 19.480469 34.089844 37.921875 Z M 34.089844 37.921875 "/>
<path fill-rule="nonzero" fill="rgb(75%, 75%, 75%)" fill-opacity="1" d="M 29.339844 43.789062 C 29.339844 52.167969 24.308594 53.289062 17.464844 53.289062 C 10.617188 53.289062 5.589844 52.167969 5.589844 43.789062 C 5.589844 35.40625 11.175781 28.421875 17.464844 28.421875 C 23.75 28.421875 29.339844 35.40625 29.339844 43.789062 Z M 29.339844 43.789062 "/>
<path fill-rule="nonzero" fill="rgb(50%, 50%, 50%)" fill-opacity="1" d="M 30.382812 32.507812 C 28.496094 31.820312 25.8125 34.4375 24.386719 38.355469 C 22.960938 42.269531 23.335938 46 25.222656 46.6875 C 27.105469 47.371094 29.789062 44.753906 31.214844 40.839844 C 32.640625 36.921875 32.265625 33.191406 30.382812 32.507812 Z M 30.382812 32.507812 "/>
<path fill-rule="nonzero" fill="rgb(50%, 50%, 50%)" fill-opacity="1" d="M 9.707031 46.6875 C 11.589844 46 11.964844 42.269531 10.539062 38.355469 C 9.113281 34.4375 6.429688 31.820312 4.546875 32.507812 C 2.660156 33.191406 2.285156 36.921875 3.710938 40.839844 C 5.136719 44.753906 7.820312 47.371094 9.707031 46.6875 Z M 9.707031 46.6875 "/>
<path fill-rule="nonzero" fill="rgb(100%, 100%, 100%)" fill-opacity="1" d="M 7.125 46.859375 L 8.523438 48.816406 L 9.082031 46.859375 L 11.035156 48.257812 L 11.035156 45.742188 L 12.992188 47.140625 L 12.433594 44.90625 Z M 7.125 46.859375 "/>
<path fill-rule="nonzero" fill="rgb(100%, 100%, 100%)" fill-opacity="1" d="M 27.800781 46.859375 L 26.40625 48.816406 L 25.84375 46.859375 L 23.890625 48.257812 L 23.890625 45.742188 L 21.933594 47.140625 L 22.492188 44.90625 Z M 27.800781 46.859375 "/>
<path fill-rule="nonzero" fill="rgb(87.5%, 65.000916%, 52.500916%)" fill-opacity="1" d="M 26.191406 43.363281 C 24.304688 42.675781 22.433594 43.0625 22.011719 44.222656 C 21.589844 45.382812 22.777344 46.878906 24.660156 47.566406 C 26.546875 48.25 28.417969 47.867188 28.839844 46.707031 C 29.261719 45.546875 28.078125 44.050781 26.191406 43.363281 Z M 26.191406 43.363281 "/>
<path fill-rule="nonzero" fill="rgb(87.5%, 65.000916%, 52.500916%)" fill-opacity="1" d="M 10.265625 47.566406 C 12.148438 46.878906 13.335938 45.382812 12.914062 44.222656 C 12.492188 43.0625 10.621094 42.675781 8.734375 43.363281 C 6.851562 44.050781 5.664062 45.546875 6.085938 46.707031 C 6.507812 47.867188 8.378906 48.25 10.265625 47.566406 Z M 10.265625 47.566406 "/>
<path fill-rule="nonzero" fill="rgb(87.5%, 65.000916%, 52.500916%)" fill-opacity="1" d="M 23.609375 22.832031 C 23.609375 21.714844 23.609375 20.875 22.214844 20.039062 C 20.535156 19.480469 18.859375 17.242188 17.464844 17.242188 C 16.066406 17.242188 14.390625 19.480469 12.714844 20.039062 C 11.316406 20.875 11.316406 21.714844 11.316406 22.832031 C 11.316406 24.789062 13.550781 26.464844 17.464844 26.464844 C 21.375 26.464844 23.609375 24.789062 23.609375 22.832031 Z M 23.609375 22.832031 "/>
<path fill-rule="nonzero" fill="rgb(29.998779%, 29.998779%, 29.998779%)" fill-opacity="1" d="M 19 16.964844 C 19 16.117188 18.3125 15.425781 17.464844 15.425781 C 16.613281 15.425781 15.925781 16.117188 15.925781 16.964844 C 15.925781 17.8125 16.613281 18.5 17.464844 18.5 C 18.3125 18.5 19 17.8125 19 16.964844 Z M 19 16.964844 "/>
<path fill-rule="nonzero" fill="rgb(29.998779%, 29.998779%, 29.998779%)" fill-opacity="1" d="M 14.335938 14.007812 C 14.398438 13.785156 13.78125 13.425781 12.960938 13.207031 C 12.140625 12.988281 11.429688 12.988281 11.367188 13.214844 C 11.308594 13.4375 11.925781 13.796875 12.746094 14.015625 C 13.566406 14.234375 14.277344 14.234375 14.335938 14.007812 Z M 14.335938 14.007812 "/>
<path fill-rule="nonzero" fill="rgb(29.998779%, 29.998779%, 29.998779%)" fill-opacity="1" d="M 23.558594 13.214844 C 23.496094 12.988281 22.785156 12.988281 21.964844 13.207031 C 21.144531 13.425781 20.53125 13.785156 20.589844 14.007812 C 20.648438 14.234375 21.363281 14.234375 22.183594 14.015625 C 23 13.796875 23.617188 13.4375 23.558594 13.214844 Z M 23.558594 13.214844 "/>
<path fill="none" stroke-width="0.3985" stroke-linecap="butt" stroke-linejoin="miter" stroke="rgb(29.998779%, 29.998779%, 29.998779%)" stroke-opacity="1" stroke-miterlimit="10" d="M 4.111165 42.804825 C 3.255158 40.450807 0.651472 39.234169 -1.702546 40.094138 C -2.962778 40.549882 -3.953526 41.544593 -4.413233 42.804825 " transform="matrix(0.985682, 0, 0, -0.985682, 17.463325, 63.625532)"/>
</svg>
