<?xml version="1.0" encoding="UTF-8"?>
<svg xmlns="http://www.w3.org/2000/svg" xmlns:xlink="http://www.w3.org/1999/xlink" width="43.008" height="61.228" viewBox="0 0 43.008 61.228">
<defs>
<clipPath id="clip-0">
<path clip-rule="nonzero" d="M 0 0.3125 L 42.039062 0.3125 L 42.039062 60.160156 L 0 60.160156 Z M 0 0.3125 "/>
</clipPath>
</defs>
<g clip-path="url(#clip-0)">
<path fill-rule="nonzero" fill="rgb(89.99939%, 89.99939%, 89.99939%)" fill-opacity="1" d="M 0 60.160156 L 42.039062 60.160156 L 42.039062 0.3125 L 0 0.3125 Z M 0 60.160156 "/>
</g>
<path fill-rule="nonzero" fill="rgb(52.49939%, 34.999084%, 17.498779%)" fill-opacity="1" d="M 38.78125 50.582031 C 40.285156 50.316406 40.691406 45.457031 39.679688 39.730469 C 38.671875 34.003906 36.628906 29.578125 35.121094 29.84375 C 33.617188 30.109375 33.210938 34.964844 34.222656 40.691406 C 35.230469 46.417969 37.273438 50.847656 38.78125 50.582031 Z M 38.78125 50.582031 "/>
<path fill-rule="nonzero" fill="rgb(52.49939%, 34.999084%, 17.498779%)" fill-opacity="1" d="M 6.914062 29.84375 C 5.410156 29.578125 3.367188 34.003906 2.359375 39.730469 C 1.347656 45.457031 1.75 50.316406 3.257812 50.582031 C 4.765625 50.847656 6.804688 46.417969 7.816406 40.691406 C 8.824219 34.964844 8.421875 30.109375 6.914062 29.84375 Z M 6.914062 29.84375 "/>
<path fill-rule="nonzero" fill="rgb(52.49939%, 34.999084%, 17.498779%)" fill-opacity="1" d="M 37.503906 36.886719 C 37.503906 55.171875 30.855469 57.390625 21.019531 57.390625 C 11.183594 57.390625 4.53125 55.171875 4.53125 36.886719 C 4.257812 18.597656 11.738281 3.914062 21.019531 3.914062 C 30.300781 3.914062 37.78125 18.597656 37.503906 36.886719 Z M 37.503906 36.886719 "/>
<path fill-rule="nonzero" fill="rgb(52.49939%, 34.999084%, 17.498779%)" fill-opacity="1" d="M 3.394531 13.140625 C 3.394531 13.140625 0 8.0625 2.292969 1.019531 C 12.019531 9.398438 30.019531 9.398438 39.746094 1.019531 C 42.039062 8.0625 38.644531 13.140625 38.644531 13.140625 "/>
<path fill-rule="nonzero" fill="rgb(76.249695%, 67.498779%, 58.750916%)" fill-opacity="1" d="M 32.796875 48.523438 C 32.796875 53.789062 27.808594 54.894531 21.019531 54.894531 C 14.230469 54.894531 9.242188 53.789062 9.242188 48.523438 C 9.242188 39.933594 14.785156 35.222656 21.019531 35.222656 C 27.253906 35.222656 32.796875 39.933594 32.796875 48.523438 Z M 32.796875 48.523438 "/>
<path fill-rule="nonzero" fill="rgb(52.49939%, 34.999084%, 17.498779%)" fill-opacity="1" d="M 40.414062 19.429688 C 40.414062 11.015625 31.730469 4.191406 21.019531 4.191406 C 10.308594 4.191406 1.625 11.015625 1.625 19.429688 C 1.625 27.847656 10.308594 34.667969 21.019531 34.667969 C 31.730469 34.667969 40.414062 27.847656 40.414062 19.429688 Z M 40.414062 19.429688 "/>
<path fill-rule="nonzero" fill="rgb(94.999695%, 94.999695%, 94.999695%)" fill-opacity="1" d="M 19.355469 18.042969 C 19.355469 14.679688 16.628906 11.949219 13.261719 11.949219 C 9.894531 11.949219 7.164062 14.679688 7.164062 18.042969 C 7.164062 21.410156 9.894531 24.140625 13.261719 24.140625 C 16.628906 24.140625 19.355469 21.410156 19.355469 18.042969 Z M 19.355469 18.042969 "/>
<path fill-rule="nonzero" fill="rgb(94.999695%, 94.999695%, 94.999695%)" fill-opacity="1" d="M 34.871094 18.042969 C 34.871094 14.679688 32.144531 11.949219 28.777344 11.949219 C 25.410156 11.949219 22.679688 14.679688 22.679688 18.042969 C 22.679688 21.410156 25.410156 24.140625 28.777344 24.140625 C 32.144531 24.140625 34.871094 21.410156 34.871094 18.042969 Z M 34.871094 18.042969 "/>
<path fill-rule="nonzero" fill="rgb(22.499084%, 14.99939%, 7.499695%)" fill-opacity="1" d="M 17.417969 18.042969 C 17.417969 15.75 15.554688 13.890625 13.261719 13.890625 C 10.964844 13.890625 9.105469 15.75 9.105469 18.042969 C 9.105469 20.339844 10.964844 22.199219 13.261719 22.199219 C 15.554688 22.199219 17.417969 20.339844 17.417969 18.042969 Z M 17.417969 18.042969 "/>
<path fill-rule="nonzero" fill="rgb(22.499084%, 14.99939%, 7.499695%)" fill-opacity="1" d="M 32.933594 18.042969 C 32.933594 15.75 31.074219 13.890625 28.777344 13.890625 C 26.480469 13.890625 24.621094 15.75 24.621094 18.042969 C 24.621094 20.339844 26.480469 22.199219 28.777344 22.199219 C 31.074219 22.199219 32.933594 20.339844 32.933594 18.042969 Z M 32.933594 18.042969 "/>
<path fill-rule="nonzero" fill="rgb(100%, 100%, 100%)" fill-opacity="1" d="M 28.777344 16.9375 C 28.777344 16.476562 28.40625 16.105469 27.945312 16.105469 C 27.488281 16.105469 27.113281 16.476562 27.113281 16.9375 C 27.113281 17.394531 27.488281 17.769531 27.945312 17.769531 C 28.40625 17.769531 28.777344 17.394531 28.777344 16.9375 Z M 28.777344 16.9375 "/>
<path fill-rule="nonzero" fill="rgb(100%, 100%, 100%)" fill-opacity="1" d="M 13.261719 16.9375 C 13.261719 16.476562 12.890625 16.105469 12.429688 16.105469 C 11.972656 16.105469 11.597656 16.476562 11.597656 16.9375 C 11.597656 17.394531 11.972656 17.769531 12.429688 17.769531 C 12.890625 17.769531 13.261719 17.394531 13.261719 16.9375 Z M 13.261719 16.9375 "/>
<path fill-rule="nonzero" fill="rgb(100%, 50%, 0%)" fill-opacity="1" d="M 21.019531 23.585938 L 18.25 26.355469 L 21.019531 30.511719 L 23.789062 26.355469 Z M 21.019531 23.585938 "/>
<path fill-rule="nonzero" fill="rgb(100%, 50%, 0%)" fill-opacity="1" d="M 26.699219 56.835938 C 26.699219 55.304688 26.328125 54.066406 25.867188 54.066406 C 25.410156 54.066406 25.035156 55.304688 25.035156 56.835938 C 25.035156 58.367188 25.410156 59.605469 25.867188 59.605469 C 26.328125 59.605469 26.699219 58.367188 26.699219 56.835938 Z M 26.699219 56.835938 "/>
<path fill-rule="nonzero" fill="rgb(100%, 50%, 0%)" fill-opacity="1" d="M 28.035156 56.273438 C 27.511719 54.835938 26.738281 53.796875 26.304688 53.953125 C 25.875 54.113281 25.949219 55.40625 26.472656 56.84375 C 26.996094 58.28125 27.769531 59.320312 28.203125 59.164062 C 28.632812 59.003906 28.558594 57.710938 28.035156 56.273438 Z M 28.035156 56.273438 "/>
<path fill-rule="nonzero" fill="rgb(100%, 50%, 0%)" fill-opacity="1" d="M 29.273438 55.46875 C 28.292969 54.296875 27.210938 53.585938 26.859375 53.882812 C 26.503906 54.175781 27.019531 55.367188 28 56.539062 C 28.984375 57.710938 30.066406 58.421875 30.417969 58.128906 C 30.769531 57.832031 30.257812 56.644531 29.273438 55.46875 Z M 29.273438 55.46875 "/>
<path fill-rule="nonzero" fill="rgb(100%, 50%, 0%)" fill-opacity="1" d="M 17 56.835938 C 17 55.304688 16.628906 54.066406 16.171875 54.066406 C 15.710938 54.066406 15.339844 55.304688 15.339844 56.835938 C 15.339844 58.367188 15.710938 59.605469 16.171875 59.605469 C 16.628906 59.605469 17 58.367188 17 56.835938 Z M 17 56.835938 "/>
<path fill-rule="nonzero" fill="rgb(100%, 50%, 0%)" fill-opacity="1" d="M 15.566406 56.84375 C 16.089844 55.40625 16.164062 54.113281 15.734375 53.953125 C 15.300781 53.796875 14.527344 54.835938 14.003906 56.273438 C 13.480469 57.710938 13.40625 59.003906 13.835938 59.164062 C 14.269531 59.320312 15.042969 58.28125 15.566406 56.84375 Z M 15.566406 56.84375 "/>
<path fill-rule="nonzero" fill="rgb(100%, 50%, 0%)" fill-opacity="1" d="M 14.035156 56.539062 C 15.019531 55.367188 15.53125 54.175781 15.179688 53.882812 C 14.828125 53.585938 13.746094 54.296875 12.761719 55.46875 C 11.78125 56.644531 11.265625 57.832031 11.617188 58.128906 C 11.96875 58.421875 13.054688 57.710938 14.035156 56.539062 Z M 14.035156 56.539062 "/>
</svg>
