<?xml version="1.0" encoding="UTF-8"?>
<svg xmlns="http://www.w3.org/2000/svg" xmlns:xlink="http://www.w3.org/1999/xlink" width="35.149" height="60.378" viewBox="0 0 35.149 60.378">
<defs>
<clipPath id="clip-0">
<path clip-rule="nonzero" d="M 0 0.410156 L 34.316406 0.410156 L 34.316406 59.359375 L 0 59.359375 Z M 0 0.410156 "/>
</clipPath>
</defs>
<g clip-path="url(#clip-0)">
<path fill-rule="nonzero" fill="rgb(89.99939%, 89.99939%, 89.99939%)" fill-opacity="1" d="M 0 59.359375 L 34.316406 59.359375 L 34.316406 0.410156 L 0 0.410156 Z M 0 59.359375 "/>
</g>
<path fill-rule="nonzero" fill="rgb(94.497681%, 94.497681%, 94.497681%)" fill-opacity="1" d="M 32.933594 39.15625 C 32.933594 29.222656 25.871094 21.167969 17.160156 21.167969 C 8.445312 21.167969 1.382812 29.222656 1.382812 39.15625 C 1.382812 49.09375 8.445312 57.144531 17.160156 57.144531 C 25.871094 57.144531 32.933594 49.09375 32.933594 39.15625 Z M 32.933594 39.15625 "/>
<path fill-rule="nonzero" fill="rgb(0%, 0%, 0%)" fill-opacity="1" d="M 27.179688 30.976562 C 25.3125 30.296875 22.78125 32.542969 21.527344 35.988281 C 20.273438 39.4375 20.769531 42.78125 22.636719 43.460938 C 24.503906 44.140625 27.035156 41.898438 28.289062 38.449219 C 29.542969 35.003906 29.046875 31.65625 27.179688 30.976562 Z M 27.179688 30.976562 "/>
<path fill-rule="nonzero" fill="rgb(0%, 0%, 0%)" fill-opacity="1" d="M 11.683594 43.460938 C 13.550781 42.78125 14.046875 39.4375 12.792969 35.988281 C 11.535156 32.542969 9.003906 30.296875 7.136719 30.976562 C 5.269531 31.65625 4.773438 35.003906 6.027344 38.449219 C 7.285156 41.898438 9.816406 44.140625 11.683594 43.460938 Z M 11.683594 43.460938 "/>
<path fill-rule="nonzero" fill="rgb(0%, 0%, 0%)" fill-opacity="1" d="M 31.550781 53.269531 C 31.550781 50.214844 29.074219 47.734375 26.015625 47.734375 C 22.960938 47.734375 20.480469 50.214844 20.480469 53.269531 C 20.480469 56.328125 22.960938 58.808594 26.015625 58.808594 C 29.074219 58.808594 31.550781 56.328125 31.550781 53.269531 Z M 31.550781 53.269531 "/>
<path fill-rule="nonzero" fill="rgb(0%, 0%, 0%)" fill-opacity="1" d="M 13.839844 53.269531 C 13.839844 50.214844 11.359375 47.734375 8.304688 47.734375 C 5.246094 47.734375 2.765625 50.214844 2.765625 53.269531 C 2.765625 56.328125 5.246094 58.808594 8.304688 58.808594 C 11.359375 58.808594 13.839844 56.328125 13.839844 53.269531 Z M 13.839844 53.269531 "/>
<path fill-rule="nonzero" fill="rgb(0%, 0%, 0%)" fill-opacity="1" d="M 30.167969 5.390625 C 30.167969 3.097656 28.308594 1.238281 26.015625 1.238281 C 23.722656 1.238281 21.863281 3.097656 21.863281 5.390625 C 21.863281 7.683594 23.722656 9.542969 26.015625 9.542969 C 28.308594 9.542969 30.167969 7.683594 30.167969 5.390625 Z M 30.167969 5.390625 "/>
<path fill-rule="nonzero" fill="rgb(0%, 0%, 0%)" fill-opacity="1" d="M 12.453125 5.390625 C 12.453125 3.097656 10.59375 1.238281 8.304688 1.238281 C 6.011719 1.238281 4.152344 3.097656 4.152344 5.390625 C 4.152344 7.683594 6.011719 9.542969 8.304688 9.542969 C 10.59375 9.542969 12.453125 7.683594 12.453125 5.390625 Z M 12.453125 5.390625 "/>
<path fill-rule="nonzero" fill="rgb(94.497681%, 94.497681%, 94.497681%)" fill-opacity="1" d="M 30.710938 16.777344 C 29.929688 10.265625 24.078125 2.148438 17.160156 2.253906 C 10.242188 2.148438 4.390625 10.265625 3.605469 16.777344 C 2.597656 24.019531 9.554688 26.488281 17.160156 26.488281 C 24.765625 26.488281 31.71875 24.019531 30.710938 16.777344 Z M 30.710938 16.777344 "/>
<path fill-rule="nonzero" fill="rgb(0%, 0%, 0%)" fill-opacity="1" d="M 27.488281 13.957031 C 26.839844 11.839844 22.785156 10.761719 19.773438 11.714844 C 16.757812 12.667969 21.949219 17.902344 24.101562 18.003906 C 26.253906 18.101562 28.132812 16.074219 27.488281 13.957031 Z M 27.488281 13.957031 "/>
<path fill-rule="nonzero" fill="rgb(0%, 0%, 0%)" fill-opacity="1" d="M 6.832031 13.957031 C 7.476562 11.839844 11.535156 10.761719 14.546875 11.714844 C 17.5625 12.667969 12.371094 17.902344 10.21875 18.003906 C 8.066406 18.101562 6.1875 16.074219 6.832031 13.957031 Z M 6.832031 13.957031 "/>
<path fill-rule="nonzero" fill="rgb(100%, 100%, 100%)" fill-opacity="1" d="M 13.5625 13.695312 C 13.5625 12.929688 12.941406 12.308594 12.179688 12.308594 C 11.414062 12.308594 10.792969 12.929688 10.792969 13.695312 C 10.792969 14.457031 11.414062 15.078125 12.179688 15.078125 C 12.941406 15.078125 13.5625 14.457031 13.5625 13.695312 Z M 13.5625 13.695312 "/>
<path fill-rule="nonzero" fill="rgb(100%, 100%, 100%)" fill-opacity="1" d="M 23.523438 13.695312 C 23.523438 12.929688 22.90625 12.308594 22.140625 12.308594 C 21.375 12.308594 20.757812 12.929688 20.757812 13.695312 C 20.757812 14.457031 21.375 15.078125 22.140625 15.078125 C 22.90625 15.078125 23.523438 14.457031 23.523438 13.695312 Z M 23.523438 13.695312 "/>
<path fill-rule="nonzero" fill="rgb(0%, 0%, 0%)" fill-opacity="1" d="M 22.417969 13.832031 C 22.417969 13.527344 22.171875 13.277344 21.863281 13.277344 C 21.558594 13.277344 21.3125 13.527344 21.3125 13.832031 C 21.3125 14.136719 21.558594 14.386719 21.863281 14.386719 C 22.171875 14.386719 22.417969 14.136719 22.417969 13.832031 Z M 22.417969 13.832031 "/>
<path fill-rule="nonzero" fill="rgb(0%, 0%, 0%)" fill-opacity="1" d="M 13.007812 13.832031 C 13.007812 13.527344 12.761719 13.277344 12.453125 13.277344 C 12.148438 13.277344 11.902344 13.527344 11.902344 13.832031 C 11.902344 14.136719 12.148438 14.386719 12.453125 14.386719 C 12.761719 14.386719 13.007812 14.136719 13.007812 13.832031 Z M 13.007812 13.832031 "/>
<path fill="none" stroke-width="0.19925" stroke-linecap="butt" stroke-linejoin="miter" stroke="rgb(0%, 0%, 0%)" stroke-opacity="1" stroke-miterlimit="10" d="M -4.536311 41.866716 C -4.536311 41.866716 -1.755738 38.834091 0.000624484 42.690886 C 1.756987 38.834091 4.53756 41.866716 4.53756 41.866716 " transform="matrix(0.976361, 0, 0, -0.976361, 17.159547, 60.744221)"/>
<path fill-rule="nonzero" fill="rgb(0%, 0%, 0%)" fill-opacity="1" d="M 19.097656 17.84375 C 19.097656 17.234375 18.230469 16.738281 17.160156 16.738281 C 16.089844 16.738281 15.222656 17.234375 15.222656 17.84375 C 15.222656 18.457031 16.089844 18.953125 17.160156 18.953125 C 18.230469 18.953125 19.097656 18.457031 19.097656 17.84375 Z M 19.097656 17.84375 "/>
</svg>
