<?xml version="1.0" encoding="UTF-8"?>
<svg xmlns="http://www.w3.org/2000/svg" xmlns:xlink="http://www.w3.org/1999/xlink" width="49.04" height="56.126" viewBox="0 0 49.04 56.126">
<defs>
<clipPath id="clip-0">
<path clip-rule="nonzero" d="M 0 0.109375 L 48.097656 0.109375 L 48.097656 55.160156 L 0 55.160156 Z M 0 0.109375 "/>
</clipPath>
<clipPath id="clip-1">
<path clip-rule="nonzero" d="M 7 0.109375 L 41 0.109375 L 41 55 L 7 55 Z M 7 0.109375 "/>
</clipPath>
</defs>
<g clip-path="url(#clip-0)">
<path fill-rule="nonzero" fill="rgb(89.99939%, 89.99939%, 89.99939%)" fill-opacity="1" d="M 0 55.160156 L 48.097656 55.160156 L 48.097656 0.109375 L 0 0.109375 Z M 0 55.160156 "/>
</g>
<path fill-rule="nonzero" fill="rgb(0%, 0%, 0%)" fill-opacity="1" d="M 46.828125 34.058594 C 48.003906 33.070312 45.917969 28.648438 42.164062 24.179688 C 38.414062 19.707031 34.421875 16.886719 33.246094 17.871094 C 32.066406 18.859375 34.15625 23.285156 37.90625 27.753906 C 41.65625 32.222656 45.652344 35.046875 46.828125 34.058594 Z M 46.828125 34.058594 "/>
<path fill-rule="nonzero" fill="rgb(0%, 0%, 0%)" fill-opacity="1" d="M 14.855469 17.871094 C 13.675781 16.886719 9.683594 19.707031 5.933594 24.179688 C 2.183594 28.648438 0.09375 33.070312 1.273438 34.058594 C 2.449219 35.046875 6.441406 32.222656 10.191406 27.753906 C 13.945312 23.285156 16.03125 18.859375 14.855469 17.871094 Z M 14.855469 17.871094 "/>
<g clip-path="url(#clip-1)">
<path fill-rule="nonzero" fill="rgb(0%, 0%, 0%)" fill-opacity="1" d="M 40.589844 33.75 C 40.589844 52.101562 33.917969 54.324219 24.050781 54.324219 C 14.179688 54.324219 7.507812 52.101562 7.507812 33.75 C 7.230469 15.402344 14.734375 0.664062 24.050781 0.664062 C 33.363281 0.664062 40.871094 15.402344 40.589844 33.75 Z M 40.589844 33.75 "/>
</g>
<path fill-rule="nonzero" fill="rgb(94.999695%, 94.999695%, 94.999695%)" fill-opacity="1" d="M 37.394531 42.648438 C 37.394531 37.273438 31.417969 32.917969 24.050781 32.917969 C 16.679688 32.917969 10.703125 37.273438 10.703125 42.648438 C 10.703125 48.023438 16.679688 52.378906 24.050781 52.378906 C 31.417969 52.378906 37.394531 48.023438 37.394531 42.648438 Z M 37.394531 42.648438 "/>
<path fill-rule="nonzero" fill="rgb(98.234558%, 73.919678%, 3.529358%)" fill-opacity="1" d="M 16.679688 48.371094 C 16.179688 46.804688 13.679688 42.609375 10.980469 41.164062 C 8.175781 39.660156 8.035156 41.621094 8.648438 42.757812 C 9.425781 44.269531 8.117188 44.589844 7.3125 44.359375 C 4.726562 43.613281 2.726562 44.957031 5.03125 47.261719 C 5.589844 47.828125 7.730469 49.441406 4.613281 49.621094 C 2.585938 49.738281 2.390625 51.878906 4.894531 52.53125 C 7.449219 53.195312 10.816406 53.648438 14.597656 53.5 C 17.042969 53.402344 17.460938 50.824219 16.679688 48.371094 Z M 16.679688 48.371094 "/>
<path fill-rule="nonzero" fill="rgb(98.234558%, 73.919678%, 3.529358%)" fill-opacity="1" d="M 31.417969 48.371094 C 31.917969 46.804688 34.40625 42.609375 37.089844 41.164062 C 39.925781 39.660156 40.050781 41.621094 39.453125 42.757812 C 38.671875 44.269531 39.988281 44.589844 40.785156 44.359375 C 43.371094 43.613281 45.378906 44.957031 43.066406 47.261719 C 42.480469 47.828125 40.371094 49.441406 43.484375 49.621094 C 45.511719 49.738281 45.703125 51.878906 43.203125 52.53125 C 40.648438 53.195312 37.292969 53.648438 33.503906 53.5 C 31.054688 53.402344 30.632812 50.824219 31.417969 48.371094 Z M 31.417969 48.371094 "/>
<path fill-rule="nonzero" fill="rgb(94.999695%, 94.999695%, 94.999695%)" fill-opacity="1" d="M 21.921875 14.214844 C 22.320312 11.949219 21.421875 9.890625 19.90625 9.625 C 18.394531 9.359375 16.84375 10.980469 16.445312 13.25 C 16.046875 15.519531 16.949219 17.574219 18.460938 17.839844 C 19.972656 18.105469 21.523438 16.484375 21.921875 14.214844 Z M 21.921875 14.214844 "/>
<path fill-rule="nonzero" fill="rgb(0%, 0%, 0%)" fill-opacity="1" d="M 21.007812 14.203125 C 21.066406 13.105469 20.667969 12.195312 20.121094 12.167969 C 19.574219 12.140625 19.082031 13.003906 19.027344 14.097656 C 18.96875 15.191406 19.367188 16.101562 19.914062 16.132812 C 20.460938 16.160156 20.953125 15.296875 21.007812 14.203125 Z M 21.007812 14.203125 "/>
<path fill-rule="nonzero" fill="rgb(94.999695%, 94.999695%, 94.999695%)" fill-opacity="1" d="M 31.652344 13.25 C 31.253906 10.980469 29.703125 9.359375 28.191406 9.625 C 26.679688 9.890625 25.777344 11.949219 26.175781 14.214844 C 26.578125 16.484375 28.125 18.105469 29.640625 17.839844 C 31.152344 17.574219 32.054688 15.519531 31.652344 13.25 Z M 31.652344 13.25 "/>
<path fill-rule="nonzero" fill="rgb(0%, 0%, 0%)" fill-opacity="1" d="M 29.070312 14.097656 C 29.015625 13.003906 28.523438 12.140625 27.976562 12.167969 C 27.429688 12.195312 27.03125 13.105469 27.089844 14.203125 C 27.148438 15.296875 27.636719 16.160156 28.183594 16.132812 C 28.730469 16.101562 29.128906 15.191406 29.070312 14.097656 Z M 29.070312 14.097656 "/>
<path fill-rule="nonzero" fill="rgb(100%, 50%, 0%)" fill-opacity="1" d="M 33.03125 18.761719 C 28.128906 22.472656 27.011719 19.390625 24.050781 19.410156 C 21.085938 19.390625 19.96875 22.472656 15.070312 18.761719 C 20.527344 29.441406 27.570312 29.441406 33.03125 18.761719 Z M 33.03125 18.761719 "/>
</svg>
