<?xml version="1.0" encoding="UTF-8"?>
<svg xmlns="http://www.w3.org/2000/svg" xmlns:xlink="http://www.w3.org/1999/xlink" width="43.37" height="61.512" viewBox="0 0 43.37 61.512">
<defs>
<clipPath id="clip-0">
<path clip-rule="nonzero" d="M 0 0.199219 L 42.75 0.199219 L 42.75 60.832031 L 0 60.832031 Z M 0 0.199219 "/>
</clipPath>
<clipPath id="clip-1">
<path clip-rule="nonzero" d="M 8 34 L 42.75 34 L 42.75 60.832031 L 8 60.832031 Z M 8 34 "/>
</clipPath>
<clipPath id="clip-2">
<path clip-rule="nonzero" d="M 23 0.199219 L 32 0.199219 L 32 12 L 23 12 Z M 23 0.199219 "/>
</clipPath>
<clipPath id="clip-3">
<path clip-rule="nonzero" d="M 3 0.199219 L 12 0.199219 L 12 12 L 3 12 Z M 3 0.199219 "/>
</clipPath>
</defs>
<g clip-path="url(#clip-0)">
<path fill-rule="nonzero" fill="rgb(89.99939%, 89.99939%, 89.99939%)" fill-opacity="1" d="M 0 60.832031 L 42.75 60.832031 L 42.75 0.199219 L 0 0.199219 Z M 0 60.832031 "/>
</g>
<g clip-path="url(#clip-1)">
<path fill="none" stroke-width="0.79701" stroke-linecap="butt" stroke-linejoin="miter" stroke="rgb(94.509888%, 64.312744%, 55.683899%)" stroke-opacity="1" stroke-miterlimit="10" d="M 23.898388 16.52622 C 24.405651 11.516997 19.860098 10.232987 18.096566 12.17089 C 16.333035 14.104831 15.908994 17.156335 18.568163 17.830044 C 21.366036 18.543383 21.992188 15.955549 21.132219 14.025571 C 18.175826 7.645153 10.043765 10.090319 7.475746 12.012371 C 5.577472 13.546049 5.070209 17.223706 9.049054 17.944971 C 17.006743 19.379574 14.541762 8.639864 5.94603 9.41661 C 2.292151 9.745539 2.292151 14.841948 2.292151 14.841948 " transform="matrix(0.985682, 0, 0, -0.985682, 17.463325, 63.625532)"/>
</g>
<path fill-rule="nonzero" fill="rgb(96.97876%, 80.37262%, 75.62561%)" fill-opacity="1" d="M 34.226562 41.273438 C 34.226562 52.449219 27.242188 59.15625 17.464844 59.15625 C 7.683594 59.15625 0.699219 52.449219 0.699219 41.273438 C 0.699219 27.300781 7.683594 21.714844 17.464844 21.714844 C 27.242188 21.714844 34.226562 27.300781 34.226562 42.667969 Z M 34.226562 41.273438 "/>
<path fill-rule="nonzero" fill="rgb(94.509888%, 64.312744%, 55.683899%)" fill-opacity="1" d="M 10.75 36.179688 C 9.097656 34.058594 7.066406 33.867188 6.21875 35.746094 C 5.375 37.625 6.03125 40.867188 7.683594 42.988281 C 8.210938 43.660156 8.796875 44.167969 9.386719 44.453125 C 9.765625 44.003906 10.484375 42.492188 10.484375 42.492188 C 10.484375 42.492188 12.460938 43.199219 12.960938 42.78125 C 12.960938 42.78125 12.410156 38.300781 10.75 36.179688 Z M 10.75 36.179688 "/>
<path fill-rule="nonzero" fill="rgb(94.509888%, 64.312744%, 55.683899%)" fill-opacity="1" d="M 24.175781 36.179688 C 25.828125 34.058594 27.859375 33.867188 28.707031 35.746094 C 29.554688 37.625 28.898438 40.867188 27.242188 42.988281 C 26.714844 43.660156 26.128906 44.167969 25.539062 44.453125 C 25.160156 44.003906 24.441406 42.492188 24.441406 42.492188 C 24.441406 42.492188 22.464844 43.199219 21.964844 42.78125 C 21.964844 42.78125 22.519531 38.300781 24.175781 36.179688 Z M 24.175781 36.179688 "/>
<path fill-rule="nonzero" fill="rgb(96.97876%, 80.37262%, 75.62561%)" fill-opacity="1" d="M 31.433594 17.800781 C 31.433594 10.085938 25.179688 3.832031 17.464844 3.832031 C 9.746094 3.832031 3.492188 10.085938 3.492188 17.800781 C 3.492188 25.519531 9.746094 31.773438 17.464844 31.773438 C 25.179688 31.773438 31.433594 25.519531 31.433594 17.800781 Z M 31.433594 17.800781 "/>
<path fill-rule="nonzero" fill="rgb(50%, 50%, 50%)" fill-opacity="1" d="M 15.507812 12.773438 C 15.507812 12.464844 15.257812 12.214844 14.949219 12.214844 C 14.640625 12.214844 14.390625 12.464844 14.390625 12.773438 C 14.390625 13.082031 14.640625 13.332031 14.949219 13.332031 C 15.257812 13.332031 15.507812 13.082031 15.507812 12.773438 Z M 15.507812 12.773438 "/>
<path fill-rule="nonzero" fill="rgb(50%, 50%, 50%)" fill-opacity="1" d="M 20.535156 12.773438 C 20.535156 12.464844 20.285156 12.214844 19.976562 12.214844 C 19.667969 12.214844 19.417969 12.464844 19.417969 12.773438 C 19.417969 13.082031 19.667969 13.332031 19.976562 13.332031 C 20.285156 13.332031 20.535156 13.082031 20.535156 12.773438 Z M 20.535156 12.773438 "/>
<path fill-rule="nonzero" fill="rgb(94.509888%, 64.312744%, 55.683899%)" fill-opacity="1" d="M 22.492188 18.363281 C 22.492188 16.199219 20.242188 14.449219 17.464844 14.449219 C 14.6875 14.449219 12.433594 16.199219 12.433594 18.363281 C 12.433594 20.523438 14.6875 22.273438 17.464844 22.273438 C 20.242188 22.273438 22.492188 20.523438 22.492188 18.363281 Z M 22.492188 18.363281 "/>
<path fill-rule="nonzero" fill="rgb(50%, 50%, 50%)" fill-opacity="1" d="M 16.765625 18.363281 C 16.765625 17.820312 16.328125 17.382812 15.785156 17.382812 C 15.246094 17.382812 14.808594 17.820312 14.808594 18.363281 C 14.808594 18.902344 15.246094 19.339844 15.785156 19.339844 C 16.328125 19.339844 16.765625 18.902344 16.765625 18.363281 Z M 16.765625 18.363281 "/>
<path fill-rule="nonzero" fill="rgb(50%, 50%, 50%)" fill-opacity="1" d="M 20.117188 18.363281 C 20.117188 17.820312 19.679688 17.382812 19.140625 17.382812 C 18.597656 17.382812 18.160156 17.820312 18.160156 18.363281 C 18.160156 18.902344 18.597656 19.339844 19.140625 19.339844 C 19.679688 19.339844 20.117188 18.902344 20.117188 18.363281 Z M 20.117188 18.363281 "/>
<path fill="none" stroke-width="0.3985" stroke-linecap="butt" stroke-linejoin="miter" stroke="rgb(50%, 50%, 50%)" stroke-opacity="1" stroke-miterlimit="10" d="M 2.977749 41.386074 C 1.289514 39.971285 -1.167542 39.971285 -2.855777 41.386074 " transform="matrix(0.985682, 0, 0, -0.985682, 17.463325, 63.625532)"/>
<path fill-rule="nonzero" fill="rgb(94.509888%, 64.312744%, 55.683899%)" fill-opacity="1" d="M 26.449219 59.433594 C 26.929688 57.644531 25.867188 55.808594 24.078125 55.328125 C 22.289062 54.847656 20.449219 55.910156 19.972656 57.699219 C 19.820312 58.265625 19.820312 58.867188 19.972656 59.433594 L 21.933594 59.433594 C 22.78125 58.945312 23.597656 58.945312 24.449219 59.433594 Z M 26.449219 59.433594 "/>
<path fill-rule="nonzero" fill="rgb(94.509888%, 64.312744%, 55.683899%)" fill-opacity="1" d="M 8.476562 59.433594 C 8 57.644531 9.058594 55.808594 10.847656 55.328125 C 12.636719 54.847656 14.476562 55.910156 14.953125 57.699219 C 15.105469 58.265625 15.105469 58.867188 14.953125 59.433594 L 12.992188 59.433594 C 12.144531 58.945312 11.328125 58.945312 10.476562 59.433594 Z M 8.476562 59.433594 "/>
<g clip-path="url(#clip-2)">
<path fill-rule="nonzero" fill="rgb(94.509888%, 64.312744%, 55.683899%)" fill-opacity="1" d="M 23.609375 6.648438 C 23.609375 3.316406 31.28125 0.617188 31.28125 0.617188 C 31.28125 0.617188 32.273438 11.65625 27.859375 11.65625 C 25.539062 11.65625 23.609375 9.976562 23.609375 6.648438 Z M 23.609375 6.648438 "/>
</g>
<path fill-rule="nonzero" fill="rgb(96.97876%, 80.37262%, 75.62561%)" fill-opacity="1" d="M 23.609375 6.648438 C 24.726562 3.316406 30.59375 1.597656 30.59375 2.15625 C 30.59375 2.15625 31.15625 10.539062 27.859375 10.539062 C 25.539062 11.097656 23.609375 11.097656 23.609375 6.648438 Z M 23.609375 6.648438 "/>
<g clip-path="url(#clip-3)">
<path fill-rule="nonzero" fill="rgb(94.509888%, 64.312744%, 55.683899%)" fill-opacity="1" d="M 11.316406 6.648438 C 11.316406 3.316406 3.644531 0.617188 3.644531 0.617188 C 3.644531 0.617188 2.65625 11.65625 7.066406 11.65625 C 9.386719 11.65625 11.316406 9.976562 11.316406 6.648438 Z M 11.316406 6.648438 "/>
</g>
<path fill-rule="nonzero" fill="rgb(96.97876%, 80.37262%, 75.62561%)" fill-opacity="1" d="M 11.316406 6.648438 C 10.199219 3.316406 4.332031 1.597656 4.332031 2.15625 C 4.332031 2.15625 3.773438 10.539062 7.066406 10.539062 C 9.386719 11.097656 11.316406 11.097656 11.316406 6.648438 Z M 11.316406 6.648438 "/>
</svg>
