<?xml version="1.0" encoding="UTF-8"?>
<svg xmlns="http://www.w3.org/2000/svg" xmlns:xlink="http://www.w3.org/1999/xlink" width="35.433" height="59.743" viewBox="0 0 35.433 59.743">
<defs>
<clipPath id="clip-0">
<path clip-rule="nonzero" d="M 0 0.34375 L 34.875 0.34375 L 34.875 59.144531 L 0 59.144531 Z M 0 0.34375 "/>
</clipPath>
<clipPath id="clip-1">
<path clip-rule="nonzero" d="M 7 0.34375 L 13 0.34375 L 13 8 L 7 8 Z M 7 0.34375 "/>
</clipPath>
<clipPath id="clip-2">
<path clip-rule="nonzero" d="M 22 0.34375 L 28 0.34375 L 28 8 L 22 8 Z M 22 0.34375 "/>
</clipPath>
<clipPath id="clip-3">
<path clip-rule="nonzero" d="M 6 53 L 15 53 L 15 58.308594 L 6 58.308594 Z M 6 53 "/>
</clipPath>
<clipPath id="clip-4">
<path clip-rule="nonzero" d="M 19 53 L 29 53 L 29 58.308594 L 19 58.308594 Z M 19 53 "/>
</clipPath>
<clipPath id="clip-5">
<path clip-rule="nonzero" d="M 23 55 L 26 55 L 26 58.308594 L 23 58.308594 Z M 23 55 "/>
</clipPath>
<clipPath id="clip-6">
<path clip-rule="nonzero" d="M 19 56 L 23 56 L 23 58.308594 L 19 58.308594 Z M 19 56 "/>
</clipPath>
<clipPath id="clip-7">
<path clip-rule="nonzero" d="M 26 56 L 30 56 L 30 58.308594 L 26 58.308594 Z M 26 56 "/>
</clipPath>
<clipPath id="clip-8">
<path clip-rule="nonzero" d="M 9 55 L 12 55 L 12 58.308594 L 9 58.308594 Z M 9 55 "/>
</clipPath>
<clipPath id="clip-9">
<path clip-rule="nonzero" d="M 12 56 L 16 56 L 16 58.308594 L 12 58.308594 Z M 12 56 "/>
</clipPath>
<clipPath id="clip-10">
<path clip-rule="nonzero" d="M 5 56 L 9 56 L 9 58.308594 L 5 58.308594 Z M 5 56 "/>
</clipPath>
</defs>
<g clip-path="url(#clip-0)">
<path fill-rule="nonzero" fill="rgb(89.99939%, 89.99939%, 89.99939%)" fill-opacity="1" d="M 0 59.144531 L 34.875 59.144531 L 34.875 0.34375 L 0 0.34375 Z M 0 59.144531 "/>
</g>
<g clip-path="url(#clip-1)">
<path fill-rule="nonzero" fill="rgb(50%, 50%, 50%)" fill-opacity="1" d="M 12.492188 4.222656 C 11.699219 1.667969 7.527344 0.34375 7.527344 0.773438 C 7.527344 0.773438 7.132812 7.210938 9.472656 7.210938 C 11.121094 7.636719 12.492188 7.636719 12.492188 4.222656 Z M 12.492188 4.222656 "/>
</g>
<g clip-path="url(#clip-2)">
<path fill-rule="nonzero" fill="rgb(50%, 50%, 50%)" fill-opacity="1" d="M 22.382812 4.222656 C 23.175781 1.667969 27.347656 0.34375 27.347656 0.773438 C 27.347656 0.773438 27.746094 7.210938 25.402344 7.210938 C 23.753906 7.636719 22.382812 7.636719 22.382812 4.222656 Z M 22.382812 4.222656 "/>
</g>
<path fill-rule="nonzero" fill="rgb(72.499084%, 72.499084%, 72.499084%)" fill-opacity="1" d="M 32.785156 39.617188 C 32.785156 50.777344 27.203125 56.636719 17.4375 56.636719 C 7.671875 56.636719 2.09375 50.777344 2.09375 39.617188 C 2.09375 25.664062 7.671875 15.902344 17.4375 15.902344 C 27.203125 15.902344 32.785156 25.664062 32.785156 41.011719 Z M 32.785156 39.617188 "/>
<path fill-rule="nonzero" fill="rgb(50%, 50%, 50%)" fill-opacity="1" d="M 25.808594 27.339844 C 23.804688 27.339844 22.179688 30.335938 22.179688 34.035156 C 22.179688 37.734375 23.804688 40.730469 25.808594 40.730469 C 27.8125 40.730469 29.433594 37.734375 29.433594 34.035156 C 29.433594 30.335938 27.8125 27.339844 25.808594 27.339844 Z M 25.808594 27.339844 "/>
<path fill-rule="nonzero" fill="rgb(50%, 50%, 50%)" fill-opacity="1" d="M 9.066406 40.730469 C 11.070312 40.730469 12.695312 37.734375 12.695312 34.035156 C 12.695312 30.335938 11.070312 27.339844 9.066406 27.339844 C 7.066406 27.339844 5.441406 30.335938 5.441406 34.035156 C 5.441406 37.734375 7.066406 40.730469 9.066406 40.730469 Z M 9.066406 40.730469 "/>
<path fill-rule="nonzero" fill="rgb(72.499084%, 72.499084%, 72.499084%)" fill-opacity="1" d="M 27.480469 12.832031 C 27.480469 7.285156 22.984375 2.789062 17.4375 2.789062 C 11.890625 2.789062 7.394531 7.285156 7.394531 12.832031 C 7.394531 18.378906 11.890625 22.875 17.4375 22.875 C 22.984375 22.875 27.480469 18.378906 27.480469 12.832031 Z M 27.480469 12.832031 "/>
<path fill-rule="nonzero" fill="rgb(100%, 100%, 100%)" fill-opacity="1" d="M 16.601562 10.878906 C 16.601562 9.03125 15.601562 7.53125 14.367188 7.53125 C 13.136719 7.53125 12.136719 9.03125 12.136719 10.878906 C 12.136719 12.726562 13.136719 14.226562 14.367188 14.226562 C 15.601562 14.226562 16.601562 12.726562 16.601562 10.878906 Z M 16.601562 10.878906 "/>
<path fill-rule="nonzero" fill="rgb(100%, 100%, 100%)" fill-opacity="1" d="M 22.738281 10.878906 C 22.738281 9.03125 21.738281 7.53125 20.507812 7.53125 C 19.273438 7.53125 18.273438 9.03125 18.273438 10.878906 C 18.273438 12.726562 19.273438 14.226562 20.507812 14.226562 C 21.738281 14.226562 22.738281 12.726562 22.738281 10.878906 Z M 22.738281 10.878906 "/>
<path fill-rule="nonzero" fill="rgb(0%, 0%, 0%)" fill-opacity="1" d="M 15.625 12.273438 C 15.625 11.195312 15.125 10.320312 14.507812 10.320312 C 13.890625 10.320312 13.394531 11.195312 13.394531 12.273438 C 13.394531 13.351562 13.890625 14.226562 14.507812 14.226562 C 15.125 14.226562 15.625 13.351562 15.625 12.273438 Z M 15.625 12.273438 "/>
<path fill-rule="nonzero" fill="rgb(0%, 0%, 0%)" fill-opacity="1" d="M 21.484375 12.273438 C 21.484375 11.195312 20.984375 10.320312 20.367188 10.320312 C 19.75 10.320312 19.25 11.195312 19.25 12.273438 C 19.25 13.351562 19.75 14.226562 20.367188 14.226562 C 20.984375 14.226562 21.484375 13.351562 21.484375 12.273438 Z M 21.484375 12.273438 "/>
<path fill-rule="nonzero" fill="rgb(59.999084%, 59.999084%, 59.999084%)" fill-opacity="1" d="M 27.480469 18.691406 C 27.480469 15.609375 22.984375 13.109375 17.4375 13.109375 C 11.890625 13.109375 7.394531 15.609375 7.394531 18.691406 C 7.394531 21.773438 11.890625 24.269531 17.4375 24.269531 C 22.984375 24.269531 27.480469 21.773438 27.480469 18.691406 Z M 27.480469 18.691406 "/>
<path fill-rule="nonzero" fill="rgb(100%, 99.743652%, 95.001221%)" fill-opacity="1" d="M 17.4375 11.964844 C 16.792969 13.46875 16.144531 14.976562 15.648438 16.53125 C 15.519531 16.925781 15.417969 17.347656 15.546875 17.757812 C 15.753906 18.636719 16.636719 19.285156 17.4375 19.222656 C 18.238281 19.285156 19.121094 18.636719 19.328125 17.757812 C 19.457031 17.347656 19.355469 16.925781 19.230469 16.53125 C 18.730469 14.976562 18.082031 13.46875 17.4375 11.964844 Z M 17.4375 11.964844 "/>
<path fill="none" stroke-width="0.3985" stroke-linecap="butt" stroke-linejoin="miter" stroke="rgb(34.999084%, 34.999084%, 34.999084%)" stroke-opacity="1" stroke-miterlimit="10" d="M 3.543636 42.520151 C 1.436226 40.750085 -1.639562 40.750085 -3.743003 42.520151 " transform="matrix(0.98425, 0, 0, -0.98425, 17.437957, 61.936397)"/>
<g clip-path="url(#clip-3)">
<path fill-rule="nonzero" fill="rgb(50%, 50%, 50%)" fill-opacity="1" d="M 14.925781 57.75 C 14.925781 55.132812 12.929688 53.007812 10.460938 53.007812 C 7.996094 53.007812 6 55.132812 6 57.75 C 6 60.371094 7.996094 62.496094 10.460938 62.496094 C 12.929688 62.496094 14.925781 60.371094 14.925781 57.75 Z M 14.925781 57.75 "/>
</g>
<g clip-path="url(#clip-4)">
<path fill-rule="nonzero" fill="rgb(50%, 50%, 50%)" fill-opacity="1" d="M 28.878906 57.75 C 28.878906 55.132812 26.878906 53.007812 24.414062 53.007812 C 21.949219 53.007812 19.949219 55.132812 19.949219 57.75 C 19.949219 60.371094 21.949219 62.496094 24.414062 62.496094 C 26.878906 62.496094 28.878906 60.371094 28.878906 57.75 Z M 28.878906 57.75 "/>
</g>
<g clip-path="url(#clip-5)">
<path fill-rule="nonzero" fill="rgb(72.499084%, 72.499084%, 72.499084%)" fill-opacity="1" d="M 25.808594 58.308594 C 25.808594 56.769531 25.183594 55.519531 24.414062 55.519531 C 23.640625 55.519531 23.019531 56.769531 23.019531 58.308594 C 23.019531 59.851562 23.640625 61.097656 24.414062 61.097656 C 25.183594 61.097656 25.808594 59.851562 25.808594 58.308594 Z M 25.808594 58.308594 "/>
</g>
<g clip-path="url(#clip-6)">
<path fill-rule="nonzero" fill="rgb(72.499084%, 72.499084%, 72.499084%)" fill-opacity="1" d="M 22.460938 58.867188 C 22.460938 57.328125 21.835938 56.078125 21.066406 56.078125 C 20.292969 56.078125 19.671875 57.328125 19.671875 58.867188 C 19.671875 60.410156 20.292969 61.65625 21.066406 61.65625 C 21.835938 61.65625 22.460938 60.410156 22.460938 58.867188 Z M 22.460938 58.867188 "/>
</g>
<g clip-path="url(#clip-7)">
<path fill-rule="nonzero" fill="rgb(72.499084%, 72.499084%, 72.499084%)" fill-opacity="1" d="M 29.15625 58.867188 C 29.15625 57.328125 28.53125 56.078125 27.761719 56.078125 C 26.992188 56.078125 26.367188 57.328125 26.367188 58.867188 C 26.367188 60.410156 26.992188 61.65625 27.761719 61.65625 C 28.53125 61.65625 29.15625 60.410156 29.15625 58.867188 Z M 29.15625 58.867188 "/>
</g>
<g clip-path="url(#clip-8)">
<path fill-rule="nonzero" fill="rgb(72.499084%, 72.499084%, 72.499084%)" fill-opacity="1" d="M 11.859375 58.308594 C 11.859375 56.769531 11.234375 55.519531 10.460938 55.519531 C 9.691406 55.519531 9.066406 56.769531 9.066406 58.308594 C 9.066406 59.851562 9.691406 61.097656 10.460938 61.097656 C 11.234375 61.097656 11.859375 59.851562 11.859375 58.308594 Z M 11.859375 58.308594 "/>
</g>
<g clip-path="url(#clip-9)">
<path fill-rule="nonzero" fill="rgb(72.499084%, 72.499084%, 72.499084%)" fill-opacity="1" d="M 15.207031 58.867188 C 15.207031 57.328125 14.582031 56.078125 13.8125 56.078125 C 13.039062 56.078125 12.414062 57.328125 12.414062 58.867188 C 12.414062 60.410156 13.039062 61.65625 13.8125 61.65625 C 14.582031 61.65625 15.207031 60.410156 15.207031 58.867188 Z M 15.207031 58.867188 "/>
</g>
<g clip-path="url(#clip-10)">
<path fill-rule="nonzero" fill="rgb(72.499084%, 72.499084%, 72.499084%)" fill-opacity="1" d="M 8.511719 58.867188 C 8.511719 57.328125 7.886719 56.078125 7.113281 56.078125 C 6.34375 56.078125 5.71875 57.328125 5.71875 58.867188 C 5.71875 60.410156 6.34375 61.65625 7.113281 61.65625 C 7.886719 61.65625 8.511719 60.410156 8.511719 58.867188 Z M 8.511719 58.867188 "/>
</g>
</svg>
