<?xml version="1.0" encoding="UTF-8"?>
<svg xmlns="http://www.w3.org/2000/svg" xmlns:xlink="http://www.w3.org/1999/xlink" width="35.433" height="59.743" viewBox="0 0 35.433 59.743">
<defs>
<clipPath id="clip-0">
<path clip-rule="nonzero" d="M 0 0.34375 L 34.875 0.34375 L 34.875 59.144531 L 0 59.144531 Z M 0 0.34375 "/>
</clipPath>
<clipPath id="clip-1">
<path clip-rule="nonzero" d="M 7 0.34375 L 13 0.34375 L 13 8 L 7 8 Z M 7 0.34375 "/>
</clipPath>
<clipPath id="clip-2">
<path clip-rule="nonzero" d="M 22 0.34375 L 28 0.34375 L 28 8 L 22 8 Z M 22 0.34375 "/>
</clipPath>
</defs>
<g clip-path="url(#clip-0)">
<path fill-rule="nonzero" fill="rgb(89.99939%, 89.99939%, 89.99939%)" fill-opacity="1" d="M 0 59.144531 L 34.875 59.144531 L 34.875 0.34375 L 0 0.34375 Z M 0 59.144531 "/>
</g>
<g clip-path="url(#clip-1)">
<path fill-rule="nonzero" fill="rgb(50.749207%, 50.749207%, 50.749207%)" fill-opacity="1" d="M 12.492188 4.222656 C 11.699219 1.667969 7.527344 0.34375 7.527344 0.773438 C 7.527344 0.773438 7.132812 7.210938 9.472656 7.210938 C 11.121094 7.636719 12.492188 7.636719 12.492188 4.222656 Z M 12.492188 4.222656 "/>
</g>
<g clip-path="url(#clip-2)">
<path fill-rule="nonzero" fill="rgb(50.749207%, 50.749207%, 50.749207%)" fill-opacity="1" d="M 22.382812 4.222656 C 23.175781 1.667969 27.347656 0.34375 27.347656 0.773438 C 27.347656 0.773438 27.746094 7.210938 25.402344 7.210938 C 23.753906 7.636719 22.382812 7.636719 22.382812 4.222656 Z M 22.382812 4.222656 "/>
</g>
<path fill-rule="nonzero" fill="rgb(72.499084%, 72.499084%, 72.499084%)" fill-opacity="1" d="M 32.785156 39.617188 C 32.785156 50.777344 27.203125 56.636719 17.4375 56.636719 C 7.671875 56.636719 2.09375 50.777344 2.09375 39.617188 C 2.09375 25.664062 7.671875 15.902344 17.4375 15.902344 C 27.203125 15.902344 32.785156 25.664062 32.785156 41.011719 Z M 32.785156 39.617188 "/>
<path fill-rule="nonzero" fill="rgb(50.749207%, 50.749207%, 50.749207%)" fill-opacity="1" d="M 25.808594 27.339844 C 23.804688 27.339844 22.179688 30.335938 22.179688 34.035156 C 22.179688 37.734375 23.804688 40.730469 25.808594 40.730469 C 27.8125 40.730469 29.433594 37.734375 29.433594 34.035156 C 29.433594 30.335938 27.8125 27.339844 25.808594 27.339844 Z M 25.808594 27.339844 "/>
<path fill-rule="nonzero" fill="rgb(50.749207%, 50.749207%, 50.749207%)" fill-opacity="1" d="M 9.066406 40.730469 C 11.070312 40.730469 12.695312 37.734375 12.695312 34.035156 C 12.695312 30.335938 11.070312 27.339844 9.066406 27.339844 C 7.066406 27.339844 5.441406 30.335938 5.441406 34.035156 C 5.441406 37.734375 7.066406 40.730469 9.066406 40.730469 Z M 9.066406 40.730469 "/>
<path fill-rule="nonzero" fill="rgb(72.499084%, 72.499084%, 72.499084%)" fill-opacity="1" d="M 27.480469 12.832031 C 27.480469 7.285156 22.984375 2.789062 17.4375 2.789062 C 11.890625 2.789062 7.394531 7.285156 7.394531 12.832031 C 7.394531 18.378906 11.890625 22.875 17.4375 22.875 C 22.984375 22.875 27.480469 18.378906 27.480469 12.832031 Z M 27.480469 12.832031 "/>
<path fill-rule="nonzero" fill="rgb(100%, 100%, 100%)" fill-opacity="1" d="M 16.601562 10.878906 C 16.601562 9.03125 15.601562 7.53125 14.367188 7.53125 C 13.136719 7.53125 12.136719 9.03125 12.136719 10.878906 C 12.136719 12.726562 13.136719 14.226562 14.367188 14.226562 C 15.601562 14.226562 16.601562 12.726562 16.601562 10.878906 Z M 16.601562 10.878906 "/>
<path fill-rule="nonzero" fill="rgb(100%, 100%, 100%)" fill-opacity="1" d="M 22.738281 10.878906 C 22.738281 9.03125 21.738281 7.53125 20.507812 7.53125 C 19.273438 7.53125 18.273438 9.03125 18.273438 10.878906 C 18.273438 12.726562 19.273438 14.226562 20.507812 14.226562 C 21.738281 14.226562 22.738281 12.726562 22.738281 10.878906 Z M 22.738281 10.878906 "/>
<path fill-rule="nonzero" fill="rgb(0%, 0%, 0%)" fill-opacity="1" d="M 15.625 12.273438 C 15.625 11.195312 15.125 10.320312 14.507812 10.320312 C 13.890625 10.320312 13.394531 11.195312 13.394531 12.273438 C 13.394531 13.351562 13.890625 14.226562 14.507812 14.226562 C 15.125 14.226562 15.625 13.351562 15.625 12.273438 Z M 15.625 12.273438 "/>
<path fill-rule="nonzero" fill="rgb(0%, 0%, 0%)" fill-opacity="1" d="M 21.484375 12.273438 C 21.484375 11.195312 20.984375 10.320312 20.367188 10.320312 C 19.75 10.320312 19.25 11.195312 19.25 12.273438 C 19.25 13.351562 19.75 14.226562 20.367188 14.226562 C 20.984375 14.226562 21.484375 13.351562 21.484375 12.273438 Z M 21.484375 12.273438 "/>
<path fill-rule="nonzero" fill="rgb(60.174561%, 60.174561%, 60.174561%)" fill-opacity="1" d="M 27.480469 18.691406 C 27.480469 15.609375 22.984375 13.109375 17.4375 13.109375 C 11.890625 13.109375 7.394531 15.609375 7.394531 18.691406 C 7.394531 21.773438 11.890625 24.269531 17.4375 24.269531 C 22.984375 24.269531 27.480469 21.773438 27.480469 18.691406 Z M 27.480469 18.691406 "/>
<path fill-rule="nonzero" fill="rgb(100%, 99.743652%, 95.001221%)" fill-opacity="1" d="M 17.4375 11.964844 C 16.792969 13.46875 16.144531 14.976562 15.648438 16.53125 C 15.519531 16.925781 15.417969 17.347656 15.546875 17.757812 C 15.753906 18.636719 16.636719 19.285156 17.4375 19.222656 C 18.238281 19.285156 19.121094 18.636719 19.328125 17.757812 C 19.457031 17.347656 19.355469 16.925781 19.230469 16.53125 C 18.730469 14.976562 18.082031 13.46875 17.4375 11.964844 Z M 17.4375 11.964844 "/>
<path fill="none" stroke-width="0.3985" stroke-linecap="butt" stroke-linejoin="miter" stroke="rgb(36.248779%, 36.248779%, 36.248779%)" stroke-opacity="1" stroke-miterlimit="10" d="M 3.543636 42.520151 C 1.436226 40.750085 -1.639562 40.750085 -3.743003 42.520151 " transform="matrix(0.98425, 0, 0, -0.98425, 17.437957, 61.936397)"/>
<path fill-rule="nonzero" fill="rgb(50.749207%, 50.749207%, 50.749207%)" fill-opacity="1" d="M 15.207031 58.308594 C 15.207031 55.382812 13.082031 53.007812 10.460938 53.007812 C 7.84375 53.007812 5.71875 55.382812 5.71875 58.308594 Z M 15.207031 58.308594 "/>
<path fill-rule="nonzero" fill="rgb(72.499084%, 72.499084%, 72.499084%)" fill-opacity="1" d="M 15.207031 58.308594 C 15.207031 57.078125 14.582031 56.078125 13.8125 56.078125 C 13.039062 56.078125 12.414062 57.078125 12.414062 58.308594 Z M 15.207031 58.308594 "/>
<path fill-rule="nonzero" fill="rgb(72.499084%, 72.499084%, 72.499084%)" fill-opacity="1" d="M 11.859375 58.308594 C 11.859375 56.769531 11.234375 55.519531 10.460938 55.519531 C 9.691406 55.519531 9.066406 56.769531 9.066406 58.308594 Z M 11.859375 58.308594 "/>
<path fill-rule="nonzero" fill="rgb(72.499084%, 72.499084%, 72.499084%)" fill-opacity="1" d="M 8.507812 58.308594 C 8.507812 57.078125 7.886719 56.078125 7.113281 56.078125 C 6.34375 56.078125 5.71875 57.078125 5.71875 58.308594 Z M 8.507812 58.308594 "/>
<path fill-rule="nonzero" fill="rgb(50.749207%, 50.749207%, 50.749207%)" fill-opacity="1" d="M 19.671875 58.308594 C 19.671875 55.382812 21.792969 53.007812 24.414062 53.007812 C 27.03125 53.007812 29.15625 55.382812 29.15625 58.308594 Z M 19.671875 58.308594 "/>
<path fill-rule="nonzero" fill="rgb(72.499084%, 72.499084%, 72.499084%)" fill-opacity="1" d="M 19.671875 58.308594 C 19.671875 57.078125 20.292969 56.078125 21.066406 56.078125 C 21.835938 56.078125 22.460938 57.078125 22.460938 58.308594 Z M 19.671875 58.308594 "/>
<path fill-rule="nonzero" fill="rgb(72.499084%, 72.499084%, 72.499084%)" fill-opacity="1" d="M 23.019531 58.308594 C 23.019531 56.769531 23.640625 55.519531 24.414062 55.519531 C 25.183594 55.519531 25.808594 56.769531 25.808594 58.308594 Z M 23.019531 58.308594 "/>
<path fill-rule="nonzero" fill="rgb(72.499084%, 72.499084%, 72.499084%)" fill-opacity="1" d="M 26.367188 58.308594 C 26.367188 57.078125 26.992188 56.078125 27.761719 56.078125 C 28.53125 56.078125 29.15625 57.078125 29.15625 58.308594 Z M 26.367188 58.308594 "/>
</svg>
