<?xml version="1.0" encoding="UTF-8"?>
<svg xmlns="http://www.w3.org/2000/svg" xmlns:xlink="http://www.w3.org/1999/xlink" width="39.685" height="63.78" viewBox="0 0 39.685 63.78">
<defs>
<clipPath id="clip-0">
<path clip-rule="nonzero" d="M 0 0.140625 L 39.371094 0.140625 L 39.371094 63.417969 L 0 63.417969 Z M 0 0.140625 "/>
</clipPath>
<clipPath id="clip-1">
<path clip-rule="nonzero" d="M 0 3 L 39 3 L 39 63.417969 L 0 63.417969 Z M 0 3 "/>
</clipPath>
<clipPath id="clip-2">
<path clip-rule="nonzero" d="M 10 0.140625 L 30 0.140625 L 30 13 L 10 13 Z M 10 0.140625 "/>
</clipPath>
<clipPath id="clip-3">
<path clip-rule="nonzero" d="M 10 0.140625 L 30 0.140625 L 30 13 L 10 13 Z M 10 0.140625 "/>
</clipPath>
</defs>
<g clip-path="url(#clip-0)">
<path fill-rule="nonzero" fill="rgb(89.99939%, 89.99939%, 89.99939%)" fill-opacity="1" d="M 0 63.417969 L 39.371094 63.417969 L 39.371094 0.140625 L 0 0.140625 Z M 0 63.417969 "/>
</g>
<path fill-rule="nonzero" fill="rgb(51.499939%, 39.373779%, 24.249268%)" fill-opacity="1" d="M 25.871094 8.320312 C 25.871094 4.96875 33.59375 2.25 33.59375 2.25 C 33.59375 2.25 34.589844 13.359375 30.152344 13.359375 C 27.816406 13.359375 25.871094 11.667969 25.871094 8.320312 Z M 25.871094 8.320312 "/>
<path fill-rule="nonzero" fill="rgb(73.324585%, 66.654968%, 58.335876%)" fill-opacity="1" d="M 25.871094 8.320312 C 26.996094 4.96875 32.902344 3.234375 32.902344 3.796875 C 32.902344 3.796875 33.464844 12.234375 30.152344 12.234375 C 27.816406 12.796875 25.871094 12.796875 25.871094 8.320312 Z M 25.871094 8.320312 "/>
<path fill-rule="nonzero" fill="rgb(51.499939%, 39.373779%, 24.249268%)" fill-opacity="1" d="M 13.5 8.320312 C 13.5 4.96875 5.777344 2.25 5.777344 2.25 C 5.777344 2.25 4.78125 13.359375 9.222656 13.359375 C 11.554688 13.359375 13.5 11.667969 13.5 8.320312 Z M 13.5 8.320312 "/>
<path fill-rule="nonzero" fill="rgb(73.324585%, 66.654968%, 58.335876%)" fill-opacity="1" d="M 13.5 8.320312 C 12.375 4.96875 6.46875 3.234375 6.46875 3.796875 C 6.46875 3.796875 5.90625 12.234375 9.222656 12.234375 C 11.554688 12.796875 13.5 12.796875 13.5 8.320312 Z M 13.5 8.320312 "/>
<g clip-path="url(#clip-1)">
<path fill-rule="nonzero" fill="rgb(38.249207%, 32.18689%, 24.624634%)" fill-opacity="1" d="M 36.417969 39.796875 C 37.789062 39.796875 38.890625 40.894531 38.890625 42.265625 C 38.890625 43.640625 37.65625 44.738281 36.417969 44.738281 C 37.601562 44.84375 38.605469 46.03125 38.496094 47.398438 C 38.382812 48.765625 37.0625 49.761719 35.832031 49.660156 C 36.863281 49.921875 37.695312 51.234375 37.394531 52.570312 C 37.097656 53.910156 35.652344 54.714844 34.445312 54.445312 C 35.113281 54.910156 35.582031 56.390625 34.945312 57.609375 C 34.3125 58.824219 32.707031 59.226562 31.613281 58.65625 C 31.585938 59.144531 31.359375 60.683594 30.257812 61.5 C 29.160156 62.320312 27.539062 61.984375 26.800781 60.992188 C 26.585938 61.359375 25.761719 62.675781 24.421875 62.984375 C 23.085938 63.292969 21.738281 62.335938 21.460938 61.132812 C 21.417969 61.953125 20.351562 63.085938 18.984375 63.132812 C 17.613281 63.175781 16.472656 61.976562 16.433594 60.738281 C 16.332031 61.871094 15.152344 62.882812 13.785156 62.78125 C 12.417969 62.679688 11.414062 61.367188 11.507812 60.132812 C 11.140625 60.890625 9.742188 61.570312 8.445312 61.121094 C 7.152344 60.675781 6.515625 59.148438 6.917969 57.980469 C 6.445312 57.972656 4.890625 57.953125 3.933594 56.972656 C 2.972656 55.992188 3.089844 54.34375 3.972656 53.480469 C 3.550781 53.359375 2.121094 52.742188 1.613281 51.46875 C 1.105469 50.195312 1.847656 48.714844 2.996094 48.257812 C 2.195312 48.3125 0.929688 47.410156 0.699219 46.058594 C 0.472656 44.707031 1.507812 43.417969 2.726562 43.210938 C 1.664062 43.242188 0.511719 42.203125 0.441406 40.832031 C 0.371094 39.460938 1.546875 38.300781 2.78125 38.238281 C 1.574219 38.21875 0.484375 37.109375 0.496094 35.738281 C 0.507812 34.367188 1.753906 33.277344 2.988281 33.289062 C 1.8125 33.175781 0.8125 31.984375 0.933594 30.617188 C 1.050781 29.253906 2.375 28.265625 3.609375 28.371094 C 2.460938 28.160156 1.5625 26.890625 1.796875 25.539062 C 2.027344 24.1875 3.433594 23.3125 4.652344 23.523438 C 3.554688 23.207031 2.78125 21.859375 3.140625 20.535156 C 3.5 19.210938 4.984375 18.476562 6.175781 18.800781 C 5.160156 18.371094 4.546875 16.941406 5.054688 15.667969 C 5.5625 14.394531 7.121094 13.832031 8.265625 14.292969 C 7.398438 13.742188 7.003906 12.238281 7.695312 11.054688 C 8.386719 9.871094 10.007812 9.546875 11.074219 10.167969 C 10.476562 9.515625 10.414062 7.964844 11.34375 6.957031 C 12.273438 5.949219 13.929688 5.976562 14.835938 6.8125 C 14.730469 6.195312 15.207031 4.714844 16.425781 4.085938 C 17.648438 3.460938 19.191406 4.058594 19.753906 5.160156 C 20.191406 4.96875 21.34375 3.925781 22.710938 3.992188 C 24.082031 4.058594 25.117188 5.347656 25.058594 6.582031 C 25.492188 6.671875 27.003906 6.308594 28.175781 7.027344 C 29.34375 7.742188 29.636719 9.371094 28.992188 10.421875 C 29.511719 10.21875 31.0625 10.351562 31.945312 11.402344 C 32.828125 12.453125 32.589844 14.089844 31.644531 14.882812 C 32.421875 14.542969 33.914062 14.980469 34.570312 16.183594 C 35.226562 17.390625 34.664062 18.945312 33.582031 19.535156 C 34.539062 19.214844 35.953125 19.859375 36.433594 21.144531 C 36.914062 22.429688 36.140625 23.894531 34.984375 24.324219 C 36.046875 24.078125 37.382812 24.875 37.71875 26.203125 C 38.054688 27.53125 37.128906 28.902344 35.929688 29.207031 C 37.058594 29.042969 38.3125 29.960938 38.527344 31.316406 C 38.738281 32.671875 37.6875 33.949219 36.464844 34.140625 C 37.628906 34.066406 38.804688 35.085938 38.902344 36.453125 C 39.003906 37.820312 37.851562 39.007812 36.617188 39.097656 L 36.421875 39.796875 L 36.417969 39.796875 "/>
</g>
<path fill-rule="nonzero" fill="rgb(79.264832%, 71.583557%, 62.615967%)" fill-opacity="1" d="M 12.929688 38.042969 C 11.265625 35.910156 9.222656 35.714844 8.367188 37.609375 C 7.515625 39.5 8.175781 42.761719 9.84375 44.898438 C 10.375 45.574219 10.964844 46.085938 11.558594 46.371094 C 11.9375 45.917969 12.660156 44.398438 12.660156 44.398438 C 12.660156 44.398438 14.652344 45.113281 15.15625 44.691406 C 15.15625 44.691406 14.597656 40.179688 12.929688 38.042969 Z M 12.929688 38.042969 "/>
<path fill-rule="nonzero" fill="rgb(79.264832%, 71.583557%, 62.615967%)" fill-opacity="1" d="M 26.441406 38.042969 C 28.105469 35.910156 30.152344 35.714844 31.003906 37.609375 C 31.855469 39.5 31.195312 42.761719 29.527344 44.898438 C 28.996094 45.574219 28.40625 46.085938 27.8125 46.371094 C 27.433594 45.917969 26.710938 44.398438 26.710938 44.398438 C 26.710938 44.398438 24.71875 45.113281 24.214844 44.691406 C 24.214844 44.691406 24.773438 40.179688 26.441406 38.042969 Z M 26.441406 38.042969 "/>
<g clip-path="url(#clip-2)">
<path fill-rule="nonzero" fill="rgb(38.249207%, 32.18689%, 24.624634%)" fill-opacity="1" d="M 11.953125 9.984375 C 10.652344 9.542969 9.96875 8.148438 10.410156 6.847656 C 10.851562 5.550781 12.378906 4.910156 13.546875 5.308594 C 12.25 4.863281 11.5625 3.46875 12.003906 2.171875 C 12.449219 0.875 13.972656 0.230469 15.140625 0.628906 C 17.410156 2.425781 18.507812 1.328125 19.878906 1.328125 C 21.25 1.328125 22.351562 2.5625 22.351562 3.796875 C 22.351562 2.425781 23.449219 1.328125 24.820312 1.328125 C 26.195312 1.328125 27.292969 2.5625 27.292969 3.796875 C 27.25 5.230469 28.644531 5.917969 29.085938 7.214844 C 29.527344 8.515625 28.714844 9.953125 27.542969 10.351562 C 27.03125 11.355469 25.929688 12.457031 24.558594 12.457031 C 23.1875 12.457031 22.089844 11.222656 22.089844 9.984375 C 22.089844 11.355469 20.988281 12.457031 19.617188 12.457031 C 18.246094 12.457031 17.148438 11.222656 17.148438 9.984375 C 17.148438 11.355469 16.046875 12.457031 14.675781 12.457031 C 13.304688 12.457031 12.203125 11.222656 12.203125 9.984375 Z M 11.953125 9.984375 L 11.953125 9.984375 "/>
</g>
<path fill-rule="nonzero" fill="rgb(79.264832%, 71.583557%, 62.615967%)" fill-opacity="1" d="M 30.933594 15.046875 C 30.933594 23.484375 25.308594 30.515625 19.6875 33.046875 C 14.0625 30.515625 8.4375 23.484375 8.4375 15.046875 C 10.125 0.984375 29.246094 0.984375 30.933594 15.046875 Z M 30.933594 15.046875 "/>
<path fill-rule="nonzero" fill="rgb(51.499939%, 39.373779%, 24.249268%)" fill-opacity="1" d="M 25.871094 8.320312 C 25.871094 4.96875 33.59375 2.25 33.59375 2.25 C 33.59375 2.25 34.589844 13.359375 30.152344 13.359375 C 27.816406 13.359375 25.871094 11.667969 25.871094 8.320312 Z M 25.871094 8.320312 "/>
<path fill-rule="nonzero" fill="rgb(73.324585%, 66.654968%, 58.335876%)" fill-opacity="1" d="M 25.871094 8.320312 C 26.996094 4.96875 32.902344 3.234375 32.902344 3.796875 C 32.902344 3.796875 33.464844 12.234375 30.152344 12.234375 C 27.816406 12.796875 25.871094 12.796875 25.871094 8.320312 Z M 25.871094 8.320312 "/>
<path fill-rule="nonzero" fill="rgb(51.499939%, 39.373779%, 24.249268%)" fill-opacity="1" d="M 13.5 8.320312 C 13.5 4.96875 5.777344 2.25 5.777344 2.25 C 5.777344 2.25 4.78125 13.359375 9.222656 13.359375 C 11.554688 13.359375 13.5 11.667969 13.5 8.320312 Z M 13.5 8.320312 "/>
<path fill-rule="nonzero" fill="rgb(73.324585%, 66.654968%, 58.335876%)" fill-opacity="1" d="M 13.5 8.320312 C 12.375 4.96875 6.46875 3.234375 6.46875 3.796875 C 6.46875 3.796875 5.90625 12.234375 9.222656 12.234375 C 11.554688 12.796875 13.5 12.796875 13.5 8.320312 Z M 13.5 8.320312 "/>
<path fill-rule="nonzero" fill="rgb(25.749207%, 19.68689%, 12.124634%)" fill-opacity="1" d="M 26.996094 18.984375 C 26.996094 18.054688 26.242188 17.296875 25.308594 17.296875 C 24.378906 17.296875 23.621094 18.054688 23.621094 18.984375 C 23.621094 19.917969 24.378906 20.671875 25.308594 20.671875 C 26.242188 20.671875 26.996094 19.917969 26.996094 18.984375 Z M 26.996094 18.984375 "/>
<path fill-rule="nonzero" fill="rgb(25.749207%, 19.68689%, 12.124634%)" fill-opacity="1" d="M 15.75 18.984375 C 15.75 18.054688 14.992188 17.296875 14.0625 17.296875 C 13.128906 17.296875 12.375 18.054688 12.375 18.984375 C 12.375 19.917969 13.128906 20.671875 14.0625 20.671875 C 14.992188 20.671875 15.75 19.917969 15.75 18.984375 Z M 15.75 18.984375 "/>
<path fill="none" stroke-width="0.79701" stroke-linecap="round" stroke-linejoin="miter" stroke="rgb(25.749207%, 19.68689%, 12.124634%)" stroke-opacity="1" stroke-miterlimit="10" d="M 4.537488 40.535968 C 3.088578 38.027936 -0.120285 37.169614 -2.628317 38.614587 C -3.423643 39.075246 -4.089039 39.740642 -4.545761 40.535968 M 0.00176969 37.842885 L 0.00176969 33.307166 " transform="matrix(0.992125, 0, 0, -0.992125, 19.685744, 65.669872)"/>
<path fill-rule="nonzero" fill="rgb(79.264832%, 71.583557%, 62.615967%)" fill-opacity="1" d="M 28.730469 62.015625 C 29.132812 60.511719 28.242188 58.972656 26.742188 58.570312 C 25.242188 58.167969 23.699219 59.058594 23.296875 60.558594 C 23.167969 61.035156 23.167969 61.535156 23.296875 62.015625 L 24.1875 62.015625 C 25.039062 61.519531 25.863281 61.519531 26.714844 62.015625 Z M 28.730469 62.015625 "/>
<path fill-rule="nonzero" fill="rgb(79.264832%, 71.583557%, 62.615967%)" fill-opacity="1" d="M 10.640625 62.015625 C 10.238281 60.511719 11.128906 58.972656 12.628906 58.570312 C 14.128906 58.167969 15.671875 59.058594 16.074219 60.558594 C 16.203125 61.035156 16.203125 61.535156 16.074219 62.015625 L 15.1875 62.015625 C 14.332031 61.519531 13.507812 61.519531 12.65625 62.015625 Z M 10.640625 62.015625 "/>
<g clip-path="url(#clip-3)">
<path fill-rule="nonzero" fill="rgb(38.249207%, 32.18689%, 24.624634%)" fill-opacity="1" d="M 11.953125 9.984375 C 10.652344 9.542969 9.96875 8.148438 10.410156 6.847656 C 10.851562 5.550781 12.378906 4.910156 13.546875 5.308594 C 12.25 4.863281 11.5625 3.46875 12.003906 2.171875 C 12.449219 0.875 13.972656 0.230469 15.140625 0.628906 C 17.410156 2.425781 18.507812 1.328125 19.878906 1.328125 C 21.25 1.328125 22.351562 2.5625 22.351562 3.796875 C 22.351562 2.425781 23.449219 1.328125 24.820312 1.328125 C 26.195312 1.328125 27.292969 2.5625 27.292969 3.796875 C 27.25 5.230469 28.644531 5.917969 29.085938 7.214844 C 29.527344 8.515625 28.714844 9.953125 27.542969 10.351562 C 27.03125 11.355469 25.929688 12.457031 24.558594 12.457031 C 23.1875 12.457031 22.089844 11.222656 22.089844 9.984375 C 22.089844 11.355469 20.988281 12.457031 19.617188 12.457031 C 18.246094 12.457031 17.148438 11.222656 17.148438 9.984375 C 17.148438 11.355469 16.046875 12.457031 14.675781 12.457031 C 13.304688 12.457031 12.203125 11.222656 12.203125 9.984375 Z M 11.953125 9.984375 L 11.953125 9.984375 "/>
</g>
</svg>
