<?xml version="1.0" encoding="UTF-8"?>
<svg xmlns="http://www.w3.org/2000/svg" xmlns:xlink="http://www.w3.org/1999/xlink" width="39.685" height="60.945" viewBox="0 0 39.685 60.945">
<defs>
<clipPath id="clip-0">
<path clip-rule="nonzero" d="M 0 0.210938 L 39.371094 0.210938 L 39.371094 60.679688 L 0 60.679688 Z M 0 0.210938 "/>
</clipPath>
<clipPath id="clip-1">
<path clip-rule="nonzero" d="M 16 0.210938 L 22 0.210938 L 22 6 L 16 6 Z M 16 0.210938 "/>
</clipPath>
<clipPath id="clip-2">
<path clip-rule="nonzero" d="M 13 58 L 18 58 L 18 60.679688 L 13 60.679688 Z M 13 58 "/>
</clipPath>
<clipPath id="clip-3">
<path clip-rule="nonzero" d="M 22 58 L 27 58 L 27 60.679688 L 22 60.679688 Z M 22 58 "/>
</clipPath>
</defs>
<g clip-path="url(#clip-0)">
<path fill-rule="nonzero" fill="rgb(89.99939%, 89.99939%, 89.99939%)" fill-opacity="1" d="M 0 60.679688 L 39.371094 60.679688 L 39.371094 0.210938 L 0 0.210938 Z M 0 60.679688 "/>
</g>
<path fill-rule="nonzero" fill="rgb(56.077576%, 52.157593%, 41.175842%)" fill-opacity="1" d="M 34.589844 40.148438 C 34.589844 55.894531 28.683594 57.863281 19.6875 57.863281 C 10.6875 57.863281 4.78125 55.894531 4.78125 40.148438 C 4.78125 24.398438 10.6875 11.460938 19.6875 11.460938 C 28.964844 11.460938 34.589844 24.398438 34.589844 40.148438 Z M 34.589844 40.148438 "/>
<path fill-rule="nonzero" fill="rgb(76.252747%, 72.521973%, 62.069702%)" fill-opacity="1" d="M 29.808594 43.242188 C 29.808594 50.269531 25.871094 52.519531 19.6875 52.519531 C 13.5 52.519531 9.5625 50.269531 9.5625 43.242188 C 9.5625 35.929688 13.5 31.429688 19.6875 31.429688 C 25.871094 31.429688 29.808594 35.929688 29.808594 43.242188 Z M 29.808594 43.242188 "/>
<g clip-path="url(#clip-1)">
<path fill-rule="nonzero" fill="rgb(66.07666%, 61.457825%, 48.516846%)" fill-opacity="1" d="M 16.511719 5.769531 C 16.511719 5.769531 15.46875 1.253906 16.953125 0.703125 C 16.644531 4.097656 19.554688 5.445312 19.554688 5.445312 C 19.554688 5.445312 19.070312 2.558594 20.09375 2.367188 C 20.085938 4.546875 21.851562 5.320312 21.851562 5.320312 Z M 16.511719 5.769531 "/>
</g>
<path fill-rule="nonzero" fill="rgb(66.07666%, 61.457825%, 48.516846%)" fill-opacity="1" d="M 33.746094 17.085938 C 33.746094 10.335938 27.277344 4.992188 19.6875 4.992188 C 12.09375 4.992188 5.625 10.335938 5.625 17.085938 C 5.625 23.835938 10.40625 28.054688 19.6875 28.054688 C 28.964844 28.054688 33.746094 23.835938 33.746094 17.085938 Z M 33.746094 17.085938 "/>
<path fill-rule="nonzero" fill="rgb(83.039856%, 80.137634%, 72.0047%)" fill-opacity="1" d="M 30.933594 17.085938 C 30.933594 10.617188 23.058594 5.273438 19.6875 9.773438 C 16.3125 5.273438 8.4375 10.617188 8.4375 17.085938 C 8.4375 23.273438 12.65625 25.242188 19.6875 25.242188 C 26.714844 25.242188 30.933594 23.273438 30.933594 17.085938 Z M 30.933594 17.085938 "/>
<path fill-rule="nonzero" fill="rgb(39.646912%, 37.983704%, 33.323669%)" fill-opacity="1" d="M 30.332031 20.921875 C 28.15625 19.4375 24.828125 17.105469 23.558594 15.582031 C 23.015625 14.9375 24.253906 12.75 25.046875 13.042969 C 27.203125 13.847656 29.800781 15.890625 30.917969 17.5625 C 31.296875 18.132812 30.332031 20.921875 30.332031 20.921875 Z M 30.332031 20.921875 "/>
<path fill-rule="nonzero" fill="rgb(39.646912%, 37.983704%, 33.323669%)" fill-opacity="1" d="M 9.042969 20.921875 C 11.214844 19.4375 14.542969 17.105469 15.8125 15.582031 C 16.355469 14.9375 15.117188 12.75 14.324219 13.042969 C 12.167969 13.847656 9.570312 15.890625 8.453125 17.5625 C 8.074219 18.132812 9.042969 20.921875 9.042969 20.921875 Z M 9.042969 20.921875 "/>
<path fill-rule="nonzero" fill="rgb(0%, 0%, 0%)" fill-opacity="1" d="M 26.238281 14.835938 C 26.238281 14.214844 25.734375 13.710938 25.113281 13.710938 C 24.492188 13.710938 23.988281 14.214844 23.988281 14.835938 C 23.988281 15.457031 24.492188 15.960938 25.113281 15.960938 C 25.734375 15.960938 26.238281 15.457031 26.238281 14.835938 Z M 26.238281 14.835938 "/>
<path fill-rule="nonzero" fill="rgb(0%, 0%, 0%)" fill-opacity="1" d="M 15.382812 14.835938 C 15.382812 14.214844 14.878906 13.710938 14.257812 13.710938 C 13.636719 13.710938 13.132812 14.214844 13.132812 14.835938 C 13.132812 15.457031 13.636719 15.960938 14.257812 15.960938 C 14.878906 15.960938 15.382812 15.457031 15.382812 14.835938 Z M 15.382812 14.835938 "/>
<path fill-rule="nonzero" fill="rgb(100%, 100%, 100%)" fill-opacity="1" d="M 14.230469 14.414062 C 14.230469 14.320312 14.152344 14.246094 14.0625 14.246094 C 13.96875 14.246094 13.890625 14.320312 13.890625 14.414062 C 13.890625 14.507812 13.96875 14.582031 14.0625 14.582031 C 14.152344 14.582031 14.230469 14.507812 14.230469 14.414062 Z M 14.230469 14.414062 "/>
<path fill-rule="nonzero" fill="rgb(100%, 100%, 100%)" fill-opacity="1" d="M 25.085938 14.414062 C 25.085938 14.320312 25.011719 14.246094 24.917969 14.246094 C 24.824219 14.246094 24.75 14.320312 24.75 14.414062 C 24.75 14.507812 24.824219 14.582031 24.917969 14.582031 C 25.011719 14.582031 25.085938 14.507812 25.085938 14.414062 Z M 25.085938 14.414062 "/>
<path fill-rule="nonzero" fill="rgb(26.429749%, 25.689697%, 23.620605%)" fill-opacity="1" d="M 21.878906 17.226562 C 21.878906 16.480469 20.898438 15.875 19.6875 15.875 C 18.472656 15.875 17.492188 16.480469 17.492188 17.226562 C 17.492188 17.972656 18.472656 18.578125 19.6875 18.578125 C 20.898438 18.578125 21.878906 17.972656 21.878906 17.226562 Z M 21.878906 17.226562 "/>
<path fill="none" stroke-width="0.3985" stroke-linecap="butt" stroke-linejoin="miter" stroke="rgb(26.429749%, 25.689697%, 23.620605%)" stroke-opacity="1" stroke-miterlimit="10" d="M 3.261818 43.937029 C 2.218445 42.696794 0.592358 42.106205 -1.002231 42.385751 C -2.053478 42.570802 -3.002357 43.122017 -3.687439 43.937029 " transform="matrix(0.992125, 0, 0, -0.992125, 19.685744, 64.051963)"/>
<path fill-rule="nonzero" fill="rgb(66.07666%, 61.457825%, 48.516846%)" fill-opacity="1" d="M 5.625 29.179688 C 4.5 29.179688 4.21875 30.304688 3.9375 31.148438 C 2.53125 34.242188 1.96875 37.335938 1.6875 40.710938 C 1.6875 41.554688 1.6875 42.398438 1.96875 43.242188 C 3.65625 45.492188 6.46875 47.175781 9 48.304688 C 10.96875 48.867188 13.21875 49.425781 15.1875 48.867188 C 16.3125 48.867188 16.875 47.460938 16.03125 46.898438 C 14.90625 44.929688 12.9375 43.523438 11.25 42.398438 C 10.125 41.835938 9 41.273438 7.875 40.710938 C 8.15625 38.179688 8.15625 35.648438 7.875 33.398438 C 7.59375 31.992188 7.3125 30.585938 6.1875 29.460938 C 6.1875 29.179688 5.90625 29.179688 5.625 29.179688 Z M 5.625 29.179688 "/>
<path fill-rule="nonzero" fill="rgb(66.07666%, 61.457825%, 48.516846%)" fill-opacity="1" d="M 33.746094 29.179688 C 34.871094 29.179688 35.152344 30.304688 35.433594 31.148438 C 36.839844 34.242188 37.402344 37.335938 37.683594 40.710938 C 37.683594 41.554688 37.683594 42.398438 37.402344 43.242188 C 35.714844 45.492188 32.902344 47.175781 30.371094 48.304688 C 28.402344 48.867188 26.152344 49.425781 24.1875 48.867188 C 23.058594 48.867188 22.5 47.460938 23.34375 46.898438 C 24.464844 44.929688 26.4375 43.523438 28.121094 42.398438 C 29.246094 41.835938 30.371094 41.273438 31.496094 40.710938 C 31.214844 38.179688 31.214844 35.648438 31.496094 33.398438 C 31.777344 31.992188 32.058594 30.585938 33.183594 29.460938 C 33.183594 29.179688 33.464844 29.179688 33.746094 29.179688 Z M 33.746094 29.179688 "/>
<path fill-rule="nonzero" fill="rgb(33.039856%, 31.884766%, 28.649902%)" fill-opacity="1" d="M 23.742188 46.449219 C 22.71875 46.820312 21.964844 47.320312 22.054688 47.570312 C 22.144531 47.816406 23.046875 47.71875 24.066406 47.347656 C 25.089844 46.972656 25.84375 46.472656 25.753906 46.222656 C 25.664062 45.976562 24.761719 46.074219 23.742188 46.449219 Z M 23.742188 46.449219 "/>
<path fill-rule="nonzero" fill="rgb(33.039856%, 31.884766%, 28.649902%)" fill-opacity="1" d="M 24.273438 47.644531 C 23.304688 48.140625 22.605469 48.707031 22.710938 48.914062 C 22.816406 49.121094 23.6875 48.890625 24.65625 48.398438 C 25.628906 47.902344 26.328125 47.335938 26.222656 47.128906 C 26.113281 46.921875 25.242188 47.152344 24.273438 47.644531 Z M 24.273438 47.644531 "/>
<path fill-rule="nonzero" fill="rgb(33.039856%, 31.884766%, 28.649902%)" fill-opacity="1" d="M 24.835938 48.871094 C 24.046875 49.421875 23.496094 49.992188 23.601562 50.148438 C 23.707031 50.300781 24.433594 49.976562 25.222656 49.421875 C 26.011719 48.871094 26.5625 48.300781 26.457031 48.144531 C 26.351562 47.992188 25.625 48.316406 24.835938 48.871094 Z M 24.835938 48.871094 "/>
<path fill-rule="nonzero" fill="rgb(33.039856%, 31.884766%, 28.649902%)" fill-opacity="1" d="M 15.304688 47.347656 C 16.324219 47.71875 17.226562 47.816406 17.316406 47.570312 C 17.40625 47.320312 16.652344 46.820312 15.632812 46.449219 C 14.609375 46.074219 13.707031 45.976562 13.617188 46.222656 C 13.527344 46.472656 14.28125 46.972656 15.304688 47.347656 Z M 15.304688 47.347656 "/>
<path fill-rule="nonzero" fill="rgb(33.039856%, 31.884766%, 28.649902%)" fill-opacity="1" d="M 14.714844 48.398438 C 15.683594 48.890625 16.554688 49.121094 16.660156 48.914062 C 16.765625 48.707031 16.066406 48.140625 15.097656 47.644531 C 14.128906 47.152344 13.257812 46.921875 13.152344 47.128906 C 13.042969 47.335938 13.746094 47.902344 14.714844 48.398438 Z M 14.714844 48.398438 "/>
<path fill-rule="nonzero" fill="rgb(33.039856%, 31.884766%, 28.649902%)" fill-opacity="1" d="M 14.148438 49.421875 C 14.9375 49.976562 15.664062 50.300781 15.769531 50.148438 C 15.878906 49.992188 15.324219 49.421875 14.535156 48.871094 C 13.746094 48.316406 13.019531 47.992188 12.914062 48.144531 C 12.808594 48.300781 13.359375 48.871094 14.148438 49.421875 Z M 14.148438 49.421875 "/>
<path fill-rule="nonzero" fill="rgb(66.07666%, 61.457825%, 48.516846%)" fill-opacity="1" d="M 35.339844 52.363281 C 34.484375 50.53125 30.941406 50.378906 27.421875 52.019531 C 23.902344 53.660156 21.742188 56.476562 22.59375 58.304688 C 23.449219 60.136719 26.992188 60.289062 30.511719 58.648438 C 34.03125 57.007812 36.191406 54.191406 35.339844 52.363281 Z M 35.339844 52.363281 "/>
<path fill-rule="nonzero" fill="rgb(66.07666%, 61.457825%, 48.516846%)" fill-opacity="1" d="M 16.777344 58.304688 C 17.628906 56.476562 15.46875 53.660156 11.949219 52.019531 C 8.429688 50.378906 4.886719 50.53125 4.03125 52.363281 C 3.179688 54.191406 5.339844 57.007812 8.859375 58.648438 C 12.378906 60.289062 15.921875 60.136719 16.777344 58.304688 Z M 16.777344 58.304688 "/>
<path fill-rule="nonzero" fill="rgb(33.039856%, 31.884766%, 28.649902%)" fill-opacity="1" d="M 18.109375 56.941406 C 18.160156 56.652344 17.332031 56.261719 16.261719 56.074219 C 15.191406 55.882812 14.28125 55.96875 14.230469 56.257812 C 14.179688 56.546875 15.007812 56.9375 16.078125 57.125 C 17.148438 57.3125 18.058594 57.230469 18.109375 56.941406 Z M 18.109375 56.941406 "/>
<path fill-rule="nonzero" fill="rgb(33.039856%, 31.884766%, 28.649902%)" fill-opacity="1" d="M 17.640625 58.6875 C 17.714844 58.433594 16.925781 57.984375 15.878906 57.6875 C 14.835938 57.386719 13.929688 57.347656 13.855469 57.601562 C 13.78125 57.855469 14.570312 58.304688 15.617188 58.605469 C 16.660156 58.90625 17.566406 58.941406 17.640625 58.6875 Z M 17.640625 58.6875 "/>
<g clip-path="url(#clip-2)">
<path fill-rule="nonzero" fill="rgb(33.039856%, 31.884766%, 28.649902%)" fill-opacity="1" d="M 17.011719 60.148438 C 17.097656 59.933594 16.351562 59.429688 15.34375 59.019531 C 14.335938 58.613281 13.449219 58.457031 13.359375 58.675781 C 13.273438 58.890625 14.019531 59.394531 15.027344 59.804688 C 16.035156 60.210938 16.925781 60.367188 17.011719 60.148438 Z M 17.011719 60.148438 "/>
</g>
<path fill-rule="nonzero" fill="rgb(33.039856%, 31.884766%, 28.649902%)" fill-opacity="1" d="M 25.140625 56.257812 C 25.089844 55.96875 24.179688 55.882812 23.109375 56.074219 C 22.039062 56.261719 21.210938 56.652344 21.261719 56.941406 C 21.3125 57.230469 22.222656 57.3125 23.292969 57.125 C 24.363281 56.9375 25.191406 56.546875 25.140625 56.257812 Z M 25.140625 56.257812 "/>
<path fill-rule="nonzero" fill="rgb(33.039856%, 31.884766%, 28.649902%)" fill-opacity="1" d="M 25.515625 57.601562 C 25.441406 57.347656 24.535156 57.386719 23.492188 57.6875 C 22.445312 57.984375 21.65625 58.433594 21.730469 58.6875 C 21.804688 58.941406 22.710938 58.90625 23.753906 58.605469 C 24.800781 58.304688 25.589844 57.855469 25.515625 57.601562 Z M 25.515625 57.601562 "/>
<g clip-path="url(#clip-3)">
<path fill-rule="nonzero" fill="rgb(33.039856%, 31.884766%, 28.649902%)" fill-opacity="1" d="M 26.011719 58.675781 C 25.925781 58.457031 25.035156 58.613281 24.027344 59.019531 C 23.019531 59.429688 22.273438 59.933594 22.359375 60.148438 C 22.449219 60.367188 23.335938 60.210938 24.34375 59.804688 C 25.351562 59.394531 26.097656 58.890625 26.011719 58.675781 Z M 26.011719 58.675781 "/>
</g>
</svg>
