<?xml version="1.0" encoding="UTF-8"?>
<svg xmlns="http://www.w3.org/2000/svg" xmlns:xlink="http://www.w3.org/1999/xlink" width="42.52" height="71.53" viewBox="0 0 42.52 71.53">
<defs>
<clipPath id="clip-0">
<path clip-rule="nonzero" d="M 0 0.167969 L 42.046875 0.167969 L 42.046875 70.898438 L 0 70.898438 Z M 0 0.167969 "/>
</clipPath>
<clipPath id="clip-1">
<path clip-rule="nonzero" d="M 4 42 L 38 42 L 38 70.898438 L 4 70.898438 Z M 4 42 "/>
</clipPath>
<clipPath id="clip-2">
<path clip-rule="nonzero" d="M 16 0.167969 L 37 0.167969 L 37 8 L 16 8 Z M 16 0.167969 "/>
</clipPath>
</defs>
<g clip-path="url(#clip-0)">
<path fill-rule="nonzero" fill="rgb(89.99939%, 89.99939%, 89.99939%)" fill-opacity="1" d="M 0 70.898438 L 42.046875 70.898438 L 42.046875 0.167969 L 0 0.167969 Z M 0 70.898438 "/>
</g>
<path fill-rule="nonzero" fill="rgb(94.999695%, 94.999695%, 94.999695%)" fill-opacity="1" d="M 40.441406 46.507812 C 41.867188 45.3125 40.601562 41.460938 37.613281 37.902344 C 34.628906 34.34375 31.054688 32.429688 29.632812 33.625 C 28.210938 34.816406 29.476562 38.667969 32.460938 42.226562 C 35.445312 45.785156 39.019531 47.699219 40.441406 46.507812 Z M 40.441406 46.507812 "/>
<path fill-rule="nonzero" fill="rgb(94.999695%, 94.999695%, 94.999695%)" fill-opacity="1" d="M 12.414062 33.625 C 10.988281 32.429688 7.417969 34.34375 4.429688 37.902344 C 1.445312 41.460938 0.179688 45.3125 1.601562 46.507812 C 3.023438 47.699219 6.597656 45.785156 9.585938 42.226562 C 12.570312 38.667969 13.835938 34.816406 12.414062 33.625 Z M 12.414062 33.625 "/>
<g clip-path="url(#clip-1)">
<path fill-rule="nonzero" fill="rgb(94.999695%, 94.999695%, 94.999695%)" fill-opacity="1" d="M 37.839844 56.882812 C 37.839844 49.144531 30.3125 42.867188 21.023438 42.867188 C 11.734375 42.867188 4.203125 49.144531 4.203125 56.882812 C 4.203125 64.625 11.734375 70.898438 21.023438 70.898438 C 30.3125 70.898438 37.839844 64.625 37.839844 56.882812 Z M 37.839844 56.882812 "/>
</g>
<path fill-rule="nonzero" fill="rgb(94.999695%, 94.999695%, 94.999695%)" fill-opacity="1" d="M 35.039062 40.066406 C 35.039062 33.871094 28.761719 28.851562 21.023438 28.851562 C 13.28125 28.851562 7.007812 33.871094 7.007812 40.066406 C 7.007812 46.257812 13.28125 51.277344 21.023438 51.277344 C 28.761719 51.277344 35.039062 46.257812 35.039062 40.066406 Z M 35.039062 40.066406 "/>
<path fill-rule="nonzero" fill="rgb(94.999695%, 94.999695%, 94.999695%)" fill-opacity="1" d="M 32.234375 23.246094 C 32.234375 17.054688 27.214844 12.035156 21.023438 12.035156 C 14.832031 12.035156 9.8125 17.054688 9.8125 23.246094 C 9.8125 29.4375 14.832031 34.457031 21.023438 34.457031 C 27.214844 34.457031 32.234375 29.4375 32.234375 23.246094 Z M 32.234375 23.246094 "/>
<path fill-rule="nonzero" fill="rgb(0%, 0%, 0%)" fill-opacity="1" d="M 21.472656 28.851562 C 21.472656 28.605469 21.269531 28.402344 21.023438 28.402344 C 20.773438 28.402344 20.574219 28.605469 20.574219 28.851562 C 20.574219 29.101562 20.773438 29.300781 21.023438 29.300781 C 21.269531 29.300781 21.472656 29.101562 21.472656 28.851562 Z M 21.472656 28.851562 "/>
<path fill-rule="nonzero" fill="rgb(0%, 0%, 0%)" fill-opacity="1" d="M 22.59375 28.65625 C 22.59375 28.410156 22.390625 28.207031 22.144531 28.207031 C 21.894531 28.207031 21.695312 28.410156 21.695312 28.65625 C 21.695312 28.902344 21.894531 29.105469 22.144531 29.105469 C 22.390625 29.105469 22.59375 28.902344 22.59375 28.65625 Z M 22.59375 28.65625 "/>
<path fill-rule="nonzero" fill="rgb(0%, 0%, 0%)" fill-opacity="1" d="M 20.351562 28.65625 C 20.351562 28.410156 20.148438 28.207031 19.902344 28.207031 C 19.652344 28.207031 19.453125 28.410156 19.453125 28.65625 C 19.453125 28.902344 19.652344 29.105469 19.902344 29.105469 C 20.148438 29.105469 20.351562 28.902344 20.351562 28.65625 Z M 20.351562 28.65625 "/>
<path fill-rule="nonzero" fill="rgb(0%, 0%, 0%)" fill-opacity="1" d="M 23.714844 28.234375 C 23.714844 27.988281 23.511719 27.789062 23.265625 27.789062 C 23.015625 27.789062 22.816406 27.988281 22.816406 28.234375 C 22.816406 28.484375 23.015625 28.683594 23.265625 28.683594 C 23.511719 28.683594 23.714844 28.484375 23.714844 28.234375 Z M 23.714844 28.234375 "/>
<path fill-rule="nonzero" fill="rgb(0%, 0%, 0%)" fill-opacity="1" d="M 19.230469 28.234375 C 19.230469 27.988281 19.027344 27.789062 18.78125 27.789062 C 18.53125 27.789062 18.332031 27.988281 18.332031 28.234375 C 18.332031 28.484375 18.53125 28.683594 18.78125 28.683594 C 19.027344 28.683594 19.230469 28.484375 19.230469 28.234375 Z M 19.230469 28.234375 "/>
<path fill-rule="nonzero" fill="rgb(0%, 0%, 0%)" fill-opacity="1" d="M 24.835938 27.648438 C 24.835938 27.398438 24.632812 27.199219 24.386719 27.199219 C 24.136719 27.199219 23.9375 27.398438 23.9375 27.648438 C 23.9375 27.894531 24.136719 28.097656 24.386719 28.097656 C 24.632812 28.097656 24.835938 27.894531 24.835938 27.648438 Z M 24.835938 27.648438 "/>
<path fill-rule="nonzero" fill="rgb(0%, 0%, 0%)" fill-opacity="1" d="M 18.109375 27.648438 C 18.109375 27.398438 17.90625 27.199219 17.660156 27.199219 C 17.410156 27.199219 17.210938 27.398438 17.210938 27.648438 C 17.210938 27.894531 17.410156 28.097656 17.660156 28.097656 C 17.90625 28.097656 18.109375 27.894531 18.109375 27.648438 Z M 18.109375 27.648438 "/>
<path fill-rule="nonzero" fill="rgb(0%, 0%, 0%)" fill-opacity="1" d="M 17.800781 20.445312 C 17.800781 19.824219 17.296875 19.324219 16.679688 19.324219 C 16.058594 19.324219 15.558594 19.824219 15.558594 20.445312 C 15.558594 21.0625 16.058594 21.566406 16.679688 21.566406 C 17.296875 21.566406 17.800781 21.0625 17.800781 20.445312 Z M 17.800781 20.445312 "/>
<path fill-rule="nonzero" fill="rgb(0%, 0%, 0%)" fill-opacity="1" d="M 26.488281 20.445312 C 26.488281 19.824219 25.988281 19.324219 25.367188 19.324219 C 24.75 19.324219 24.246094 19.824219 24.246094 20.445312 C 24.246094 21.0625 24.75 21.566406 25.367188 21.566406 C 25.988281 21.566406 26.488281 21.0625 26.488281 20.445312 Z M 26.488281 20.445312 "/>
<path fill-rule="nonzero" fill="rgb(100%, 50%, 0%)" fill-opacity="1" d="M 21.023438 22.6875 C 20.25 22.6875 19.621094 23.3125 19.621094 24.085938 C 19.621094 24.863281 20.25 25.488281 21.023438 25.488281 M 21.023438 25.488281 L 25.226562 24.929688 L 21.023438 22.6875 "/>
<path fill-rule="nonzero" fill="rgb(0%, 0%, 0%)" fill-opacity="1" d="M 22.144531 38.664062 C 22.144531 38.042969 21.640625 37.542969 21.023438 37.542969 C 20.402344 37.542969 19.902344 38.042969 19.902344 38.664062 C 19.902344 39.28125 20.402344 39.785156 21.023438 39.785156 C 21.640625 39.785156 22.144531 39.28125 22.144531 38.664062 Z M 22.144531 38.664062 "/>
<path fill-rule="nonzero" fill="rgb(0%, 0%, 0%)" fill-opacity="1" d="M 22.144531 44.269531 C 22.144531 43.652344 21.640625 43.148438 21.023438 43.148438 C 20.402344 43.148438 19.902344 43.652344 19.902344 44.269531 C 19.902344 44.890625 20.402344 45.390625 21.023438 45.390625 C 21.640625 45.390625 22.144531 44.890625 22.144531 44.269531 Z M 22.144531 44.269531 "/>
<path fill-rule="nonzero" fill="rgb(0%, 0%, 0%)" fill-opacity="1" d="M 22.144531 49.875 C 22.144531 49.257812 21.640625 48.753906 21.023438 48.753906 C 20.402344 48.753906 19.902344 49.257812 19.902344 49.875 C 19.902344 50.496094 20.402344 50.996094 21.023438 50.996094 C 21.640625 50.996094 22.144531 50.496094 22.144531 49.875 Z M 22.144531 49.875 "/>
<path fill-rule="nonzero" fill="rgb(9.999084%, 9.999084%, 9.999084%)" fill-opacity="1" d="M 36.820312 20 C 37.222656 18.507812 31.730469 15.734375 24.550781 13.8125 C 17.375 11.886719 11.230469 11.542969 10.828125 13.039062 C 10.429688 14.53125 15.921875 17.304688 23.101562 19.226562 C 30.277344 21.148438 36.421875 21.496094 36.820312 20 Z M 36.820312 20 "/>
<path fill-rule="nonzero" fill="rgb(9.999084%, 9.999084%, 9.999084%)" fill-opacity="1" d="M 14.929688 13.984375 L 31.988281 18.554688 L 36.878906 6.804688 L 16.839844 1.4375 Z M 14.929688 13.984375 "/>
<g clip-path="url(#clip-2)">
<path fill-rule="nonzero" fill="rgb(9.999084%, 9.999084%, 9.999084%)" fill-opacity="1" d="M 36.925781 6.730469 C 37.246094 5.535156 33.023438 3.363281 27.488281 1.878906 C 21.957031 0.398438 17.210938 0.164062 16.890625 1.363281 C 16.570312 2.558594 20.796875 4.730469 26.328125 6.210938 C 31.863281 7.695312 36.605469 7.925781 36.925781 6.730469 Z M 36.925781 6.730469 "/>
</g>
</svg>
