<?xml version="1.0" encoding="UTF-8"?>
<svg xmlns="http://www.w3.org/2000/svg" xmlns:xlink="http://www.w3.org/1999/xlink" width="47.574" height="59.168" viewBox="0 0 47.574 59.168">
<defs>
<clipPath id="clip-0">
<path clip-rule="nonzero" d="M 0.121094 0 L 47.035156 0 L 47.035156 58.347656 L 0.121094 58.347656 Z M 0.121094 0 "/>
</clipPath>
<clipPath id="clip-1">
<path clip-rule="nonzero" d="M 0.121094 13 L 29 13 L 29 56 L 0.121094 56 Z M 0.121094 13 "/>
</clipPath>
</defs>
<g clip-path="url(#clip-0)">
<path fill-rule="nonzero" fill="rgb(89.99939%, 89.99939%, 89.99939%)" fill-opacity="1" d="M 0.121094 58.347656 L 47.035156 58.347656 L 47.035156 0 L 0.121094 0 Z M 0.121094 58.347656 "/>
</g>
<path fill-rule="nonzero" fill="rgb(46.148682%, 35.749817%, 28.849792%)" fill-opacity="1" d="M 28.492188 55.273438 C 28.492188 53.882812 25.613281 52.757812 22.0625 52.757812 C 18.511719 52.757812 15.632812 53.882812 15.632812 55.273438 C 15.632812 56.660156 18.511719 57.789062 22.0625 57.789062 C 25.613281 57.789062 28.492188 56.660156 28.492188 55.273438 Z M 28.492188 55.273438 "/>
<path fill-rule="nonzero" fill="rgb(46.148682%, 35.749817%, 28.849792%)" fill-opacity="1" d="M 14.238281 55.273438 C 14.238281 53.882812 11.359375 52.757812 7.808594 52.757812 C 4.257812 52.757812 1.378906 53.882812 1.378906 55.273438 C 1.378906 56.660156 4.257812 57.789062 7.808594 57.789062 C 11.359375 57.789062 14.238281 56.660156 14.238281 55.273438 Z M 14.238281 55.273438 "/>
<path fill-rule="nonzero" fill="rgb(46.148682%, 35.749817%, 28.849792%)" fill-opacity="1" d="M 42.316406 30.421875 C 42.316406 30.421875 44.800781 26.941406 45.230469 24.867188 C 47.035156 15.679688 35.816406 9.660156 29.519531 13.070312 C 23.335938 17.296875 24.429688 25.703125 25.980469 31.507812 C 27.289062 35.640625 30.140625 41.554688 26.917969 44.402344 C 25.683594 45.480469 21.351562 48.96875 15.277344 50.046875 C 23.410156 55.464844 45.1875 42.847656 39.503906 31.507812 C 38.996094 29.722656 37.730469 27.652344 39.300781 26.453125 C 41.003906 26.777344 41.59375 28.820312 42.316406 30.421875 Z M 42.316406 30.421875 "/>
<g clip-path="url(#clip-1)">
<path fill-rule="nonzero" fill="rgb(63.999939%, 44.999695%, 35.998535%)" fill-opacity="1" d="M 28.914062 46.886719 C 28.914062 58.347656 0.957031 58.347656 0.957031 46.886719 C 0.957031 37.101562 7.945312 16.136719 14.933594 13.34375 C 21.925781 16.136719 28.914062 37.101562 28.914062 46.886719 Z M 28.914062 46.886719 "/>
</g>
<path fill-rule="nonzero" fill="rgb(69.398499%, 53.248596%, 45.599365%)" fill-opacity="1" d="M 24.71875 46.886719 C 24.71875 54.714844 5.152344 54.714844 5.152344 46.886719 C 5.152344 41.296875 10.183594 27.320312 14.933594 27.320312 C 19.6875 27.320312 24.71875 41.296875 24.71875 46.886719 Z M 24.71875 46.886719 "/>
<path fill-rule="nonzero" fill="rgb(46.148682%, 35.749817%, 28.849792%)" fill-opacity="1" d="M 20.300781 5.21875 C 19.566406 2.773438 20.074219 1.234375 20.074219 1.234375 C 20.074219 1.234375 18.074219 0 17.566406 2.941406 C 16.9375 4.519531 17.039062 6.300781 17.796875 6.933594 C 18.550781 7.5625 19.675781 6.796875 20.300781 5.21875 Z M 20.300781 5.21875 "/>
<path fill-rule="nonzero" fill="rgb(46.148682%, 35.749817%, 28.849792%)" fill-opacity="1" d="M 9.566406 5.21875 C 10.304688 2.773438 9.792969 1.234375 9.792969 1.234375 C 9.792969 1.234375 11.796875 0 12.304688 2.941406 C 12.933594 4.519531 12.832031 6.300781 12.074219 6.933594 C 11.320312 7.5625 10.195312 6.796875 9.566406 5.21875 Z M 9.566406 5.21875 "/>
<path fill-rule="nonzero" fill="rgb(63.999939%, 44.999695%, 35.998535%)" fill-opacity="1" d="M 23.320312 11.945312 C 23.320312 7.3125 19.566406 3.558594 14.933594 3.558594 C 10.304688 3.558594 6.550781 7.3125 6.550781 11.945312 C 6.550781 16.574219 10.304688 20.332031 14.933594 20.332031 C 19.566406 20.332031 23.320312 16.574219 23.320312 11.945312 Z M 24.71875 16.136719 C 24.71875 13.820312 22.84375 11.945312 20.527344 11.945312 C 18.210938 11.945312 16.332031 13.820312 16.332031 16.136719 C 16.332031 18.453125 18.210938 20.328125 20.527344 20.328125 C 22.84375 20.328125 24.71875 18.453125 24.71875 16.136719 Z M 13.539062 16.136719 C 13.539062 13.820312 11.660156 11.945312 9.34375 11.945312 C 7.027344 11.945312 5.152344 13.820312 5.152344 16.136719 C 5.152344 18.453125 7.027344 20.328125 9.34375 20.328125 C 11.660156 20.328125 13.539062 18.453125 13.539062 16.136719 Z M 13.539062 16.136719 "/>
<path fill-rule="nonzero" fill="rgb(40.380859%, 27.897644%, 19.619751%)" fill-opacity="1" d="M 16.613281 14.460938 C 16.613281 13.996094 15.863281 13.621094 14.933594 13.621094 C 14.007812 13.621094 13.257812 13.996094 13.257812 14.460938 C 13.257812 14.921875 14.007812 15.296875 14.933594 15.296875 C 15.863281 15.296875 16.613281 14.921875 16.613281 14.460938 Z M 16.613281 14.460938 "/>
<path fill-rule="nonzero" fill="rgb(100%, 100%, 100%)" fill-opacity="1" d="M 18.289062 11.105469 C 18.289062 10.023438 17.664062 9.148438 16.890625 9.148438 C 16.121094 9.148438 15.496094 10.023438 15.496094 11.105469 C 15.496094 12.1875 16.121094 13.0625 16.890625 13.0625 C 17.664062 13.0625 18.289062 12.1875 18.289062 11.105469 Z M 18.289062 11.105469 "/>
<path fill-rule="nonzero" fill="rgb(100%, 100%, 100%)" fill-opacity="1" d="M 14.375 11.105469 C 14.375 10.023438 13.75 9.148438 12.976562 9.148438 C 12.207031 9.148438 11.582031 10.023438 11.582031 11.105469 C 11.582031 12.1875 12.207031 13.0625 12.976562 13.0625 C 13.75 13.0625 14.375 12.1875 14.375 11.105469 Z M 14.375 11.105469 "/>
<path fill-rule="nonzero" fill="rgb(0%, 0%, 0%)" fill-opacity="1" d="M 17.367188 11.664062 C 17.367188 11.25 17.15625 10.910156 16.890625 10.910156 C 16.628906 10.910156 16.417969 11.25 16.417969 11.664062 C 16.417969 12.082031 16.628906 12.417969 16.890625 12.417969 C 17.15625 12.417969 17.367188 12.082031 17.367188 11.664062 Z M 17.367188 11.664062 "/>
<path fill-rule="nonzero" fill="rgb(0%, 0%, 0%)" fill-opacity="1" d="M 13.453125 11.664062 C 13.453125 11.25 13.242188 10.910156 12.976562 10.910156 C 12.714844 10.910156 12.503906 11.25 12.503906 11.664062 C 12.503906 12.082031 12.714844 12.417969 12.976562 12.417969 C 13.242188 12.417969 13.453125 12.082031 13.453125 11.664062 Z M 13.453125 11.664062 "/>
<path fill-rule="nonzero" fill="rgb(100%, 100%, 100%)" fill-opacity="1" d="M 14.238281 17.058594 L 14.238281 16.222656 L 14.796875 16.222656 L 14.796875 17.058594 Z M 14.238281 17.058594 "/>
<path fill-rule="nonzero" fill="rgb(100%, 100%, 100%)" fill-opacity="1" d="M 15.632812 17.058594 L 15.632812 16.222656 L 15.074219 16.222656 L 15.074219 17.058594 Z M 15.632812 17.058594 "/>
<path fill="none" stroke-width="0.3985" stroke-linecap="butt" stroke-linejoin="miter" stroke="rgb(40.380859%, 27.897644%, 19.619751%)" stroke-opacity="1" stroke-miterlimit="10" d="M -4.252244 45.636616 C -4.252244 45.636616 -4.252244 43.085617 -0.00189979 45.636616 C 4.252406 43.085617 4.252406 45.636616 4.252406 45.636616 " transform="matrix(0.986133, 0, 0, -0.986133, 14.935467, 60.863163)"/>
<path fill-rule="nonzero" fill="rgb(46.148682%, 35.749817%, 28.849792%)" fill-opacity="1" d="M 22.628906 31.324219 C 21.035156 30.742188 18.796875 32.859375 17.636719 36.050781 C 16.476562 39.242188 16.828125 42.300781 18.421875 42.882812 C 20.019531 43.460938 22.253906 41.347656 23.414062 38.152344 C 24.578125 34.960938 24.226562 31.902344 22.628906 31.324219 Z M 22.628906 31.324219 "/>
<path fill-rule="nonzero" fill="rgb(46.148682%, 35.749817%, 28.849792%)" fill-opacity="1" d="M 11.449219 42.882812 C 13.042969 42.300781 13.394531 39.242188 12.234375 36.050781 C 11.074219 32.859375 8.835938 30.742188 7.242188 31.324219 C 5.644531 31.902344 5.292969 34.960938 6.457031 38.152344 C 7.617188 41.347656 9.851562 43.460938 11.449219 42.882812 Z M 11.449219 42.882812 "/>
</svg>
