<?xml version="1.0" encoding="UTF-8"?>
<svg xmlns="http://www.w3.org/2000/svg" xmlns:xlink="http://www.w3.org/1999/xlink" width="54.992" height="60.094" viewBox="0 0 54.992 60.094">
<defs>
<clipPath id="clip-0">
<path clip-rule="nonzero" d="M 0.40625 0 L 54.578125 0 L 54.578125 59.203125 L 0.40625 59.203125 Z M 0.40625 0 "/>
</clipPath>
<clipPath id="clip-1">
<path clip-rule="nonzero" d="M 26 29 L 54.578125 29 L 54.578125 38 L 26 38 Z M 26 29 "/>
</clipPath>
<clipPath id="clip-2">
<path clip-rule="nonzero" d="M 0.40625 29 L 29 29 L 29 38 L 0.40625 38 Z M 0.40625 29 "/>
</clipPath>
</defs>
<g clip-path="url(#clip-0)">
<path fill-rule="nonzero" fill="rgb(89.99939%, 89.99939%, 89.99939%)" fill-opacity="1" d="M 0.40625 59.203125 L 54.578125 59.203125 L 54.578125 0 L 0.40625 0 Z M 0.40625 59.203125 "/>
</g>
<path fill-rule="nonzero" fill="rgb(73.399353%, 63.598633%, 53.799438%)" fill-opacity="1" d="M 47.8125 50.5625 C 49.300781 48.789062 45.71875 43.335938 39.8125 38.378906 C 33.902344 33.421875 27.910156 30.839844 26.421875 32.613281 C 24.933594 34.382812 28.519531 39.839844 34.425781 44.796875 C 40.332031 49.753906 46.328125 52.335938 47.8125 50.5625 Z M 47.8125 50.5625 "/>
<path fill-rule="nonzero" fill="rgb(61.999512%, 47.999573%, 33.999634%)" fill-opacity="1" d="M 52.421875 42.582031 C 53.210938 40.410156 47.980469 36.507812 40.734375 33.871094 C 33.488281 31.234375 26.972656 30.859375 26.179688 33.03125 C 25.386719 35.207031 30.621094 39.105469 37.867188 41.742188 C 45.113281 44.382812 51.628906 44.757812 52.421875 42.582031 Z M 52.421875 42.582031 "/>
<g clip-path="url(#clip-1)">
<path fill-rule="nonzero" fill="rgb(73.399353%, 63.598633%, 53.799438%)" fill-opacity="1" d="M 54.019531 33.511719 C 54.019531 31.195312 47.769531 29.320312 40.058594 29.320312 C 32.347656 29.320312 26.09375 31.195312 26.09375 33.511719 C 26.09375 35.824219 32.347656 37.699219 40.058594 37.699219 C 47.769531 37.699219 54.019531 35.824219 54.019531 33.511719 Z M 54.019531 33.511719 "/>
</g>
<path fill-rule="nonzero" fill="rgb(61.999512%, 47.999573%, 33.999634%)" fill-opacity="1" d="M 52.421875 24.4375 C 51.628906 22.261719 45.113281 22.636719 37.867188 25.277344 C 30.621094 27.914062 25.386719 31.8125 26.179688 33.988281 C 26.972656 36.160156 33.488281 35.785156 40.734375 33.148438 C 47.980469 30.511719 53.210938 26.609375 52.421875 24.4375 Z M 52.421875 24.4375 "/>
<path fill-rule="nonzero" fill="rgb(73.399353%, 63.598633%, 53.799438%)" fill-opacity="1" d="M 47.8125 16.457031 C 46.328125 14.683594 40.332031 17.265625 34.425781 22.222656 C 28.519531 27.179688 24.933594 32.636719 26.421875 34.40625 C 27.910156 36.179688 33.902344 33.597656 39.8125 28.640625 C 45.71875 23.683594 49.300781 18.230469 47.8125 16.457031 Z M 47.8125 16.457031 "/>
<path fill-rule="nonzero" fill="rgb(61.999512%, 47.999573%, 33.999634%)" fill-opacity="1" d="M 40.757812 10.535156 C 38.753906 9.378906 34.003906 13.855469 30.148438 20.53125 C 26.292969 27.210938 24.789062 33.5625 26.792969 34.71875 C 28.796875 35.875 33.546875 31.398438 37.402344 24.722656 C 41.257812 18.042969 42.761719 11.691406 40.757812 10.535156 Z M 40.757812 10.535156 "/>
<path fill-rule="nonzero" fill="rgb(73.399353%, 63.598633%, 53.799438%)" fill-opacity="1" d="M 32.097656 7.382812 C 29.820312 6.980469 26.886719 12.8125 25.546875 20.40625 C 24.210938 28 24.972656 34.484375 27.25 34.886719 C 29.527344 35.285156 32.460938 29.457031 33.800781 21.863281 C 35.136719 14.265625 34.375 7.785156 32.097656 7.382812 Z M 32.097656 7.382812 "/>
<path fill-rule="nonzero" fill="rgb(61.999512%, 47.999573%, 33.999634%)" fill-opacity="1" d="M 22.886719 7.382812 C 20.609375 7.785156 19.847656 14.265625 21.183594 21.863281 C 22.523438 29.457031 25.457031 35.285156 27.734375 34.886719 C 30.011719 34.484375 30.773438 28 29.433594 20.40625 C 28.097656 12.8125 25.164062 6.980469 22.886719 7.382812 Z M 22.886719 7.382812 "/>
<path fill-rule="nonzero" fill="rgb(73.399353%, 63.598633%, 53.799438%)" fill-opacity="1" d="M 14.226562 10.535156 C 12.222656 11.691406 13.726562 18.042969 17.582031 24.722656 C 21.4375 31.398438 26.1875 35.875 28.191406 34.71875 C 30.195312 33.5625 28.691406 27.210938 24.835938 20.53125 C 20.980469 13.855469 16.230469 9.378906 14.226562 10.535156 Z M 14.226562 10.535156 "/>
<path fill-rule="nonzero" fill="rgb(61.999512%, 47.999573%, 33.999634%)" fill-opacity="1" d="M 7.167969 16.457031 C 5.683594 18.230469 9.265625 23.683594 15.171875 28.640625 C 21.082031 33.597656 27.074219 36.179688 28.5625 34.40625 C 30.050781 32.636719 26.464844 27.179688 20.558594 22.222656 C 14.652344 17.265625 8.65625 14.683594 7.167969 16.457031 Z M 7.167969 16.457031 "/>
<path fill-rule="nonzero" fill="rgb(73.399353%, 63.598633%, 53.799438%)" fill-opacity="1" d="M 2.5625 24.4375 C 1.773438 26.609375 7.003906 30.511719 14.25 33.148438 C 21.496094 35.785156 28.011719 36.160156 28.804688 33.988281 C 29.597656 31.8125 24.363281 27.914062 17.117188 25.277344 C 9.871094 22.636719 3.355469 22.261719 2.5625 24.4375 Z M 2.5625 24.4375 "/>
<g clip-path="url(#clip-2)">
<path fill-rule="nonzero" fill="rgb(61.999512%, 47.999573%, 33.999634%)" fill-opacity="1" d="M 0.960938 33.511719 C 0.960938 35.824219 7.214844 37.699219 14.925781 37.699219 C 22.636719 37.699219 28.886719 35.824219 28.886719 33.511719 C 28.886719 31.195312 22.636719 29.320312 14.925781 29.320312 C 7.214844 29.320312 0.960938 31.195312 0.960938 33.511719 Z M 0.960938 33.511719 "/>
</g>
<path fill-rule="nonzero" fill="rgb(73.399353%, 63.598633%, 53.799438%)" fill-opacity="1" d="M 2.5625 42.582031 C 3.355469 44.757812 9.871094 44.382812 17.117188 41.742188 C 24.363281 39.105469 29.597656 35.207031 28.804688 33.03125 C 28.011719 30.859375 21.496094 31.234375 14.25 33.871094 C 7.003906 36.507812 1.773438 40.410156 2.5625 42.582031 Z M 2.5625 42.582031 "/>
<path fill-rule="nonzero" fill="rgb(61.999512%, 47.999573%, 33.999634%)" fill-opacity="1" d="M 7.167969 50.5625 C 8.65625 52.335938 14.652344 49.753906 20.558594 44.796875 C 26.464844 39.839844 30.050781 34.382812 28.5625 32.613281 C 27.074219 30.839844 21.082031 33.421875 15.171875 38.378906 C 9.265625 43.335938 5.683594 48.789062 7.167969 50.5625 Z M 7.167969 50.5625 "/>
<path fill-rule="nonzero" fill="rgb(100%, 54.998779%, 0%)" fill-opacity="1" d="M 33.636719 50.265625 C 33.636719 47.179688 33.261719 44.679688 32.796875 44.679688 C 32.335938 44.679688 31.960938 47.179688 31.960938 50.265625 C 31.960938 53.351562 32.335938 55.851562 32.796875 55.851562 C 33.261719 55.851562 33.636719 53.351562 33.636719 50.265625 Z M 33.636719 50.265625 "/>
<path fill-rule="nonzero" fill="rgb(100%, 54.998779%, 0%)" fill-opacity="1" d="M 23.023438 50.265625 C 23.023438 47.179688 22.648438 44.679688 22.1875 44.679688 C 21.722656 44.679688 21.347656 47.179688 21.347656 50.265625 C 21.347656 53.351562 21.722656 55.851562 22.1875 55.851562 C 22.648438 55.851562 23.023438 53.351562 23.023438 50.265625 Z M 23.023438 50.265625 "/>
<path fill-rule="nonzero" fill="rgb(100%, 54.998779%, 0%)" fill-opacity="1" d="M 33.21875 55.851562 C 33.21875 54.308594 32.84375 53.058594 32.378906 53.058594 C 31.917969 53.058594 31.542969 54.308594 31.542969 55.851562 C 31.542969 57.394531 31.917969 58.644531 32.378906 58.644531 C 32.84375 58.644531 33.21875 57.394531 33.21875 55.851562 Z M 33.21875 55.851562 "/>
<path fill-rule="nonzero" fill="rgb(100%, 54.998779%, 0%)" fill-opacity="1" d="M 34.5625 55.285156 C 34.035156 53.835938 33.253906 52.789062 32.820312 52.945312 C 32.386719 53.105469 32.460938 54.410156 32.988281 55.859375 C 33.515625 57.308594 34.296875 58.355469 34.730469 58.195312 C 35.164062 58.039062 35.089844 56.734375 34.5625 55.285156 Z M 34.5625 55.285156 "/>
<path fill-rule="nonzero" fill="rgb(100%, 54.998779%, 0%)" fill-opacity="1" d="M 35.8125 54.472656 C 34.820312 53.292969 33.730469 52.578125 33.375 52.875 C 33.023438 53.171875 33.539062 54.371094 34.53125 55.550781 C 35.519531 56.734375 36.613281 57.449219 36.964844 57.152344 C 37.320312 56.855469 36.804688 55.65625 35.8125 54.472656 Z M 35.8125 54.472656 "/>
<path fill-rule="nonzero" fill="rgb(100%, 54.998779%, 0%)" fill-opacity="1" d="M 23.441406 55.851562 C 23.441406 54.308594 23.066406 53.058594 22.605469 53.058594 C 22.140625 53.058594 21.765625 54.308594 21.765625 55.851562 C 21.765625 57.394531 22.140625 58.644531 22.605469 58.644531 C 23.066406 58.644531 23.441406 57.394531 23.441406 55.851562 Z M 23.441406 55.851562 "/>
<path fill-rule="nonzero" fill="rgb(100%, 54.998779%, 0%)" fill-opacity="1" d="M 21.996094 55.859375 C 22.523438 54.410156 22.597656 53.105469 22.164062 52.945312 C 21.730469 52.789062 20.949219 53.835938 20.421875 55.285156 C 19.894531 56.734375 19.820312 58.039062 20.253906 58.195312 C 20.6875 58.355469 21.46875 57.308594 21.996094 55.859375 Z M 21.996094 55.859375 "/>
<path fill-rule="nonzero" fill="rgb(100%, 54.998779%, 0%)" fill-opacity="1" d="M 20.453125 55.550781 C 21.445312 54.371094 21.960938 53.171875 21.609375 52.875 C 21.253906 52.578125 20.164062 53.292969 19.171875 54.472656 C 18.179688 55.65625 17.664062 56.855469 18.015625 57.152344 C 18.371094 57.449219 19.464844 56.734375 20.453125 55.550781 Z M 20.453125 55.550781 "/>
<path fill-rule="nonzero" fill="rgb(52.49939%, 34.999084%, 17.498779%)" fill-opacity="1" d="M 35.3125 46.078125 C 35.3125 44.535156 34.0625 43.285156 32.519531 43.285156 C 30.976562 43.285156 29.726562 44.535156 29.726562 46.078125 C 29.726562 47.617188 30.976562 48.871094 32.519531 48.871094 C 34.0625 48.871094 35.3125 47.617188 35.3125 46.078125 Z M 35.3125 46.078125 "/>
<path fill-rule="nonzero" fill="rgb(52.49939%, 34.999084%, 17.498779%)" fill-opacity="1" d="M 25.257812 46.078125 C 25.257812 44.535156 24.007812 43.285156 22.464844 43.285156 C 20.921875 43.285156 19.671875 44.535156 19.671875 46.078125 C 19.671875 47.617188 20.921875 48.871094 22.464844 48.871094 C 24.007812 48.871094 25.257812 47.617188 25.257812 46.078125 Z M 25.257812 46.078125 "/>
<path fill-rule="nonzero" fill="rgb(52.49939%, 34.999084%, 17.498779%)" fill-opacity="1" d="M 41.453125 33.511719 C 41.453125 25.796875 35.203125 19.546875 27.492188 19.546875 C 19.78125 19.546875 13.527344 25.796875 13.527344 33.511719 C 13.527344 41.222656 19.78125 47.472656 27.492188 47.472656 C 35.203125 47.472656 41.453125 41.222656 41.453125 33.511719 Z M 41.453125 33.511719 "/>
<path fill-rule="nonzero" fill="rgb(61.999512%, 47.999573%, 33.999634%)" fill-opacity="1" d="M 30.285156 11.167969 L 24.699219 11.167969 L 24.699219 30.71875 C 24.699219 32.257812 25.949219 33.511719 27.492188 33.511719 C 29.035156 33.511719 30.285156 32.257812 30.285156 30.71875 Z M 30.285156 11.167969 "/>
<path fill-rule="nonzero" fill="rgb(61.999512%, 47.999573%, 33.999634%)" fill-opacity="1" d="M 30.003906 6.144531 C 30.003906 6.144531 31.121094 0.835938 29.445312 0.277344 C 30.003906 4.1875 26.375 5.585938 26.375 5.585938 C 26.375 5.585938 26.933594 2.234375 25.816406 1.953125 C 25.816406 4.746094 23.863281 5.585938 23.863281 5.585938 Z M 30.003906 6.144531 "/>
<path fill-rule="nonzero" fill="rgb(61.999512%, 47.999573%, 33.999634%)" fill-opacity="1" d="M 35.3125 12.566406 C 35.3125 8.246094 31.808594 4.746094 27.492188 4.746094 C 23.171875 4.746094 19.671875 8.246094 19.671875 12.566406 C 19.671875 16.882812 23.171875 20.386719 27.492188 20.386719 C 31.808594 20.386719 35.3125 16.882812 35.3125 12.566406 Z M 35.3125 12.566406 "/>
<path fill-rule="nonzero" fill="rgb(22.499084%, 14.99939%, 7.499695%)" fill-opacity="1" d="M 31.792969 11.726562 C 31.792969 11.265625 31.417969 10.890625 30.953125 10.890625 C 30.492188 10.890625 30.117188 11.265625 30.117188 11.726562 C 30.117188 12.191406 30.492188 12.566406 30.953125 12.566406 C 31.417969 12.566406 31.792969 12.191406 31.792969 11.726562 Z M 31.792969 11.726562 "/>
<path fill-rule="nonzero" fill="rgb(22.499084%, 14.99939%, 7.499695%)" fill-opacity="1" d="M 24.867188 11.726562 C 24.867188 11.265625 24.492188 10.890625 24.03125 10.890625 C 23.566406 10.890625 23.191406 11.265625 23.191406 11.726562 C 23.191406 12.191406 23.566406 12.566406 24.03125 12.566406 C 24.492188 12.566406 24.867188 12.191406 24.867188 11.726562 Z M 24.867188 11.726562 "/>
<path fill-rule="nonzero" fill="rgb(98.234558%, 73.919678%, 3.529358%)" fill-opacity="1" d="M 27.492188 17.3125 L 26.074219 14.277344 C 26.972656 13.859375 28.011719 13.859375 28.910156 14.277344 Z M 27.492188 17.3125 "/>
<path fill-rule="nonzero" fill="rgb(69.999695%, 0%, 0%)" fill-opacity="1" d="M 28.023438 13.878906 C 24.226562 11.699219 23.75 18.152344 25.117188 18.652344 C 26.558594 19.183594 25.566406 14.324219 28.015625 13.878906 Z M 28.023438 13.878906 "/>
<path fill-rule="nonzero" fill="rgb(41.999817%, 27.999878%, 13.999939%)" fill-opacity="1" d="M 40.058594 47.472656 C 43.777344 42.160156 44.382812 35.265625 41.640625 29.390625 C 39.835938 25.523438 36.726562 22.414062 32.859375 20.609375 Z M 40.058594 47.472656 "/>
<path fill-rule="nonzero" fill="rgb(41.999817%, 27.999878%, 13.999939%)" fill-opacity="1" d="M 14.925781 47.472656 C 11.207031 42.160156 10.601562 35.265625 13.34375 29.390625 C 15.148438 25.523438 18.257812 22.414062 22.125 20.609375 Z M 14.925781 47.472656 "/>
</svg>
