<?xml version="1.0" encoding="UTF-8"?>
<svg xmlns="http://www.w3.org/2000/svg" xmlns:xlink="http://www.w3.org/1999/xlink" width="58.311" height="63.27" viewBox="0 0 58.311 63.27">
<defs>
<clipPath id="clip-0">
<path clip-rule="nonzero" d="M 0 0.0078125 L 57.628906 0.0078125 L 57.628906 62.539062 L 0 62.539062 Z M 0 0.0078125 "/>
</clipPath>
<clipPath id="clip-1">
<path clip-rule="nonzero" d="M 26 20 L 57.628906 20 L 57.628906 56 L 26 56 Z M 26 20 "/>
</clipPath>
</defs>
<g clip-path="url(#clip-0)">
<path fill-rule="nonzero" fill="rgb(89.99939%, 89.99939%, 89.99939%)" fill-opacity="1" d="M 0 62.539062 L 57.628906 62.539062 L 57.628906 0.0078125 L 0 0.0078125 Z M 0 62.539062 "/>
</g>
<path fill-rule="nonzero" fill="rgb(70.748901%, 70.748901%, 70.748901%)" fill-opacity="1" d="M 26.414062 58.839844 C 26.414062 57.449219 23.527344 56.320312 19.96875 56.320312 C 16.410156 56.320312 13.527344 57.449219 13.527344 58.839844 C 13.527344 60.234375 16.410156 61.363281 19.96875 61.363281 C 23.527344 61.363281 26.414062 60.234375 26.414062 58.839844 Z M 26.414062 58.839844 "/>
<path fill-rule="nonzero" fill="rgb(70.748901%, 70.748901%, 70.748901%)" fill-opacity="1" d="M 40.703125 58.839844 C 40.703125 57.449219 37.816406 56.320312 34.257812 56.320312 C 30.699219 56.320312 27.8125 57.449219 27.8125 58.839844 C 27.8125 60.234375 30.699219 61.363281 34.257812 61.363281 C 37.816406 61.363281 40.703125 60.234375 40.703125 58.839844 Z M 40.703125 58.839844 "/>
<path fill-rule="nonzero" fill="rgb(54.998779%, 54.998779%, 54.998779%)" fill-opacity="1" d="M 33.277344 7.316406 C 33.277344 3.976562 40.96875 1.269531 40.96875 1.269531 C 40.96875 1.269531 41.960938 12.335938 37.539062 12.335938 C 35.210938 12.335938 33.277344 10.652344 33.277344 7.316406 Z M 33.277344 7.316406 "/>
<path fill-rule="nonzero" fill="rgb(75.248718%, 75.248718%, 75.248718%)" fill-opacity="1" d="M 33.277344 7.316406 C 34.398438 3.976562 40.28125 2.25 40.28125 2.808594 C 40.28125 2.808594 40.839844 11.214844 37.539062 11.214844 C 35.210938 11.773438 33.277344 11.773438 33.277344 7.316406 Z M 33.277344 7.316406 "/>
<path fill-rule="nonzero" fill="rgb(54.998779%, 54.998779%, 54.998779%)" fill-opacity="1" d="M 20.949219 7.316406 C 20.949219 3.976562 13.257812 1.269531 13.257812 1.269531 C 13.257812 1.269531 12.265625 12.335938 16.6875 12.335938 C 19.015625 12.335938 20.949219 10.652344 20.949219 7.316406 Z M 20.949219 7.316406 "/>
<path fill-rule="nonzero" fill="rgb(75.248718%, 75.248718%, 75.248718%)" fill-opacity="1" d="M 20.949219 7.316406 C 19.828125 3.976562 13.945312 2.25 13.945312 2.808594 C 13.945312 2.808594 13.386719 11.214844 16.6875 11.214844 C 19.015625 11.773438 20.949219 11.773438 20.949219 7.316406 Z M 20.949219 7.316406 "/>
<g clip-path="url(#clip-1)">
<path fill-rule="nonzero" fill="rgb(40.000916%, 40.000916%, 40.000916%)" fill-opacity="1" d="M 57.632812 20.238281 C 36.730469 17.90625 40.738281 47.460938 26.433594 54.695312 C 57.007812 62.539062 49.898438 31.363281 57.632812 20.238281 Z M 57.632812 20.238281 "/>
</g>
<path fill-rule="nonzero" fill="rgb(63.999939%, 63.999939%, 63.999939%)" fill-opacity="1" d="M 16.667969 28.453125 C 15.125 27.160156 10.492188 30.148438 6.3125 35.125 C 2.136719 40.105469 0 45.1875 1.539062 46.480469 C 3.082031 47.773438 7.71875 44.785156 11.894531 39.808594 C 16.070312 34.828125 18.207031 29.746094 16.667969 28.453125 Z M 16.667969 28.453125 "/>
<path fill-rule="nonzero" fill="rgb(63.999939%, 63.999939%, 63.999939%)" fill-opacity="1" d="M 52.6875 46.480469 C 54.226562 45.1875 52.089844 40.105469 47.914062 35.125 C 43.734375 30.148438 39.101562 27.160156 37.558594 28.453125 C 36.019531 29.746094 38.15625 34.828125 42.332031 39.808594 C 46.511719 44.785156 51.144531 47.773438 52.6875 46.480469 Z M 52.6875 46.480469 "/>
<path fill-rule="nonzero" fill="rgb(54.998779%, 54.998779%, 54.998779%)" fill-opacity="1" d="M 43.78125 38.667969 C 43.78125 57.160156 37.058594 59.402344 27.113281 59.402344 C 17.167969 59.402344 10.445312 57.160156 10.445312 38.667969 C 10.164062 20.179688 17.726562 5.332031 27.113281 5.332031 C 36.5 5.332031 44.0625 20.179688 43.78125 38.667969 Z M 43.78125 38.667969 "/>
<path fill-rule="nonzero" fill="rgb(68.824768%, 67.573547%, 66.323853%)" fill-opacity="1" d="M 41.121094 14.015625 C 41.121094 20.179688 32.714844 29.425781 27.113281 31.945312 C 21.511719 29.425781 13.105469 20.179688 13.105469 14.015625 C 17.589844 0.0078125 36.640625 0.0078125 41.121094 14.015625 Z M 41.121094 14.015625 "/>
<path fill-rule="nonzero" fill="rgb(80.599976%, 75.59967%, 70.600891%)" fill-opacity="1" d="M 13.289062 15.578125 C 13.289062 15.578125 21.742188 14.582031 23.273438 15.882812 C 25.152344 30.824219 25.152344 30.824219 25.152344 30.824219 C 19.859375 27.550781 14.226562 20.558594 13.289062 15.578125 Z M 40.9375 15.578125 C 40.9375 15.578125 32.484375 14.582031 30.953125 15.882812 C 29.074219 30.824219 29.074219 30.824219 29.074219 30.824219 C 34.371094 27.550781 40 20.558594 40.9375 15.578125 Z M 40.9375 15.578125 "/>
<path fill-rule="nonzero" fill="rgb(100%, 100%, 100%)" fill-opacity="1" d="M 22.871094 17.402344 C 22.871094 17.402344 21.648438 18.300781 20.554688 17.984375 C 19.460938 17.667969 18.914062 16.257812 18.914062 16.257812 C 18.914062 16.257812 20.132812 15.359375 21.222656 15.675781 C 22.316406 15.992188 22.871094 17.402344 22.871094 17.402344 Z M 22.871094 17.402344 "/>
<path fill-rule="nonzero" fill="rgb(100%, 100%, 100%)" fill-opacity="1" d="M 31.355469 17.402344 C 31.355469 17.402344 32.578125 18.300781 33.671875 17.984375 C 34.765625 17.667969 35.3125 16.257812 35.3125 16.257812 C 35.3125 16.257812 34.09375 15.359375 33.003906 15.675781 C 31.910156 15.992188 31.355469 17.402344 31.355469 17.402344 Z M 31.355469 17.402344 "/>
<path fill-rule="nonzero" fill="rgb(0%, 0%, 0%)" fill-opacity="1" d="M 33.976562 16.957031 C 33.976562 16.570312 33.664062 16.257812 33.277344 16.257812 C 32.890625 16.257812 32.578125 16.570312 32.578125 16.957031 C 32.578125 17.34375 32.890625 17.65625 33.277344 17.65625 C 33.664062 17.65625 33.976562 17.34375 33.976562 16.957031 Z M 33.976562 16.957031 "/>
<path fill-rule="nonzero" fill="rgb(0%, 0%, 0%)" fill-opacity="1" d="M 21.648438 16.957031 C 21.648438 16.570312 21.335938 16.257812 20.949219 16.257812 C 20.5625 16.257812 20.25 16.570312 20.25 16.957031 C 20.25 17.34375 20.5625 17.65625 20.949219 17.65625 C 21.335938 17.65625 21.648438 17.34375 21.648438 16.957031 Z M 21.648438 16.957031 "/>
<path fill-rule="nonzero" fill="rgb(40.000916%, 40.000916%, 40.000916%)" fill-opacity="1" d="M 27.113281 19.617188 L 26.648438 19.121094 L 26.84375 17.769531 L 25.914062 16.769531 L 26.109375 15.417969 L 25.179688 14.421875 L 25.375 13.070312 L 24.445312 12.070312 L 24.640625 10.71875 L 23.355469 10.09375 L 22.921875 8.796875 L 21.640625 8.328125 L 21.203125 7.035156 L 19.921875 6.5625 L 19.488281 5.269531 L 20.496094 4.648438 L 21.859375 4.550781 L 22.632812 3.429688 L 23.996094 3.332031 L 25.011719 2.515625 L 26.242188 3.105469 L 27.472656 2.515625 L 28.703125 3.105469 L 29.933594 2.515625 L 30.851562 3.6875 L 32.214844 3.785156 L 32.992188 4.90625 L 34.351562 5.003906 L 35.128906 6.128906 L 33.804688 7.078125 L 32.523438 7.546875 L 32.089844 8.839844 L 30.808594 9.3125 L 30.375 10.605469 L 29.371094 11.402344 L 29.566406 12.753906 L 28.636719 13.753906 L 28.835938 15.105469 L 27.902344 16.101562 L 28.101562 17.453125 L 27.167969 18.453125 L 27.265625 19.128906 L 27.113281 19.617188 "/>
<path fill-rule="nonzero" fill="rgb(27.500916%, 27.500916%, 27.500916%)" fill-opacity="1" d="M 29.074219 29.703125 C 29.074219 28.929688 28.195312 28.304688 27.113281 28.304688 C 26.03125 28.304688 25.152344 28.929688 25.152344 29.703125 C 25.152344 30.476562 26.03125 31.105469 27.113281 31.105469 C 28.195312 31.105469 29.074219 30.476562 29.074219 29.703125 Z M 29.074219 29.703125 "/>
</svg>
