<?xml version="1.0" encoding="UTF-8" standalone="no"?>
<!-- Created with Inkscape (http://www.inkscape.org/) -->

<svg
   xmlns:dc="http://purl.org/dc/elements/1.1/"
   xmlns:cc="http://creativecommons.org/ns#"
   xmlns:rdf="http://www.w3.org/1999/02/22-rdf-syntax-ns#"
   xmlns:svg="http://www.w3.org/2000/svg"
   xmlns="http://www.w3.org/2000/svg"
   xmlns:xlink="http://www.w3.org/1999/xlink"
   xmlns:sodipodi="http://sodipodi.sourceforge.net/DTD/sodipodi-0.dtd"
   xmlns:inkscape="http://www.inkscape.org/namespaces/inkscape"
   version="1.1"
   id="svg2"
   xml:space="preserve"
   width="97.829788"
   height="94.506172"
   viewBox="0 0 97.829788 94.506173"
   sodipodi:docname="Aouda.svg"
   inkscape:version="0.92.2 5c3e80d, 2017-08-06"><metadata
     id="metadata8"><rdf:RDF><cc:Work
         rdf:about=""><dc:format>image/svg+xml</dc:format><dc:type
           rdf:resource="http://purl.org/dc/dcmitype/StillImage" /><dc:title /></cc:Work></rdf:RDF></metadata><defs
     id="defs6"><linearGradient
       id="linearGradient1547"
       inkscape:collect="always"><stop
         style="stop-color:#ffe4c4;stop-opacity:1"
         offset="0"
         id="stop1545" /><stop
         style="stop-color:#635748;stop-opacity:1"
         offset="1"
         id="stop1543" /></linearGradient><linearGradient
       inkscape:collect="always"
       id="linearGradient1519"><stop
         style="stop-color:#635748;stop-opacity:1"
         offset="0"
         id="stop1515" /><stop
         style="stop-color:#ffe4c4;stop-opacity:1"
         offset="1"
         id="stop1517" /></linearGradient><clipPath
       clipPathUnits="userSpaceOnUse"
       id="clipPath76"><path
         d="m 95.24538,-96.37926 c 8.50401,12.5858 14.62666,34.0161 25.51205,39.11829 9.18448,4.08229 24.15112,-10.54489 17.34801,-10.88487 -21.77027,23.81117 -23.81114,-24.83159 -36.05696,-32.65566 z"
         id="path74"
         inkscape:connector-curvature="0" /></clipPath><radialGradient
       inkscape:collect="always"
       xlink:href="#linearGradient1519"
       id="radialGradient1521"
       cx="284.06061"
       cy="101.8041"
       fx="284.06061"
       fy="101.8041"
       r="14.967155"
       gradientUnits="userSpaceOnUse"
       gradientTransform="matrix(1.6190746,0.02947961,-0.01820468,0.99983429,-173.71213,-8.374799)" /><radialGradient
       inkscape:collect="always"
       xlink:href="#linearGradient1547"
       id="radialGradient1541"
       gradientUnits="userSpaceOnUse"
       gradientTransform="matrix(2.1274339,0.01208733,-0.01673545,2.9455272,-288.88696,144.99991)"
       cx="255.12138"
       cy="-74.959312"
       fx="255.12138"
       fy="-74.959312"
       r="18.588131" /><radialGradient
       inkscape:collect="always"
       xlink:href="#linearGradient1547"
       id="radialGradient1555"
       gradientUnits="userSpaceOnUse"
       gradientTransform="matrix(2.1274339,0.01208733,-0.01673545,2.9455272,-288.88696,144.99991)"
       cx="255.12138"
       cy="-74.959312"
       fx="255.12138"
       fy="-74.959312"
       r="18.588131" /></defs><sodipodi:namedview
     pagecolor="#ffffff"
     bordercolor="#666666"
     borderopacity="1"
     objecttolerance="10"
     gridtolerance="10"
     guidetolerance="10"
     inkscape:pageopacity="0"
     inkscape:pageshadow="2"
     inkscape:window-width="640"
     inkscape:window-height="480"
     id="namedview4"
     showgrid="false"
     inkscape:zoom="2.9051337"
     inkscape:cx="11.924436"
     inkscape:cy="21.161751"
     inkscape:current-layer="g10"
     showguides="false"
     fit-margin-top="0"
     fit-margin-left="0"
     fit-margin-right="0"
     fit-margin-bottom="0" /><g
     id="g10"
     inkscape:groupmode="layer"
     inkscape:label="80days"
     transform="matrix(1.3333333,0,0,-1.3333333,-353.17234,157.75286)"><rect
       style="opacity:1;fill:#e6e6e6;fill-opacity:1;fill-rule:evenodd;stroke:none;stroke-width:5.6692915;stroke-linecap:round;stroke-miterlimit:4;stroke-dasharray:none;stroke-dashoffset:0;stroke-opacity:1"
       id="rect53"
       width="85.968506"
       height="84.677689"
       x="260.74863"
       y="-124.88412"
       transform="scale(1,-1)" /><g
       transform="translate(28.346,156.74)"
       id="g34" /><g
       transform="translate(28.346,156.74)"
       id="g54" /><path
       d="m 293.67231,60.36074 c 8.50401,12.5858 14.62666,34.0161 25.51205,39.11829 9.18448,4.08229 24.15113,-10.54489 17.34801,-10.88487 C 314.7621,112.40533 312.72124,63.76257 300.47541,55.9385 Z"
       style="fill:#635748;fill-opacity:1;fill-rule:nonzero;stroke:none"
       id="path274"
       inkscape:connector-curvature="0" /><g
       id="g276"
       transform="translate(28.346,156.74)"
       style="fill:url(#radialGradient1541);fill-opacity:1"><path
         inkscape:connector-curvature="0"
         id="path278"
         style="fill:url(#radialGradient1555);fill-opacity:1;fill-rule:nonzero;stroke:none"
         d="m 273.70108,-89.04878 c 0,-18.1375 -7.49398,-18.55583 -18.5797,-18.55583 -11.08572,0 -18.57968,0.41833 -18.57968,18.55583 -0.313,18.13748 8.11992,32.69978 18.57968,32.69978 10.45978,0 18.89269,-14.5623 18.5797,-32.69978 z" /></g><path
       d="m 302.04708,66.19122 c 0,-2.267187 -0.11709,-4.257513 -0.34366,-6.004767 -0.22668,-7.693146 -12.73223,-7.973823 -18.07415,-8.018043 -8.18482,1.216721 -17.25729,-0.573961 -18.39791,8.018043 -0.22657,1.747254 -0.34366,6.004767 -0.34366,6.004767 l 0.27947,6.612509 c 0,0 0.7544,10.156502 3.99891,15.104244 9.88215,-16.584111 20.90098,-21.261835 32.60153,-15.104244 0.22106,-2.134001 0.31859,-4.345324 0.27947,-6.612509 z"
       style="fill:#ffd700;fill-opacity:1;fill-rule:nonzero;stroke:none"
       id="path55"
       inkscape:connector-curvature="0"
       sodipodi:nodetypes="ccccccccc" /><path
       sodipodi:nodetypes="ccccccccc"
       inkscape:connector-curvature="0"
       id="path57"
       style="fill:#ffd700;fill-opacity:1;fill-rule:nonzero;stroke:none"
       d="m 302.04708,69.19122 c 0,-2.267187 -0.11709,-4.257513 -0.34366,-6.004767 -0.22668,-7.693146 -12.73223,-7.973823 -18.07415,-8.018043 -8.18482,1.216721 -17.25729,-0.573961 -18.39791,8.018043 -0.22657,1.747254 -0.34366,6.004767 -0.34366,6.004767 l 0.27947,6.612509 c 0,0 1.88766,9.832715 5.13217,14.780457 9.88215,-16.584111 19.76772,-20.938048 31.46827,-14.780457 0.22106,-2.134001 0.31859,-4.345324 0.27947,-6.612509 z" /><path
       sodipodi:nodetypes="ccccccccc"
       inkscape:connector-curvature="0"
       id="path50"
       style="fill:#a52a2a;fill-opacity:1;fill-rule:nonzero;stroke:none"
       d="m 302.04708,67.69122 c 0,-2.267187 -0.11709,-4.257513 -0.34366,-6.004767 -0.22668,-7.693146 -12.73223,-7.973823 -18.07415,-8.018043 -8.18482,1.216721 -17.25729,-0.573961 -18.39791,8.018043 -0.22657,1.747254 -0.34366,6.004767 -0.34366,6.004767 l 0.27947,6.612509 c 0,0 0.7544,10.156502 3.99891,15.104244 9.88215,-16.584111 20.90098,-21.261835 32.60153,-15.104244 0.22106,-2.134001 0.31859,-4.345324 0.27947,-6.612509 z" /><path
       d="m 287.54914,112.7183 c 1.36093,4.05477 8.50403,6.15016 8.50403,5.4697 0,0 0.68045,-10.20494 -3.3302,-10.20494 -2.82309,-0.67995 -5.17383,-0.67995 -5.17383,4.73524 z"
       style="fill:#635748;fill-opacity:1;fill-rule:nonzero;stroke:none"
       id="path282"
       inkscape:connector-curvature="0" /><path
       d="m 279.38564,112.7183 c -1.36094,4.05477 -8.50403,6.15016 -8.50403,5.4697 0,0 -0.68046,-10.20494 3.33019,-10.20494 2.8231,-0.67995 5.17384,-0.67995 5.17384,4.73524 z"
       style="fill:#635748;fill-opacity:1;fill-rule:nonzero;stroke:none"
       id="path286"
       inkscape:connector-curvature="0" /><path
       d="m 298.43455,99.13908 c 0,8.26622 -6.70093,14.96715 -14.96717,14.96715 -8.26622,0 -14.96714,-6.70093 -14.96714,-14.96715 0,-8.26624 6.70092,-14.96716 14.96714,-14.96716 8.26624,0 14.96717,6.70092 14.96717,14.96716 z"
       style="fill:url(#radialGradient1521);fill-opacity:1;fill-rule:nonzero;stroke:none"
       id="path290"
       inkscape:connector-curvature="0" /><g
       id="g292"
       transform="translate(28.346,156.74)"
       style="fill:#87ceeb"><path
         inkscape:connector-curvature="0"
         id="path294"
         style="fill:#87ceeb;fill-opacity:1;fill-rule:nonzero;stroke:none"
         d="m 251.67235,-53.88977 c 0,0 -1.48655,-1.08843 -2.81322,-0.70435 -1.32667,0.38462 -1.99365,2.09539 -1.99365,2.09539 0,0 1.47981,1.09208 2.80647,0.70799 1.32668,-0.38463 2.0004,-2.09903 2.0004,-2.09903 z" /></g><g
       id="g296"
       transform="translate(28.346,156.74)"
       style="fill:#87ceeb"><path
         inkscape:connector-curvature="0"
         id="path298"
         style="fill:#87ceeb;fill-opacity:1;fill-rule:nonzero;stroke:none"
         d="m 258.57043,-53.88977 c 0,0 1.48653,-1.08843 2.81322,-0.70435 1.32668,0.38462 1.99364,2.09539 1.99364,2.09539 0,0 -1.4798,1.09208 -2.80646,0.70799 -1.32667,-0.38463 -2.0004,-2.09903 -2.0004,-2.09903 z" /></g><g
       id="g300"
       transform="translate(28.346,156.74)"
       style="stroke:#000000"><path
         inkscape:connector-curvature="0"
         id="path302"
         style="fill:none;stroke:#000000;stroke-width:0.23909;stroke-linecap:butt;stroke-linejoin:miter;stroke-miterlimit:10;stroke-dasharray:none;stroke-opacity:1"
         d="m 249.6787,-61.44498 c 0,0 3.33383,-3.63955 5.44268,0.98671 2.10888,-4.62626 5.44269,-0.98671 5.44269,-0.98671" /></g><g
       id="g304"
       transform="translate(28.346,156.74)"><path
         inkscape:connector-curvature="0"
         id="path306"
         style="fill:#404040;fill-opacity:1;fill-rule:nonzero;stroke:none"
         d="m 252.77428,-57.42395 c 0.56474,0.54759 4.12948,0.54759 4.69421,0 0.37422,-0.6872 -1.64639,-3.23831 -2.34711,-3.23831 -0.7007,0 -2.72131,2.55111 -2.3471,3.23831 z" /></g><g
       id="g308"
       transform="translate(28.346,156.74)"
       style="fill:#000000"><path
         inkscape:connector-curvature="0"
         id="path310"
         style="fill:#000000;fill-opacity:1;fill-rule:nonzero;stroke:none"
         d="m 257.80171,-59.1451 c 2.95959,0.52008 4.41551,-1.72477 7.37459,-2.24539 V -61.05 c -2.92169,0.51335 -4.44926,2.41824 -7.37459,1.9049 z" /></g><g
       id="g312"
       transform="translate(28.346,156.74)"
       style="fill:#000000"><path
         inkscape:connector-curvature="0"
         id="path314"
         style="fill:#000000;fill-opacity:1;fill-rule:nonzero;stroke:none"
         d="m 252.44107,-59.1451 c -2.95959,0.52008 -4.41864,-1.72477 -7.37459,-2.24539 V -61.05 c 2.92168,0.51335 4.44925,2.41824 7.37459,1.9049 z" /></g><g
       id="g316"
       transform="translate(28.346,156.74)"
       style="fill:#000000"><path
         inkscape:connector-curvature="0"
         id="path318"
         style="fill:#000000;fill-opacity:1;fill-rule:nonzero;stroke:none"
         d="m 257.67923,-58.68626 c 2.82671,1.02772 4.8271,0.09552 7.65382,-0.93166 v 0.33995 c -2.81634,1.02408 -4.83697,1.61578 -7.65382,0.59171 z" /></g><g
       id="g320"
       transform="translate(28.346,156.74)"
       style="fill:#000000"><path
         inkscape:connector-curvature="0"
         id="path322"
         style="fill:#000000;fill-opacity:1;fill-rule:nonzero;stroke:none"
         d="m 252.56355,-58.68626 c -2.8267,1.02772 -4.8271,0.09552 -7.65384,-0.93166 v 0.33995 c 2.81635,1.02408 4.83699,1.61578 7.65384,0.59171 z" /></g><g
       id="g324"
       transform="translate(28.346,156.74)"
       style="fill:#000000"><path
         inkscape:connector-curvature="0"
         id="path326"
         style="fill:#000000;fill-opacity:1;fill-rule:nonzero;stroke:none"
         d="m 257.4036,-58.13504 c 2.52775,1.63966 5.1401,2.45248 7.66732,0.81282 v 0.3405 c -2.53759,1.64641 -5.1297,0.49309 -7.66732,-1.15332 z" /></g><g
       id="g328"
       transform="translate(28.346,156.74)"
       style="fill:#000000"><path
         inkscape:connector-curvature="0"
         id="path330"
         style="fill:#000000;fill-opacity:1;fill-rule:nonzero;stroke:none"
         d="m 252.83917,-58.13504 c -2.52775,1.63966 -5.1401,2.45248 -7.66733,0.81282 v 0.3405 c 2.53762,1.64641 5.12972,0.49309 7.66733,-1.15332 z" /></g><path
       d="m 280.91576,53.55764 c 0,3.38147 -2.74115,6.12264 -6.12262,6.12264 -3.38147,0 -6.12263,-2.74117 -6.12263,-6.12264 0,-3.38147 2.74116,-6.12262 6.12263,-6.12262 3.38147,0 6.12262,2.74115 6.12262,6.12262 z"
       style="fill:#635748;fill-opacity:1;fill-rule:nonzero;stroke:none"
       id="path334"
       inkscape:connector-curvature="0" /><path
       d="m 298.26426,53.55764 c 0,3.38147 -2.74115,6.12264 -6.12262,6.12264 -3.38147,0 -6.12264,-2.74117 -6.12264,-6.12264 0,-3.38147 2.74117,-6.12262 6.12264,-6.12262 3.38147,0 6.12262,2.74115 6.12262,6.12262 z"
       style="fill:#635748;fill-opacity:1;fill-rule:nonzero;stroke:none"
       id="path338"
       inkscape:connector-curvature="0" /><circle
       style="opacity:1;fill:#000000;fill-opacity:1;fill-rule:evenodd;stroke:none;stroke-width:2.25;stroke-linecap:round;stroke-linejoin:round;stroke-miterlimit:4;stroke-dasharray:none;stroke-dashoffset:0;stroke-opacity:1"
       id="path1551"
       cx="288.8931"
       cy="-103.35732"
       r="0.77214634"
       transform="scale(1,-1)" /><circle
       transform="scale(1,-1)"
       r="0.77214634"
       cy="-103.57793"
       cx="277.77554"
       id="circle1553"
       style="opacity:1;fill:#000000;fill-opacity:1;fill-rule:evenodd;stroke:none;stroke-width:2.25;stroke-linecap:round;stroke-linejoin:round;stroke-miterlimit:4;stroke-dasharray:none;stroke-dashoffset:0;stroke-opacity:1" /></g></svg>