<?xml version="1.0" encoding="UTF-8"?>
<svg xmlns="http://www.w3.org/2000/svg" xmlns:xlink="http://www.w3.org/1999/xlink" width="94.118" height="84.705" viewBox="0 0 94.118 84.705">
<defs>
<clipPath id="clip-0">
<path clip-rule="nonzero" d="M 0 0.246094 L 93.246094 0.246094 L 93.246094 84.164062 L 0 84.164062 Z M 0 0.246094 "/>
</clipPath>
<clipPath id="clip-1">
<path clip-rule="nonzero" d="M 2 0.246094 L 93.246094 0.246094 L 93.246094 83 L 2 83 Z M 2 0.246094 "/>
</clipPath>
</defs>
<g clip-path="url(#clip-0)">
<path fill-rule="nonzero" fill="rgb(89.99939%, 89.99939%, 89.99939%)" fill-opacity="1" d="M 0 84.164062 L 93.246094 84.164062 L 93.246094 0.246094 L 0 0.246094 Z M 0 84.164062 "/>
</g>
<g clip-path="url(#clip-1)">
<path fill-rule="nonzero" fill="rgb(46.199036%, 36.499023%, 24.398804%)" fill-opacity="1" d="M 79.179688 0.320312 C 72.328125 0.246094 67.777344 6.324219 64.160156 11.351562 C 59.980469 17.40625 56.558594 23.941406 52.53125 30.097656 C 40.636719 22.53125 22.425781 23.328125 13.039062 34.550781 C 9.191406 38.785156 10.335938 45.105469 11.996094 49.511719 C 9.316406 54.765625 10.703125 61.019531 8.566406 66.417969 C 7.007812 68.265625 0 69.136719 3.679688 72.753906 C 7.125 74.375 13.269531 75.050781 14.613281 70.402344 C 16.296875 65.519531 15.183594 59.261719 19.488281 55.589844 C 22.507812 58.511719 30.347656 56.546875 28.472656 62.441406 C 28.210938 67.039062 28.664062 72.75 24.84375 76.0625 C 22.59375 77 15.792969 77.273438 19.429688 80.964844 C 23 82.863281 29 84.164062 31.261719 79.746094 C 35.105469 73.527344 37.234375 66.386719 38.664062 59.261719 C 40.527344 58.59375 44.71875 60.695312 44.894531 62.261719 C 41.28125 62.460938 36.175781 68.667969 42.4375 68.898438 C 46.585938 69.675781 51.449219 68.398438 52.558594 63.800781 C 54.421875 60.824219 52.070312 57.777344 50.867188 55.566406 C 53.070312 53.820312 54.648438 52.445312 55.863281 55.578125 C 57.867188 59.070312 62.886719 60.480469 63.761719 64.492188 C 62.894531 67.347656 55.566406 70.511719 61.3125 72.742188 C 66.632812 74.011719 72.3125 69.90625 72.484375 64.339844 C 74.332031 58.472656 67.917969 57.550781 65.042969 54.25 C 62.535156 51.128906 61.417969 47.203125 59.882812 43.566406 C 60.394531 39.664062 57.074219 36.261719 60.785156 33.246094 C 66.011719 24.824219 68.808594 14.757812 75.882812 7.582031 C 78.859375 4.355469 84.039062 4.667969 87.070312 7.660156 C 89.105469 8.890625 92.398438 15.242188 93.246094 9.921875 C 91.421875 4.777344 85.921875 1.644531 80.824219 0.5 L 80 0.382812 Z M 79.179688 0.320312 "/>
</g>
<path fill-rule="nonzero" fill="rgb(79.264832%, 71.583557%, 62.615967%)" fill-opacity="1" d="M 34.375 31.464844 C 32.777344 37.433594 22.238281 44.207031 16.160156 45.191406 C 11.386719 41.296875 5.648438 30.164062 7.25 24.199219 C 15.222656 11.796875 33.667969 16.738281 34.375 31.464844 Z M 34.375 31.464844 "/>
<path fill-rule="nonzero" fill="rgb(61.199951%, 51.499939%, 39.399719%)" fill-opacity="1" d="M 7.019531 25.757812 C 7.019531 25.757812 15.464844 26.988281 16.609375 28.644531 C 14.550781 43.597656 14.550781 43.597656 14.550781 43.597656 C 10.273438 39.054688 6.636719 30.824219 7.019531 25.757812 Z M 7.019531 25.757812 "/>
<path fill-rule="nonzero" fill="rgb(61.199951%, 51.499939%, 39.399719%)" fill-opacity="1" d="M 33.792969 32.929688 C 33.792969 32.929688 25.863281 29.773438 24.046875 30.636719 C 18.347656 44.617188 18.347656 44.617188 18.347656 44.617188 C 24.324219 42.820312 31.59375 37.511719 33.792969 32.929688 Z M 33.792969 32.929688 "/>
<path fill-rule="nonzero" fill="rgb(25.749207%, 19.68689%, 12.124634%)" fill-opacity="1" d="M 19.242188 43.460938 C 19.601562 42.113281 18.800781 40.726562 17.453125 40.363281 C 16.105469 40.003906 14.71875 40.804688 14.359375 42.152344 C 13.996094 43.5 14.796875 44.886719 16.144531 45.246094 C 17.492188 45.609375 18.878906 44.808594 19.242188 43.460938 Z M 19.242188 43.460938 "/>
<path fill-rule="nonzero" fill="rgb(25.749207%, 19.68689%, 12.124634%)" fill-opacity="1" d="M 27.097656 34.75 C 27.300781 34 26.855469 33.230469 26.105469 33.03125 C 25.355469 32.828125 24.585938 33.273438 24.386719 34.023438 C 24.183594 34.773438 24.628906 35.542969 25.378906 35.742188 C 26.128906 35.945312 26.898438 35.5 27.097656 34.75 Z M 27.097656 34.75 "/>
<path fill-rule="nonzero" fill="rgb(25.749207%, 19.68689%, 12.124634%)" fill-opacity="1" d="M 14.621094 31.40625 C 14.820312 30.65625 14.375 29.886719 13.628906 29.6875 C 12.878906 29.488281 12.109375 29.929688 11.90625 30.679688 C 11.707031 31.429688 12.152344 32.199219 12.902344 32.398438 C 13.648438 32.601562 14.417969 32.15625 14.621094 31.40625 Z M 14.621094 31.40625 "/>
<path fill-rule="nonzero" fill="rgb(79.264832%, 71.583557%, 62.615967%)" fill-opacity="1" d="M 37.601562 25.933594 C 38.082031 24.136719 37.015625 22.289062 35.21875 21.808594 C 33.421875 21.324219 31.574219 22.390625 31.089844 24.191406 C 30.609375 25.988281 31.675781 27.835938 33.472656 28.316406 C 35.273438 28.800781 37.121094 27.730469 37.601562 25.933594 Z M 37.601562 25.933594 "/>
<path fill-rule="nonzero" fill="rgb(61.199951%, 51.499939%, 39.399719%)" fill-opacity="1" d="M 36.789062 25.714844 C 37.148438 24.367188 36.347656 22.980469 35 22.621094 C 33.652344 22.261719 32.265625 23.058594 31.90625 24.410156 C 31.542969 25.757812 32.34375 27.140625 33.691406 27.503906 C 35.039062 27.863281 36.425781 27.066406 36.789062 25.714844 Z M 36.789062 25.714844 "/>
<path fill-rule="nonzero" fill="rgb(79.264832%, 71.583557%, 62.615967%)" fill-opacity="1" d="M 13.730469 19.539062 C 14.210938 17.742188 13.144531 15.894531 11.347656 15.410156 C 9.550781 14.929688 7.703125 15.996094 7.21875 17.792969 C 6.738281 19.589844 7.804688 21.4375 9.601562 21.921875 C 11.398438 22.402344 13.25 21.335938 13.730469 19.539062 Z M 13.730469 19.539062 "/>
<path fill-rule="nonzero" fill="rgb(61.199951%, 51.499939%, 39.399719%)" fill-opacity="1" d="M 12.917969 19.320312 C 13.277344 17.972656 12.476562 16.585938 11.128906 16.226562 C 9.78125 15.863281 8.394531 16.664062 8.035156 18.011719 C 7.671875 19.359375 8.472656 20.746094 9.820312 21.105469 C 11.167969 21.46875 12.554688 20.667969 12.917969 19.320312 Z M 12.917969 19.320312 "/>
</svg>
