<?xml version="1.0" encoding="UTF-8"?>
<svg xmlns="http://www.w3.org/2000/svg" xmlns:xlink="http://www.w3.org/1999/xlink" width="42.253" height="58.11" viewBox="0 0 42.253 58.11">
<defs>
<clipPath id="clip-0">
<path clip-rule="nonzero" d="M 0 0.0664062 L 41.519531 0.0664062 L 41.519531 57.167969 L 0 57.167969 Z M 0 0.0664062 "/>
</clipPath>
<clipPath id="clip-1">
<path clip-rule="nonzero" d="M 3 52 L 31 52 L 31 57.167969 L 3 57.167969 Z M 3 52 "/>
</clipPath>
<clipPath id="clip-2">
<path clip-rule="nonzero" d="M 7 0.0664062 L 27 0.0664062 L 27 8 L 7 8 Z M 7 0.0664062 "/>
</clipPath>
<clipPath id="clip-3">
<path clip-rule="nonzero" d="M 17 41 L 41.519531 41 L 41.519531 52 L 17 52 Z M 17 41 "/>
</clipPath>
</defs>
<g clip-path="url(#clip-0)">
<path fill-rule="nonzero" fill="rgb(89.99939%, 89.99939%, 89.99939%)" fill-opacity="1" d="M 0 57.167969 L 41.519531 57.167969 L 41.519531 0.0664062 L 0 0.0664062 Z M 0 57.167969 "/>
</g>
<g clip-path="url(#clip-1)">
<path fill-rule="nonzero" fill="rgb(37.5%, 25%, 12.5%)" fill-opacity="1" d="M 16.15625 54.660156 C 16.15625 53.277344 13.289062 52.152344 9.75 52.152344 C 6.210938 52.152344 3.34375 53.277344 3.34375 54.660156 C 3.34375 56.046875 6.210938 57.167969 9.75 57.167969 C 13.289062 57.167969 16.15625 56.046875 16.15625 54.660156 Z M 30.359375 54.660156 C 30.359375 53.277344 27.492188 52.152344 23.953125 52.152344 C 20.417969 52.152344 17.546875 53.277344 17.546875 54.660156 C 17.546875 56.046875 20.417969 57.167969 23.953125 57.167969 C 27.492188 57.167969 30.359375 56.046875 30.359375 54.660156 Z M 30.359375 54.660156 "/>
</g>
<g clip-path="url(#clip-2)">
<path fill-rule="nonzero" fill="rgb(37.5%, 25%, 12.5%)" fill-opacity="1" d="M 12.257812 3.6875 C 12.257812 1.6875 11.132812 0.0664062 9.75 0.0664062 C 8.363281 0.0664062 7.242188 1.6875 7.242188 3.6875 C 7.242188 5.6875 8.363281 7.308594 9.75 7.308594 C 11.132812 7.308594 12.257812 5.6875 12.257812 3.6875 Z M 26.460938 3.6875 C 26.460938 1.6875 25.339844 0.0664062 23.953125 0.0664062 C 22.570312 0.0664062 21.449219 1.6875 21.449219 3.6875 C 21.449219 5.6875 22.570312 7.308594 23.953125 7.308594 C 25.339844 7.308594 26.460938 5.6875 26.460938 3.6875 Z M 26.460938 3.6875 "/>
</g>
<g clip-path="url(#clip-3)">
<path fill-rule="nonzero" fill="rgb(37.5%, 25%, 12.5%)" fill-opacity="1" d="M 41.519531 42.117188 C 40.960938 49.640625 17.597656 54.097656 17.316406 48.523438 C 16.761719 45.179688 19.925781 47.984375 27.855469 46.855469 C 35.117188 45.816406 41.519531 40.71875 41.519531 42.117188 Z M 41.519531 42.117188 "/>
</g>
<path fill-rule="nonzero" fill="rgb(75%, 50%, 25%)" fill-opacity="1" d="M 33.425781 34.605469 C 33.425781 52.988281 26.742188 55.21875 16.851562 55.21875 C 6.964844 55.21875 0.277344 52.988281 0.277344 34.605469 C 0 16.222656 7.519531 1.460938 16.851562 1.460938 C 26.183594 1.460938 33.703125 16.222656 33.425781 34.605469 Z M 33.425781 34.605469 "/>
<path fill-rule="nonzero" fill="rgb(87.5%, 75%, 62.5%)" fill-opacity="1" d="M 28.691406 40.457031 C 28.691406 48.8125 23.675781 49.925781 16.851562 49.925781 C 10.027344 49.925781 5.015625 48.8125 5.015625 40.457031 C 5.015625 32.097656 10.585938 25.136719 16.851562 25.136719 C 23.121094 25.136719 28.691406 32.097656 28.691406 40.457031 Z M 28.691406 40.457031 "/>
<path fill-rule="nonzero" fill="rgb(37.5%, 25%, 12.5%)" fill-opacity="1" d="M 8.414062 40.621094 C 10.289062 39.945312 10.789062 36.578125 9.527344 33.101562 C 8.265625 29.625 5.722656 27.355469 3.84375 28.03125 C 1.96875 28.710938 1.46875 32.078125 2.730469 35.554688 C 3.992188 39.03125 6.535156 41.300781 8.414062 40.621094 Z M 8.414062 40.621094 "/>
<path fill-rule="nonzero" fill="rgb(37.5%, 25%, 12.5%)" fill-opacity="1" d="M 25.292969 40.621094 C 23.414062 39.945312 22.917969 36.578125 24.175781 33.101562 C 25.4375 29.625 27.984375 27.355469 29.859375 28.03125 C 31.738281 28.710938 32.234375 32.078125 30.972656 35.554688 C 29.710938 39.03125 27.167969 41.300781 25.292969 40.621094 Z M 25.292969 40.621094 "/>
<path fill-rule="nonzero" fill="rgb(87.5%, 75%, 62.5%)" fill-opacity="1" d="M 23.257812 19.285156 C 23.257812 17.285156 20.390625 15.664062 16.851562 15.664062 C 13.3125 15.664062 10.445312 17.285156 10.445312 19.285156 C 10.445312 21.285156 13.3125 22.90625 16.851562 22.90625 C 20.390625 22.90625 23.257812 21.285156 23.257812 19.285156 Z M 23.257812 19.285156 "/>
<path fill-rule="nonzero" fill="rgb(37.5%, 25%, 12.5%)" fill-opacity="1" d="M 19.082031 15.664062 C 19.082031 14.433594 18.082031 13.4375 16.851562 13.4375 C 15.621094 13.4375 14.625 14.433594 14.625 15.664062 C 14.625 16.894531 15.621094 17.894531 16.851562 17.894531 C 18.082031 17.894531 19.082031 16.894531 19.082031 15.664062 Z M 19.082031 15.664062 "/>
<path fill-rule="nonzero" fill="rgb(37.5%, 25%, 12.5%)" fill-opacity="1" d="M 13.925781 10.929688 C 13.925781 10.160156 13.304688 9.539062 12.535156 9.539062 C 11.765625 9.539062 11.140625 10.160156 11.140625 10.929688 C 11.140625 11.699219 11.765625 12.324219 12.535156 12.324219 C 13.304688 12.324219 13.925781 11.699219 13.925781 10.929688 Z M 22.5625 10.929688 C 22.5625 10.160156 21.9375 9.539062 21.167969 9.539062 C 20.398438 9.539062 19.777344 10.160156 19.777344 10.929688 C 19.777344 11.699219 20.398438 12.324219 21.167969 12.324219 C 21.9375 12.324219 22.5625 11.699219 22.5625 10.929688 Z M 22.5625 10.929688 "/>
<path fill="none" stroke-width="0.39851" stroke-linecap="butt" stroke-linejoin="miter" stroke="rgb(0%, 0%, 0%)" stroke-opacity="1" stroke-miterlimit="10" d="M 4.109955 42.80353 C 1.370967 38.836171 -1.371997 38.836171 -4.110985 42.80353 " transform="matrix(0.982628, 0, 0, -0.982628, 16.852069, 60.231818)"/>
</svg>
