<?xml version="1.0" encoding="UTF-8"?>
<svg xmlns="http://www.w3.org/2000/svg" xmlns:xlink="http://www.w3.org/1999/xlink" width="49.15" height="61.398" viewBox="0 0 49.15 61.398">
<defs>
<clipPath id="clip-0">
<path clip-rule="nonzero" d="M 0 0.226562 L 48.3125 0.226562 L 48.3125 60.582031 L 0 60.582031 Z M 0 0.226562 "/>
</clipPath>
<clipPath id="clip-1">
<path clip-rule="nonzero" d="M 9 55 L 23 55 L 23 60.582031 L 9 60.582031 Z M 9 55 "/>
</clipPath>
<clipPath id="clip-2">
<path clip-rule="nonzero" d="M 23 55 L 37 55 L 37 60.582031 L 23 60.582031 Z M 23 55 "/>
</clipPath>
<clipPath id="clip-3">
<path clip-rule="nonzero" d="M 0 0.226562 L 47 0.226562 L 47 31 L 0 31 Z M 0 0.226562 "/>
</clipPath>
</defs>
<g clip-path="url(#clip-0)">
<path fill-rule="nonzero" fill="rgb(89.99939%, 89.99939%, 89.99939%)" fill-opacity="1" d="M 0 60.582031 L 48.3125 60.582031 L 48.3125 0.226562 L 0 0.226562 Z M 0 60.582031 "/>
</g>
<g clip-path="url(#clip-1)">
<path fill-rule="nonzero" fill="rgb(37.5%, 25%, 12.5%)" fill-opacity="1" d="M 22.125 57.792969 C 22.125 56.410156 19.257812 55.285156 15.71875 55.285156 C 12.179688 55.285156 9.308594 56.410156 9.308594 57.792969 C 9.308594 59.179688 12.179688 60.300781 15.71875 60.300781 C 19.257812 60.300781 22.125 59.179688 22.125 57.792969 Z M 22.125 57.792969 "/>
</g>
<g clip-path="url(#clip-2)">
<path fill-rule="nonzero" fill="rgb(37.5%, 25%, 12.5%)" fill-opacity="1" d="M 36.335938 57.792969 C 36.335938 56.410156 33.46875 55.285156 29.929688 55.285156 C 26.390625 55.285156 23.519531 56.410156 23.519531 57.792969 C 23.519531 59.179688 26.390625 60.300781 29.929688 60.300781 C 33.46875 60.300781 36.335938 59.179688 36.335938 57.792969 Z M 36.335938 57.792969 "/>
</g>
<path fill-rule="nonzero" fill="rgb(37.5%, 25%, 12.5%)" fill-opacity="1" d="M 32.4375 6.800781 C 32.4375 4.800781 31.3125 3.179688 29.929688 3.179688 C 28.542969 3.179688 27.421875 4.800781 27.421875 6.800781 C 27.421875 8.800781 28.542969 10.425781 29.929688 10.425781 C 31.3125 10.425781 32.4375 8.800781 32.4375 6.800781 Z M 32.4375 6.800781 "/>
<path fill-rule="nonzero" fill="rgb(37.5%, 25%, 12.5%)" fill-opacity="1" d="M 18.226562 6.800781 C 18.226562 4.800781 17.101562 3.179688 15.71875 3.179688 C 14.332031 3.179688 13.210938 4.800781 13.210938 6.800781 C 13.210938 8.800781 14.332031 10.425781 15.71875 10.425781 C 17.101562 10.425781 18.226562 8.800781 18.226562 6.800781 Z M 18.226562 6.800781 "/>
<path fill-rule="nonzero" fill="rgb(37.5%, 25%, 12.5%)" fill-opacity="1" d="M 47.5 45.242188 C 46.941406 52.769531 23.566406 57.230469 23.289062 51.65625 C 22.730469 48.308594 25.898438 51.113281 33.832031 49.984375 C 41.09375 48.945312 47.5 43.847656 47.5 45.242188 "/>
<path fill-rule="nonzero" fill="rgb(75%, 50%, 25%)" fill-opacity="1" d="M 39.402344 37.730469 C 39.402344 56.121094 32.714844 58.351562 22.824219 58.351562 C 12.929688 58.351562 6.242188 56.121094 6.242188 37.730469 C 5.964844 19.339844 13.488281 4.570312 22.824219 4.570312 C 32.160156 4.570312 39.679688 19.339844 39.402344 37.730469 Z M 39.402344 37.730469 "/>
<path fill-rule="nonzero" fill="rgb(87.5%, 75%, 62.5%)" fill-opacity="1" d="M 34.664062 43.582031 C 34.664062 51.941406 29.648438 53.058594 22.824219 53.058594 C 15.996094 53.058594 10.980469 51.941406 10.980469 43.582031 C 10.980469 35.222656 16.554688 28.257812 22.824219 28.257812 C 29.09375 28.257812 34.664062 35.222656 34.664062 43.582031 Z M 34.664062 43.582031 "/>
<path fill-rule="nonzero" fill="rgb(69.999695%, 0%, 0%)" fill-opacity="1" d="M 39.367188 58.269531 L 6.328125 59.195312 C 10.949219 56.996094 5.4375 48.65625 6.363281 32.828125 C 12.960938 23.390625 13.757812 37.148438 23.109375 37.148438 C 32.464844 37.148438 31.410156 23.65625 39.328125 32.699219 C 41.128906 40.703125 35.054688 55.261719 39.367188 58.269531 Z M 39.367188 58.269531 "/>
<path fill-rule="nonzero" fill="rgb(37.5%, 25%, 12.5%)" fill-opacity="1" d="M 35.839844 31.167969 C 33.957031 30.484375 31.410156 32.742188 30.148438 36.214844 C 28.882812 39.683594 29.382812 43.054688 31.265625 43.738281 C 33.144531 44.421875 35.691406 42.164062 36.957031 38.691406 C 38.21875 35.222656 37.71875 31.851562 35.839844 31.167969 Z M 35.839844 31.167969 "/>
<path fill-rule="nonzero" fill="rgb(37.5%, 25%, 12.5%)" fill-opacity="1" d="M 14.382812 43.738281 C 16.261719 43.054688 16.761719 39.683594 15.5 36.214844 C 14.234375 32.742188 11.6875 30.484375 9.808594 31.167969 C 7.929688 31.851562 7.429688 35.222656 8.691406 38.691406 C 9.953125 42.164062 12.503906 44.421875 14.382812 43.738281 Z M 14.382812 43.738281 "/>
<path fill-rule="nonzero" fill="rgb(87.5%, 75%, 62.5%)" fill-opacity="1" d="M 29.230469 22.40625 C 29.230469 20.40625 26.363281 18.78125 22.824219 18.78125 C 19.285156 18.78125 16.414062 20.40625 16.414062 22.40625 C 16.414062 24.40625 19.285156 26.027344 22.824219 26.027344 C 26.363281 26.027344 29.230469 24.40625 29.230469 22.40625 Z M 29.230469 22.40625 "/>
<path fill-rule="nonzero" fill="rgb(37.5%, 25%, 12.5%)" fill-opacity="1" d="M 25.050781 18.78125 C 25.050781 17.550781 24.054688 16.554688 22.824219 16.554688 C 21.59375 16.554688 20.59375 17.550781 20.59375 18.78125 C 20.59375 20.015625 21.59375 21.011719 22.824219 21.011719 C 24.054688 21.011719 25.050781 20.015625 25.050781 18.78125 Z M 25.050781 18.78125 "/>
<path fill-rule="nonzero" fill="rgb(37.5%, 25%, 12.5%)" fill-opacity="1" d="M 19.898438 14.046875 C 19.898438 13.277344 19.273438 12.652344 18.503906 12.652344 C 17.734375 12.652344 17.109375 13.277344 17.109375 14.046875 C 17.109375 14.816406 17.734375 15.4375 18.503906 15.4375 C 19.273438 15.4375 19.898438 14.816406 19.898438 14.046875 Z M 19.898438 14.046875 "/>
<path fill-rule="nonzero" fill="rgb(37.5%, 25%, 12.5%)" fill-opacity="1" d="M 28.535156 14.046875 C 28.535156 13.277344 27.910156 12.652344 27.140625 12.652344 C 26.371094 12.652344 25.75 13.277344 25.75 14.046875 C 25.75 14.816406 26.371094 15.4375 27.140625 15.4375 C 27.910156 15.4375 28.535156 14.816406 28.535156 14.046875 Z M 28.535156 14.046875 "/>
<path fill-rule="nonzero" fill="rgb(37.5%, 25%, 12.5%)" fill-opacity="1" d="M 26.863281 21.292969 C 26.023438 23.605469 23.464844 24.796875 21.148438 23.957031 C 19.910156 23.503906 18.933594 22.53125 18.484375 21.292969 L 18.921875 21.292969 C 19.679688 23.375 21.984375 24.445312 24.066406 23.6875 C 25.179688 23.285156 26.058594 22.40625 26.464844 21.292969 Z M 26.863281 21.292969 "/>
<path fill-rule="nonzero" fill="rgb(89.99939%, 89.99939%, 89.99939%)" fill-opacity="1" d="M 19.015625 33.414062 C 19.015625 32.917969 19.417969 32.519531 19.910156 32.519531 C 20.40625 32.519531 20.804688 32.917969 20.804688 33.414062 C 20.804688 33.90625 20.40625 34.308594 19.910156 34.308594 C 19.417969 34.308594 19.015625 33.90625 19.015625 33.414062 Z M 17.480469 32.714844 C 17.480469 32.21875 17.882812 31.820312 18.375 31.820312 C 18.871094 31.820312 19.269531 32.21875 19.269531 32.714844 C 19.269531 33.207031 18.871094 33.609375 18.375 33.609375 C 17.882812 33.609375 17.480469 33.207031 17.480469 32.714844 Z M 16.085938 31.734375 C 16.085938 31.242188 16.488281 30.84375 16.980469 30.84375 C 17.472656 30.84375 17.875 31.242188 17.875 31.734375 C 17.875 32.230469 17.472656 32.628906 16.980469 32.628906 C 16.488281 32.628906 16.085938 32.230469 16.085938 31.734375 Z M 14.691406 30.757812 C 14.691406 30.265625 15.089844 29.863281 15.585938 29.863281 C 16.078125 29.863281 16.480469 30.265625 16.480469 30.757812 C 16.480469 31.253906 16.078125 31.652344 15.585938 31.652344 C 15.089844 31.652344 14.691406 31.253906 14.691406 30.757812 Z M 13.292969 29.640625 C 13.292969 29.148438 13.695312 28.746094 14.1875 28.746094 C 14.679688 28.746094 15.078125 29.148438 15.078125 29.640625 C 15.078125 30.136719 14.679688 30.535156 14.1875 30.535156 C 13.695312 30.535156 13.292969 30.136719 13.292969 29.640625 Z M 11.898438 28.804688 C 11.898438 28.308594 12.296875 27.910156 12.792969 27.910156 C 13.285156 27.910156 13.6875 28.308594 13.6875 28.804688 C 13.6875 29.296875 13.285156 29.699219 12.792969 29.699219 C 12.296875 29.699219 11.898438 29.296875 11.898438 28.804688 Z M 10.5 27.96875 C 10.5 27.472656 10.902344 27.074219 11.394531 27.074219 C 11.890625 27.074219 12.289062 27.472656 12.289062 27.96875 C 12.289062 28.460938 11.890625 28.859375 11.394531 28.859375 C 10.902344 28.859375 10.5 28.460938 10.5 27.96875 Z M 10 26.234375 C 10.492188 26.234375 10.890625 26.636719 10.890625 27.128906 C 10.890625 27.621094 10.492188 28.023438 10 28.023438 C 8.667969 27.539062 9.179688 26.65625 10 26.234375 Z M 25.636719 33.679688 C 25.636719 33.1875 25.234375 32.789062 24.742188 32.789062 C 24.246094 32.789062 23.847656 33.1875 23.847656 33.679688 C 23.847656 34.171875 24.246094 34.574219 24.742188 34.574219 C 25.234375 34.574219 25.636719 34.171875 25.636719 33.679688 Z M 27.171875 32.984375 C 27.171875 32.488281 26.773438 32.089844 26.277344 32.089844 C 25.78125 32.089844 25.382812 32.488281 25.382812 32.984375 C 25.382812 33.476562 25.78125 33.875 26.277344 33.875 C 26.773438 33.875 27.171875 33.476562 27.171875 32.984375 Z M 28.566406 32.003906 C 28.566406 31.511719 28.167969 31.109375 27.675781 31.109375 C 27.179688 31.109375 26.78125 31.511719 26.78125 32.003906 C 26.78125 32.5 27.179688 32.898438 27.675781 32.898438 C 28.167969 32.898438 28.566406 32.5 28.566406 32.003906 Z M 29.960938 31.027344 C 29.960938 30.535156 29.5625 30.136719 29.070312 30.136719 C 28.578125 30.136719 28.175781 30.535156 28.175781 31.027344 C 28.175781 31.519531 28.578125 31.921875 29.070312 31.921875 C 29.5625 31.921875 29.960938 31.519531 29.960938 31.027344 Z M 31.359375 29.910156 C 31.359375 29.417969 30.960938 29.019531 30.46875 29.019531 C 29.972656 29.019531 29.570312 29.417969 29.570312 29.910156 C 29.570312 30.402344 29.972656 30.804688 30.46875 30.804688 C 30.960938 30.804688 31.359375 30.402344 31.359375 29.910156 Z M 32.753906 29.074219 C 32.753906 28.582031 32.355469 28.179688 31.863281 28.179688 C 31.371094 28.179688 30.96875 28.582031 30.96875 29.074219 C 30.96875 29.566406 31.371094 29.964844 31.863281 29.964844 C 32.355469 29.964844 32.753906 29.566406 32.753906 29.074219 Z M 34.152344 28.234375 C 34.152344 27.742188 33.75 27.34375 33.257812 27.34375 C 32.765625 27.34375 32.363281 27.742188 32.363281 28.234375 C 32.363281 28.726562 32.765625 29.128906 33.257812 29.128906 C 33.75 29.128906 34.152344 28.726562 34.152344 28.234375 Z M 35.546875 27.398438 C 35.546875 26.902344 35.148438 26.503906 34.65625 26.503906 C 34.160156 26.503906 33.761719 26.902344 33.761719 27.398438 C 33.761719 27.890625 34.160156 28.289062 34.65625 28.289062 C 35.148438 28.289062 35.546875 27.890625 35.546875 27.398438 Z M 20.589844 34.085938 C 20.589844 33.59375 20.988281 33.191406 21.484375 33.191406 C 21.976562 33.191406 22.378906 33.59375 22.378906 34.085938 C 22.378906 34.578125 21.976562 34.980469 21.484375 34.980469 C 20.988281 34.980469 20.589844 34.578125 20.589844 34.085938 Z M 22.246094 34.207031 C 22.246094 33.710938 22.648438 33.3125 23.140625 33.3125 C 23.632812 33.3125 24.035156 33.710938 24.035156 34.207031 C 24.035156 34.699219 23.632812 35.097656 23.140625 35.097656 C 22.648438 35.097656 22.246094 34.699219 22.246094 34.207031 Z M 22.246094 34.207031 "/>
<g clip-path="url(#clip-3)">
<path fill-rule="nonzero" fill="rgb(37.5%, 25%, 12.5%)" fill-opacity="1" d="M 22.136719 0.277344 C 16.898438 0.378906 12.480469 4.210938 9.988281 8.570312 C 8.691406 10.984375 7.761719 13.835938 5.484375 15.53125 C 4.289062 16.769531 0.570312 15.175781 1.222656 17.316406 C 1.292969 19.035156 3.792969 19.980469 4.359375 20.203125 C 2.730469 21.328125 0.539062 22.351562 0.0703125 24.457031 C 0 26.167969 2.210938 23.847656 3.363281 24.46875 C 6.046875 24.277344 4.726562 26.835938 3.003906 27.273438 C 1.402344 28.679688 5.121094 29.03125 6.109375 28.308594 C 9.160156 27.941406 10.800781 24.925781 11.363281 22.199219 C 12.425781 18.113281 12.46875 13.449219 15.371094 10.105469 C 18.042969 7.214844 22.464844 6.976562 26.078125 7.820312 C 29.527344 8.617188 31.828125 11.746094 32.742188 15.011719 C 34.113281 19.144531 33.96875 23.691406 35.851562 27.660156 C 36.917969 29.949219 39.964844 30.691406 42.175781 29.808594 C 43.21875 29.316406 44.824219 27.613281 42.738281 27.855469 C 40.925781 27.730469 41.417969 26.070312 42.996094 26.152344 C 44.472656 25.742188 46.492188 23.511719 45.476562 22.183594 C 44.523438 22.261719 41.730469 22.371094 43.988281 21.601562 C 45.019531 21.378906 48.3125 19.503906 45.617188 19.800781 C 43.335938 19.765625 40.519531 19.703125 39.070312 17.664062 C 37.121094 13.886719 36.789062 9.355469 33.972656 6.011719 C 31.199219 2.382812 26.691406 0.226562 22.136719 0.277344 Z M 22.136719 0.277344 "/>
</g>
</svg>
