<?xml version="1.0" encoding="UTF-8" standalone="no"?>
<!-- Created with Inkscape (http://www.inkscape.org/) -->

<svg
   xmlns:dc="http://purl.org/dc/elements/1.1/"
   xmlns:cc="http://creativecommons.org/ns#"
   xmlns:rdf="http://www.w3.org/1999/02/22-rdf-syntax-ns#"
   xmlns:svg="http://www.w3.org/2000/svg"
   xmlns="http://www.w3.org/2000/svg"
   xmlns:sodipodi="http://sodipodi.sourceforge.net/DTD/sodipodi-0.dtd"
   xmlns:inkscape="http://www.inkscape.org/namespaces/inkscape"
   version="1.1"
   id="svg2"
   xml:space="preserve"
   width="91.872368"
   height="91.563644"
   viewBox="0 0 91.87237 91.563658"
   sodipodi:docname="Napoleon.svg"
   inkscape:version="0.92.2 5c3e80d, 2017-08-06"><metadata
     id="metadata8"><rdf:RDF><cc:Work
         rdf:about=""><dc:format>image/svg+xml</dc:format><dc:type
           rdf:resource="http://purl.org/dc/dcmitype/StillImage" /><dc:title /></cc:Work></rdf:RDF></metadata><defs
     id="defs6"><clipPath
       clipPathUnits="userSpaceOnUse"
       id="clipPath38"><path
         d="m 8.50412,14.17339 c 7.0867,10.48819 12.18892,28.34681 21.2601,32.59864 7.65375,3.40192 20.12599,-8.78741 14.45671,-9.07073 C 26.079,57.54398 24.37827,17.00824 14.17339,10.48817 Z"
         id="path36"
         inkscape:connector-curvature="0" /></clipPath></defs><sodipodi:namedview
     pagecolor="#ffffff"
     bordercolor="#666666"
     borderopacity="1"
     objecttolerance="10"
     gridtolerance="10"
     guidetolerance="10"
     inkscape:pageopacity="0"
     inkscape:pageshadow="2"
     inkscape:window-width="640"
     inkscape:window-height="480"
     id="namedview4"
     showgrid="false"
     inkscape:snap-global="false"
     inkscape:zoom="7.0407003"
     inkscape:cx="113.85135"
     inkscape:cy="46.150271"
     inkscape:current-layer="g10"
     fit-margin-top="0"
     fit-margin-left="0"
     fit-margin-right="0"
     fit-margin-bottom="0" /><g
     id="g10"
     inkscape:groupmode="layer"
     inkscape:label="napoleon"
     transform="matrix(1.3333333,0,0,-1.3333333,-66.979302,142.78116)"><rect
       style="opacity:1;fill:#e6e6e6;fill-opacity:1;fill-rule:evenodd;stroke:none;stroke-width:5.6692915;stroke-linecap:round;stroke-miterlimit:4;stroke-dasharray:none;stroke-dashoffset:0;stroke-opacity:1"
       id="rect1642"
       width="83.30304"
       height="82.04847"
       x="42.958008"
       y="-113.68697"
       transform="scale(1,-1)" /><g
       id="g28"
       transform="translate(73.485126,35.294975)"><path
         d="m 8.50412,14.17339 c 7.0867,10.48819 12.18892,28.34681 21.2601,32.59864 7.65375,3.40192 20.12599,-8.78741 14.45671,-9.07073 C 26.079,57.54398 24.37827,17.00824 14.17339,10.48817 Z"
         style="fill:#62523f;fill-opacity:1;fill-rule:nonzero;stroke:none"
         id="path30"
         inkscape:connector-curvature="0" /></g><path
       d="m 90.351506,61.373975 c 0,-18.709 -6.80339,-20.9768 -16.86638,-20.9768 -10.06299,0 -16.86638,2.2678 -16.86638,20.9768 -0.28329,18.709 7.37003,33.73277 16.86638,33.73277 9.49635,0 17.14967,-15.02377 16.86638,-33.73277 z"
       style="fill:#9c8364;fill-opacity:1;fill-rule:nonzero;stroke:none"
       id="path1424"
       inkscape:connector-curvature="0" /><path
       sodipodi:nodetypes="ccccccc"
       inkscape:connector-curvature="0"
       id="path1428"
       style="fill:#f5f5f5;fill-opacity:1;fill-rule:nonzero;stroke:#000000;stroke-width:0.1875"
       d="m 86.661135,49.997649 -5.867557,-0.514606 -7.720136,4.837293 -7.92598,-4.837293 -5.044187,0.102921 c -6.264114,14.30633 0.591939,43.336428 13.381851,45.520781 15.249751,-9.073319 21.184765,-29.790114 13.176009,-45.109096 z" /><g
       id="g20"
       transform="translate(73.485126,35.294975)"
       style="fill:#343434;fill-opacity:1"><path
         d="m 13.7482,5.66927 c 0,1.40895 -2.9189,2.5511 -6.51964,2.5511 -3.60074,0 -6.51964,-1.14215 -6.51964,-2.5511 0,-1.40896 2.9189,-2.55111 6.51964,-2.55111 3.60074,0 6.51964,1.14215 6.51964,2.55111 z"
         style="fill:#343434;fill-opacity:1;fill-rule:nonzero;stroke:none"
         id="path22"
         inkscape:connector-curvature="0" /></g><g
       id="g24"
       transform="translate(73.485126,35.294975)"
       style="fill:#343434;fill-opacity:1"><path
         d="m -0.70892,5.66927 c 0,1.40895 -2.9189,2.5511 -6.51964,2.5511 -3.60074,0 -6.51964,-1.14215 -6.51964,-2.5511 0,-1.40896 2.9189,-2.55111 6.51964,-2.55111 3.60074,0 6.51964,1.14215 6.51964,2.55111 z"
         style="fill:#343434;fill-opacity:1;fill-rule:nonzero;stroke:none"
         id="path26"
         inkscape:connector-curvature="0" /></g><g
       clip-path="url(#clipPath38)"
       id="g34"
       transform="translate(73.485126,35.294975)"><g
         id="g40"><path
           inkscape:connector-curvature="0"
           id="path42"
           style="fill:#cab7a0;fill-opacity:1;fill-rule:nonzero;stroke:none"
           d="m 17.05927,34.20612 1.41741,2.45506 9.81951,-5.66928 -1.41741,-2.45507 z" /></g><g
         id="g44"><path
           inkscape:connector-curvature="0"
           id="path46"
           style="fill:#cab7a0;fill-opacity:1;fill-rule:nonzero;stroke:none"
           d="m 19.89346,39.87546 1.41742,2.45504 9.81949,-5.66926 -1.41742,-2.45506 z" /></g><g
         id="g48"><path
           inkscape:connector-curvature="0"
           id="path50"
           style="fill:#cab7a0;fill-opacity:1;fill-rule:nonzero;stroke:none"
           d="m 23.6168,45.95197 2.17162,1.82222 7.28832,-8.68575 -2.17162,-1.8222 z" /></g><g
         id="g52"><path
           inkscape:connector-curvature="0"
           id="path54"
           style="fill:#cab7a0;fill-opacity:1;fill-rule:nonzero;stroke:none"
           d="m 31.63574,50.69211 2.79181,0.49228 1.96889,-11.1664 -2.79183,-0.49228 z" /></g><g
         id="g56"><path
           inkscape:connector-curvature="0"
           id="path58"
           style="fill:#cab7a0;fill-opacity:1;fill-rule:nonzero;stroke:none"
           d="m 45.07855,47.77419 2.1716,-1.82222 -7.28833,-8.68573 -2.1716,1.8222 z" /></g><g
         id="g60"><path
           inkscape:connector-curvature="0"
           id="path62"
           style="fill:#cab7a0;fill-opacity:1;fill-rule:nonzero;stroke:none"
           d="m 9.9726,20.03271 1.41741,2.45507 9.81949,-5.66928 -1.41742,-2.45505 z" /></g></g><path
       inkscape:connector-curvature="0"
       id="path70"
       style="fill:#9c8364;fill-opacity:1;fill-rule:nonzero;stroke:none"
       d="m 95.273886,52.454125 c 1.91256,0.69612 1.63991,6.26924 -0.60904,12.44807 -2.24893,6.17885 -5.62244,10.62336 -7.53499,9.92723 -1.91257,-0.6961 -1.63991,-6.26924 0.60904,-12.44807 2.24893,-6.17885 5.62243,-10.62334 7.53499,-9.92723 z" /><path
       style="fill:none;fill-rule:evenodd;stroke:#000000;stroke-width:0.1875;stroke-linecap:butt;stroke-linejoin:miter;stroke-opacity:1"
       d="m 73.279834,54.548193 v 15.644009 0"
       id="path1470"
       inkscape:connector-curvature="0"
       sodipodi:nodetypes="ccc" /><ellipse
       ry="1.1321323"
       rx="0.87482947"
       transform="scale(1,-1)"
       cy="-61.604919"
       cx="75.595558"
       id="ellipse1478"
       style="opacity:1;fill:#a9a9a9;fill-opacity:1;fill-rule:evenodd;stroke:none;stroke-width:0.075;stroke-linecap:round;stroke-linejoin:round;stroke-miterlimit:4;stroke-dasharray:none;stroke-dashoffset:0;stroke-opacity:1" /><ellipse
       style="opacity:1;fill:#a9a9a9;fill-opacity:1;fill-rule:evenodd;stroke:none;stroke-width:0.075;stroke-linecap:round;stroke-linejoin:round;stroke-miterlimit:4;stroke-dasharray:none;stroke-dashoffset:0;stroke-opacity:1"
       id="ellipse1480"
       cx="75.595558"
       cy="-57.104919"
       transform="scale(1,-1)"
       rx="0.87482947"
       ry="1.1321323" /><path
       sodipodi:nodetypes="cccccsc"
       inkscape:connector-curvature="0"
       id="path74"
       style="fill:#264c6d;fill-opacity:1;fill-rule:nonzero;stroke:none"
       d="m 90.351506,61.373975 c 0,-4.67725 -0.425212,-8.326925 -1.220264,-11.170484 -7.377263,-13.708129 -9.467044,24.609173 -16.0578,24.569337 -7.082778,-0.430968 -8.55649,-38.173931 -15.234432,-24.569337 -0.795052,2.843559 -1.220264,6.493234 -1.220264,11.170484 -0.28329,18.709 7.37003,33.73277 16.86638,33.73277 9.49635,0 17.14967,-15.02377 16.86638,-33.73277 z" /><path
       inkscape:transform-center-y="-10.666618"
       inkscape:transform-center-x="7.1746765"
       sodipodi:nodetypes="ccccc"
       inkscape:connector-curvature="0"
       id="path1506"
       style="fill:#1c3851;fill-opacity:1;fill-rule:nonzero;stroke:none"
       d="m 69.491364,70.280986 -9.519118,12.074159 1.253743,-10.865636 c 4.399948,2.794014 8.265375,-1.208525 8.265375,-1.208525 z" /><path
       d="m 87.658516,86.319295 c 0,-6.23632 -8.50412,-15.59083 -14.17339,-18.14193 -5.66927,2.5511 -14.17339,11.90561 -14.17339,18.14193 4.53559,14.173425 23.81119,14.173425 28.34678,0 z"
       style="fill:#cab7a0;fill-opacity:1;fill-rule:nonzero;stroke:none"
       id="path80"
       inkscape:connector-curvature="0" /><path
       d="M 69.767283,72.077771 64.014277,52.673598 61.764802,68.578453 c 5.076756,-1.180085 8.002481,3.499318 8.002481,3.499318 z"
       style="fill:#1c3851;fill-opacity:1;fill-rule:nonzero;stroke:none"
       id="path1474"
       inkscape:connector-curvature="0"
       sodipodi:nodetypes="cccc" /><g
       id="g82"
       transform="translate(73.485126,35.294975)"><path
         inkscape:connector-curvature="0"
         id="path84"
         style="fill:#9c8364;fill-opacity:1;fill-rule:nonzero;stroke:none"
         d="m -13.98912,49.44513 c 0,0 8.55516,1.00651 10.10278,-0.31143 1.90187,-15.11762 1.90187,-15.11762 1.90187,-15.11762 -5.3574,3.31366 -11.05523,10.38912 -12.00465,15.42905 z" /></g><path
       sodipodi:nodetypes="cccc"
       inkscape:connector-curvature="0"
       id="path1488"
       style="fill:#1c3851;fill-opacity:1;fill-rule:nonzero;stroke:none"
       d="m 76.764802,72.077771 5.753006,-19.404173 2.249475,15.904855 c -5.076756,-1.180085 -8.002481,3.499318 -8.002481,3.499318 z" /><path
       d="m 77.222246,70.280986 9.519118,12.074159 -1.253743,-10.865636 c -4.399948,2.794014 -8.265375,-1.208525 -8.265375,-1.208525 z"
       style="fill:#1c3851;fill-opacity:1;fill-rule:nonzero;stroke:none"
       id="path1504"
       inkscape:connector-curvature="0"
       sodipodi:nodetypes="ccccc"
       inkscape:transform-center-x="-7.1746765"
       inkscape:transform-center-y="-10.666618" /><path
       d="m 87.474246,84.740105 c 0,0 -8.55516,1.00651 -10.10278,-0.31143 -1.90187,-15.11762 -1.90187,-15.11762 -1.90187,-15.11762 5.3574,3.31366 11.05523,10.38912 12.00465,15.42905 z"
       style="fill:#9c8364;fill-opacity:1;fill-rule:nonzero;stroke:none"
       id="path88"
       inkscape:connector-curvature="0" /><g
       id="g90"
       transform="translate(73.485126,35.294975)"><path
         inkscape:connector-curvature="0"
         id="path92"
         style="fill:#42321f;fill-opacity:1;fill-rule:nonzero;stroke:none"
         d="m 2.5511,35.37683 c 0,1.40895 -1.14216,2.5511 -2.5511,2.5511 -1.40894,0 -2.5511,-1.14215 -2.5511,-2.5511 0,-1.40895 1.14216,-2.5511 2.5511,-2.5511 1.40894,0 2.5511,1.14215 2.5511,2.5511 z" /></g><g
       id="g94"
       transform="translate(73.485126,35.294975)"><path
         inkscape:connector-curvature="0"
         id="path96"
         style="fill:#42321f;fill-opacity:1;fill-rule:nonzero;stroke:none"
         d="m 7.93706,45.92168 c 0,0.78282 -0.6346,1.41742 -1.41742,1.41742 -0.78284,0 -1.41742,-0.6346 -1.41742,-1.41742 0,-0.78284 0.63458,-1.41742 1.41742,-1.41742 0.78282,0 1.41742,0.63458 1.41742,1.41742 z" /></g><g
       id="g98"
       transform="translate(73.485126,35.294975)"><path
         inkscape:connector-curvature="0"
         id="path100"
         style="fill:#42321f;fill-opacity:1;fill-rule:nonzero;stroke:none"
         d="m -5.10222,45.92168 c 0,0.78282 -0.63458,1.41742 -1.41742,1.41742 -0.78282,0 -1.41742,-0.6346 -1.41742,-1.41742 0,-0.78284 0.6346,-1.41742 1.41742,-1.41742 0.78284,0 1.41742,0.63458 1.41742,1.41742 z" /></g><path
       style="fill:#35383b;stroke-width:0.99999994"
       d="m 87.267453,86.36233 c -4.259689,2.366993 -9.191293,3.312789 -14.034919,3.135055 -2.533004,0.009 -5.100134,-0.04425 -7.533551,-0.823858 -2.264454,-0.456747 -4.364611,-1.395167 -6.448908,-2.345197 -2.142505,0.499265 -4.406336,-0.0636 -6.522295,0.499648 -2.40522,0.523444 -0.248172,2.542839 1.169213,2.671353 1.860155,0.528313 4.061463,1.223281 4.735072,3.269421 1.428933,3.990207 2.798419,8.272688 6.066367,11.183698 3.754799,3.42744 9.510276,3.88448 14.132615,2.14052 3.770618,-1.45506 6.201434,-4.98326 7.557996,-8.645702 1.009261,-2.225878 1.145403,-5.04529 3.211416,-6.637354 1.617003,-1.291297 4.140552,-0.978034 5.434868,-2.707952 0.370311,-1.600897 -2.494294,-1.703922 -3.632336,-1.583348 -1.391099,0.144568 -2.779677,-0.0095 -4.135538,-0.156284 z"
       id="path1385"
       inkscape:connector-curvature="0" /><path
       sodipodi:type="star"
       style="opacity:1;fill:#ea1515;fill-opacity:1;fill-rule:evenodd;stroke:none;stroke-width:1.41732287;stroke-linecap:round;stroke-linejoin:round;stroke-miterlimit:4;stroke-dasharray:none;stroke-dashoffset:0;stroke-opacity:1"
       id="path1418"
       sodipodi:sides="18"
       sodipodi:cx="78.36676"
       sodipodi:cy="-98.371399"
       sodipodi:r1="3.7017787"
       sodipodi:r2="3.2797761"
       sodipodi:arg1="1.2870022"
       sodipodi:arg2="1.4615351"
       inkscape:flatsided="false"
       inkscape:rounded="0.5"
       inkscape:randomized="0"
       d="m 79.403258,-94.817691 c -0.355,0.103541 -0.311271,-0.333813 -0.678858,-0.293489 -0.367587,0.04032 -0.230085,0.457797 -0.59909,0.433677 -0.369004,-0.02412 -0.178329,-0.420142 -0.537539,-0.507973 -0.35921,-0.08783 -0.372785,0.351495 -0.711286,0.202623 -0.338502,-0.148872 -0.02388,-0.455797 -0.331385,-0.661187 -0.307507,-0.205391 -0.470522,0.202797 -0.737692,-0.05287 -0.26717,-0.255668 0.133455,-0.436475 -0.08526,-0.734653 -0.218715,-0.298177 -0.511507,0.02964 -0.67512,-0.301988 -0.163614,-0.331627 0.274689,-0.364508 0.171147,-0.719508 -0.103542,-0.355001 -0.490796,-0.147094 -0.531119,-0.514681 -0.04032,-0.367587 0.382792,-0.248577 0.406912,-0.617582 0.02412,-0.369004 -0.410888,-0.306085 -0.323058,-0.665295 0.08783,-0.35921 0.444726,-0.102663 0.593598,-0.441164 0.148872,-0.338497 -0.281421,-0.428157 -0.07603,-0.735667 0.20539,-0.30751 0.453018,0.0556 0.708686,-0.21153 0.255669,-0.26717 -0.118011,-0.49859 0.180167,-0.71731 0.298178,-0.21871 0.40667,0.20722 0.738297,0.0436 0.331628,-0.16362 0.05963,-0.50888 0.414634,-0.61243 0.355,-0.10354 0.311272,0.33382 0.678858,0.29349 0.367587,-0.0403 0.230086,-0.45779 0.59909,-0.43367 0.369005,0.0241 0.178329,0.42014 0.537539,0.50797 0.35921,0.0878 0.372785,-0.3515 0.711287,-0.20262 0.338501,0.14887 0.02388,0.45579 0.331384,0.66118 0.307508,0.20539 0.470522,-0.20279 0.737692,0.0529 0.26717,0.25567 -0.133454,0.43648 0.08526,0.73466 0.218715,0.29817 0.511507,-0.0296 0.675121,0.30198 0.163614,0.331632 -0.274689,0.364513 -0.171148,0.719514 0.103542,0.355 0.490796,0.147094 0.53112,0.514681 0.04032,0.367586 -0.382793,0.248576 -0.406913,0.617581 -0.02412,0.369004 0.410889,0.306085 0.323058,0.665295 -0.08783,0.35921 -0.444726,0.102663 -0.593598,0.441164 -0.148872,0.338502 0.281422,0.428158 0.07603,0.735666 -0.205391,0.307507 -0.453018,-0.05563 -0.708687,0.211536 -0.255668,0.26717 0.118011,0.498589 -0.180167,0.717304 -0.298177,0.218714 -0.40667,-0.20722 -0.738297,-0.04361 -0.331627,0.163614 -0.05963,0.508883 -0.414634,0.612425 z"
       transform="scale(1,-1)" /><path
       transform="scale(1,-1)"
       d="m 79.055866,-96.008752 c -0.236019,0.06884 -0.206946,-0.221932 -0.451332,-0.195123 -0.244387,0.02681 -0.15297,0.304362 -0.398299,0.288326 -0.245329,-0.01604 -0.11856,-0.279327 -0.357378,-0.337721 -0.238817,-0.05839 -0.247842,0.233689 -0.472892,0.134712 -0.225049,-0.09898 -0.01587,-0.303032 -0.220317,-0.439584 -0.204444,-0.136552 -0.312822,0.134828 -0.490448,-0.03515 -0.177625,-0.169979 0.08873,-0.290187 -0.05668,-0.488427 -0.14541,-0.198241 -0.34007,0.01971 -0.448847,-0.200774 -0.108777,-0.220479 0.182625,-0.24234 0.113786,-0.478358 -0.06884,-0.236019 -0.326301,-0.09779 -0.35311,-0.342181 -0.02681,-0.244386 0.254496,-0.165263 0.270532,-0.410593 0.01604,-0.245329 -0.273175,-0.203497 -0.214782,-0.442315 0.05839,-0.238817 0.295672,-0.06825 0.394648,-0.293303 0.09898,-0.22505 -0.187101,-0.284657 -0.05055,-0.4891 0.136552,-0.204444 0.301185,0.03699 0.471164,-0.140638 0.169979,-0.177629 -0.07846,-0.331479 0.119782,-0.476889 0.19824,-0.14541 0.270371,0.13777 0.49085,0.029 0.220479,-0.10878 0.03965,-0.33833 0.275665,-0.40717 0.236018,-0.0688 0.206945,0.22194 0.451332,0.19513 0.244387,-0.0268 0.15297,-0.30437 0.398299,-0.28833 0.245329,0.016 0.11856,0.27933 0.357377,0.33772 0.238818,0.0584 0.247843,-0.23369 0.472892,-0.13471 0.22505,0.099 0.01587,0.30303 0.220318,0.43958 0.204443,0.13656 0.312822,-0.13482 0.490447,0.0351 0.177625,0.169983 -0.08873,0.290191 0.05668,0.488431 0.145411,0.198241 0.340071,-0.01971 0.448848,0.200774 0.108777,0.220479 -0.182625,0.24234 -0.113786,0.478359 0.06884,0.236018 0.326301,0.09779 0.35311,0.34218 0.02681,0.244387 -0.254497,0.165264 -0.270533,0.410593 -0.01604,0.245329 0.273176,0.203497 0.214783,0.442315 -0.05839,0.238817 -0.295672,0.06825 -0.394648,0.293303 -0.09898,0.22505 0.1871,0.284657 0.05055,0.4891 -0.136552,0.204444 -0.301185,-0.03699 -0.471163,0.140638 -0.169979,0.177625 0.07846,0.331482 -0.119782,0.476892 -0.198241,0.145411 -0.270371,-0.137768 -0.49085,-0.02899 -0.220479,0.108777 -0.03965,0.338326 -0.275665,0.407164 z"
       inkscape:randomized="0"
       inkscape:rounded="0.5"
       inkscape:flatsided="false"
       sodipodi:arg2="1.4615351"
       sodipodi:arg1="1.2870022"
       sodipodi:r2="2.1805265"
       sodipodi:r1="2.461091"
       sodipodi:cy="-98.371399"
       sodipodi:cx="78.36676"
       sodipodi:sides="18"
       id="path1420"
       style="opacity:1;fill:#ffffff;fill-opacity:1;fill-rule:evenodd;stroke:none;stroke-width:1.41732287;stroke-linecap:round;stroke-linejoin:round;stroke-miterlimit:4;stroke-dasharray:none;stroke-dashoffset:0;stroke-opacity:1"
       sodipodi:type="star" /><path
       sodipodi:type="star"
       style="opacity:1;fill:#264c6d;fill-opacity:1;fill-rule:evenodd;stroke:none;stroke-width:1.41732287;stroke-linecap:round;stroke-linejoin:round;stroke-miterlimit:4;stroke-dasharray:none;stroke-dashoffset:0;stroke-opacity:1"
       id="path1422"
       sodipodi:sides="18"
       sodipodi:cx="78.36676"
       sodipodi:cy="-98.371399"
       sodipodi:r1="1.3762755"
       sodipodi:r2="1.2193803"
       sodipodi:arg1="1.2870022"
       sodipodi:arg2="1.4615351"
       inkscape:flatsided="false"
       inkscape:rounded="0.5"
       inkscape:randomized="0"
       d="m 78.752117,-97.050174 c -0.131984,0.03849 -0.115726,-0.124108 -0.252391,-0.109116 -0.136664,0.01499 -0.08554,0.170203 -0.222734,0.161236 -0.137191,-0.009 -0.0663,-0.156204 -0.19985,-0.188858 -0.13355,-0.03265 -0.138597,0.130681 -0.264448,0.07533 -0.12585,-0.05535 -0.0089,-0.16946 -0.123204,-0.245822 -0.114328,-0.07636 -0.174935,0.0754 -0.274265,-0.01966 -0.09933,-0.09505 0.04962,-0.162276 -0.0317,-0.273134 -0.08132,-0.110859 -0.190172,0.01102 -0.251001,-0.112276 -0.06083,-0.123295 0.102126,-0.13552 0.06363,-0.267504 -0.03849,-0.131985 -0.182472,-0.05469 -0.197463,-0.191352 -0.01499,-0.136665 0.142317,-0.09242 0.151285,-0.229609 0.009,-0.137192 -0.152764,-0.113799 -0.120109,-0.247349 0.03265,-0.13355 0.165343,-0.03817 0.220692,-0.164019 0.05535,-0.125851 -0.104629,-0.159184 -0.02827,-0.273512 0.07636,-0.114327 0.168426,0.02068 0.263481,-0.07865 0.09505,-0.09933 -0.04387,-0.18537 0.06698,-0.266685 0.110858,-0.08132 0.151194,0.07704 0.274489,0.01621 0.123295,-0.06083 0.02217,-0.189196 0.154156,-0.227691 0.131985,-0.0385 0.115727,0.124107 0.252391,0.109115 0.136664,-0.01499 0.08554,-0.170203 0.222734,-0.161236 0.137192,0.009 0.0663,0.156204 0.199851,0.188858 0.13355,0.03265 0.138597,-0.130681 0.264447,-0.07533 0.125851,0.05535 0.0089,0.169459 0.123205,0.245821 0.114327,0.07636 0.174934,-0.0754 0.274265,0.01966 0.09933,0.09505 -0.04962,0.162276 0.0317,0.273135 0.08132,0.110858 0.190172,-0.01102 0.251002,0.112275 0.06083,0.123295 -0.102126,0.13552 -0.06363,0.267505 0.0385,0.131984 0.182472,0.05469 0.197464,0.191352 0.01499,0.136664 -0.142318,0.09242 -0.151285,0.229609 -0.009,0.137191 0.152763,0.113798 0.120109,0.247348 -0.03265,0.13355 -0.165344,0.03817 -0.220693,0.16402 -0.05535,0.12585 0.104629,0.159184 0.02827,0.273511 -0.07636,0.114327 -0.168427,-0.02068 -0.263481,0.07865 -0.09506,0.09933 0.04387,0.185369 -0.06698,0.266684 -0.110859,0.08131 -0.151195,-0.07704 -0.27449,-0.01621 -0.123295,0.06083 -0.02217,0.189196 -0.154156,0.227692 z"
       transform="scale(1,-1)" /><path
       inkscape:connector-curvature="0"
       id="path66"
       style="fill:#9c8364;fill-opacity:1;fill-rule:nonzero;stroke:none"
       d="m 59.840396,74.829425 c -1.91255,0.69613 -5.28606,-3.74838 -7.53499,-9.92723 -2.24895,-6.17883 -2.5216,-11.75195 -0.60904,-12.44807 1.91256,-0.69611 5.28606,3.74838 7.53499,9.92723 2.24895,6.17883 2.52161,11.75197 0.60904,12.44807 z" /><path
       d="M 50.992514,60.448382 C 50.680578,59.046127 50.234478,56.21046 50.234478,56.21046 l 6.132455,-1.988357 c 0,0 0.344862,2.628835 1.007267,3.90353 0.551737,5.808125 -0.510308,11.627895 -6.381686,2.322749 z"
       style="fill:#ea1515;fill-opacity:1;fill-rule:nonzero;stroke:none"
       id="path1459"
       inkscape:connector-curvature="0"
       sodipodi:nodetypes="ccccc" /><path
       sodipodi:nodetypes="csssccccsssc"
       inkscape:connector-curvature="0"
       id="path1464"
       style="fill:#264c6d;fill-opacity:1;fill-rule:nonzero;stroke:none"
       d="m 59.951469,74.829425 c -0.478138,0.174032 -1.047585,0.02678 -1.667943,-0.388549 -0.620359,-0.415324 -1.291628,-1.098715 -1.973409,-1.996949 -0.681782,-0.898233 -1.374075,-2.01131 -2.036481,-3.286007 -0.662406,-1.274696 -1.294925,-2.711013 -1.857157,-4.255725 -0.562238,-1.544708 -1.312892,-4.453813 -1.312892,-4.453813 l 6.381686,-2.322749 c 0,0 1.294924,2.71101 1.857156,4.255722 0.562238,1.544707 1.000957,3.051559 1.312893,4.453816 0.311937,1.402256 0.497091,2.699917 0.552197,3.826243 0.05511,1.126325 -0.01984,2.081316 -0.228088,2.798231 -0.208254,0.716915 -0.54982,1.195755 -1.027962,1.36978 z" /><path
       sodipodi:nodetypes="ccccc"
       inkscape:connector-curvature="0"
       id="path1466"
       style="fill:#ea1515;fill-opacity:1;fill-rule:nonzero;stroke:none"
       d="m 96.355893,60.448382 c 0.311936,-1.402255 0.758036,-4.237922 0.758036,-4.237922 l -6.132455,-1.988357 c 0,0 -0.344862,2.628835 -1.007267,3.90353 -0.03535,6.677378 1.646448,11.878578 6.381686,2.322749 z" /><path
       d="m 87.508011,74.829425 c 0.478138,0.174032 1.047585,0.02678 1.667943,-0.388549 0.620359,-0.415324 1.291628,-1.098715 1.973409,-1.996949 0.681782,-0.898233 1.374075,-2.01131 2.036481,-3.286007 0.662406,-1.274696 1.294925,-2.711013 1.857157,-4.255725 0.562238,-1.544708 1.312892,-4.453813 1.312892,-4.453813 l -6.381686,-2.322749 c 0,0 -1.294924,2.71101 -1.857156,4.255722 -0.562238,1.544707 -1.000957,3.051559 -1.312893,4.453816 -0.311937,1.402256 -0.497091,2.699917 -0.552197,3.826243 -0.05511,1.126325 0.01984,2.081316 0.228088,2.798231 0.208254,0.716915 0.54982,1.195755 1.027962,1.36978 z"
       style="fill:#264c6d;fill-opacity:1;fill-rule:nonzero;stroke:none"
       id="path1468"
       inkscape:connector-curvature="0"
       sodipodi:nodetypes="csssccccsssc" /><ellipse
       style="opacity:1;fill:#a9a9a9;fill-opacity:1;fill-rule:evenodd;stroke:none;stroke-width:0.075;stroke-linecap:round;stroke-linejoin:round;stroke-miterlimit:4;stroke-dasharray:none;stroke-dashoffset:0;stroke-opacity:1"
       id="path1476"
       cx="75.595558"
       cy="-65.354919"
       transform="scale(1,-1)"
       rx="0.87482947"
       ry="1.1321323" /><ellipse
       ry="1.1321323"
       rx="0.87482947"
       transform="scale(1,-1)"
       cy="-65.354919"
       cx="71.095558"
       id="ellipse1482"
       style="opacity:1;fill:#a9a9a9;fill-opacity:1;fill-rule:evenodd;stroke:none;stroke-width:0.075;stroke-linecap:round;stroke-linejoin:round;stroke-miterlimit:4;stroke-dasharray:none;stroke-dashoffset:0;stroke-opacity:1" /><ellipse
       style="opacity:1;fill:#a9a9a9;fill-opacity:1;fill-rule:evenodd;stroke:none;stroke-width:0.075;stroke-linecap:round;stroke-linejoin:round;stroke-miterlimit:4;stroke-dasharray:none;stroke-dashoffset:0;stroke-opacity:1"
       id="ellipse1484"
       cx="71.095558"
       cy="-61.604919"
       transform="scale(1,-1)"
       rx="0.87482947"
       ry="1.1321323" /><ellipse
       ry="1.1321323"
       rx="0.87482947"
       transform="scale(1,-1)"
       cy="-57.104919"
       cx="71.095558"
       id="ellipse1486"
       style="opacity:1;fill:#a9a9a9;fill-opacity:1;fill-rule:evenodd;stroke:none;stroke-width:0.075;stroke-linecap:round;stroke-linejoin:round;stroke-miterlimit:4;stroke-dasharray:none;stroke-dashoffset:0;stroke-opacity:1" /></g></svg>