<?xml version="1.0" encoding="UTF-8"?>
<svg xmlns="http://www.w3.org/2000/svg" xmlns:xlink="http://www.w3.org/1999/xlink" width="49.782" height="73.825" viewBox="0 0 49.782 73.825">
<defs>
<clipPath id="clip-0">
<path clip-rule="nonzero" d="M 0 0.0742188 L 49.566406 0.0742188 L 49.566406 73.578125 L 0 73.578125 Z M 0 0.0742188 "/>
</clipPath>
<clipPath id="clip-1">
<path clip-rule="nonzero" d="M 17 0.0742188 L 28 0.0742188 L 28 19 L 17 19 Z M 17 0.0742188 "/>
</clipPath>
<clipPath id="clip-2">
<path clip-rule="nonzero" d="M 0 0.0742188 L 43 0.0742188 L 43 24 L 0 24 Z M 0 0.0742188 "/>
</clipPath>
<clipPath id="clip-3">
<path clip-rule="nonzero" d="M 16 7 L 49.566406 7 L 49.566406 73.578125 L 16 73.578125 Z M 16 7 "/>
</clipPath>
</defs>
<g clip-path="url(#clip-0)">
<path fill-rule="nonzero" fill="rgb(89.99939%, 89.99939%, 89.99939%)" fill-opacity="1" d="M 0 73.578125 L 49.566406 73.578125 L 49.566406 0.0742188 L 0 0.0742188 Z M 0 73.578125 "/>
</g>
<path fill-rule="nonzero" fill="rgb(40.000916%, 29.998779%, 19.999695%)" fill-opacity="1" d="M 19.761719 68.5625 C 19.761719 67.160156 16.855469 66.023438 13.269531 66.023438 C 9.683594 66.023438 6.777344 67.160156 6.777344 68.5625 C 6.777344 69.964844 9.683594 71.101562 13.269531 71.101562 C 16.855469 71.101562 19.761719 69.964844 19.761719 68.5625 Z M 19.761719 68.5625 "/>
<path fill-rule="nonzero" fill="rgb(40.000916%, 29.998779%, 19.999695%)" fill-opacity="1" d="M 34.15625 68.5625 C 34.15625 67.160156 31.25 66.023438 27.664062 66.023438 C 24.078125 66.023438 21.171875 67.160156 21.171875 68.5625 C 21.171875 69.964844 24.078125 71.101562 27.664062 71.101562 C 31.25 71.101562 34.15625 69.964844 34.15625 68.5625 Z M 34.15625 68.5625 "/>
<path fill-rule="nonzero" fill="rgb(40.000916%, 29.998779%, 19.999695%)" fill-opacity="1" d="M 30.203125 16.914062 C 30.203125 14.886719 29.066406 13.242188 27.664062 13.242188 C 26.261719 13.242188 25.125 14.886719 25.125 16.914062 C 25.125 18.941406 26.261719 20.582031 27.664062 20.582031 C 29.066406 20.582031 30.203125 18.941406 30.203125 16.914062 Z M 30.203125 16.914062 "/>
<path fill-rule="nonzero" fill="rgb(40.000916%, 29.998779%, 19.999695%)" fill-opacity="1" d="M 15.808594 16.914062 C 15.808594 14.886719 14.671875 13.242188 13.269531 13.242188 C 11.867188 13.242188 10.730469 14.886719 10.730469 16.914062 C 10.730469 18.941406 11.867188 20.582031 13.269531 20.582031 C 14.671875 20.582031 15.808594 18.941406 15.808594 16.914062 Z M 15.808594 16.914062 "/>
<path fill-rule="nonzero" fill="rgb(40.000916%, 29.998779%, 19.999695%)" fill-opacity="1" d="M 45.460938 55.851562 C 44.898438 63.472656 21.222656 67.992188 20.9375 62.34375 C 20.375 58.953125 23.582031 61.796875 31.617188 60.652344 C 38.972656 59.601562 45.460938 54.4375 45.460938 55.851562 "/>
<path fill-rule="nonzero" fill="rgb(79.998779%, 59.999084%, 39.99939%)" fill-opacity="1" d="M 37.261719 48.242188 C 37.261719 66.867188 30.488281 69.125 20.46875 69.125 C 10.449219 69.125 3.675781 66.867188 3.675781 48.242188 C 3.390625 29.613281 11.011719 14.65625 20.46875 14.65625 C 29.921875 14.65625 37.542969 29.613281 37.261719 48.242188 Z M 37.261719 48.242188 "/>
<path fill-rule="nonzero" fill="rgb(90.000916%, 79.998779%, 69.999695%)" fill-opacity="1" d="M 32.460938 54.167969 C 32.460938 62.632812 27.382812 63.765625 20.46875 63.765625 C 13.554688 63.765625 8.472656 62.632812 8.472656 54.167969 C 8.472656 45.699219 14.117188 38.644531 20.46875 38.644531 C 26.816406 38.644531 32.460938 45.699219 32.460938 54.167969 Z M 32.460938 54.167969 "/>
<path fill-rule="nonzero" fill="rgb(40.000916%, 29.998779%, 19.999695%)" fill-opacity="1" d="M 33.648438 41.59375 C 31.746094 40.902344 29.164062 43.1875 27.886719 46.703125 C 26.605469 50.21875 27.113281 53.632812 29.015625 54.324219 C 30.921875 55.015625 33.5 52.730469 34.78125 49.214844 C 36.0625 45.699219 35.554688 42.285156 33.648438 41.59375 Z M 33.648438 41.59375 "/>
<path fill-rule="nonzero" fill="rgb(40.000916%, 29.998779%, 19.999695%)" fill-opacity="1" d="M 11.917969 54.324219 C 13.824219 53.632812 14.328125 50.21875 13.050781 46.703125 C 11.769531 43.1875 9.1875 40.902344 7.285156 41.59375 C 5.378906 42.285156 4.875 45.699219 6.152344 49.214844 C 7.433594 52.730469 10.015625 55.015625 11.917969 54.324219 Z M 11.917969 54.324219 "/>
<path fill-rule="nonzero" fill="rgb(90.000916%, 79.998779%, 69.999695%)" fill-opacity="1" d="M 26.957031 32.71875 C 26.957031 30.691406 24.050781 29.050781 20.46875 29.050781 C 16.882812 29.050781 13.976562 30.691406 13.976562 32.71875 C 13.976562 34.746094 16.882812 36.386719 20.46875 36.386719 C 24.050781 36.386719 26.957031 34.746094 26.957031 32.71875 Z M 26.957031 32.71875 "/>
<path fill-rule="nonzero" fill="rgb(40.000916%, 29.998779%, 19.999695%)" fill-opacity="1" d="M 22.726562 29.050781 C 22.726562 27.800781 21.714844 26.789062 20.46875 26.789062 C 19.21875 26.789062 18.210938 27.800781 18.210938 29.050781 C 18.210938 30.296875 19.21875 31.308594 20.46875 31.308594 C 21.714844 31.308594 22.726562 30.296875 22.726562 29.050781 Z M 22.726562 29.050781 "/>
<path fill-rule="nonzero" fill="rgb(40.000916%, 29.998779%, 19.999695%)" fill-opacity="1" d="M 17.503906 24.25 C 17.503906 23.472656 16.871094 22.839844 16.09375 22.839844 C 15.3125 22.839844 14.679688 23.472656 14.679688 24.25 C 14.679688 25.03125 15.3125 25.664062 16.09375 25.664062 C 16.871094 25.664062 17.503906 25.03125 17.503906 24.25 Z M 17.503906 24.25 "/>
<path fill-rule="nonzero" fill="rgb(40.000916%, 29.998779%, 19.999695%)" fill-opacity="1" d="M 26.253906 24.25 C 26.253906 23.472656 25.621094 22.839844 24.84375 22.839844 C 24.0625 22.839844 23.429688 23.472656 23.429688 24.25 C 23.429688 25.03125 24.0625 25.664062 24.84375 25.664062 C 25.621094 25.664062 26.253906 25.03125 26.253906 24.25 Z M 26.253906 24.25 "/>
<path fill-rule="nonzero" fill="rgb(40.000916%, 29.998779%, 19.999695%)" fill-opacity="1" d="M 24.558594 31.589844 C 23.707031 33.933594 21.117188 35.140625 18.773438 34.289062 C 17.519531 33.832031 16.53125 32.84375 16.074219 31.589844 L 16.515625 31.589844 C 17.285156 33.699219 19.617188 34.785156 21.726562 34.019531 C 22.855469 33.609375 23.742188 32.71875 24.152344 31.589844 Z M 24.558594 31.589844 "/>
<g clip-path="url(#clip-1)">
<path fill-rule="nonzero" fill="rgb(44.999695%, 29.998779%, 14.99939%)" fill-opacity="1" d="M 17.804688 0.550781 C 20.640625 1.542969 23.660156 2.347656 27.894531 1.941406 L 23.113281 18.359375 L 17.804688 0.550781 "/>
</g>
<g clip-path="url(#clip-2)">
<path fill-rule="nonzero" fill="rgb(67.498779%, 44.999695%, 22.499084%)" fill-opacity="1" d="M 0 12.878906 C 1.082031 9.0625 6.777344 18.914062 10.699219 17.453125 C 12.386719 11.488281 13.410156 0.0742188 17.804688 0.09375 C 21.851562 1.296875 20.296875 4.101562 23.480469 5.117188 C 25.425781 5.394531 24.628906 1.6875 27.894531 1.484375 C 31.277344 2.585938 30.589844 13.464844 31.933594 19.453125 C 35.746094 20.476562 37.734375 16.84375 42.59375 16.144531 C 43.429688 28.335938 4.664062 25.46875 0 12.878906 Z M 0 12.878906 "/>
</g>
<path fill-rule="nonzero" fill="rgb(100%, 50%, 0%)" fill-opacity="1" d="M 11.253906 14.734375 C 18.761719 13.597656 25.585938 13.371094 31.472656 16.558594 L 31.867188 18.746094 C 25.238281 16.886719 17.9375 16.605469 10.65625 16.796875 Z M 11.253906 14.734375 "/>
<path fill-rule="nonzero" fill="rgb(44.999695%, 29.998779%, 14.99939%)" fill-opacity="1" d="M 10.65625 16.796875 C 17.714844 16.597656 25.136719 16.957031 32.089844 18.707031 "/>
<g clip-path="url(#clip-3)">
<path fill-rule="nonzero" fill="rgb(0%, 0%, 0%)" fill-opacity="1" d="M 45.394531 9.410156 C 45.429688 9.5 45.523438 9.621094 45.605469 9.695312 C 45.683594 9.757812 45.753906 9.863281 45.765625 9.914062 C 45.773438 9.96875 45.714844 10.265625 45.636719 10.578125 C 45.492188 11.097656 45.472656 11.144531 45.328125 11.238281 C 45.148438 11.355469 45 11.675781 45.042969 11.871094 C 45.0625 11.992188 44.730469 12.582031 40.449219 19.9375 C 35.980469 27.59375 35.820312 27.863281 35.632812 27.992188 C 35.378906 28.15625 35.257812 28.375 35.269531 28.644531 L 35.273438 28.867188 L 32.195312 34.15625 C 29.296875 39.144531 29.113281 39.445312 28.980469 39.492188 C 28.855469 39.535156 28.734375 39.730469 26.941406 42.855469 L 25.046875 46.175781 L 25.085938 46.453125 C 25.109375 46.613281 25.125 46.753906 25.117188 46.769531 C 25.105469 46.78125 24.90625 46.890625 24.671875 47.007812 C 24.433594 47.125 24.183594 47.253906 24.113281 47.296875 L 23.980469 47.378906 L 24.183594 47.347656 C 24.710938 47.277344 24.921875 47.257812 24.945312 47.273438 C 24.964844 47.285156 25.011719 47.507812 25.054688 47.773438 C 25.097656 48.039062 25.207031 48.410156 25.289062 48.597656 C 25.492188 49.011719 25.484375 49.148438 25.136719 51.304688 C 24.6875 54.109375 24.332031 55.71875 24.054688 56.195312 C 23.851562 56.550781 23.445312 56.898438 22.914062 57.183594 C 21.757812 57.8125 21.882812 57.707031 21.496094 58.335938 C 21.148438 58.902344 20.84375 59.558594 19.039062 63.617188 C 17.96875 66.027344 17.164062 67.878906 16.625 69.175781 C 16.25 70.074219 16.167969 70.324219 16.207031 70.410156 C 16.308594 70.640625 16.539062 70.769531 17.304688 71.015625 C 18.363281 71.34375 19.464844 71.777344 22.648438 73.101562 C 23.753906 73.5625 23.867188 73.578125 24.019531 73.308594 C 24.105469 73.160156 24.539062 71.105469 24.957031 68.8125 C 25.136719 67.851562 25.589844 65.410156 25.964844 63.394531 C 26.660156 59.671875 27.265625 56.191406 27.5625 54.277344 C 27.914062 52.023438 28.152344 50.636719 28.214844 50.53125 C 28.300781 50.386719 28.253906 50.097656 28.125 49.972656 C 28.058594 49.910156 28.035156 49.796875 28.050781 49.664062 C 28.085938 49.390625 28.066406 49.414062 28.28125 49.421875 C 28.585938 49.4375 28.589844 49.300781 28.261719 51.34375 C 27.917969 53.511719 27.933594 53.667969 28.597656 54.050781 C 28.921875 54.238281 28.992188 54.257812 29.238281 54.234375 C 29.550781 54.210938 29.890625 54.007812 30.035156 53.761719 C 30.167969 53.527344 30.253906 53.171875 30.425781 52.089844 C 30.640625 50.800781 30.710938 50.132812 30.679688 49.808594 C 30.660156 49.539062 30.664062 49.535156 31.1875 48.566406 C 31.753906 47.5 31.820312 47.316406 31.765625 46.800781 C 31.699219 46.191406 31.460938 45.832031 30.78125 45.285156 C 30.46875 45.042969 30.429688 44.988281 30.378906 44.757812 C 30.328125 44.519531 30.34375 44.457031 30.527344 44.074219 C 31.882812 41.277344 32.269531 40.542969 33.976562 37.464844 C 34.984375 35.632812 36.394531 33.132812 37.097656 31.890625 C 37.96875 30.371094 38.382812 29.597656 38.386719 29.511719 C 38.390625 29.445312 38.492188 29.160156 38.613281 28.894531 C 38.851562 28.359375 38.890625 28.054688 38.738281 27.9375 C 38.519531 27.765625 38.316406 28.136719 42.828125 20.324219 C 46.179688 14.515625 47.066406 13.015625 47.117188 13.027344 C 47.21875 13.046875 47.527344 12.492188 47.527344 12.292969 C 47.527344 12.164062 47.707031 11.824219 48.480469 10.484375 C 49.566406 8.601562 49.511719 8.800781 48.992188 8.503906 C 48.746094 8.359375 48.652344 8.273438 48.601562 8.15625 C 48.558594 8.035156 48.441406 7.929688 48.140625 7.734375 L 47.738281 7.472656 L 47.554688 7.792969 C 47.457031 7.964844 47.339844 8.117188 47.300781 8.140625 C 47.269531 8.160156 47.011719 8.09375 46.742188 7.996094 C 46.464844 7.894531 46.242188 7.8125 46.230469 7.816406 C 46.222656 7.816406 46.019531 8.140625 45.773438 8.53125 L 45.332031 9.246094 Z M 29.507812 45.832031 C 29.761719 45.476562 29.769531 45.472656 30.308594 45.78125 C 30.78125 46.050781 30.964844 46.285156 31.0625 46.746094 C 31.160156 47.214844 31.09375 47.527344 30.78125 48.070312 C 30.566406 48.441406 30.488281 48.527344 30.265625 48.679688 C 30.117188 48.78125 29.898438 48.871094 29.777344 48.886719 C 29.507812 48.921875 28.328125 48.742188 28.253906 48.660156 C 28.207031 48.589844 28.386719 47.8125 28.5 47.617188 C 28.554688 47.527344 28.578125 47.523438 28.65625 47.59375 C 29.019531 47.949219 29.480469 48.15625 29.703125 48.078125 C 29.777344 48.046875 29.753906 48.039062 29.601562 47.996094 C 29.144531 47.882812 28.808594 47.554688 28.804688 47.203125 C 28.800781 47.03125 28.847656 46.910156 29.046875 46.5625 C 29.183594 46.320312 29.390625 45.996094 29.507812 45.832031 Z M 29.058594 49.414062 C 29.320312 49.234375 29.726562 49.15625 29.957031 49.238281 C 30.402344 49.394531 30.605469 49.777344 30.542969 50.347656 C 30.46875 51.148438 30.078125 53.265625 29.96875 53.511719 C 29.734375 54.035156 29.128906 54.199219 28.589844 53.886719 C 28.273438 53.703125 28.152344 53.46875 28.179688 53.070312 C 28.210938 52.40625 28.667969 49.871094 28.785156 49.65625 C 28.816406 49.605469 28.933594 49.492188 29.058594 49.414062 Z M 29.058594 49.414062 "/>
</g>
</svg>
