<?xml version="1.0" encoding="UTF-8"?>
<svg xmlns="http://www.w3.org/2000/svg" xmlns:xlink="http://www.w3.org/1999/xlink" width="45.496" height="69.448" viewBox="0 0 45.496 69.448">
<defs>
<clipPath id="clip-0">
<path clip-rule="nonzero" d="M 0 0.109375 L 44.996094 0.109375 L 44.996094 68.792969 L 0 68.792969 Z M 0 0.109375 "/>
</clipPath>
<clipPath id="clip-1">
<path clip-rule="nonzero" d="M 6 63 L 19 63 L 19 68.792969 L 6 68.792969 Z M 6 63 "/>
</clipPath>
<clipPath id="clip-2">
<path clip-rule="nonzero" d="M 20 63 L 34 63 L 34 68.792969 L 20 68.792969 Z M 20 63 "/>
</clipPath>
<clipPath id="clip-3">
<path clip-rule="nonzero" d="M 20 53 L 44.996094 53 L 44.996094 63 L 20 63 Z M 20 53 "/>
</clipPath>
<clipPath id="clip-4">
<path clip-rule="nonzero" d="M 15 0.109375 L 24 0.109375 L 24 9 L 15 9 Z M 15 0.109375 "/>
</clipPath>
</defs>
<g clip-path="url(#clip-0)">
<path fill-rule="nonzero" fill="rgb(89.99939%, 89.99939%, 89.99939%)" fill-opacity="1" d="M 0 68.792969 L 44.996094 68.792969 L 44.996094 0.109375 L 0 0.109375 Z M 0 68.792969 "/>
</g>
<g clip-path="url(#clip-1)">
<path fill-rule="nonzero" fill="rgb(37.5%, 25%, 12.5%)" fill-opacity="1" d="M 18.925781 65.992188 C 18.925781 64.597656 16.039062 63.46875 12.476562 63.46875 C 8.914062 63.46875 6.027344 64.597656 6.027344 65.992188 C 6.027344 67.386719 8.914062 68.515625 12.476562 68.515625 C 16.039062 68.515625 18.925781 67.386719 18.925781 65.992188 Z M 18.925781 65.992188 "/>
</g>
<g clip-path="url(#clip-2)">
<path fill-rule="nonzero" fill="rgb(37.5%, 25%, 12.5%)" fill-opacity="1" d="M 33.222656 65.992188 C 33.222656 64.597656 30.335938 63.46875 26.773438 63.46875 C 23.214844 63.46875 20.328125 64.597656 20.328125 65.992188 C 20.328125 67.386719 23.214844 68.515625 26.773438 68.515625 C 30.335938 68.515625 33.222656 67.386719 33.222656 65.992188 Z M 33.222656 65.992188 "/>
</g>
<path fill-rule="nonzero" fill="rgb(37.5%, 25%, 12.5%)" fill-opacity="1" d="M 29.296875 14.683594 C 29.296875 12.671875 28.167969 11.039062 26.773438 11.039062 C 25.382812 11.039062 24.25 12.671875 24.25 14.683594 C 24.25 16.699219 25.382812 18.328125 26.773438 18.328125 C 28.167969 18.328125 29.296875 16.699219 29.296875 14.683594 Z M 29.296875 14.683594 "/>
<path fill-rule="nonzero" fill="rgb(37.5%, 25%, 12.5%)" fill-opacity="1" d="M 15 14.683594 C 15 12.671875 13.871094 11.039062 12.476562 11.039062 C 11.082031 11.039062 9.953125 12.671875 9.953125 14.683594 C 9.953125 16.699219 11.082031 18.328125 12.476562 18.328125 C 13.871094 18.328125 15 16.699219 15 14.683594 Z M 15 14.683594 "/>
<g clip-path="url(#clip-3)">
<path fill-rule="nonzero" fill="rgb(37.5%, 25%, 12.5%)" fill-opacity="1" d="M 44.453125 53.363281 C 43.894531 60.9375 20.375 65.425781 20.09375 59.816406 C 19.535156 56.449219 22.71875 59.269531 30.703125 58.132812 C 38.007812 57.089844 44.453125 51.960938 44.453125 53.363281 "/>
</g>
<path fill-rule="nonzero" fill="rgb(75%, 50%, 25%)" fill-opacity="1" d="M 36.308594 45.804688 C 36.308594 64.308594 29.578125 66.550781 19.625 66.550781 C 9.671875 66.550781 2.945312 64.308594 2.945312 45.804688 C 2.664062 27.300781 10.234375 12.441406 19.625 12.441406 C 29.019531 12.441406 36.585938 27.300781 36.308594 45.804688 Z M 36.308594 45.804688 "/>
<path fill-rule="nonzero" fill="rgb(87.5%, 75%, 62.5%)" fill-opacity="1" d="M 31.542969 51.691406 C 31.542969 60.105469 26.496094 61.226562 19.625 61.226562 C 12.757812 61.226562 7.710938 60.105469 7.710938 51.691406 C 7.710938 43.28125 13.316406 36.273438 19.625 36.273438 C 25.933594 36.273438 31.542969 43.28125 31.542969 51.691406 Z M 31.542969 51.691406 "/>
<path fill-rule="nonzero" fill="rgb(37.5%, 25%, 12.5%)" fill-opacity="1" d="M 32.722656 39.203125 C 30.828125 38.511719 28.265625 40.785156 26.996094 44.277344 C 25.722656 47.769531 26.226562 51.160156 28.117188 51.847656 C 30.007812 52.535156 32.574219 50.265625 33.84375 46.773438 C 35.117188 43.28125 34.613281 39.890625 32.722656 39.203125 Z M 32.722656 39.203125 "/>
<path fill-rule="nonzero" fill="rgb(37.5%, 25%, 12.5%)" fill-opacity="1" d="M 11.132812 51.847656 C 13.023438 51.160156 13.527344 47.769531 12.257812 44.277344 C 10.984375 40.785156 8.421875 38.511719 6.53125 39.203125 C 4.640625 39.890625 4.136719 43.28125 5.40625 46.773438 C 6.679688 50.265625 9.242188 52.535156 11.132812 51.847656 Z M 11.132812 51.847656 "/>
<path fill-rule="nonzero" fill="rgb(87.5%, 75%, 62.5%)" fill-opacity="1" d="M 26.074219 30.386719 C 26.074219 28.371094 23.1875 26.742188 19.625 26.742188 C 16.0625 26.742188 13.175781 28.371094 13.175781 30.386719 C 13.175781 32.398438 16.0625 34.03125 19.625 34.03125 C 23.1875 34.03125 26.074219 32.398438 26.074219 30.386719 Z M 26.074219 30.386719 "/>
<path fill-rule="nonzero" fill="rgb(37.5%, 25%, 12.5%)" fill-opacity="1" d="M 21.867188 26.742188 C 21.867188 25.5 20.863281 24.496094 19.625 24.496094 C 18.386719 24.496094 17.382812 25.5 17.382812 26.742188 C 17.382812 27.980469 18.386719 28.984375 19.625 28.984375 C 20.863281 28.984375 21.867188 27.980469 21.867188 26.742188 Z M 21.867188 26.742188 "/>
<path fill-rule="nonzero" fill="rgb(37.5%, 25%, 12.5%)" fill-opacity="1" d="M 16.683594 21.972656 C 16.683594 21.199219 16.054688 20.574219 15.28125 20.574219 C 14.503906 20.574219 13.878906 21.199219 13.878906 21.972656 C 13.878906 22.75 14.503906 23.375 15.28125 23.375 C 16.054688 23.375 16.683594 22.75 16.683594 21.972656 Z M 16.683594 21.972656 "/>
<path fill-rule="nonzero" fill="rgb(37.5%, 25%, 12.5%)" fill-opacity="1" d="M 25.371094 21.972656 C 25.371094 21.199219 24.746094 20.574219 23.972656 20.574219 C 23.195312 20.574219 22.570312 21.199219 22.570312 21.972656 C 22.570312 22.75 23.195312 23.375 23.972656 23.375 C 24.746094 23.375 25.371094 22.75 25.371094 21.972656 Z M 25.371094 21.972656 "/>
<path fill-rule="nonzero" fill="rgb(37.5%, 25%, 12.5%)" fill-opacity="1" d="M 23.691406 29.265625 C 22.84375 31.59375 20.269531 32.792969 17.941406 31.945312 C 16.695312 31.492188 15.714844 30.511719 15.261719 29.265625 L 15.699219 29.265625 C 16.464844 31.359375 18.78125 32.4375 20.875 31.675781 C 21.996094 31.269531 22.878906 30.386719 23.289062 29.265625 Z M 23.691406 29.265625 "/>
<path fill-rule="nonzero" fill="rgb(0%, 0%, 59.999084%)" fill-opacity="1" d="M 5.011719 32.746094 C 9.484375 28.023438 10.503906 20.777344 10.503906 20.777344 C 15.558594 17.445312 23.941406 17.128906 29.039062 20.394531 C 29.039062 20.394531 30.875 29.277344 35.121094 32.78125 C 33.726562 -4.4375 3.851562 -3.695312 5.011719 32.746094 Z M 5.011719 32.746094 "/>
<path fill-rule="nonzero" fill="rgb(50%, 50%, 79.998779%)" fill-opacity="1" d="M 39.25 33.75 C 39.25 32.199219 37.996094 30.945312 36.449219 30.945312 C 34.898438 30.945312 33.644531 32.199219 33.644531 33.75 C 33.644531 35.296875 34.898438 36.554688 36.449219 36.554688 C 37.996094 36.554688 39.25 35.296875 39.25 33.75 Z M 39.25 33.75 "/>
<path fill-rule="nonzero" fill="rgb(69.999695%, 69.999695%, 87.998962%)" fill-opacity="1" d="M 36.449219 33.75 C 36.449219 32.199219 35.191406 30.945312 33.644531 30.945312 C 32.09375 30.945312 30.839844 32.199219 30.839844 33.75 C 30.839844 35.296875 32.09375 36.554688 33.644531 36.554688 C 35.191406 36.554688 36.449219 35.296875 36.449219 33.75 Z M 36.449219 33.75 "/>
<path fill-rule="nonzero" fill="rgb(50%, 50%, 79.998779%)" fill-opacity="1" d="M 5.609375 33.75 C 5.609375 32.199219 4.351562 30.945312 2.804688 30.945312 C 1.253906 30.945312 0 32.199219 0 33.75 C 0 35.296875 1.253906 36.554688 2.804688 36.554688 C 4.351562 36.554688 5.609375 35.296875 5.609375 33.75 Z M 5.609375 33.75 "/>
<path fill-rule="nonzero" fill="rgb(69.999695%, 69.999695%, 87.998962%)" fill-opacity="1" d="M 8.410156 33.75 C 8.410156 32.199219 7.15625 30.945312 5.609375 30.945312 C 4.058594 30.945312 2.804688 32.199219 2.804688 33.75 C 2.804688 35.296875 4.058594 36.554688 5.609375 36.554688 C 7.15625 36.554688 8.410156 35.296875 8.410156 33.75 Z M 8.410156 33.75 "/>
<g clip-path="url(#clip-4)">
<path fill-rule="nonzero" fill="rgb(69.999695%, 69.999695%, 87.998962%)" fill-opacity="1" d="M 23.832031 4.3125 C 23.832031 1.988281 21.949219 0.105469 19.625 0.105469 C 17.304688 0.105469 15.421875 1.988281 15.421875 4.3125 C 15.421875 6.632812 17.304688 8.515625 19.625 8.515625 C 21.949219 8.515625 23.832031 6.632812 23.832031 4.3125 Z M 23.832031 4.3125 "/>
</g>
</svg>
