<?xml version="1.0" encoding="UTF-8" standalone="no"?>
<!-- Created with Inkscape (http://www.inkscape.org/) -->

<svg
   xmlns:dc="http://purl.org/dc/elements/1.1/"
   xmlns:cc="http://creativecommons.org/ns#"
   xmlns:rdf="http://www.w3.org/1999/02/22-rdf-syntax-ns#"
   xmlns:svg="http://www.w3.org/2000/svg"
   xmlns="http://www.w3.org/2000/svg"
   xmlns:sodipodi="http://sodipodi.sourceforge.net/DTD/sodipodi-0.dtd"
   xmlns:inkscape="http://www.inkscape.org/namespaces/inkscape"
   version="1.1"
   id="svg2"
   xml:space="preserve"
   width="85.361969"
   height="91.636642"
   viewBox="0 0 85.361969 91.636642"
   sodipodi:docname="Alfred_the_mouse.svg"
   inkscape:version="0.92.2 5c3e80d, 2017-08-06"><metadata
     id="metadata8"><rdf:RDF><cc:Work
         rdf:about=""><dc:format>image/svg+xml</dc:format><dc:type
           rdf:resource="http://purl.org/dc/dcmitype/StillImage" /><dc:title /></cc:Work></rdf:RDF></metadata><defs
     id="defs6" /><sodipodi:namedview
     pagecolor="#ffffff"
     bordercolor="#666666"
     borderopacity="1"
     objecttolerance="10"
     gridtolerance="10"
     guidetolerance="10"
     inkscape:pageopacity="0"
     inkscape:pageshadow="2"
     inkscape:window-width="640"
     inkscape:window-height="480"
     id="namedview4"
     showgrid="false"
     fit-margin-top="0"
     fit-margin-left="0"
     fit-margin-right="0"
     fit-margin-bottom="0"
     inkscape:zoom="5.361727"
     inkscape:cx="63.012529"
     inkscape:cy="41.34351"
     inkscape:current-layer="g10" /><g
     id="g10"
     inkscape:groupmode="layer"
     inkscape:label="AlfredTheMouse"
     transform="matrix(1.3333333,0,0,-1.3333333,-9.9999997,101.63798)"><rect
       style="opacity:1;fill:#e6e6e6;fill-opacity:1;fill-rule:evenodd;stroke:none;stroke-width:5.6692915;stroke-linecap:round;stroke-miterlimit:4;stroke-dasharray:none;stroke-dashoffset:0;stroke-opacity:1"
       id="rect36"
       width="73.297279"
       height="76.794289"
       x="4.282753"
       y="-79.819122"
       transform="scale(1,-1)" /><g
       id="g12"><path
         d="m 24.934,10.051 c 0,1.41 -2.918,2.551 -6.52,2.551 -3.602,0 -6.519,-1.141 -6.519,-2.551 0,-1.41 2.917,-2.55 6.519,-2.55 3.602,0 6.52,1.14 6.52,2.55 z"
         style="fill:#b4b4b4;fill-opacity:1;fill-rule:nonzero;stroke:none"
         id="path14"
         inkscape:connector-curvature="0" /><path
         d="m 39.391,10.051 c 0,1.41 -2.918,2.551 -6.52,2.551 -3.601,0 -6.519,-1.141 -6.519,-2.551 0,-1.41 2.918,-2.55 6.519,-2.55 3.602,0 6.52,1.14 6.52,2.55 z"
         style="fill:#b4b4b4;fill-opacity:1;fill-rule:nonzero;stroke:none"
         id="path16"
         inkscape:connector-curvature="0" /><path
         d="m 43.785,65.895 c 0,4.383 -3.555,7.938 -7.937,7.938 -4.383,0 -7.938,-3.555 -7.938,-7.938 0,-4.383 3.555,-7.937 7.938,-7.937 4.382,0 7.937,3.554 7.937,7.937 z"
         style="fill:#b4b4b4;fill-opacity:1;fill-rule:nonzero;stroke:none"
         id="path18"
         inkscape:connector-curvature="0" /><path
         d="m 40.5,65.372 c 0,2.347 -1.902,4.25 -4.254,4.25 -2.348,0 -4.25,-1.903 -4.25,-4.25 0,-2.348 1.902,-4.254 4.25,-4.254 2.352,0 4.254,1.906 4.254,4.254 z"
         style="fill:#8c8c8c;fill-opacity:1;fill-rule:nonzero;stroke:none"
         id="path20"
         inkscape:connector-curvature="0" /><path
         d="m 23.375,65.895 c 0,4.383 -3.555,7.938 -7.937,7.938 -4.383,0 -7.938,-3.555 -7.938,-7.938 0,-4.383 3.555,-7.937 7.938,-7.937 4.382,0 7.937,3.554 7.937,7.937 z"
         style="fill:#b4b4b4;fill-opacity:1;fill-rule:nonzero;stroke:none"
         id="path22"
         inkscape:connector-curvature="0" /><path
         d="m 19.688,65.895 c 0,2.348 -1.903,4.25 -4.25,4.25 -2.348,0 -4.254,-1.902 -4.254,-4.25 0,-2.348 1.906,-4.254 4.254,-4.254 2.347,0 4.25,1.906 4.25,4.254 z"
         style="fill:#8c8c8c;fill-opacity:1;fill-rule:nonzero;stroke:none"
         id="path24"
         inkscape:connector-curvature="0" /><path
         d="M 35.508,17.848 C 42.594,28.305 47.695,46.192 56.797,50.446 64.449,53.848 73.18,41.489 71.25,41.376 52.09,66.122 47.496,23.543 37.293,17.024 Z"
         style="fill:#b4b4b4;fill-opacity:1;fill-rule:nonzero;stroke:none"
         id="path26"
         inkscape:connector-curvature="0" /><path
         d="m 42.508,30.461 c 0,-18.71 -6.805,-20.976 -16.867,-20.976 -10.063,0 -16.864,2.266 -16.864,20.976 -0.285,18.707 7.368,33.731 16.864,33.731 9.496,0 17.152,-15.024 16.867,-33.731 z"
         style="fill:#8c8c8c;fill-opacity:1;fill-rule:nonzero;stroke:none"
         id="path28"
         inkscape:connector-curvature="0" /><path
         d="M 25.555,26.399 19.738,43.18 h 11.703 l -5.82,-16.781"
         style="fill:#ffffff;fill-opacity:1;fill-rule:evenodd;stroke:none"
         id="path30"
         inkscape:connector-curvature="0" /><path
         d="m 31.441,43.18 c 2.586,-1.09 3.93,-3.019 3.93,-3.019 l -3.109,-1.239 2.597,-3.55 -9.304,-8.973 c 0.086,-0.039 5.886,16.781 5.886,16.781 z"
         style="fill:#000000;fill-opacity:1;fill-rule:nonzero;stroke:none"
         id="path32"
         inkscape:connector-curvature="0" /><path
         d="m 19.738,43.18 c -2.59,-1.09 -3.933,-3.019 -3.933,-3.019 l 3.113,-1.239 -2.598,-3.55 9.301,-8.973 C 25.539,26.36 19.738,43.18 19.738,43.18 Z"
         style="fill:#000000;fill-opacity:1;fill-rule:nonzero;stroke:none"
         id="path34"
         inkscape:connector-curvature="0" /><path
         d="m 19.504,39.692 0.023,-5.785 4.938,2.152 2.535,-0.027 4.676,-2.149 0.035,5.864 -4.805,-2.172 -2.523,0.008 z"
         style="fill:#8b0000;fill-opacity:1;fill-rule:evenodd;stroke:none"
         id="path36"
         inkscape:connector-curvature="0" /><path
         d="m 39.816,55.407 c 0,-6.239 -8.504,-15.59 -14.175,-18.141 -5.668,2.551 -14.172,11.902 -14.172,18.141 4.535,14.172 23.812,14.172 28.347,0 z"
         style="fill:#b4b4b4;fill-opacity:1;fill-rule:nonzero;stroke:none"
         id="path38"
         inkscape:connector-curvature="0" /><path
         d="m 38.883,37.137 c -1.914,0.696 -4.504,-1.601 -5.789,-5.133 -1.285,-3.531 -0.778,-6.957 1.133,-7.652 1.914,-0.695 4.507,1.602 5.793,5.133 1.285,3.531 0.773,6.957 -1.137,7.652 z"
         style="fill:#b4b4b4;fill-opacity:1;fill-rule:nonzero;stroke:none"
         id="path40"
         inkscape:connector-curvature="0" /><path
         d="m 17.055,24.352 c 1.914,0.695 2.422,4.121 1.136,7.652 -1.285,3.532 -3.879,5.829 -5.789,5.133 -1.914,-0.695 -2.422,-4.121 -1.136,-7.652 1.285,-3.531 3.879,-5.828 5.789,-5.133 z"
         style="fill:#b4b4b4;fill-opacity:1;fill-rule:nonzero;stroke:none"
         id="path42"
         inkscape:connector-curvature="0" /><path
         d="m 27.875,38.79 c 2.465,0.437 3.676,-1.434 6.141,-1.868 v 0.282 c -2.434,0.429 -3.707,2.015 -6.141,1.586 z m -4.465,0 c -2.465,0.437 -3.68,-1.434 -6.144,-1.868 v 0.282 c 2.437,0.429 3.707,2.015 6.144,1.586 z"
         style="fill:#464646;fill-opacity:1;fill-rule:nonzero;stroke:none"
         id="path44"
         inkscape:connector-curvature="0" /><path
         d="m 27.773,39.172 c 2.352,0.86 4.02,0.082 6.372,-0.773 v 0.281 c -2.344,0.856 -4.028,1.348 -6.372,0.492 z m -4.261,0 c -2.356,0.86 -4.02,0.082 -6.375,-0.773 v 0.281 c 2.347,0.856 4.031,1.348 6.375,0.492 z"
         style="fill:#464646;fill-opacity:1;fill-rule:nonzero;stroke:none"
         id="path46"
         inkscape:connector-curvature="0" /><path
         d="m 27.543,39.633 c 2.105,1.368 4.281,2.043 6.383,0.676 v 0.285 c -2.11,1.371 -4.27,0.41 -6.383,-0.961 z m -3.805,0 c -2.101,1.368 -4.277,2.043 -6.383,0.676 v 0.285 c 2.114,1.371 4.274,0.41 6.383,-0.961 z"
         style="fill:#464646;fill-opacity:1;fill-rule:nonzero;stroke:none"
         id="path48"
         inkscape:connector-curvature="0" /><path
         d="m 28.191,39.758 c 0,1.41 -1.14,2.551 -2.55,2.551 -1.407,0 -2.551,-1.141 -2.551,-2.551 0,-1.41 1.144,-2.55 2.551,-2.55 1.41,0 2.55,1.14 2.55,2.55 z"
         style="fill:#464646;fill-opacity:1;fill-rule:nonzero;stroke:none"
         id="path50"
         inkscape:connector-curvature="0" /><path
         d="m 33.578,52.004 c 0,0.782 -0.633,1.418 -1.418,1.418 -0.781,0 -1.418,-0.636 -1.418,-1.418 0,-0.781 0.637,-1.418 1.418,-1.418 0.785,0 1.418,0.637 1.418,1.418 z"
         style="fill:#464646;fill-opacity:1;fill-rule:nonzero;stroke:none"
         id="path52"
         inkscape:connector-curvature="0" /><path
         d="m 20.539,52.004 c 0,0.782 -0.633,1.418 -1.418,1.418 -0.781,0 -1.418,-0.636 -1.418,-1.418 0,-0.781 0.637,-1.418 1.418,-1.418 0.785,0 1.418,0.637 1.418,1.418 z"
         style="fill:#464646;fill-opacity:1;fill-rule:nonzero;stroke:none"
         id="path54"
         inkscape:connector-curvature="0" /><path
         d="m 40.121,56.602 c 0.402,1.512 -5.152,4.316 -12.41,6.262 -7.258,1.945 -13.473,2.293 -13.875,0.781 -0.406,-1.512 5.148,-4.312 12.406,-6.258 7.258,-1.945 13.473,-2.297 13.879,-0.785 z"
         style="fill:#000000;fill-opacity:1;fill-rule:nonzero;stroke:none"
         id="path56"
         inkscape:connector-curvature="0" /><path
         d="M 17.98,62.688 35.23,58.067 40.176,69.95 19.914,75.379 Z"
         style="fill:#000000;fill-opacity:1;fill-rule:nonzero;stroke:none"
         id="path58"
         inkscape:connector-curvature="0" /><path
         d="m 40.227,70.024 c 0.324,1.211 -3.95,3.406 -9.543,4.906 -5.598,1.5 -10.395,1.735 -10.719,0.524 -0.324,-1.211 3.949,-3.407 9.543,-4.907 5.594,-1.5 10.394,-1.734 10.719,-0.523 z"
         style="fill:#000000;fill-opacity:1;fill-rule:nonzero;stroke:none"
         id="path60"
         inkscape:connector-curvature="0" /><path
         d="m 38.883,37.137 c -1.914,0.696 -4.504,-1.601 -5.789,-5.133 -1.285,-3.531 -0.778,-6.957 1.133,-7.652 1.914,-0.695 4.507,1.602 5.793,5.133 1.285,3.531 0.773,6.957 -1.137,7.652 z"
         style="fill:#b4b4b4;fill-opacity:1;fill-rule:nonzero;stroke:none"
         id="path62"
         inkscape:connector-curvature="0" /><path
         d="m 26.793,23.958 c 0,-0.704 -0.57,-1.274 -1.273,-1.274 -0.708,0 -1.278,0.57 -1.278,1.274 0,0.707 0.57,1.277 1.278,1.277 0.703,0 1.273,-0.57 1.273,-1.277 z"
         style="fill:#000000;fill-opacity:1;fill-rule:nonzero;stroke:none"
         id="path64"
         inkscape:connector-curvature="0" /><path
         d="m 26.793,20.208 c 0,-0.704 -0.57,-1.274 -1.273,-1.274 -0.708,0 -1.278,0.57 -1.278,1.274 0,0.707 0.57,1.277 1.278,1.277 0.703,0 1.273,-0.57 1.273,-1.277 z"
         style="fill:#000000;fill-opacity:1;fill-rule:nonzero;stroke:none"
         id="path66"
         inkscape:connector-curvature="0" /><path
         d="m 26.793,16.458 c 0,-0.704 -0.57,-1.274 -1.273,-1.274 -0.708,0 -1.278,0.57 -1.278,1.274 0,0.707 0.57,1.277 1.278,1.277 0.703,0 1.273,-0.57 1.273,-1.277 z"
         style="fill:#000000;fill-opacity:1;fill-rule:nonzero;stroke:none"
         id="path68"
         inkscape:connector-curvature="0" /></g></g></svg>