<?xml version="1.0" encoding="UTF-8" standalone="no"?>
<!-- Created with Inkscape (http://www.inkscape.org/) -->

<svg
   xmlns:dc="http://purl.org/dc/elements/1.1/"
   xmlns:cc="http://creativecommons.org/ns#"
   xmlns:rdf="http://www.w3.org/1999/02/22-rdf-syntax-ns#"
   xmlns:svg="http://www.w3.org/2000/svg"
   xmlns="http://www.w3.org/2000/svg"
   xmlns:sodipodi="http://sodipodi.sourceforge.net/DTD/sodipodi-0.dtd"
   xmlns:inkscape="http://www.inkscape.org/namespaces/inkscape"
   version="1.1"
   id="svg2"
   xml:space="preserve"
   width="274.85416"
   height="131.16899"
   viewBox="0 0 274.85416 131.16899"
   sodipodi:docname="fly_bear.svg"
   inkscape:version="0.92.2 5c3e80d, 2017-08-06"><metadata
     id="metadata8"><rdf:RDF><cc:Work
         rdf:about=""><dc:format>image/svg+xml</dc:format><dc:type
           rdf:resource="http://purl.org/dc/dcmitype/StillImage" /><dc:title /></cc:Work></rdf:RDF></metadata><defs
     id="defs6" /><sodipodi:namedview
     pagecolor="#ffffff"
     bordercolor="#666666"
     borderopacity="1"
     objecttolerance="10"
     gridtolerance="10"
     guidetolerance="10"
     inkscape:pageopacity="0"
     inkscape:pageshadow="2"
     inkscape:window-width="640"
     inkscape:window-height="480"
     id="namedview4"
     showgrid="false"
     inkscape:zoom="9.3788269"
     inkscape:cx="172.83793"
     inkscape:cy="69.201971"
     inkscape:current-layer="g10"
     fit-margin-top="1"
     fit-margin-left="1"
     fit-margin-right="1"
     fit-margin-bottom="1" /><g
     id="g10"
     inkscape:groupmode="layer"
     inkscape:label="document"
     transform="matrix(1.3333333,0,0,-1.3333333,299.35677,142.61729)"><g
       id="g163"
       transform="matrix(-1,0,0,1,-242.89453,0)"><path
         sodipodi:nodetypes="cccccccccc"
         inkscape:connector-curvature="0"
         id="path139"
         d="M -19.126953,97.349609 -123.68236,106.21297 -223.76758,23.34375 c 16.46132,10.803609 27.64277,10.988325 37.62565,8.678669 10.1085,7.565377 18.8128,9.949993 30.12009,8.560448 9.34942,7.392657 22.54252,8.71479 34.24179,5.072858 5.90136,8.271827 15.56714,13.892085 29.803037,11.730984 5.23191,9.940482 13.09314,13.289984 26.94956,12.365091 2.47871,11.595736 13.65838,13.584063 25.3643,12.999198 1.66208,10.979558 20.5362,14.598611 20.5362,14.598611"
         style="fill:#40e0d0;fill-rule:evenodd;stroke:none;stroke-width:0.75px;stroke-linecap:butt;stroke-linejoin:miter;stroke-opacity:1" /><path
         sodipodi:nodetypes="cccccccccccc"
         inkscape:connector-curvature="0"
         d="m -156.02184,40.582867 32.33948,65.630103 -62.45957,-74.19055 c 8.97724,7.232817 17.13813,9.875765 30.12009,8.560447 z m 64.044827,16.803842 -31.705347,48.826261 1.90231,-60.557245 c 9.46902,11.5065 17.72034,12.872287 29.803037,11.730984 z m 52.31386,25.364289 -84.019207,23.461972 58.654907,-36.461169 c 5.07916,7.882637 7.56276,12.373221 25.3643,12.999197 z"
         style="fill:#20b2aa;fill-rule:evenodd;stroke:none;stroke-width:0.75px;stroke-linecap:butt;stroke-linejoin:miter;stroke-opacity:1"
         id="path145" /><g
         transform="translate(5.520392,17.705822)"
         id="g430" /><g
         transform="matrix(0.79622919,0.35966073,-0.35966073,0.79622919,-91.647088,15.566549)"
         id="g366"
         style="stroke-width:1.1445688"><path
           inkscape:connector-curvature="0"
           id="path368"
           style="fill:#86592d;fill-opacity:1;fill-rule:nonzero;stroke:none;stroke-width:1.1445688"
           d="m 15.59082,21.2601 c 0,10.17609 -6.98015,18.42523 -15.59082,18.42523 -8.61067,0 -15.59082,-8.24914 -15.59082,-18.42523 0,-10.1761 6.98015,-18.42525 15.59082,-18.42525 8.61067,0 15.59082,8.24915 15.59082,18.42525 z" /></g><g
         transform="matrix(0.79622919,0.35966073,-0.35966073,0.79622919,-91.647088,15.566549)"
         id="g370"
         style="stroke-width:1.1445688"><path
           inkscape:connector-curvature="0"
           id="path372"
           style="fill:#dfbf9f;fill-opacity:1;fill-rule:nonzero;stroke:none;stroke-width:1.1445688"
           d="m 9.92155,19.84267 c 0,6.26217 -4.44198,11.33854 -9.92155,11.33854 -5.47957,0 -9.92155,-5.07637 -9.92155,-11.33854 0,-6.2622 4.44198,-11.33855 9.92155,-11.33855 5.47957,0 9.92155,5.07635 9.92155,11.33855 z" /></g><g
         transform="matrix(0.79622919,0.35966073,-0.35966073,0.79622919,-91.647088,15.566549)"
         id="g374"
         style="stroke-width:1.1445688"><path
           inkscape:connector-curvature="0"
           id="path376"
           style="fill:#86592d;fill-opacity:1;fill-rule:nonzero;stroke:none;stroke-width:1.1445688"
           d="m 19.98453,8.50412 c 0,4.38356 -3.5535,7.93706 -7.93706,7.93706 -4.38356,0 -7.93706,-3.5535 -7.93706,-7.93706 0,-4.38358 3.5535,-7.93706 7.93706,-7.93706 4.38356,0 7.93706,3.55348 7.93706,7.93706 z" /></g><g
         transform="matrix(0.79622919,0.35966073,-0.35966073,0.79622919,-91.647088,15.566549)"
         id="g378"
         style="stroke-width:1.1445688"><path
           inkscape:connector-curvature="0"
           id="path380"
           style="fill:#86592d;fill-opacity:1;fill-rule:nonzero;stroke:none;stroke-width:1.1445688"
           d="m -4.11041,8.50412 c 0,4.38356 -3.5535,7.93706 -7.93706,7.93706 -4.38356,0 -7.93706,-3.5535 -7.93706,-7.93706 0,-4.38358 3.5535,-7.93706 7.93706,-7.93706 4.38356,0 7.93706,3.55348 7.93706,7.93706 z" /></g><g
         transform="matrix(0.79622919,0.35966073,-0.35966073,0.79622919,-91.647088,15.566549)"
         id="g382"
         style="stroke-width:1.1445688"><path
           inkscape:connector-curvature="0"
           id="path384"
           style="fill:#dfbf9f;fill-opacity:1;fill-rule:nonzero;stroke:none;stroke-width:1.1445688"
           d="m 16.86638,8.50412 c 0,2.66144 -2.15747,4.81891 -4.81891,4.81891 -2.66144,0 -4.81891,-2.15747 -4.81891,-4.81891 0,-2.66144 2.15747,-4.81891 4.81891,-4.81891 2.66144,0 4.81891,2.15747 4.81891,4.81891 z" /></g><g
         transform="matrix(0.79622919,0.35966073,-0.35966073,0.79622919,-91.647088,15.566549)"
         id="g386"
         style="stroke-width:1.1445688"><path
           inkscape:connector-curvature="0"
           id="path388"
           style="fill:#dfbf9f;fill-opacity:1;fill-rule:nonzero;stroke:none;stroke-width:1.1445688"
           d="m -7.22856,8.50412 c 0,2.66144 -2.15747,4.81891 -4.81891,4.81891 -2.66144,0 -4.81891,-2.15747 -4.81891,-4.81891 0,-2.66144 2.15747,-4.81891 4.81891,-4.81891 2.66144,0 4.81891,2.15747 4.81891,4.81891 z" /></g><g
         transform="matrix(0.79622919,0.35966073,-0.35966073,0.79622919,-91.647088,15.566549)"
         id="g390"
         style="stroke-width:1.1445688"><path
           inkscape:connector-curvature="0"
           id="path392"
           style="fill:#86592d;fill-opacity:1;fill-rule:nonzero;stroke:none;stroke-width:1.1445688"
           d="m 14.88188,55.27618 c 0,2.34826 -1.90359,4.25184 -4.25184,4.25184 -2.34826,0 -4.25185,-1.90358 -4.25185,-4.25184 0,-2.34825 1.90359,-4.25184 4.25185,-4.25184 2.34825,0 4.25184,1.90359 4.25184,4.25184 z" /></g><g
         transform="matrix(0.79622919,0.35966073,-0.35966073,0.79622919,-91.647088,15.566549)"
         id="g394"
         style="stroke-width:1.1445688"><path
           inkscape:connector-curvature="0"
           id="path396"
           style="fill:#86592d;fill-opacity:1;fill-rule:nonzero;stroke:none;stroke-width:1.1445688"
           d="m -6.37819,55.27618 c 0,2.34826 -1.90359,4.25184 -4.25185,4.25184 -2.34825,0 -4.25184,-1.90358 -4.25184,-4.25184 0,-2.34825 1.90359,-4.25184 4.25184,-4.25184 2.34826,0 4.25185,1.90359 4.25185,4.25184 z" /></g><g
         transform="matrix(0.79622919,0.35966073,-0.35966073,0.79622919,-91.647088,15.566549)"
         id="g398"
         style="stroke-width:1.1445688"><path
           inkscape:connector-curvature="0"
           id="path400"
           style="fill:#dfbf9f;fill-opacity:1;fill-rule:nonzero;stroke:none;stroke-width:1.1445688"
           d="m 13.46489,55.27618 c 0,1.56565 -1.26919,2.83484 -2.83485,2.83484 -1.56565,0 -2.83486,-1.26919 -2.83486,-2.83484 0,-1.56565 1.26921,-2.83485 2.83486,-2.83485 1.56566,0 2.83485,1.2692 2.83485,2.83485 z" /></g><g
         transform="matrix(0.79622919,0.35966073,-0.35966073,0.79622919,-91.647088,15.566549)"
         id="g402"
         style="stroke-width:1.1445688"><path
           inkscape:connector-curvature="0"
           id="path404"
           style="fill:#dfbf9f;fill-opacity:1;fill-rule:nonzero;stroke:none;stroke-width:1.1445688"
           d="m -7.79518,55.27618 c 0,1.56565 -1.26921,2.83484 -2.83486,2.83484 -1.56566,0 -2.83485,-1.26919 -2.83485,-2.83484 0,-1.56565 1.26919,-2.83485 2.83485,-2.83485 1.56565,0 2.83486,1.2692 2.83486,2.83485 z" /></g><g
         transform="matrix(0.79622919,0.35966073,-0.35966073,0.79622919,-91.647088,15.566549)"
         id="g406"
         style="stroke-width:1.1445688"><path
           inkscape:connector-curvature="0"
           id="path408"
           style="fill:#86592d;fill-opacity:1;fill-rule:nonzero;stroke:none;stroke-width:1.1445688"
           d="m 14.17339,43.93764 c 0,7.82785 -6.34555,14.17338 -14.17339,14.17338 -7.82784,0 -14.17339,-6.34553 -14.17339,-14.17338 0,-7.82785 6.34555,-14.1734 14.17339,-14.1734 7.82784,0 14.17339,6.34555 14.17339,14.1734 z" /></g><g
         transform="matrix(0.79622919,0.35966073,-0.35966073,0.79622919,-91.647088,15.566549)"
         id="g410"
         style="stroke-width:1.1445688"><path
           inkscape:connector-curvature="0"
           id="path412"
           style="fill:#dfbf9f;fill-opacity:1;fill-rule:nonzero;stroke:none;stroke-width:1.1445688"
           d="m 7.93706,39.68535 c 0,3.13109 -3.5535,5.66928 -7.93706,5.66928 -4.38356,0 -7.93706,-2.53819 -7.93706,-5.66928 0,-3.13109 3.5535,-5.66927 7.93706,-5.66927 4.38356,0 7.93706,2.53818 7.93706,5.66927 z" /></g><g
         transform="matrix(0.79622919,0.35966073,-0.35966073,0.79622919,-91.647088,15.566549)"
         id="g414"
         style="stroke-width:1.1445688"><path
           inkscape:connector-curvature="0"
           id="path416"
           style="fill:#db8561;fill-opacity:1;fill-rule:nonzero;stroke:none;stroke-width:1.1445688"
           d="m 4.25183,42.5202 c 0,1.25247 -1.90359,2.26778 -4.25183,2.26778 -2.34824,0 -4.25183,-1.01531 -4.25183,-2.26778 0,-1.25247 1.90359,-2.26779 4.25183,-2.26779 2.34824,0 4.25183,1.01532 4.25183,2.26779 z" /></g><g
         transform="matrix(0.79622919,0.35966073,-0.35966073,0.79622919,-91.647088,15.566549)"
         id="g418"
         style="stroke-width:1.1445688"><path
           inkscape:connector-curvature="0"
           id="path420"
           style="fill:#392613;fill-opacity:1;fill-rule:nonzero;stroke:none;stroke-width:1.1445688"
           d="m -2.97629,48.18947 c 0,0.78283 -0.63458,1.41742 -1.4174,1.41742 -0.78284,0 -1.41742,-0.63459 -1.41742,-1.41742 0,-0.78282 0.63458,-1.41742 1.41742,-1.41742 0.78282,0 1.4174,0.6346 1.4174,1.41742 z" /></g><g
         transform="matrix(0.79622919,0.35966073,-0.35966073,0.79622919,-91.647088,15.566549)"
         id="g422"
         style="stroke-width:1.1445688"><path
           inkscape:connector-curvature="0"
           id="path424"
           style="fill:#392613;fill-opacity:1;fill-rule:nonzero;stroke:none;stroke-width:1.1445688"
           d="m 5.81111,48.18947 c 0,0.78283 -0.63458,1.41742 -1.41742,1.41742 -0.78282,0 -1.4174,-0.63459 -1.4174,-1.41742 0,-0.78282 0.63458,-1.41742 1.4174,-1.41742 0.78284,0 1.41742,0.6346 1.41742,1.41742 z" /></g><g
         transform="matrix(0.79622919,0.35966073,-0.35966073,0.79622919,-91.647088,15.566549)"
         id="g426"
         style="stroke-width:1.1445688"><path
           inkscape:connector-curvature="0"
           id="path428"
           style="fill:none;stroke:#392613;stroke-width:0.45611066;stroke-linecap:butt;stroke-linejoin:miter;stroke-miterlimit:10;stroke-dasharray:none;stroke-opacity:1"
           d="m 4.1104,39.11873 c -0.8567,-2.35388 -3.45949,-3.56749 -5.81334,-2.71079 -1.25965,0.45848 -2.25231,1.45115 -2.7108,2.71079" /></g><path
         sodipodi:nodetypes="cccccccccccc"
         inkscape:connector-curvature="0"
         id="path133"
         d="m -131.74023,15.626953 57.968557,26.85289 54.64472,54.869766 -55.125,-51.492187 -42.083987,41.875 -15.62073,-68.453994 -91.81091,4.065322 z m 3.41963,4.523709 13.76976,61.571988 37.531247,-37.34375 z"
         style="color:#000000;font-style:normal;font-variant:normal;font-weight:normal;font-stretch:normal;font-size:medium;line-height:normal;font-family:sans-serif;font-variant-ligatures:normal;font-variant-position:normal;font-variant-caps:normal;font-variant-numeric:normal;font-variant-alternates:normal;font-feature-settings:normal;text-indent:0;text-align:start;text-decoration:none;text-decoration-line:none;text-decoration-style:solid;text-decoration-color:#000000;letter-spacing:normal;word-spacing:normal;text-transform:none;writing-mode:lr-tb;direction:ltr;text-orientation:mixed;dominant-baseline:auto;baseline-shift:baseline;text-anchor:start;white-space:normal;shape-padding:0;clip-rule:nonzero;display:inline;overflow:visible;visibility:visible;opacity:1;isolation:auto;mix-blend-mode:normal;color-interpolation:sRGB;color-interpolation-filters:linearRGB;solid-color:#000000;solid-opacity:1;vector-effect:none;fill:#808080;fill-opacity:1;fill-rule:evenodd;stroke:none;stroke-width:3;stroke-linecap:butt;stroke-linejoin:miter;stroke-miterlimit:4;stroke-dasharray:none;stroke-dashoffset:0;stroke-opacity:1;color-rendering:auto;image-rendering:auto;shape-rendering:auto;text-rendering:auto;enable-background:accumulate" /><g
         transform="matrix(0.79622919,0.35966073,-0.35966073,0.79622919,-91.647088,15.566549)"
         id="g358"
         style="stroke-width:1.1445688"><path
           inkscape:connector-curvature="0"
           id="path360"
           style="fill:#86592d;fill-opacity:1;fill-rule:nonzero;stroke:none;stroke-width:1.1445688"
           d="m 21.25938,17.91167 c 1.79883,1.50943 0.40178,6.13575 -3.12043,10.33331 -3.52222,4.19756 -7.83571,6.37666 -9.63454,4.86723 -1.79884,-1.50943 -0.40179,-6.13575 3.12042,-10.33331 3.52223,-4.19756 7.83571,-6.37668 9.63455,-4.86723 z" /></g><g
         transform="matrix(0.79622919,0.35966073,-0.35966073,0.79622919,-91.647088,15.566549)"
         id="g362"
         style="stroke-width:1.1445688"><path
           inkscape:connector-curvature="0"
           id="path364"
           style="fill:#86592d;fill-opacity:1;fill-rule:nonzero;stroke:none;stroke-width:1.1445688"
           d="m -8.50441,33.11221 c -1.79883,1.50943 -6.11232,-0.66967 -9.63454,-4.86723 -3.52221,-4.19756 -4.91926,-8.82388 -3.12043,-10.33331 1.79884,-1.50945 6.11232,0.66967 9.63455,4.86723 3.52221,4.19756 4.91926,8.82388 3.12042,10.33331 z" /></g></g></g></svg>