<?xml version="1.0" encoding="UTF-8" standalone="no"?>
<!-- Created with Inkscape (http://www.inkscape.org/) -->

<svg
   xmlns:dc="http://purl.org/dc/elements/1.1/"
   xmlns:cc="http://creativecommons.org/ns#"
   xmlns:rdf="http://www.w3.org/1999/02/22-rdf-syntax-ns#"
   xmlns:svg="http://www.w3.org/2000/svg"
   xmlns="http://www.w3.org/2000/svg"
   xmlns:sodipodi="http://sodipodi.sourceforge.net/DTD/sodipodi-0.dtd"
   xmlns:inkscape="http://www.inkscape.org/namespaces/inkscape"
   version="1.1"
   id="svg2"
   xml:space="preserve"
   width="274.85416"
   height="131.16899"
   viewBox="0 0 274.85416 131.16899"
   sodipodi:docname="fly_pingu.svg"
   inkscape:version="0.92.2 5c3e80d, 2017-08-06"><metadata
     id="metadata8"><rdf:RDF><cc:Work
         rdf:about=""><dc:format>image/svg+xml</dc:format><dc:type
           rdf:resource="http://purl.org/dc/dcmitype/StillImage" /><dc:title /></cc:Work></rdf:RDF></metadata><defs
     id="defs6" /><sodipodi:namedview
     pagecolor="#ffffff"
     bordercolor="#666666"
     borderopacity="1"
     objecttolerance="10"
     gridtolerance="10"
     guidetolerance="10"
     inkscape:pageopacity="0"
     inkscape:pageshadow="2"
     inkscape:window-width="640"
     inkscape:window-height="480"
     id="namedview4"
     showgrid="false"
     inkscape:zoom="9.3788269"
     inkscape:cx="172.83793"
     inkscape:cy="69.201971"
     inkscape:current-layer="g10"
     fit-margin-top="1"
     fit-margin-left="1"
     fit-margin-right="1"
     fit-margin-bottom="1" /><g
     id="g10"
     inkscape:groupmode="layer"
     inkscape:label="document"
     transform="matrix(1.3333333,0,0,-1.3333333,299.35677,142.61729)"><g
       id="g102"
       transform="matrix(-1,0,0,1,-242.89453,0)"><path
         sodipodi:nodetypes="cccccccccc"
         inkscape:connector-curvature="0"
         id="path139"
         d="m -223.76758,97.349609 104.55541,8.863361 100.085217,-82.86922 c -16.461324,10.803609 -27.642767,10.988325 -37.625645,8.678669 -10.108503,7.565377 -18.812804,9.949993 -30.120092,8.560448 -9.349423,7.392657 -22.54252,8.71479 -34.24179,5.072858 -5.90136,8.271827 -15.56714,13.892085 -29.80304,11.730984 -5.23191,9.940482 -13.09314,13.289984 -26.94956,12.365091 -2.47871,11.595736 -13.65838,13.584063 -25.3643,12.999198 -1.66208,10.979558 -20.5362,14.598611 -20.5362,14.598611"
         style="fill:#9370db;fill-rule:evenodd;stroke:none;stroke-width:0.75px;stroke-linecap:butt;stroke-linejoin:miter;stroke-opacity:1" /><path
         sodipodi:nodetypes="cccccccccccc"
         inkscape:connector-curvature="0"
         d="m -86.87269,40.582867 -32.33948,65.630103 62.459572,-74.19055 c -8.977249,7.232817 -17.138136,9.875765 -30.120092,8.560447 z m -64.04483,16.803842 31.70535,48.826261 -1.90231,-60.557245 c -9.46902,11.5065 -17.72034,12.872287 -29.80304,11.730984 z m -52.31386,25.364289 84.01921,23.461972 -58.65491,-36.461169 c -5.07916,7.882637 -7.56276,12.373221 -25.3643,12.999197 z"
         style="fill:#dda0dd;fill-rule:evenodd;stroke:none;stroke-width:0.75px;stroke-linecap:butt;stroke-linejoin:miter;stroke-opacity:1"
         id="path145" /><g
         transform="matrix(0.79139408,-0.37042457,0.37042457,0.79139408,-152.62432,11.147519)"
         style="stroke-width:1.14443231"
         id="g28"><path
           inkscape:connector-curvature="0"
           id="path30"
           style="fill:#000000;fill-opacity:1;fill-rule:nonzero;stroke:none;stroke-width:1.14443231"
           d="M 16.86638,26.079 C 16.86638,7.37 10.06299,5.1022 0,5.1022 -10.06299,5.1022 -16.86638,7.37 -16.86638,26.079 -17.14967,44.788 -9.49635,59.81177 0,59.81177 9.49635,59.81177 17.14967,44.788 16.86638,26.079 Z" /></g><g
         transform="matrix(0.79139408,-0.37042457,0.37042457,0.79139408,-152.62432,11.147519)"
         style="stroke-width:1.14443231"
         id="g32"><path
           inkscape:connector-curvature="0"
           id="path34"
           style="fill:#f2f2f2;fill-opacity:1;fill-rule:nonzero;stroke:none;stroke-width:1.14443231"
           d="m 13.60632,17.00824 c 0,5.47958 -6.09167,9.92156 -13.60632,9.92156 -7.51465,0 -13.60632,-4.44198 -13.60632,-9.92156 0,-5.47958 6.09167,-9.92155 13.60632,-9.92155 7.51465,0 13.60632,4.44197 13.60632,9.92155 z" /></g><g
         transform="matrix(0.79139408,-0.37042457,0.37042457,0.79139408,-152.62432,11.147519)"
         style="stroke-width:1.14443231"
         id="g36"><path
           inkscape:connector-curvature="0"
           id="path38"
           style="fill:#fbbc09;fill-opacity:1;fill-rule:nonzero;stroke:none;stroke-width:1.14443231"
           d="m -7.51187,11.17157 c -0.51041,1.59866 -3.06151,5.87602 -5.81116,7.34753 -2.86296,1.53638 -3.00484,-0.46498 -2.3811,-1.62461 0.7937,-1.54201 -0.53852,-1.8651 -1.36078,-1.63239 -2.63631,0.76256 -4.67703,-0.60945 -2.32446,-2.95944 0.56706,-0.57572 2.74965,-2.21979 -0.42519,-2.40404 -2.06926,-0.11896 -2.26778,-2.30154 0.28376,-2.96765 2.60777,-0.67778 6.03779,-1.13974 9.893,-0.98966 2.49444,0.09951 2.91963,2.72977 2.12593,5.23026 z" /></g><g
         transform="matrix(0.79139408,-0.37042457,0.37042457,0.79139408,-152.62432,11.147519)"
         style="stroke-width:1.14443231"
         id="g40"><path
           inkscape:connector-curvature="0"
           id="path42"
           style="fill:#fbbc09;fill-opacity:1;fill-rule:nonzero;stroke:none;stroke-width:1.14443231"
           d="m 7.51187,11.17157 c 0.51041,1.59866 3.04723,5.87602 5.78261,7.34753 2.89151,1.53638 3.02212,-0.46498 2.40965,-1.62461 -0.7937,-1.54201 0.54717,-1.8651 1.36078,-1.63239 2.63631,0.76256 4.68265,-0.60945 2.32446,-2.95944 C 18.79376,11.72694 16.63972,10.08287 19.81456,9.89862 21.88382,9.77966 22.07932,7.59708 19.5308,6.93097 16.92303,6.25319 13.50426,5.79123 9.6378,5.94131 7.14336,6.04082 6.71255,8.67108 7.51187,11.17157 Z" /></g><g
         transform="matrix(0.79139408,-0.37042457,0.37042457,0.79139408,-152.62432,11.147519)"
         style="stroke-width:1.14443231"
         id="g44"><path
           inkscape:connector-curvature="0"
           id="path46"
           style="fill:#f2f2f2;fill-opacity:1;fill-rule:nonzero;stroke:none;stroke-width:1.14443231"
           d="m -2.16896,45.99648 c 0.40774,2.31259 -0.51163,4.40768 -2.0535,4.67953 -1.54188,0.27187 -3.12236,-1.38243 -3.5301,-3.69502 -0.40775,-2.31258 0.51162,-4.40767 2.05349,-4.67954 1.54189,-0.27185 3.12237,1.38245 3.53011,3.69503 z" /></g><g
         transform="matrix(0.79139408,-0.37042457,0.37042457,0.79139408,-152.62432,11.147519)"
         style="stroke-width:1.14443231"
         id="g48"><path
           inkscape:connector-curvature="0"
           id="path50"
           style="fill:#000000;fill-opacity:1;fill-rule:nonzero;stroke:none;stroke-width:1.14443231"
           d="m -3.09966,46.01059 c 0.05848,1.11621 -0.3466,2.04477 -0.90483,2.07402 -0.55821,0.02925 -1.05816,-0.85188 -1.11663,-1.96809 -0.05849,-1.11622 0.3466,-2.04477 0.90481,-2.07402 0.55821,-0.02926 1.05817,0.85188 1.11665,1.96809 z" /></g><g
         transform="matrix(0.79139408,-0.37042457,0.37042457,0.79139408,-152.62432,11.147519)"
         style="stroke-width:1.14443231"
         id="g52"><path
           inkscape:connector-curvature="0"
           id="path54"
           style="fill:#f2f2f2;fill-opacity:1;fill-rule:nonzero;stroke:none;stroke-width:1.14443231"
           d="M 7.75256,46.98099 C 7.34482,49.29358 5.76434,50.94788 4.22246,50.67601 2.68059,50.40416 1.76122,48.30907 2.16896,45.99648 2.5767,43.6839 4.15718,42.0296 5.69907,42.30145 c 1.54187,0.27187 2.46124,2.36696 2.05349,4.67954 z" /></g><g
         transform="matrix(0.79139408,-0.37042457,0.37042457,0.79139408,-152.62432,11.147519)"
         style="stroke-width:1.14443231"
         id="g56"><path
           inkscape:connector-curvature="0"
           id="path58"
           style="fill:#000000;fill-opacity:1;fill-rule:nonzero;stroke:none;stroke-width:1.14443231"
           d="M 5.12112,46.11652 C 5.06265,47.23273 4.5627,48.11386 4.00449,48.08461 3.44626,48.05536 3.04118,47.1268 3.09966,46.01059 3.15814,44.89438 3.6581,44.01324 4.21631,44.0425 c 0.55821,0.02925 0.9633,0.9578 0.90481,2.07402 z" /></g><g
         transform="matrix(0.79139408,-0.37042457,0.37042457,0.79139408,-152.62432,11.147519)"
         style="stroke-width:1.14443231"
         id="g60"><path
           inkscape:connector-curvature="0"
           id="path62"
           style="fill:#ff8000;fill-opacity:1;fill-rule:nonzero;stroke:none;stroke-width:1.14443231"
           d="M 9.15594,41.36101 C 4.1584,37.57932 3.02168,40.71999 0,40.7005 c -3.02168,0.01949 -4.1584,-3.12118 -9.15594,0.66051 5.56459,-10.88829 12.74729,-10.88829 18.31188,0 z" /></g><path
         sodipodi:nodetypes="cccccccccccc"
         inkscape:connector-curvature="0"
         id="path133"
         d="m -111.1543,15.626953 -57.96856,26.85289 -54.64472,54.869766 55.125,-51.492187 42.08399,41.875 15.62073,-68.453994 91.810907,4.065322 z m -3.41963,4.523709 -13.76976,61.571988 -37.53125,-37.34375 z"
         style="color:#000000;font-style:normal;font-variant:normal;font-weight:normal;font-stretch:normal;font-size:medium;line-height:normal;font-family:sans-serif;font-variant-ligatures:normal;font-variant-position:normal;font-variant-caps:normal;font-variant-numeric:normal;font-variant-alternates:normal;font-feature-settings:normal;text-indent:0;text-align:start;text-decoration:none;text-decoration-line:none;text-decoration-style:solid;text-decoration-color:#000000;letter-spacing:normal;word-spacing:normal;text-transform:none;writing-mode:lr-tb;direction:ltr;text-orientation:mixed;dominant-baseline:auto;baseline-shift:baseline;text-anchor:start;white-space:normal;shape-padding:0;clip-rule:nonzero;display:inline;overflow:visible;visibility:visible;opacity:1;isolation:auto;mix-blend-mode:normal;color-interpolation:sRGB;color-interpolation-filters:linearRGB;solid-color:#000000;solid-opacity:1;vector-effect:none;fill:#808080;fill-opacity:1;fill-rule:evenodd;stroke:none;stroke-width:3;stroke-linecap:butt;stroke-linejoin:miter;stroke-miterlimit:4;stroke-dasharray:none;stroke-dashoffset:0;stroke-opacity:1;color-rendering:auto;image-rendering:auto;shape-rendering:auto;text-rendering:auto;enable-background:accumulate" /><g
         transform="matrix(0.79139408,-0.37042457,0.37042457,0.79139408,-152.62432,11.147519)"
         style="stroke-width:1.14443231"
         id="g20"><path
           inkscape:connector-curvature="0"
           id="path22"
           style="fill:#000000;fill-opacity:1;fill-rule:nonzero;stroke:none;stroke-width:1.14443231"
           d="m 23.2234,25.76439 c 1.19934,1.00639 -0.92839,5.51657 -4.7525,10.0739 -3.82413,4.55732 -7.89633,7.43585 -9.09569,6.42947 -1.19934,-1.00639 0.92839,-5.51657 4.75251,-10.0739 3.82412,-4.55732 7.89634,-7.43585 9.09568,-6.42947 z" /></g><g
         transform="matrix(0.79139408,-0.37042457,0.37042457,0.79139408,-152.62432,11.147519)"
         style="stroke-width:1.14443231"
         id="g24"><path
           inkscape:connector-curvature="0"
           id="path26"
           style="fill:#000000;fill-opacity:1;fill-rule:nonzero;stroke:none;stroke-width:1.14443231"
           d="m -9.37521,42.26776 c -1.19936,1.00638 -5.27156,-1.87215 -9.09569,-6.42947 -3.82411,-4.55733 -5.95184,-9.06751 -4.7525,-10.0739 1.19934,-1.00638 5.27156,1.87215 9.09568,6.42947 3.82412,4.55733 5.95185,9.06751 4.75251,10.0739 z" /></g></g></g></svg>