<?xml version="1.0" encoding="UTF-8" standalone="no"?>
<!-- Created with Inkscape (http://www.inkscape.org/) -->

<svg
   xmlns:dc="http://purl.org/dc/elements/1.1/"
   xmlns:cc="http://creativecommons.org/ns#"
   xmlns:rdf="http://www.w3.org/1999/02/22-rdf-syntax-ns#"
   xmlns:svg="http://www.w3.org/2000/svg"
   xmlns="http://www.w3.org/2000/svg"
   xmlns:sodipodi="http://sodipodi.sourceforge.net/DTD/sodipodi-0.dtd"
   xmlns:inkscape="http://www.inkscape.org/namespaces/inkscape"
   version="1.1"
   id="svg2"
   xml:space="preserve"
   width="61.488003"
   height="80.503998"
   viewBox="0 0 61.488003 80.503998"
   sodipodi:docname="Latex3_bear.svg"
   inkscape:version="0.92.2 5c3e80d, 2017-08-06"><metadata
     id="metadata8"><rdf:RDF><cc:Work
         rdf:about=""><dc:format>image/svg+xml</dc:format><dc:type
           rdf:resource="http://purl.org/dc/dcmitype/StillImage" /><dc:title></dc:title></cc:Work></rdf:RDF></metadata><defs
     id="defs6" /><sodipodi:namedview
     pagecolor="#ffffff"
     bordercolor="#666666"
     borderopacity="1"
     objecttolerance="10"
     gridtolerance="10"
     guidetolerance="10"
     inkscape:pageopacity="0"
     inkscape:pageshadow="2"
     inkscape:window-width="640"
     inkscape:window-height="480"
     id="namedview4"
     showgrid="false"
     inkscape:zoom="10.111493"
     inkscape:cx="30.744001"
     inkscape:cy="39.510269"
     inkscape:current-layer="g10" /><g
     id="g10"
     inkscape:groupmode="layer"
     inkscape:label="Latex3_bear"
     transform="matrix(1.3333333,0,0,-1.3333333,0,80.503997)"><g
       id="g12"><path
         d="m 44.316,17.913 c 1.801,1.508 0.403,6.133 -3.121,10.332 -3.519,4.199 -7.836,6.375 -9.633,4.867 -1.8,-1.507 -0.402,-6.136 3.122,-10.332 3.519,-4.199 7.836,-6.379 9.632,-4.867 z"
         style="fill:#86592d;fill-opacity:1;fill-rule:nonzero;stroke:none"
         id="path14"
         inkscape:connector-curvature="0" /><path
         d="M 14.555,33.112 C 12.754,34.62 8.441,32.444 4.918,28.245 1.398,24.046 0,19.421 1.797,17.913 c 1.801,-1.512 6.113,0.668 9.637,4.867 3.523,4.196 4.918,8.825 3.121,10.332 z"
         style="fill:#86592d;fill-opacity:1;fill-rule:nonzero;stroke:none"
         id="path16"
         inkscape:connector-curvature="0" /><path
         d="m 38.648,21.261 c 0,10.176 -6.98,18.426 -15.589,18.426 -8.61,0 -15.59,-8.25 -15.59,-18.426 0,-10.176 6.98,-18.426 15.59,-18.426 8.609,0 15.589,8.25 15.589,18.426 z"
         style="fill:#86592d;fill-opacity:1;fill-rule:nonzero;stroke:none"
         id="path18"
         inkscape:connector-curvature="0" /><path
         d="m 32.98,19.843 c 0,6.262 -4.441,11.34 -9.921,11.34 -5.481,0 -9.922,-5.078 -9.922,-11.34 0,-6.262 4.441,-11.34 9.922,-11.34 5.48,0 9.921,5.078 9.921,11.34 z"
         style="fill:#dfbf9f;fill-opacity:1;fill-rule:nonzero;stroke:none"
         id="path20"
         inkscape:connector-curvature="0" /><path
         d="m 37.941,55.276 c 0,2.348 -1.906,4.25 -4.253,4.25 -2.348,0 -4.25,-1.902 -4.25,-4.25 0,-2.347 1.902,-4.253 4.25,-4.253 2.347,0 4.253,1.906 4.253,4.253 z"
         style="fill:#86592d;fill-opacity:1;fill-rule:nonzero;stroke:none"
         id="path22"
         inkscape:connector-curvature="0" /><path
         d="m 16.68,55.276 c 0,2.348 -1.903,4.25 -4.25,4.25 -2.352,0 -4.254,-1.902 -4.254,-4.25 0,-2.347 1.902,-4.253 4.254,-4.253 2.347,0 4.25,1.906 4.25,4.253 z"
         style="fill:#86592d;fill-opacity:1;fill-rule:nonzero;stroke:none"
         id="path24"
         inkscape:connector-curvature="0" /><path
         d="m 36.523,55.276 c 0,1.567 -1.269,2.836 -2.835,2.836 -1.567,0 -2.836,-1.269 -2.836,-2.836 0,-1.566 1.269,-2.836 2.836,-2.836 1.566,0 2.835,1.27 2.835,2.836 z"
         style="fill:#dfbf9f;fill-opacity:1;fill-rule:nonzero;stroke:none"
         id="path26"
         inkscape:connector-curvature="0" /><path
         d="m 15.262,55.276 c 0,1.567 -1.27,2.836 -2.832,2.836 -1.567,0 -2.836,-1.269 -2.836,-2.836 0,-1.566 1.269,-2.836 2.836,-2.836 1.562,0 2.832,1.27 2.832,2.836 z"
         style="fill:#dfbf9f;fill-opacity:1;fill-rule:nonzero;stroke:none"
         id="path28"
         inkscape:connector-curvature="0" /><path
         d="m 37.23,43.937 c 0,7.828 -6.343,14.175 -14.171,14.175 -7.829,0 -14.176,-6.347 -14.176,-14.175 0,-7.829 6.347,-14.172 14.176,-14.172 7.828,0 14.171,6.343 14.171,14.172 z"
         style="fill:#86592d;fill-opacity:1;fill-rule:nonzero;stroke:none"
         id="path30"
         inkscape:connector-curvature="0" /><path
         d="m 30.996,39.687 c 0,3.128 -3.555,5.668 -7.937,5.668 -4.383,0 -7.938,-2.54 -7.938,-5.668 0,-3.133 3.555,-5.672 7.938,-5.672 4.382,0 7.937,2.539 7.937,5.672 z"
         style="fill:#dfbf9f;fill-opacity:1;fill-rule:nonzero;stroke:none"
         id="path32"
         inkscape:connector-curvature="0" /><path
         d="m 27.309,42.519 c 0,1.254 -1.903,2.269 -4.25,2.269 -2.348,0 -4.254,-1.015 -4.254,-2.269 0,-1.25 1.906,-2.266 4.254,-2.266 2.347,0 4.25,1.016 4.25,2.266 z"
         style="fill:#db8561;fill-opacity:1;fill-rule:nonzero;stroke:none"
         id="path34"
         inkscape:connector-curvature="0" /><path
         d="m 20.082,48.19 c 0,0.782 -0.637,1.418 -1.418,1.418 -0.781,0 -1.418,-0.636 -1.418,-1.418 0,-0.785 0.637,-1.417 1.418,-1.417 0.781,0 1.418,0.632 1.418,1.417 z"
         style="fill:#392613;fill-opacity:1;fill-rule:nonzero;stroke:none"
         id="path36"
         inkscape:connector-curvature="0" /><path
         d="m 28.867,48.19 c 0,0.782 -0.633,1.418 -1.414,1.418 -0.785,0 -1.418,-0.636 -1.418,-1.418 0,-0.785 0.633,-1.417 1.418,-1.417 0.781,0 1.414,0.632 1.414,1.417 z"
         style="fill:#392613;fill-opacity:1;fill-rule:nonzero;stroke:none"
         id="path38"
         inkscape:connector-curvature="0" /><path
         d="m 27.168,39.12 c -0.856,-2.355 -3.461,-3.57 -5.813,-2.711 -1.261,0.457 -2.253,1.449 -2.71,2.711 h 0.445 c 0.769,-2.121 3.113,-3.211 5.23,-2.441 1.133,0.414 2.028,1.304 2.442,2.441 z"
         style="fill:#392613;fill-opacity:1;fill-rule:nonzero;stroke:none"
         id="path40"
         inkscape:connector-curvature="0" /><path
         d="m 7.48,19.292 -5.906,6.82 c 0,0 4.899,6.758 10.5,8.793 6.91,-7.414 17.461,-4.293 22.043,0 5.633,-2.269 10.367,-9.972 10.367,-9.972 L 38.711,19.421 38.055,12.073 8.137,11.679 Z"
         style="fill:#dcdcdc;fill-opacity:1;fill-rule:evenodd;stroke:none"
         id="path42"
         inkscape:connector-curvature="0" /><path
         d="m 43.043,8.503 c 0,4.383 -3.555,7.937 -7.938,7.937 -4.382,0 -7.937,-3.554 -7.937,-7.937 0,-4.383 3.555,-7.938 7.937,-7.938 4.383,0 7.938,3.555 7.938,7.938 z"
         style="fill:#86592d;fill-opacity:1;fill-rule:nonzero;stroke:none"
         id="path44"
         inkscape:connector-curvature="0" /><path
         d="m 18.949,8.503 c 0,4.383 -3.554,7.937 -7.937,7.937 -4.383,0 -7.938,-3.554 -7.938,-7.937 0,-4.383 3.555,-7.938 7.938,-7.938 4.383,0 7.937,3.555 7.937,7.938 z"
         style="fill:#86592d;fill-opacity:1;fill-rule:nonzero;stroke:none"
         id="path46"
         inkscape:connector-curvature="0" /><path
         d="m 39.926,8.503 c 0,2.664 -2.16,4.82 -4.821,4.82 -2.66,0 -4.82,-2.156 -4.82,-4.82 0,-2.66 2.16,-4.816 4.82,-4.816 2.661,0 4.821,2.156 4.821,4.816 z"
         style="fill:#dfbf9f;fill-opacity:1;fill-rule:nonzero;stroke:none"
         id="path48"
         inkscape:connector-curvature="0" /><path
         d="m 15.828,8.503 c 0,2.664 -2.156,4.82 -4.816,4.82 -2.664,0 -4.821,-2.156 -4.821,-4.82 0,-2.66 2.157,-4.816 4.821,-4.816 2.66,0 4.816,2.156 4.816,4.816 z"
         style="fill:#dfbf9f;fill-opacity:1;fill-rule:nonzero;stroke:none"
         id="path50"
         inkscape:connector-curvature="0" /><path
         d="m 27.008,23.858 0.058,0.008 v 0.426 l -0.05,0.004 v 0.035 h 0.082 c 0.007,0 0.011,0 0.023,0 0.008,0 0.016,0.004 0.027,0.004 0.012,0 0.02,0 0.032,0 0.011,0 0.023,0 0.035,0 0.023,0 0.047,0 0.066,-0.004 0.024,-0.008 0.039,-0.016 0.055,-0.027 0.016,-0.012 0.027,-0.028 0.035,-0.047 0.008,-0.016 0.012,-0.043 0.012,-0.07 0,-0.02 -0.004,-0.036 -0.008,-0.051 -0.004,-0.012 -0.012,-0.028 -0.02,-0.039 -0.007,-0.012 -0.019,-0.024 -0.031,-0.032 -0.012,-0.011 -0.023,-0.019 -0.039,-0.023 -0.012,-0.008 -0.027,-0.012 -0.043,-0.016 -0.015,-0.003 -0.031,-0.003 -0.047,-0.003 -0.015,0 -0.027,0 -0.039,0 -0.011,0 -0.019,0 -0.027,0 v -0.157 l 0.09,-0.008 v -0.027 h -0.211 v 0.027 m 0.121,0.2 c 0.016,0 0.023,0 0.035,-0.004 0.012,0 0.02,0 0.031,0 0.012,0 0.02,0.004 0.032,0.004 0.007,0 0.019,0.004 0.027,0.007 0.012,0.004 0.019,0.008 0.027,0.012 0.008,0.008 0.012,0.016 0.02,0.028 0.004,0.007 0.011,0.019 0.011,0.031 0.004,0.015 0.008,0.031 0.008,0.051 0,0.039 -0.011,0.066 -0.035,0.086 -0.023,0.019 -0.055,0.027 -0.094,0.027 -0.011,0 -0.023,0 -0.031,0 -0.012,0 -0.019,-0.004 -0.031,-0.004 v -0.238"
         style="fill:#000000;fill-opacity:1;fill-rule:nonzero;stroke:none"
         id="path52"
         inkscape:connector-curvature="0" /><path
         d="m 27.434,23.858 0.05,0.004 v 0.266 l -0.043,0.023 v 0.02 l 0.086,0.027 0.012,-0.008 v -0.046 c 0.008,0.004 0.012,0.011 0.02,0.015 0.007,0.008 0.019,0.016 0.027,0.02 0.012,0.004 0.023,0.011 0.035,0.015 0.012,0 0.02,0.004 0.031,0.004 0.008,0 0.012,0 0.02,0 0.004,0 0.008,0 0.012,-0.004 v -0.066 c -0.004,0.004 -0.008,0.004 -0.012,0.004 -0.004,0.004 -0.008,0.004 -0.012,0.004 -0.004,0.004 -0.008,0.004 -0.015,0.004 -0.004,0 -0.012,0 -0.02,0 -0.016,0 -0.031,0 -0.043,-0.008 -0.012,-0.004 -0.023,-0.008 -0.031,-0.016 v -0.25 l 0.09,-0.008 v -0.027 h -0.207 v 0.027"
         style="fill:#000000;fill-opacity:1;fill-rule:nonzero;stroke:none"
         id="path54"
         inkscape:connector-curvature="0" /><path
         d="m 27.73,24.019 c 0,0.027 0.004,0.054 0.016,0.078 0.008,0.019 0.02,0.039 0.035,0.054 0.016,0.016 0.035,0.032 0.055,0.039 0.023,0.008 0.043,0.012 0.066,0.012 0.028,0 0.051,-0.004 0.071,-0.015 0.019,-0.008 0.039,-0.024 0.05,-0.039 0.012,-0.016 0.024,-0.036 0.032,-0.059 0.004,-0.024 0.007,-0.047 0.007,-0.074 0,-0.028 -0.003,-0.055 -0.015,-0.078 -0.008,-0.024 -0.02,-0.043 -0.035,-0.063 -0.016,-0.016 -0.032,-0.027 -0.055,-0.039 -0.019,-0.008 -0.039,-0.012 -0.062,-0.012 -0.032,0 -0.055,0.004 -0.079,0.016 -0.019,0.012 -0.035,0.023 -0.05,0.043 -0.012,0.019 -0.024,0.039 -0.028,0.062 -0.008,0.024 -0.008,0.047 -0.008,0.075 m 0.165,-0.161 c 0.019,0 0.035,0.004 0.046,0.008 0.016,0.008 0.024,0.02 0.032,0.032 0.007,0.011 0.015,0.027 0.019,0.046 0,0.02 0.004,0.043 0.004,0.067 0,0.023 -0.004,0.043 -0.008,0.062 0,0.02 -0.008,0.035 -0.015,0.051 -0.008,0.012 -0.02,0.024 -0.032,0.031 -0.011,0.008 -0.027,0.012 -0.043,0.012 -0.019,0 -0.035,0 -0.046,-0.008 -0.012,-0.008 -0.024,-0.015 -0.032,-0.031 -0.008,-0.012 -0.015,-0.027 -0.019,-0.043 -0.004,-0.02 -0.004,-0.039 -0.004,-0.062 0,-0.024 0,-0.043 0.004,-0.063 0.004,-0.02 0.011,-0.035 0.019,-0.051 0.008,-0.015 0.02,-0.027 0.032,-0.035 0.011,-0.012 0.027,-0.016 0.043,-0.016"
         style="fill:#000000;fill-opacity:1;fill-rule:nonzero;stroke:none"
         id="path56"
         inkscape:connector-curvature="0" /><path
         d="m 28.199,24.284 c -0.004,0 -0.011,0 -0.015,0.004 -0.004,0 -0.008,0.004 -0.012,0.008 -0.004,0 -0.008,0.004 -0.012,0.012 0,0.004 0,0.007 0,0.015 0,0.008 0,0.012 0.004,0.02 0,0.004 0.004,0.012 0.012,0.015 0.004,0.004 0.008,0.008 0.015,0.008 0.004,0.004 0.008,0.004 0.016,0.004 0.016,0 0.023,-0.004 0.031,-0.012 0.008,-0.007 0.008,-0.015 0.008,-0.027 0,-0.008 0,-0.016 -0.004,-0.019 0,-0.008 -0.004,-0.012 -0.008,-0.016 -0.007,-0.004 -0.011,-0.008 -0.015,-0.008 -0.008,-0.004 -0.012,-0.004 -0.02,-0.004 m -0.015,-0.156 -0.047,0.023 v 0.02 l 0.093,0.027 0.012,-0.008 v -0.367 c 0,-0.023 0,-0.047 -0.008,-0.066 -0.004,-0.02 -0.011,-0.035 -0.023,-0.051 -0.008,-0.012 -0.023,-0.023 -0.035,-0.031 -0.016,-0.008 -0.031,-0.012 -0.051,-0.012 0,0 -0.004,0 -0.008,0 -0.004,0 -0.008,0 -0.012,0 -0.003,0.004 -0.003,0.004 -0.007,0.004 -0.004,0 -0.004,0 -0.008,0 v 0.047 c 0.004,0 0.004,-0.004 0.008,-0.004 0.004,0 0.007,0 0.011,0 0.004,0 0.008,0 0.008,0 0.004,0 0.008,0 0.008,0 0.012,0 0.02,0 0.027,0.004 0.008,0.004 0.016,0.012 0.02,0.023 0.004,0.008 0.008,0.02 0.008,0.036 0.004,0.015 0.004,0.035 0.004,0.058 v 0.297"
         style="fill:#000000;fill-opacity:1;fill-rule:nonzero;stroke:none"
         id="path58"
         inkscape:connector-curvature="0" /><path
         d="m 28.336,24.011 c 0,0.027 0.004,0.051 0.016,0.074 0.007,0.023 0.019,0.043 0.035,0.063 0.015,0.015 0.035,0.027 0.054,0.039 0.024,0.007 0.047,0.015 0.075,0.015 0.019,0 0.035,-0.004 0.05,-0.008 0.016,-0.007 0.028,-0.015 0.039,-0.027 0.012,-0.012 0.02,-0.023 0.028,-0.043 0.004,-0.016 0.008,-0.035 0.008,-0.055 0.004,-0.015 0,-0.027 0,-0.035 0,-0.011 0,-0.019 -0.004,-0.027 h -0.239 c 0,-0.004 0,-0.004 0,-0.004 0,0 0,-0.004 0,-0.004 0,-0.027 0.008,-0.047 0.016,-0.066 0.008,-0.016 0.016,-0.028 0.027,-0.039 0.012,-0.012 0.028,-0.016 0.039,-0.02 0.016,-0.004 0.032,-0.008 0.043,-0.008 0.008,0 0.02,0 0.028,0 0.008,0.004 0.019,0.004 0.027,0.004 0.008,0.004 0.016,0.008 0.024,0.008 0.007,0.004 0.015,0.004 0.019,0.008 l 0.012,-0.028 c -0.008,-0.003 -0.016,-0.011 -0.028,-0.015 -0.007,-0.004 -0.019,-0.008 -0.031,-0.012 -0.012,-0.004 -0.023,-0.004 -0.035,-0.008 -0.016,0 -0.027,0 -0.039,0 -0.027,0 -0.051,0.004 -0.07,0.012 -0.02,0.008 -0.035,0.023 -0.051,0.039 -0.012,0.016 -0.024,0.035 -0.031,0.059 -0.008,0.023 -0.012,0.047 -0.012,0.078 m 0.242,0.035 c 0,0.008 0,0.019 0,0.031 0,0.012 -0.004,0.024 -0.004,0.031 -0.004,0.012 -0.008,0.02 -0.012,0.028 -0.003,0.008 -0.011,0.015 -0.019,0.019 -0.008,0.004 -0.012,0.008 -0.02,0.008 -0.007,0.004 -0.015,0.004 -0.023,0.004 -0.012,0 -0.023,0 -0.035,-0.008 -0.012,-0.004 -0.024,-0.011 -0.031,-0.019 -0.008,-0.012 -0.016,-0.024 -0.024,-0.039 -0.004,-0.016 -0.008,-0.036 -0.012,-0.055 h 0.18"
         style="fill:#000000;fill-opacity:1;fill-rule:nonzero;stroke:none"
         id="path60"
         inkscape:connector-curvature="0" /><path
         d="m 28.707,24.003 c 0,0.031 0.004,0.059 0.016,0.082 0.007,0.023 0.019,0.043 0.035,0.063 0.015,0.015 0.035,0.027 0.058,0.039 0.02,0.007 0.043,0.011 0.067,0.015 0.012,0 0.019,0 0.027,0 0.012,-0.004 0.02,-0.004 0.028,-0.004 0.007,0 0.015,-0.004 0.023,-0.004 0.008,-0.004 0.012,-0.007 0.016,-0.007 v -0.079 h -0.028 l -0.019,0.04 c -0.004,0.003 -0.008,0.007 -0.012,0.007 -0.004,0.004 -0.008,0.004 -0.012,0.004 -0.008,0.004 -0.011,0.004 -0.015,0.004 -0.004,0 -0.008,0 -0.012,0 -0.016,0 -0.031,-0.004 -0.043,-0.008 C 28.824,24.151 28.812,24.144 28.801,24.132 28.793,24.12 28.785,24.108 28.777,24.089 28.77,24.073 28.77,24.054 28.77,24.03 c 0,-0.027 0,-0.05 0.007,-0.074 0.008,-0.019 0.016,-0.039 0.028,-0.051 0.011,-0.011 0.027,-0.023 0.039,-0.027 0.015,-0.008 0.027,-0.012 0.043,-0.012 0.008,0 0.015,0 0.023,0.004 0.012,0 0.02,0 0.028,0.004 0.007,0 0.015,0.004 0.023,0.004 0.008,0.004 0.012,0.008 0.019,0.008 l 0.008,-0.028 c -0.004,-0.003 -0.011,-0.011 -0.023,-0.015 -0.008,-0.004 -0.02,-0.008 -0.027,-0.012 -0.012,0 -0.024,-0.004 -0.036,-0.004 -0.011,-0.004 -0.027,-0.004 -0.039,-0.004 -0.023,0 -0.047,0.004 -0.066,0.012 -0.02,0.012 -0.035,0.023 -0.047,0.039 -0.016,0.016 -0.023,0.035 -0.031,0.059 -0.008,0.019 -0.012,0.047 -0.012,0.07"
         style="fill:#000000;fill-opacity:1;fill-rule:nonzero;stroke:none"
         id="path62"
         inkscape:connector-curvature="0" /><path
         d="m 29.098,23.913 v 0.121 c 0,0.039 0,0.078 0,0.117 h -0.051 v 0.024 c 0.012,0.004 0.019,0.004 0.023,0.004 0.008,0.004 0.012,0.004 0.016,0.008 0.008,0 0.008,0.003 0.012,0.007 0.004,0 0.007,0.004 0.007,0.012 0.004,0.004 0.004,0.008 0.008,0.016 0,0.008 0.004,0.011 0.004,0.019 0.004,0.008 0.004,0.016 0.008,0.024 0,0.004 0,0.011 0,0.011 H 29.16 V 24.19 h 0.106 V 24.151 H 29.16 v -0.164 c 0,-0.023 0,-0.043 0,-0.058 0,-0.016 0,-0.031 0.004,-0.039 0.004,-0.008 0.008,-0.016 0.012,-0.016 0.004,-0.004 0.012,-0.008 0.019,-0.008 0.008,0 0.012,0.004 0.02,0.004 0.004,0 0.012,0 0.019,0.004 0.004,0 0.012,0.004 0.016,0.004 0.004,0.004 0.008,0.004 0.012,0.004 l 0.011,-0.027 c -0.007,-0.004 -0.011,-0.008 -0.019,-0.012 -0.012,-0.008 -0.02,-0.008 -0.027,-0.012 -0.012,-0.004 -0.02,-0.004 -0.032,-0.008 -0.007,0 -0.015,0 -0.023,0 -0.024,0 -0.043,0.008 -0.055,0.02 -0.012,0.015 -0.019,0.039 -0.019,0.07"
         style="fill:#000000;fill-opacity:1;fill-rule:nonzero;stroke:none"
         id="path64"
         inkscape:connector-curvature="0" /><path
         d="m 22.949,23.944 h -0.047 c -0.019,-0.199 -0.047,-0.437 -0.39,-0.437 h -0.157 c -0.089,0 -0.093,0.012 -0.093,0.078 v 1.027 c 0,0.067 0,0.09 0.183,0.09 h 0.063 v 0.059 c -0.07,-0.004 -0.242,-0.004 -0.324,-0.004 -0.075,0 -0.227,0 -0.293,0.004 v -0.059 h 0.047 c 0.148,0 0.152,-0.019 0.152,-0.09 v -1.015 c 0,-0.071 -0.004,-0.09 -0.152,-0.09 h -0.047 v -0.063 h 1.007 c 0,0 0.051,0.5 0.051,0.5 z"
         style="fill:#000000;fill-opacity:1;fill-rule:nonzero;stroke:none"
         id="path66"
         inkscape:connector-curvature="0" /><path
         d="m 22.914,24.765 c -0.004,0.023 -0.008,0.031 -0.035,0.031 -0.024,0 -0.031,-0.008 -0.039,-0.031 0,0 -0.313,-0.789 -0.313,-0.789 -0.011,-0.036 -0.035,-0.094 -0.156,-0.094 v -0.047 h 0.301 v 0.047 c -0.059,0 -0.098,0.027 -0.098,0.066 0,0.008 0.004,0.012 0.008,0.028 0,0 0.066,0.164 0.066,0.164 h 0.383 c 0,0 0.078,-0.196 0.078,-0.196 0.004,-0.007 0.008,-0.019 0.008,-0.023 0,-0.039 -0.074,-0.039 -0.113,-0.039 v -0.047 h 0.383 v 0.047 h -0.028 c -0.089,0 -0.101,0.012 -0.113,0.051 0,0 -0.332,0.832 -0.332,0.832 z M 22.84,24.628 c 0,0 0.172,-0.438 0.172,-0.438 h -0.344 c 0,0 0.172,0.438 0.172,0.438 z"
         style="fill:#000000;fill-opacity:1;fill-rule:nonzero;stroke:none"
         id="path68"
         inkscape:connector-curvature="0" /><path
         d="m 24.465,24.749 h -1.176 c 0,0 -0.035,-0.434 -0.035,-0.434 h 0.047 c 0.027,0.313 0.054,0.375 0.347,0.375 0.036,0 0.086,0 0.106,-0.003 0.039,-0.004 0.039,-0.028 0.039,-0.071 v -1.015 c 0,-0.067 0,-0.094 -0.203,-0.094 h -0.078 v -0.063 c 0.078,0.008 0.273,0.008 0.363,0.008 0.09,0 0.289,0 0.367,-0.008 v 0.063 h -0.074 c -0.203,0 -0.203,0.027 -0.203,0.094 v 1.015 c 0,0.039 0,0.067 0.031,0.071 0.024,0.003 0.074,0.003 0.113,0.003 0.289,0 0.317,-0.062 0.344,-0.375 h 0.051 c 0,0 -0.039,0.434 -0.039,0.434 z"
         style="fill:#000000;fill-opacity:1;fill-rule:nonzero;stroke:none"
         id="path70"
         inkscape:connector-curvature="0" /><path
         d="M 25.504,23.507 H 25.457 C 25.406,23.21 25.363,23.069 25.031,23.069 h -0.254 c -0.093,0 -0.097,0.016 -0.097,0.079 v 0.515 h 0.172 c 0.187,0 0.21,-0.062 0.21,-0.226 h 0.047 v 0.511 h -0.047 c 0,-0.164 -0.023,-0.226 -0.21,-0.226 H 24.68 v 0.465 c 0,0.062 0.004,0.074 0.097,0.074 h 0.246 c 0.297,0 0.348,-0.106 0.379,-0.375 h 0.047 c 0,0 -0.054,0.433 -0.054,0.433 h -1.083 v -0.058 h 0.043 c 0.149,0 0.153,-0.02 0.153,-0.09 v -1.008 c 0,-0.07 -0.004,-0.094 -0.153,-0.094 h -0.043 v -0.058 h 1.11 c 0,0 0.082,0.496 0.082,0.496 z"
         style="fill:#000000;fill-opacity:1;fill-rule:nonzero;stroke:none"
         id="path72"
         inkscape:connector-curvature="0" /><path
         d="m 26.086,24.19 c 0,0 0.266,0.387 0.266,0.387 0.039,0.063 0.105,0.125 0.277,0.125 v 0.059 h -0.461 v -0.059 c 0.078,0 0.121,-0.043 0.121,-0.086 0,-0.019 -0.004,-0.023 -0.016,-0.047 0,0 -0.222,-0.324 -0.222,-0.324 0,0 -0.246,0.371 -0.246,0.371 -0.004,0.008 -0.016,0.024 -0.016,0.032 0,0.023 0.043,0.054 0.125,0.054 v 0.059 c -0.066,-0.004 -0.207,-0.004 -0.281,-0.004 -0.059,0 -0.18,0 -0.25,0.004 v -0.059 h 0.035 c 0.105,0 0.144,-0.012 0.18,-0.066 0,0 0.355,-0.535 0.355,-0.535 0,0 -0.316,-0.469 -0.316,-0.469 -0.028,-0.035 -0.086,-0.125 -0.278,-0.125 v -0.063 h 0.461 v 0.063 c -0.09,0 -0.125,0.055 -0.125,0.09 0,0.015 0.008,0.023 0.02,0.043 0,0 0.273,0.406 0.273,0.406 0,0 0.309,-0.461 0.309,-0.461 0.004,-0.008 0.008,-0.016 0.008,-0.02 0,-0.023 -0.043,-0.058 -0.125,-0.058 v -0.063 c 0.066,0.008 0.207,0.008 0.281,0.008 0.078,0 0.168,-0.004 0.25,-0.008 v 0.063 h -0.035 c -0.102,0 -0.145,0.008 -0.184,0.07 0,0 -0.406,0.613 -0.406,0.613 z"
         style="fill:#000000;fill-opacity:1;fill-rule:nonzero;stroke:none"
         id="path74"
         inkscape:connector-curvature="0" /><path
         d="m 20.457,23.874 0.082,0.008 v 0.43 l -0.117,-0.008 -0.024,-0.055 h -0.031 l 0.008,0.098 h 0.387 v -0.098 l -0.028,-0.004 -0.015,0.059 -0.117,0.008 v -0.43 l 0.082,-0.008 v -0.027 h -0.227 v 0.027"
         style="fill:#000000;fill-opacity:1;fill-rule:nonzero;stroke:none"
         id="path76"
         inkscape:connector-curvature="0" /><path
         d="m 20.809,23.874 0.05,0.008 v 0.437 l -0.054,0.012 v 0.027 l 0.101,0.012 0.016,-0.008 -0.004,-0.14 v -0.059 c 0.012,0.008 0.02,0.016 0.031,0.024 0.012,0.003 0.024,0.011 0.035,0.015 0.012,0.004 0.02,0.008 0.032,0.008 0.011,0.004 0.019,0.004 0.027,0.004 0.023,0 0.043,-0.004 0.055,-0.012 0.015,-0.004 0.027,-0.015 0.035,-0.031 0.008,-0.012 0.012,-0.031 0.015,-0.051 0.004,-0.023 0.004,-0.047 0.004,-0.078 v -0.16 l 0.047,-0.008 v -0.027 h -0.164 v 0.027 l 0.055,0.008 v 0.133 c 0,0.023 0,0.047 0,0.066 -0.004,0.02 -0.004,0.035 -0.012,0.047 -0.004,0.012 -0.012,0.023 -0.019,0.027 -0.012,0.008 -0.028,0.012 -0.043,0.012 -0.008,0 -0.016,0 -0.024,0 -0.008,-0.004 -0.015,-0.004 -0.023,-0.008 -0.008,0 -0.016,-0.004 -0.024,-0.008 -0.007,-0.003 -0.015,-0.007 -0.023,-0.011 v -0.258 l 0.047,-0.008 v -0.027 h -0.16 v 0.027"
         style="fill:#000000;fill-opacity:1;fill-rule:nonzero;stroke:none"
         id="path78"
         inkscape:connector-curvature="0" /><path
         d="m 21.254,24.026 c 0,0.028 0.008,0.051 0.016,0.075 0.007,0.023 0.019,0.043 0.035,0.062 0.015,0.016 0.035,0.031 0.058,0.039 0.02,0.012 0.043,0.016 0.071,0.016 0.019,0 0.035,-0.004 0.05,-0.008 0.016,-0.008 0.032,-0.016 0.039,-0.027 0.012,-0.012 0.02,-0.024 0.028,-0.043 0.004,-0.016 0.008,-0.035 0.011,-0.055 0,-0.016 0,-0.027 -0.003,-0.035 0,-0.012 0,-0.02 0,-0.027 h -0.243 v -0.004 c 0,0 0,-0.004 0,-0.004 0.004,-0.028 0.008,-0.047 0.016,-0.067 0.008,-0.015 0.016,-0.027 0.027,-0.039 0.012,-0.011 0.028,-0.015 0.043,-0.019 0.012,-0.004 0.028,-0.008 0.039,-0.008 0.012,0 0.02,0 0.028,0 0.011,0.004 0.019,0.004 0.027,0.008 0.008,0 0.016,0.004 0.024,0.004 0.007,0.004 0.015,0.004 0.019,0.007 l 0.012,-0.027 c -0.008,-0.004 -0.016,-0.012 -0.024,-0.016 -0.011,-0.003 -0.023,-0.007 -0.035,-0.011 -0.012,-0.004 -0.023,-0.004 -0.035,-0.008 -0.016,0 -0.027,0 -0.039,0 -0.027,0 -0.051,0.004 -0.07,0.012 -0.02,0.007 -0.036,0.023 -0.051,0.039 -0.012,0.015 -0.024,0.035 -0.031,0.058 -0.008,0.024 -0.012,0.047 -0.012,0.078 m 0.242,0.036 c 0,0.007 0,0.019 0,0.031 0,0.012 -0.004,0.023 -0.004,0.031 -0.004,0.012 -0.008,0.02 -0.012,0.027 -0.003,0.008 -0.011,0.016 -0.019,0.02 -0.004,0.004 -0.012,0.008 -0.02,0.008 -0.007,0.004 -0.015,0.004 -0.023,0.004 -0.012,0 -0.023,0 -0.035,-0.008 -0.012,-0.004 -0.024,-0.012 -0.031,-0.02 -0.008,-0.011 -0.016,-0.023 -0.024,-0.039 -0.004,-0.015 -0.008,-0.035 -0.012,-0.054 h 0.18"
         style="fill:#000000;fill-opacity:1;fill-rule:nonzero;stroke:none"
         id="path80"
         inkscape:connector-curvature="0" /><path
         d="m 20.098,23.507 h 1.469 v -0.059 h -1.469 z"
         style="fill:#000000;fill-opacity:1;fill-rule:nonzero;stroke:none"
         id="path82"
         inkscape:connector-curvature="0" /><path
         d="m 27.008,23.507 h 2.531 v -0.059 h -2.531 z"
         style="fill:#000000;fill-opacity:1;fill-rule:nonzero;stroke:none"
         id="path84"
         inkscape:connector-curvature="0" /><path
         d="m 15.871,27.296 c 0.067,-0.121 0.137,-0.227 0.211,-0.316 l 0.004,-0.004 c -0.035,0.004 -0.07,0.007 -0.106,0.007 -0.07,0 -0.148,-0.011 -0.23,-0.039 0.141,-0.117 0.262,-0.207 0.367,-0.273 0,0 -0.004,0 -0.008,0.004 l 0.008,-0.008 c -0.164,0.055 -0.344,0.059 -0.551,-0.039 0.149,-0.094 0.278,-0.164 0.387,-0.215 -0.004,0 -0.008,0.004 -0.008,0.004 l 0.008,-0.004 c -0.176,0.027 -0.355,0.012 -0.551,-0.117 0.129,-0.059 0.239,-0.102 0.34,-0.133 l 0.004,-0.004 c -0.164,-0.008 -0.328,-0.058 -0.488,-0.211 0.14,-0.031 0.262,-0.054 0.367,-0.07 -0.004,0 -0.008,-0.004 -0.012,-0.004 -0.004,0 -0.008,0 -0.011,0 h 0.003 c -0.121,-0.027 -0.242,-0.09 -0.359,-0.207 0.094,-0.023 0.18,-0.039 0.258,-0.051 -0.094,-0.047 -0.188,-0.117 -0.27,-0.226 0.11,-0.008 0.207,-0.012 0.293,-0.012 -0.105,-0.051 -0.203,-0.125 -0.293,-0.25 0.157,-0.008 0.289,-0.008 0.399,0 0,0 -0.004,-0.004 -0.004,-0.004 -0.008,0 -0.016,0 -0.02,0 l 0.008,-0.004 c -0.117,-0.051 -0.226,-0.137 -0.316,-0.277 0.191,-0.004 0.347,0.008 0.476,0.023 -0.004,0 -0.007,-0.004 -0.011,-0.004 -0.008,0 -0.012,0 -0.016,0 l 0.004,-0.004 c -0.152,-0.043 -0.289,-0.132 -0.406,-0.308 0.156,0 0.285,0.004 0.398,0.015 -0.004,-0.003 -0.004,-0.003 -0.008,-0.003 -0.133,-0.075 -0.25,-0.188 -0.324,-0.379 0.137,0.027 0.254,0.054 0.352,0.082 0,0 -0.004,0 -0.004,-0.004 l 0.008,0.004 c -0.106,-0.078 -0.192,-0.188 -0.25,-0.348 0.093,0.023 0.179,0.043 0.253,0.066 -0.066,-0.082 -0.121,-0.187 -0.148,-0.32 0.102,0.039 0.191,0.074 0.27,0.11 0,0 0,-0.004 0,-0.004 -0.004,0 -0.004,0 -0.008,-0.004 h 0.004 c -0.075,-0.086 -0.129,-0.196 -0.157,-0.34 0.145,0.058 0.262,0.113 0.364,0.168 -0.004,-0.004 -0.008,-0.008 -0.008,-0.008 -0.086,-0.098 -0.152,-0.223 -0.18,-0.391 0.172,0.075 0.305,0.145 0.414,0.211 -0.004,0 -0.004,-0.004 -0.004,-0.004 l 0.008,0.004 c -0.125,-0.105 -0.219,-0.246 -0.254,-0.461 0.235,0.106 0.395,0.196 0.52,0.282 -0.055,-0.11 -0.082,-0.235 -0.071,-0.395 0.227,0.172 0.368,0.309 0.473,0.43 0,0 0,0 0,-0.004 -0.008,-0.078 -0.004,-0.16 0.02,-0.254 0.132,0.227 0.265,0.32 0.398,0.398 -0.168,-0.109 -0.137,-0.195 -0.137,-0.296 0.2,0.21 0.477,0.433 0.563,0.574 -0.113,-0.172 -0.16,-0.336 -0.188,-0.477 -0.586,-0.308 -0.941,-0.39 -1.34,-0.515 0.157,-0.055 0.321,-0.11 0.25,-0.188 l -0.179,-0.184 c 0.117,0.036 0.234,0.086 0.34,0.016 -0.012,-0.094 -0.133,-0.144 -0.235,-0.199 0.18,0.066 0.219,0.051 0.266,0.035 0.027,-0.113 -0.059,-0.176 -0.109,-0.254 0.457,0.352 1.054,0.625 1.476,0.738 0.59,0.2 1.356,0.411 1.563,0.914 l 0.207,0.836 c 0.246,0.262 0.468,0.536 0.574,0.868 0.68,0.132 1.226,0.086 1.801,0.07 -0.055,0.008 -1.746,0.293 -1.746,0.293 -0.497,0.68 -1.235,0.219 -1.481,-0.449 -0.059,-0.172 -0.41,-0.172 -0.512,0 -0.402,0.863 -1.621,1.777 -2.656,2.113 z"
         style="fill:#000000;fill-opacity:1;fill-rule:nonzero;stroke:none"
         id="path86"
         inkscape:connector-curvature="0" /><path
         d="m 15.859,27.343 c 0.067,-0.121 0.141,-0.227 0.215,-0.317 -0.035,0.004 -0.07,0.008 -0.105,0.008 -0.074,0 -0.149,-0.015 -0.231,-0.039 0.145,-0.121 0.266,-0.211 0.375,-0.277 -0.168,0.051 -0.347,0.058 -0.558,-0.039 0.152,-0.098 0.281,-0.168 0.394,-0.219 -0.176,0.031 -0.359,0.016 -0.558,-0.113 0.132,-0.063 0.246,-0.106 0.347,-0.137 -0.164,-0.008 -0.328,-0.059 -0.492,-0.211 0.141,-0.035 0.262,-0.059 0.367,-0.074 -0.129,-0.024 -0.258,-0.086 -0.379,-0.211 0.094,-0.02 0.18,-0.035 0.258,-0.047 -0.097,-0.047 -0.187,-0.117 -0.269,-0.23 0.109,-0.008 0.207,-0.012 0.293,-0.012 -0.106,-0.047 -0.204,-0.125 -0.293,-0.25 0.156,-0.008 0.289,-0.004 0.398,0 -0.121,-0.051 -0.234,-0.137 -0.332,-0.281 0.191,-0.004 0.348,0.004 0.477,0.019 -0.161,-0.043 -0.309,-0.129 -0.43,-0.312 0.156,-0.004 0.285,0.004 0.398,0.011 -0.136,-0.074 -0.254,-0.187 -0.332,-0.382 0.141,0.027 0.258,0.058 0.36,0.085 -0.106,-0.078 -0.196,-0.183 -0.254,-0.347 0.094,0.019 0.18,0.043 0.254,0.062 -0.067,-0.082 -0.121,-0.183 -0.149,-0.32 0.102,0.039 0.192,0.074 0.27,0.113 -0.074,-0.09 -0.133,-0.199 -0.16,-0.351 0.144,0.058 0.261,0.113 0.363,0.168 -0.094,-0.098 -0.16,-0.223 -0.188,-0.399 0.176,0.078 0.313,0.153 0.422,0.219 -0.125,-0.105 -0.222,-0.246 -0.258,-0.465 0.231,0.102 0.395,0.195 0.52,0.281 -0.055,-0.109 -0.082,-0.238 -0.07,-0.394 0.222,0.168 0.367,0.308 0.468,0.43 -0.003,-0.079 0,-0.164 0.024,-0.258 0.16,0.273 0.32,0.355 0.484,0.445 -0.261,-0.133 -0.222,-0.23 -0.222,-0.348 0.199,0.211 0.476,0.438 0.562,0.575 -0.113,-0.172 -0.16,-0.332 -0.191,-0.477 -0.582,-0.309 -0.938,-0.387 -1.336,-0.512 0.156,-0.058 0.32,-0.113 0.25,-0.191 l -0.18,-0.184 c 0.117,0.039 0.234,0.09 0.336,0.02 -0.008,-0.098 -0.129,-0.145 -0.234,-0.199 0.183,0.062 0.222,0.047 0.269,0.035 0.024,-0.117 -0.058,-0.18 -0.113,-0.254 0.461,0.348 1.059,0.625 1.48,0.738 0.59,0.199 1.356,0.406 1.563,0.914 l 0.207,0.832 c 0.246,0.266 0.469,0.539 0.574,0.871 0.68,0.129 1.227,0.082 1.801,0.067 -0.055,0.012 -1.75,0.297 -1.75,0.297 -0.492,0.675 -1.231,0.218 -1.477,-0.453 -0.058,-0.168 -0.41,-0.168 -0.511,0 -0.403,0.867 -1.621,1.777 -2.657,2.113 z"
         style="fill:#008080;fill-opacity:1;fill-rule:nonzero;stroke:none"
         id="path88"
         inkscape:connector-curvature="0" /><path
         d="M 19.859,25.577 19.855,25.569 C 19.84,25.538 19.809,25.515 19.766,25.503 19.723,25.487 19.672,25.483 19.609,25.487 H 19.57 l 0.028,-0.027 c 0.015,-0.016 0.019,-0.023 0.019,-0.035 0,-0.008 -0.004,-0.02 -0.015,-0.031 -0.016,-0.024 -0.055,-0.051 -0.09,-0.075 L 19.5,25.308 19.508,25.3 c 0.031,-0.047 0.043,-0.082 0.047,-0.106 0.004,-0.027 -0.004,-0.046 -0.016,-0.062 -0.023,-0.031 -0.078,-0.055 -0.125,-0.082 l -0.008,-0.004 v -0.012 c 0.004,-0.023 -0.004,-0.047 -0.019,-0.066 -0.02,-0.02 -0.047,-0.039 -0.09,-0.055 l -0.008,-0.008 v -0.011 c 0.008,-0.051 0.023,-0.098 0.059,-0.129 0.031,-0.028 0.078,-0.035 0.136,-0.024 0.012,-0.054 0.024,-0.105 0.059,-0.14 0.035,-0.036 0.09,-0.047 0.164,-0.028 0.016,-0.039 0.043,-0.066 0.07,-0.086 0.028,-0.019 0.071,-0.031 0.102,-0.039 l 0.019,0.02 c -0.031,0.012 -0.082,0.027 -0.105,0.043 -0.027,0.019 -0.047,0.043 -0.063,0.082 l -0.003,0.015 -0.016,-0.003 c -0.074,-0.024 -0.117,-0.012 -0.145,0.015 -0.031,0.028 -0.046,0.082 -0.054,0.141 l -0.004,0.015 -0.016,-0.003 c -0.062,-0.016 -0.101,-0.008 -0.125,0.015 -0.023,0.02 -0.039,0.059 -0.047,0.102 0.035,0.019 0.067,0.035 0.09,0.058 0.02,0.024 0.028,0.051 0.024,0.078 0.046,0.024 0.097,0.047 0.128,0.086 0.016,0.024 0.024,0.051 0.02,0.086 0,0.028 -0.016,0.063 -0.043,0.106 0.031,0.023 0.066,0.043 0.086,0.07 0.012,0.016 0.023,0.031 0.023,0.051 0,0.012 -0.011,0.023 -0.015,0.031 0.051,0 0.101,0.004 0.14,0.016 0.043,0.015 0.079,0.039 0.102,0.074 0.063,0 0.129,-0.016 0.195,-0.023 0.071,-0.008 0.141,-0.012 0.207,0.019 l -0.011,0.027 c -0.059,-0.027 -0.121,-0.023 -0.188,-0.015 -0.07,0.008 -0.14,0.023 -0.211,0.023 z"
         style="fill:#ffffff;fill-opacity:1;fill-rule:nonzero;stroke:none"
         id="path90"
         inkscape:connector-curvature="0" /><g
         id="g92"
         transform="matrix(1,0,0,0.999985,0,60.377998)"><path
           d="m 20.109,-34.79 c 0,-0.07 -0.058,-0.128 -0.125,-0.128 -0.07,0 -0.129,0.058 -0.129,0.128 0,0.071 0.059,0.125 0.129,0.125 0.067,0 0.125,-0.054 0.125,-0.125 z"
           style="fill:#ffffff;fill-opacity:1;fill-rule:nonzero;stroke:#ffffff;stroke-width:0.495509;stroke-linecap:butt;stroke-linejoin:miter;stroke-miterlimit:4;stroke-dasharray:none;stroke-opacity:1"
           id="path94"
           inkscape:connector-curvature="0" /></g><path
         d="m 20.488,25.706 c -0.113,-0.148 -0.144,-0.109 -0.211,-0.133 l -0.011,-0.004 v -0.015 c 0.027,-0.149 0.113,-0.196 0.183,-0.25 l 0.004,0.015 h 0.02 c -0.071,0.055 -0.145,0.102 -0.172,0.227 0.051,0.012 0.097,-0.004 0.203,0.137 z"
         style="fill:#ffffff;fill-opacity:1;fill-rule:nonzero;stroke:none"
         id="path96"
         inkscape:connector-curvature="0" /><path
         d="m 16.113,26.718 c 0.215,-0.133 0.567,-0.274 0.793,-0.414 0.125,-0.082 0.239,-0.16 0.324,-0.227 0.086,-0.07 0.153,-0.14 0.176,-0.164 0.024,-0.023 0.039,-0.012 0.024,0.02 -0.016,0.027 -0.094,0.097 -0.18,0.168 -0.09,0.066 -0.203,0.148 -0.328,0.226 -0.25,0.16 -0.547,0.305 -0.809,0.391 z"
         style="fill:#ffffff;fill-opacity:1;fill-rule:nonzero;stroke:none"
         id="path98"
         inkscape:connector-curvature="0" /><path
         d="m 16.074,27.026 c 0.09,-0.023 0.223,-0.097 0.371,-0.179 0.145,-0.082 0.309,-0.184 0.453,-0.282 0.149,-0.097 0.262,-0.183 0.352,-0.253 0.086,-0.075 0.129,-0.122 0.148,-0.122 0,0 0.004,0 0.008,0 0.004,0 0.008,0.004 0.012,0.008 0.004,0.004 0,0.012 0,0.012 0,0.004 0,0.008 -0.004,0.008 -0.004,0.008 -0.012,0.015 -0.023,0.023 -0.02,0.02 -0.055,0.051 -0.102,0.086 -0.09,0.071 -0.227,0.164 -0.371,0.262 -0.148,0.098 -0.313,0.199 -0.461,0.285 -0.051,0.02 -0.312,0.156 -0.383,0.152 z"
         style="fill:#ffffff;fill-opacity:1;fill-rule:nonzero;stroke:none"
         id="path100"
         inkscape:connector-curvature="0" /><path
         d="m 15.949,26.46 c 0.278,-0.113 0.668,-0.246 0.93,-0.41 0.141,-0.09 0.262,-0.18 0.355,-0.25 0.047,-0.039 0.082,-0.07 0.114,-0.098 0.027,-0.023 0.043,-0.047 0.05,-0.054 0.02,-0.016 0.036,-0.004 0.028,0.015 -0.008,0.016 -0.031,0.035 -0.059,0.063 -0.031,0.027 -0.07,0.058 -0.113,0.097 -0.094,0.071 -0.219,0.164 -0.359,0.254 -0.282,0.18 -0.622,0.336 -0.946,0.383 z"
         style="fill:#ffffff;fill-opacity:1;fill-rule:nonzero;stroke:none"
         id="path102"
         inkscape:connector-curvature="0" /><path
         d="m 15.738,26.21 c 0.215,0 0.657,-0.199 0.844,-0.297 0.305,-0.16 0.582,-0.371 0.734,-0.515 0.016,-0.016 0.039,0 0.02,0.023 -0.141,0.164 -0.434,0.355 -0.738,0.519 -0.305,0.161 -0.621,0.27 -0.86,0.27 z"
         style="fill:#ffffff;fill-opacity:1;fill-rule:nonzero;stroke:none"
         id="path104"
         inkscape:connector-curvature="0" /><path
         d="m 15.613,25.925 c 0.325,-0.047 0.711,-0.176 0.992,-0.317 0.157,-0.082 0.297,-0.168 0.407,-0.242 0.105,-0.078 0.187,-0.16 0.207,-0.183 0.019,-0.024 0.043,-0.024 0.023,0.015 -0.015,0.039 -0.105,0.117 -0.215,0.192 -0.109,0.078 -0.25,0.164 -0.41,0.242 -0.316,0.164 -0.676,0.289 -1.004,0.293 z"
         style="fill:#ffffff;fill-opacity:1;fill-rule:nonzero;stroke:none"
         id="path106"
         inkscape:connector-curvature="0" /><path
         d="m 15.719,25.687 c -0.078,0.007 -0.153,-0.012 -0.223,-0.02 0.285,0.027 0.688,-0.105 0.953,-0.227 0.317,-0.148 0.578,-0.351 0.703,-0.48 0.02,-0.02 0.032,0.004 0.024,0.02 -0.117,0.148 -0.395,0.335 -0.715,0.488 -0.238,0.109 -0.5,0.195 -0.742,0.219 z"
         style="fill:#ffffff;fill-opacity:1;fill-rule:nonzero;stroke:none"
         id="path108"
         inkscape:connector-curvature="0" /><path
         d="m 15.516,25.429 c 0.281,-0.024 0.66,-0.09 0.925,-0.211 0.266,-0.125 0.469,-0.285 0.571,-0.379 0.015,-0.016 0.043,-0.004 0.019,0.023 -0.09,0.106 -0.308,0.254 -0.578,0.383 -0.269,0.125 -0.594,0.207 -0.937,0.184 z"
         style="fill:#ffffff;fill-opacity:1;fill-rule:nonzero;stroke:none"
         id="path110"
         inkscape:connector-curvature="0" /><path
         d="m 15.77,25.19 c -0.059,0.004 -0.086,-0.007 -0.145,-0.015 0.191,-0.008 0.496,-0.059 0.664,-0.113 0.219,-0.079 0.399,-0.192 0.5,-0.282 0.02,-0.015 0.035,0.008 0.02,0.02 -0.094,0.109 -0.289,0.211 -0.508,0.289 -0.168,0.059 -0.352,0.098 -0.531,0.101 z"
         style="fill:#ffffff;fill-opacity:1;fill-rule:nonzero;stroke:none"
         id="path112"
         inkscape:connector-curvature="0" /><path
         d="m 15.762,24.913 c 0.41,-0.027 0.656,-0.098 0.847,-0.269 0.016,-0.012 0.036,0.004 0.02,0.023 -0.191,0.211 -0.578,0.27 -0.867,0.246 z"
         style="fill:#ffffff;fill-opacity:1;fill-rule:nonzero;stroke:none"
         id="path114"
         inkscape:connector-curvature="0" /><path
         d="m 16.078,24.667 c -0.125,0.012 -0.23,-0.016 -0.344,-0.055 0.332,0.055 0.469,0.028 0.723,-0.089 0.027,-0.012 0.027,0.019 0.012,0.027 -0.133,0.078 -0.266,0.109 -0.391,0.117 z"
         style="fill:#ffffff;fill-opacity:1;fill-rule:nonzero;stroke:none"
         id="path116"
         inkscape:connector-curvature="0" /><path
         d="m 16.066,24.437 c -0.117,-0.008 -0.218,-0.051 -0.3,-0.118 0.328,0.125 0.418,0.102 0.672,0.032 0.031,-0.012 0.019,0.023 0.007,0.027 -0.148,0.059 -0.261,0.07 -0.379,0.059 z"
         style="fill:#ffffff;fill-opacity:1;fill-rule:nonzero;stroke:none"
         id="path118"
         inkscape:connector-curvature="0" /><path
         d="m 16.715,24.233 c -0.176,0.02 -0.371,0 -0.543,-0.031 -0.176,-0.035 -0.324,-0.097 -0.406,-0.164 0.285,0.121 0.339,0.121 0.41,0.133 0.172,0.031 0.34,0.043 0.539,0.035 0.015,-0.004 0.015,0.027 0,0.027 z"
         style="fill:#ffffff;fill-opacity:1;fill-rule:nonzero;stroke:none"
         id="path120"
         inkscape:connector-curvature="0" /><path
         d="m 16.816,24.093 c -0.187,0.008 -0.386,-0.039 -0.554,-0.09 -0.168,-0.047 -0.297,-0.113 -0.379,-0.18 0.168,0.078 0.324,0.133 0.387,0.153 0.168,0.047 0.335,0.089 0.55,0.086 0.016,0 0.028,0.031 -0.004,0.031 z"
         style="fill:#ffffff;fill-opacity:1;fill-rule:nonzero;stroke:none"
         id="path122"
         inkscape:connector-curvature="0" /><path
         d="m 16.973,23.976 c -0.18,-0.028 -0.368,-0.078 -0.532,-0.133 -0.16,-0.059 -0.277,-0.121 -0.355,-0.203 0.195,0.113 0.301,0.152 0.367,0.175 0.16,0.055 0.309,0.09 0.524,0.133 0.027,0.004 0.003,0.028 -0.004,0.028 z"
         style="fill:#ffffff;fill-opacity:1;fill-rule:nonzero;stroke:none"
         id="path124"
         inkscape:connector-curvature="0" /><path
         d="m 17.062,23.827 c -0.359,-0.058 -0.589,-0.211 -0.738,-0.363 0.231,0.172 0.387,0.262 0.746,0.332 0.02,0.008 0.016,0.035 -0.008,0.031 z"
         style="fill:#ffffff;fill-opacity:1;fill-rule:nonzero;stroke:none"
         id="path126"
         inkscape:connector-curvature="0" /><path
         d="m 17.238,23.694 c -0.363,-0.054 -0.57,-0.273 -0.656,-0.418 0.227,0.227 0.406,0.352 0.66,0.391 0.028,0.004 0.02,0.031 -0.004,0.027 z"
         style="fill:#ffffff;fill-opacity:1;fill-rule:nonzero;stroke:none"
         id="path128"
         inkscape:connector-curvature="0" /><path
         d="m 17.348,23.581 c -0.059,-0.008 -0.133,-0.047 -0.207,-0.09 -0.071,-0.047 -0.125,-0.101 -0.161,-0.176 0.09,0.09 0.125,0.114 0.176,0.149 0.071,0.043 0.141,0.074 0.196,0.09 0.027,0.008 0.007,0.031 -0.004,0.027 z"
         style="fill:#ffffff;fill-opacity:1;fill-rule:nonzero;stroke:none"
         id="path130"
         inkscape:connector-curvature="0" /><g
         id="g132"
         transform="matrix(1,0,0,0.999985,0,60.377998)"><path
           d="m 20.109,-34.79 c 0,-0.07 -0.058,-0.128 -0.125,-0.128 -0.07,0 -0.129,0.058 -0.129,0.128 0,0.071 0.059,0.125 0.129,0.125 0.067,0 0.125,-0.054 0.125,-0.125 z"
           style="fill:#ffffff;fill-opacity:1;fill-rule:nonzero;stroke:#ffffff;stroke-width:0.495509;stroke-linecap:butt;stroke-linejoin:miter;stroke-miterlimit:4;stroke-dasharray:none;stroke-opacity:1"
           id="path134"
           inkscape:connector-curvature="0" /></g><g
         id="g136"
         transform="matrix(1,0,0,0.999985,0,60.377998)"><path
           d="m 20.109,-34.79 c 0,-0.07 -0.058,-0.128 -0.125,-0.128 -0.07,0 -0.129,0.058 -0.129,0.128 0,0.071 0.059,0.125 0.129,0.125 0.067,0 0.125,-0.054 0.125,-0.125 z"
           style="fill:#37c871;fill-opacity:1;fill-rule:nonzero;stroke:#ffffff;stroke-width:0.495509;stroke-linecap:butt;stroke-linejoin:miter;stroke-miterlimit:4;stroke-dasharray:none;stroke-opacity:1"
           id="path138"
           inkscape:connector-curvature="0" /></g></g></g></svg>