<?xml version="1.0" encoding="UTF-8" standalone="no"?>
<!-- Created with Inkscape (http://www.inkscape.org/) -->

<svg
   xmlns:dc="http://purl.org/dc/elements/1.1/"
   xmlns:cc="http://creativecommons.org/ns#"
   xmlns:rdf="http://www.w3.org/1999/02/22-rdf-syntax-ns#"
   xmlns:svg="http://www.w3.org/2000/svg"
   xmlns="http://www.w3.org/2000/svg"
   xmlns:sodipodi="http://sodipodi.sourceforge.net/DTD/sodipodi-0.dtd"
   xmlns:inkscape="http://www.inkscape.org/namespaces/inkscape"
   version="1.1"
   id="svg2"
   xml:space="preserve"
   width="57.826668"
   height="78.236"
   viewBox="0 0 57.826668 78.236"
   sodipodi:docname="Marmot_side.svg"
   inkscape:version="0.92.2 5c3e80d, 2017-08-06"><metadata
     id="metadata8"><rdf:RDF><cc:Work
         rdf:about=""><dc:format>image/svg+xml</dc:format><dc:type
           rdf:resource="http://purl.org/dc/dcmitype/StillImage" /><dc:title /></cc:Work></rdf:RDF></metadata><defs
     id="defs6" /><sodipodi:namedview
     pagecolor="#ffffff"
     bordercolor="#666666"
     borderopacity="1"
     objecttolerance="10"
     gridtolerance="10"
     guidetolerance="10"
     inkscape:pageopacity="0"
     inkscape:pageshadow="2"
     inkscape:window-width="640"
     inkscape:window-height="480"
     id="namedview4"
     showgrid="false"
     inkscape:zoom="3.7288234"
     inkscape:cx="101.64262"
     inkscape:cy="14.409575"
     inkscape:current-layer="g10" /><g
     id="g10"
     inkscape:groupmode="layer"
     inkscape:label="document"
     transform="matrix(1.3333333,0,0,-1.3333333,0,78.236)"><rect
       style="opacity:1;fill:#f5f5f5;fill-opacity:1;fill-rule:evenodd;stroke:none;stroke-width:5.6692915;stroke-linecap:round;stroke-miterlimit:4;stroke-dasharray:none;stroke-dashoffset:0;stroke-opacity:1"
       id="rect25"
       width="52.496452"
       height="68.78846"
       x="-4.82726"
       y="-63.357788"
       transform="scale(1,-1)" /><g
       transform="rotate(2.0288738,72.040441,676.07571)"
       id="g205"><path
         inkscape:connector-curvature="0"
         id="path203"
         style="fill:#604020;fill-opacity:1;fill-rule:nonzero;stroke:none"
         d="m -0.70892,5.66927 c 0,1.40895 -2.9189,2.5511 -6.51964,2.5511 -3.60074,0 -6.51964,-1.14215 -6.51964,-2.5511 0,-1.40896 2.9189,-2.55111 6.51964,-2.55111 3.60074,0 6.51964,1.14215 6.51964,2.55111 z" /></g><g
       id="g36"
       transform="rotate(2.0288738,76.540441,421.94056)"><path
         d="M 25.08675,18.9923 C 24.52013,11.33855 9.77966,6.80338 9.49635,12.47266 c -0.56705,3.40147 3.11817,1.98405 6.80297,2.5511 3.4019,0.28332 8.78743,5.38597 8.78743,3.96854 z"
         style="fill:#604020;fill-opacity:1;fill-rule:nonzero;stroke:none"
         id="path38"
         inkscape:connector-curvature="0" /></g><path
       sodipodi:nodetypes="cscccsc"
       d="M 27.878605,24.106822 C 28.540962,5.4095504 24.097574,2.9829193 17.406543,2.7458873 10.715513,2.5088552 6.1115505,4.6149808 5.4491934,23.312253 7.7624317,36.997968 6.5615046,29.846341 2.4179126,43.86011 4.5881379,48.724818 9.0030162,53.880171 13.19131,56.657928 c 0.727236,0.473391 1.48906,0.735272 2.278344,0.763233 6.314263,0.223685 11.934957,-14.610395 12.408951,-33.314339 z"
       style="fill:#bf8040;fill-opacity:1;fill-rule:nonzero;stroke:none;stroke-width:1"
       id="path199"
       inkscape:connector-curvature="0" /><g
       id="g44"
       transform="matrix(0.35142223,0.01244925,-0.03540312,0.99937311,7.0520402,-2.726325)"
       style="stroke-width:1.68635583"><path
         d="m 12.04747,20.1264 c 0,-8.50412 -1.200353,-9.63823 -8.1451728,-9.63823 -10.1988444,9.36941 -8.4856694,17.164958 -1.3391419,23.159787 6.3781895,0 9.4843147,-5.017847 9.4843147,-13.521557 z"
         style="fill:#dfbf9f;fill-opacity:1;fill-rule:nonzero;stroke:none;stroke-width:1.68635583"
         id="path46"
         inkscape:connector-curvature="0"
         sodipodi:nodetypes="sccs" /></g><g
       id="g68"
       transform="matrix(0.70167867,0.0248572,-0.03540312,0.99937311,-24.590337,-3.6612151)"
       style="stroke-width:1.19342375"><path
         d="m 50.06111,50.17395 c 0,0.78284 -0.63458,1.41742 -1.41742,1.41742 -0.78282,0 -1.4174,-0.63458 -1.4174,-1.41742 0,-0.78282 0.63458,-1.41742 1.4174,-1.41742 0.78284,0 1.41742,0.6346 1.41742,1.41742 z"
         style="fill:#604020;fill-opacity:1;fill-rule:nonzero;stroke:none;stroke-width:1.19342375"
         id="path70"
         inkscape:connector-curvature="0" /></g><g
       transform="matrix(0.65478213,0.34680673,-0.4680536,0.88370007,22.010751,0.05229685)"
       id="g213"
       style="stroke-width:1.16172683"
       inkscape:transform-center-x="0.6631848"
       inkscape:transform-center-y="-3.9016248"><path
         inkscape:connector-curvature="0"
         id="path211"
         style="fill:#dfbf9f;fill-opacity:1;fill-rule:nonzero;stroke:none;stroke-width:1.16172683"
         d="m 6.51964,41.66983 c 0,0.254414 -0.045608,0.502806 -0.1324542,0.742706 -0.086846,0.239901 -0.2149313,0.47131 -0.3798855,0.691758 -0.1649542,0.220447 -0.3667777,0.429934 -0.6011013,0.625989 -0.2343235,0.196056 -0.5011471,0.37868 -0.7961015,0.545403 -0.2949544,0.166724 -1.1171809,0.302865 -1.1171809,0.302865 -1.0320063,-4.637652 -0.8974245,-6.216227 -0.8974245,-6.216227 0,0 0.7028725,0.119219 1.0497192,0.251671 0.3468467,0.132451 0.6699318,0.283273 0.9648862,0.449996 0.2949544,0.166723 0.561778,0.349347 0.7961015,0.545401 0.2343236,0.196054 0.4361471,0.40554 0.6011013,0.625986 0.1649542,0.220446 0.2930392,0.451854 0.3798855,0.691752 0.086846,0.239899 0.1324542,0.488289 0.1324542,0.7427 z"
         sodipodi:nodetypes="sssssccssssss" /></g><g
       id="g60"
       transform="matrix(0.62352081,-0.07175526,0.11432623,0.99344326,-1.9857672,-1.5121485)"
       style="stroke-width:1.26225197"><path
         d="m 2.26778,45.35506 c 0,1.25247 -1.01531,2.26777 -2.26778,2.26777 -1.25247,0 -2.26778,-1.0153 -2.26778,-2.26777 0,-1.25249 1.01531,-2.26779 2.26778,-2.26779 1.25247,0 2.26778,1.0153 2.26778,2.26779 z"
         style="fill:#604020;fill-opacity:1;fill-rule:nonzero;stroke:none;stroke-width:1.26225197"
         id="path62"
         inkscape:connector-curvature="0" /></g><g
       id="g72"
       transform="matrix(0.65279533,0.13287754,-0.42707769,0.87767932,21.531244,0.93300878)"
       style="stroke-width:1.26018775"
       inkscape:transform-center-x="0.34777588"
       inkscape:transform-center-y="-3.5945813"><path
         d="M 4.1104,42.80351 C 4.083628,42.72995 4.055151,42.657507 4.02503,42.586205 3.994909,42.514905 3.963143,42.444741 3.929794,42.37575 3.896445,42.30676 3.861513,42.23894 3.8250577,42.172318 c -0.036455,-0.06662 -0.074432,-0.132045 -0.1138714,-0.196241 -0.039439,-0.0642 -0.08034,-0.127164 -0.1226412,-0.188878 -0.042302,-0.06171 -0.086004,-0.122171 -0.1310457,-0.181346 -0.045042,-0.05917 -0.091424,-0.117064 -0.1390849,-0.173642 -0.047661,-0.05658 -0.096601,-0.111844 -0.1467588,-0.16577 -0.050158,-0.05392 -0.1015341,-0.10651 -0.1540674,-0.157726 -0.052533,-0.05122 -0.1062238,-0.101063 -0.1610107,-0.149512 -0.054787,-0.04845 -0.11067,-0.0955 -0.1675886,-0.141128 -0.056919,-0.04563 -0.1148727,-0.08983 -0.1738014,-0.132574 -0.058929,-0.04275 -0.1188318,-0.08404 -0.1796487,-0.123849 -0.060817,-0.03981 -0.1225474,-0.07814 -0.1851308,-0.114954 -0.062583,-0.03682 -0.1260195,-0.07212 -0.1902476,-0.105889 -0.064228,-0.03377 -0.129248,-0.06599 -0.194999,-0.09665 -0.065751,-0.03066 -0.1322331,-0.05975 -0.1993853,-0.08725 -0.067152,-0.0275 -0.1349745,-0.0534 -0.2034061,-0.07767 -0.068432,-0.02428 -0.1374725,-0.04693 -0.2070618,-0.06793 -0.069589,-0.021 -0.1304865,-0.06294 -0.1304865,-0.06294 l -0.00396,0.343138 c 0,0 0.1762001,0.0483 0.2423995,0.07239 0.035426,0.0129 0.070617,0.02626 0.1055657,0.04009 0.034949,0.01383 0.069656,0.02811 0.1041139,0.04286 0.034458,0.01474 0.068666,0.02994 0.1026182,0.04559 0.033952,0.01564 0.067647,0.03174 0.1010783,0.04827 0.033431,0.01653 0.066599,0.03351 0.099494,0.05091 0.032896,0.01741 0.065521,0.03524 0.097867,0.05351 0.032346,0.01826 0.064413,0.03695 0.096195,0.05606 0.031781,0.01911 0.063277,0.03863 0.094479,0.05857 0.031202,0.01994 0.062111,0.04028 0.092719,0.06103 0.030608,0.02075 0.060915,0.0419 0.090915,0.06345 0.029999,0.02155 0.059691,0.0435 0.089067,0.06583 0.029376,0.02233 0.058437,0.04506 0.087174,0.06816 0.028738,0.02311 0.057153,0.04659 0.085238,0.07045 0.028085,0.02386 0.05584,0.04809 0.083258,0.0727 0.027418,0.0246 0.054498,0.04957 0.081234,0.0749 0.026736,0.02533 0.053127,0.05101 0.079166,0.07705 0.026039,0.02604 0.051726,0.05243 0.077053,0.07917 0.025328,0.02674 0.050296,0.05382 0.074897,0.08123 0.024601,0.02742 0.048836,0.05517 0.072697,0.08326 0.023861,0.02809 0.047347,0.0565 0.070453,0.08524 0.023105,0.02874 0.045829,0.0578 0.068164,0.08717 0.022335,0.02938 0.044281,0.05907 0.065832,0.08906 0.02155,0.03 0.042704,0.06031 0.063455,0.09091 0.020751,0.03061 0.041098,0.06152 0.061035,0.09272 0.019937,0.0312 0.039462,0.0627 0.05857,0.09448 0.019108,0.03178 0.037797,0.06385 0.056061,0.09619 0.018264,0.03234 0.036103,0.06497 0.053509,0.09787 0.017406,0.0329 0.034379,0.06606 0.050912,0.09949 0.016533,0.03343 0.032626,0.06713 0.048271,0.101078 0.015645,0.03395 0.030844,0.06816 0.045587,0.102618 0.014743,0.03446 0.029032,0.06916 0.042858,0.104113 0.013826,0.03495 0.02719,0.07014 0.040085,0.105566 H 3.715615 3.72835 3.741085 3.75382 3.766555 3.77929 3.792025 3.80476 3.817495 3.83023 3.842965 3.8557 3.868435 3.88117 3.893905 3.90664 3.919375 3.93211 3.944845 3.95758 3.970315 3.98305 3.995785 4.00852 4.021255 4.03399 4.046725 4.05946 4.072195 4.08493 4.097665 Z"
         style="fill:#604020;fill-opacity:1;fill-rule:nonzero;stroke:none;stroke-width:1.26018775"
         id="path74"
         inkscape:connector-curvature="0"
         sodipodi:nodetypes="cssssssssssssssssssscccsssssssssssssssssssssssssssssssccccccccccccccccccccccccccccccccc" /></g><path
       d="m 15.897533,50.968332 c -0.07206,2.034023 -0.732196,3.661592 -1.474483,3.635297 -0.742289,-0.0263 -1.285606,-1.696498 -1.213549,-3.730523 0.07206,-2.034023 0.732196,-3.661593 1.474485,-3.635297 0.742287,0.0263 1.285604,1.696498 1.213547,3.730523 z"
       style="fill:#604020;fill-opacity:1;fill-rule:nonzero;stroke:none;stroke-width:1"
       id="path215"
       inkscape:connector-curvature="0" /><g
       transform="rotate(-22.699392,5.3192637,18.475499)"
       id="g209"><path
         inkscape:connector-curvature="0"
         id="path207"
         style="fill:#604020;fill-opacity:1;fill-rule:nonzero;stroke:none"
         d="M 13.24028,32.75542 C 11.32771,33.45154 8.7355,31.1536 7.45038,27.62273 6.16525,24.09187 6.67387,20.6653 8.58644,19.9692 c 1.91256,-0.69613 4.50476,1.60181 5.7899,5.13268 1.28513,3.53086 0.77649,6.95743 -1.13606,7.65354 z" /></g></g></svg>