<?xml version="1.0" encoding="UTF-8" standalone="no"?>
<!-- Created with Inkscape (http://www.inkscape.org/) -->

<svg
   xmlns:dc="http://purl.org/dc/elements/1.1/"
   xmlns:cc="http://creativecommons.org/ns#"
   xmlns:rdf="http://www.w3.org/1999/02/22-rdf-syntax-ns#"
   xmlns:svg="http://www.w3.org/2000/svg"
   xmlns="http://www.w3.org/2000/svg"
   xmlns:sodipodi="http://sodipodi.sourceforge.net/DTD/sodipodi-0.dtd"
   xmlns:inkscape="http://www.inkscape.org/namespaces/inkscape"
   version="1.1"
   id="svg2"
   xml:space="preserve"
   width="58.597969"
   height="80.293839"
   viewBox="0 0 58.597969 80.293838"
   sodipodi:docname="nerd.svg"
   inkscape:version="0.92.2 5c3e80d, 2017-08-06"><metadata
     id="metadata8"><rdf:RDF><cc:Work
         rdf:about=""><dc:format>image/svg+xml</dc:format><dc:type
           rdf:resource="http://purl.org/dc/dcmitype/StillImage" /><dc:title></dc:title></cc:Work></rdf:RDF></metadata><defs
     id="defs6" /><sodipodi:namedview
     pagecolor="#ffffff"
     bordercolor="#666666"
     borderopacity="1"
     objecttolerance="10"
     gridtolerance="10"
     guidetolerance="10"
     inkscape:pageopacity="0"
     inkscape:pageshadow="2"
     inkscape:window-width="640"
     inkscape:window-height="480"
     id="namedview4"
     showgrid="false"
     inkscape:zoom="5.7903425"
     inkscape:cx="19.395442"
     inkscape:cy="30.349128"
     inkscape:current-layer="g10"
     fit-margin-top="0"
     fit-margin-left="0"
     fit-margin-right="0"
     fit-margin-bottom="0" /><g
     id="g10"
     inkscape:groupmode="layer"
     inkscape:label="document"
     transform="matrix(1.3333333,0,0,-1.3333333,0.96006455,79.006498)"><rect
       style="opacity:1;fill:#c0c0c0;fill-opacity:1;fill-rule:evenodd;stroke:none;stroke-width:0.1875;stroke-opacity:1"
       id="rect1087"
       width="43.948479"
       height="60.220383"
       x="-0.72004843"
       y="-59.254875"
       transform="scale(1,-1)" /><path
       inkscape:connector-curvature="0"
       id="path26"
       style="fill:#f5f5f5;fill-opacity:1;fill-rule:nonzero;stroke:none"
       d="m 31.4652,2.83427 c 0,1.40895 -2.9189,2.5511 -6.51964,2.5511 -3.60074,0 -6.51964,-1.14215 -6.51964,-2.5511 0,-1.40896 2.9189,-2.55111 6.51964,-2.55111 3.60074,0 6.51964,1.14215 6.51964,2.55111 z" /><path
       inkscape:connector-curvature="0"
       id="path22"
       style="fill:#f5f5f5;fill-opacity:1;fill-rule:nonzero;stroke:none"
       d="m 17.00808,2.83427 c 0,1.40895 -2.9189,2.5511 -6.51964,2.5511 -3.60074,0 -6.51964,-1.14215 -6.51964,-2.5511 0,-1.40896 2.9189,-2.55111 6.51964,-2.55111 3.60074,0 6.51964,1.14215 6.51964,2.55111 z" /><path
       style="fill:none;fill-rule:evenodd;stroke:#000000;stroke-width:0.75px;stroke-linecap:round;stroke-linejoin:miter;stroke-opacity:1"
       d="M 6.2862769,4.2432363 7.0720615,1.7287255"
       id="path1089"
       inkscape:connector-curvature="0" /><path
       style="fill:none;fill-rule:evenodd;stroke:#000000;stroke-width:0.75px;stroke-linecap:round;stroke-linejoin:miter;stroke-opacity:1"
       d="M 8.17216,4.4003936 8.9579447,1.2572545"
       id="path1091"
       inkscape:connector-curvature="0" /><path
       style="fill:none;fill-rule:evenodd;stroke:#000000;stroke-width:0.75px;stroke-linecap:round;stroke-linejoin:miter;stroke-opacity:1"
       d="M 10.372357,4.5575501 11.315298,1.100098"
       id="path1093"
       inkscape:connector-curvature="0" /><path
       inkscape:connector-curvature="0"
       id="path1095"
       d="M 29.283369,4.2432363 28.497585,1.7287255"
       style="fill:none;fill-rule:evenodd;stroke:#000000;stroke-width:0.75px;stroke-linecap:round;stroke-linejoin:miter;stroke-opacity:1" /><path
       inkscape:connector-curvature="0"
       id="path1097"
       d="M 27.397486,4.4003936 26.611702,1.2572545"
       style="fill:none;fill-rule:evenodd;stroke:#000000;stroke-width:0.75px;stroke-linecap:round;stroke-linejoin:miter;stroke-opacity:1" /><path
       inkscape:connector-curvature="0"
       id="path1099"
       d="M 25.197289,4.5575501 24.254348,1.100098"
       style="fill:none;fill-rule:evenodd;stroke:#000000;stroke-width:0.75px;stroke-linecap:round;stroke-linejoin:miter;stroke-opacity:1" /><path
       inkscape:connector-curvature="0"
       id="path30"
       style="fill:#604020;fill-opacity:1;fill-rule:nonzero;stroke:none"
       d="m 27.49666,54.70898 c 0,2.0353 -1.14215,3.68522 -2.5511,3.68522 -1.40895,0 -2.5511,-1.64992 -2.5511,-3.68522 0,-2.0353 1.14215,-3.68522 2.5511,-3.68522 1.40895,0 2.5511,1.64992 2.5511,3.68522 z" /><path
       inkscape:connector-curvature="0"
       id="path34"
       style="fill:#604020;fill-opacity:1;fill-rule:nonzero;stroke:none"
       d="m 13.03954,54.70898 c 0,2.0353 -1.14215,3.68522 -2.5511,3.68522 -1.40895,0 -2.5511,-1.64992 -2.5511,-3.68522 0,-2.0353 1.14215,-3.68522 2.5511,-3.68522 1.40895,0 2.5511,1.64992 2.5511,3.68522 z" /><path
       inkscape:connector-curvature="0"
       id="path38"
       style="fill:#604020;fill-opacity:1;fill-rule:nonzero;stroke:none"
       d="M 42.82105,15.60192 C 42.254,7.94512 18.47393,3.40694 18.19019,9.07925 c -0.5666,3.40451 2.65621,0.54975 10.7265,1.70074 7.38731,1.05452 13.90436,6.24194 13.90436,4.82193" /><path
       inkscape:connector-curvature="0"
       id="path42"
       style="fill:#bf8040;fill-opacity:1;fill-rule:nonzero;stroke:none"
       d="M 34.58338,23.244 C 34.58338,4.535 27.77999,2.2672 17.717,2.2672 7.65401,2.2672 0.85062,4.535 0.85062,23.244 0.56733,41.953 8.22065,56.97677 17.717,56.97677 c 9.49635,0 17.14967,-15.02377 16.86638,-33.73277 z" /><path
       inkscape:connector-curvature="0"
       id="path46"
       style="fill:#dfbf9f;fill-opacity:1;fill-rule:nonzero;stroke:none"
       d="m 29.76447,17.2914 c 0,-8.50412 -5.10265,-9.63823 -12.04747,-9.63823 -6.94482,0 -12.04747,1.13411 -12.04747,9.63823 0,8.50371 5.66928,15.59041 12.04747,15.59041 6.37819,0 12.04747,-7.0867 12.04747,-15.59041 z" /><path
       inkscape:connector-curvature="0"
       id="path58"
       style="fill:#dfbf9f;fill-opacity:1;fill-rule:nonzero;stroke:none"
       d="m 24.23664,38.83483 c 0,2.03531 -2.9189,3.68523 -6.51964,3.68523 -3.60074,0 -6.51964,-1.64992 -6.51964,-3.68523 0,-2.03529 2.9189,-3.68521 6.51964,-3.68521 3.60074,0 6.51964,1.64992 6.51964,3.68521 z" /><path
       inkscape:connector-curvature="0"
       id="path62"
       style="fill:#604020;fill-opacity:1;fill-rule:nonzero;stroke:none"
       d="m 19.98478,42.52006 c 0,1.25247 -1.01531,2.26777 -2.26778,2.26777 -1.25247,0 -2.26778,-1.0153 -2.26778,-2.26777 0,-1.25249 1.01531,-2.26779 2.26778,-2.26779 1.25247,0 2.26778,1.0153 2.26778,2.26779 z" /><path
       inkscape:connector-curvature="0"
       id="path66"
       style="fill:#604020;fill-opacity:1;fill-rule:nonzero;stroke:none"
       d="m 14.74071,47.33895 c 0,0.78284 -0.63458,1.41742 -1.4174,1.41742 -0.78284,0 -1.41742,-0.63458 -1.41742,-1.41742 0,-0.78282 0.63458,-1.41742 1.41742,-1.41742 0.78282,0 1.4174,0.6346 1.4174,1.41742 z" /><path
       inkscape:connector-curvature="0"
       id="path70"
       style="fill:#604020;fill-opacity:1;fill-rule:nonzero;stroke:none"
       d="m 23.52811,47.33895 c 0,0.78284 -0.63458,1.41742 -1.41742,1.41742 -0.78282,0 -1.4174,-0.63458 -1.4174,-1.41742 0,-0.78282 0.63458,-1.41742 1.4174,-1.41742 0.78284,0 1.41742,0.6346 1.41742,1.41742 z" /><path
       inkscape:connector-curvature="0"
       id="path74"
       style="fill:#604020;fill-opacity:1;fill-rule:nonzero;stroke:none"
       d="m 21.8274,39.96851 c -0.8567,-2.35386 -3.45949,-3.56749 -5.81334,-2.71078 -1.25965,0.45849 -2.25231,1.45115 -2.7108,2.71078 h 0.44522 v 0 c 0.77102,-2.11839 3.1134,-3.21061 5.23178,-2.43961 1.13362,0.41264 2.02699,1.30599 2.43962,2.43961 z" /><path
       style="fill:#2e2e30;fill-opacity:1;fill-rule:evenodd;stroke:none;stroke-width:0.75px;stroke-linecap:butt;stroke-linejoin:miter;stroke-opacity:1"
       d="m 1.8999889,35.994234 c 10.6227511,-8.411419 22.6270551,-7.672535 31.5609271,0 0,0 3.380919,-8.733018 0.738885,-20.794322 C 26.728335,7.6939357 8.6325704,7.7994907 1.1611044,15.305467 -0.95315521,29.900089 1.8999889,35.994234 1.8999889,35.994234 Z"
       id="path78"
       inkscape:connector-curvature="0"
       sodipodi:nodetypes="ccccc" /><path
       inkscape:connector-curvature="0"
       id="path50"
       style="fill:#bf8040;fill-opacity:1;fill-rule:nonzero;stroke:none"
       d="m 25.16738,24.78773 c -1.28513,-3.53086 -0.77651,-6.95743 1.13606,-7.65353 1.91256,-0.69613 4.50476,1.60181 5.7899,5.13268 -4.194516,-1.828586 -6.92596,2.52085 -6.92596,2.52085 z"
       sodipodi:nodetypes="cccc" /><path
       inkscape:connector-curvature="0"
       id="path54"
       style="fill:#bf8040;fill-opacity:1;fill-rule:nonzero;stroke:none"
       d="m 9.13056,17.1342 c 1.91257,0.6961 2.42119,4.12267 1.13606,7.65353 0,0 -1.7869618,-4.991074 -6.92596,-2.52085 C 4.6258,18.73601 7.218,16.43807 9.13056,17.1342 Z"
       sodipodi:nodetypes="cccc" /><text
       xml:space="preserve"
       style="font-style:normal;font-variant:normal;font-weight:normal;font-stretch:normal;font-size:3.25470972px;line-height:125%;font-family:Arial;-inkscape-font-specification:Arial;letter-spacing:0px;word-spacing:0px;fill:#000000;fill-opacity:1;stroke:none;stroke-width:0.75px;stroke-linecap:butt;stroke-linejoin:miter;stroke-opacity:1"
       x="12.091483"
       y="-22.217377"
       id="text840"
       transform="scale(1,-1)"><tspan
         sodipodi:role="line"
         id="tspan838"
         x="12.091483"
         y="-22.217377"
         style="fill:#ffffff;stroke-width:0.75px">1+1=10</tspan></text>
</g></svg>