<?xml version="1.0" encoding="UTF-8" standalone="no"?>
<!-- Created with Inkscape (http://www.inkscape.org/) -->

<svg
   xmlns:dc="http://purl.org/dc/elements/1.1/"
   xmlns:cc="http://creativecommons.org/ns#"
   xmlns:rdf="http://www.w3.org/1999/02/22-rdf-syntax-ns#"
   xmlns:svg="http://www.w3.org/2000/svg"
   xmlns="http://www.w3.org/2000/svg"
   xmlns:sodipodi="http://sodipodi.sourceforge.net/DTD/sodipodi-0.dtd"
   xmlns:inkscape="http://www.inkscape.org/namespaces/inkscape"
   width="33.300426mm"
   height="42.186882mm"
   viewBox="0 0 33.300426 42.186883"
   version="1.1"
   id="svg8"
   inkscape:version="0.92.2 5c3e80d, 2017-08-06"
   sodipodi:docname="Miss_marmot.svg">
  <defs
     id="defs2">
    <clipPath
       id="clipPath1759"
       clipPathUnits="userSpaceOnUse">
      <path
         inkscape:connector-curvature="0"
         id="path1757"
         d="M 0,0 H 85.447 V 47.793 H 0 Z" />
    </clipPath>
    <clipPath
       id="clipPath1869"
       clipPathUnits="userSpaceOnUse">
      <path
         inkscape:connector-curvature="0"
         id="path1867"
         d="M 0,0 H 63.153 V 66.922 H 0 Z" />
    </clipPath>
    <clipPath
       id="clipPath2011"
       clipPathUnits="userSpaceOnUse">
      <path
         inkscape:connector-curvature="0"
         id="path2009"
         d="M 0,0 H 63.153 V 63.379 H 0 Z" />
    </clipPath>
    <clipPath
       id="clipPath2073"
       clipPathUnits="userSpaceOnUse">
      <path
         inkscape:connector-curvature="0"
         id="path2071"
         d="M 0,0 H 63.153 V 63.379 H 0 Z" />
    </clipPath>
    <clipPath
       id="clipPath2135"
       clipPathUnits="userSpaceOnUse">
      <path
         inkscape:connector-curvature="0"
         id="path2133"
         d="M 0,0 H 63.153 V 63.379 H 0 Z" />
    </clipPath>
    <clipPath
       id="clipPath2197"
       clipPathUnits="userSpaceOnUse">
      <path
         inkscape:connector-curvature="0"
         id="path2195"
         d="M 0,0 H 63.153 V 63.379 H 0 Z" />
    </clipPath>
    <clipPath
       id="clipPath2259"
       clipPathUnits="userSpaceOnUse">
      <path
         inkscape:connector-curvature="0"
         id="path2257"
         d="M 0,0 H 63.153 V 63.379 H 0 Z" />
    </clipPath>
  </defs>
  <sodipodi:namedview
     id="base"
     pagecolor="#ffffff"
     bordercolor="#666666"
     borderopacity="1.0"
     inkscape:pageopacity="0.0"
     inkscape:pageshadow="2"
     inkscape:zoom="2.0215207"
     inkscape:cx="245.21245"
     inkscape:cy="59.51665"
     inkscape:document-units="mm"
     inkscape:current-layer="layer1"
     showgrid="false"
     inkscape:snap-global="false"
     showguides="false"
     fit-margin-top="0"
     fit-margin-left="0"
     fit-margin-right="0"
     fit-margin-bottom="0" />
  <metadata
     id="metadata5">
    <rdf:RDF>
      <cc:Work
         rdf:about="">
        <dc:format>image/svg+xml</dc:format>
        <dc:type
           rdf:resource="http://purl.org/dc/dcmitype/StillImage" />
        <dc:title />
      </cc:Work>
    </rdf:RDF>
  </metadata>
  <g
     inkscape:label="Layer 1"
     inkscape:groupmode="layer"
     id="layer1"
     transform="translate(-81.585408,-134.55038)">
    <rect
       style="opacity:1;fill:#f5f5f5;fill-opacity:1;fill-rule:evenodd;stroke:none;stroke-width:2;stroke-linecap:round;stroke-miterlimit:4;stroke-dasharray:none;stroke-dashoffset:0;stroke-opacity:1"
       id="rect70"
       width="40.050297"
       height="44.892979"
       x="79.491272"
       y="133.02223" />
    <g
       style="stroke-width:2.87361789"
       id="g110"
       transform="matrix(0.12276433,0,0,-0.12276433,291.30763,189.225)" />
    <g
       style="stroke-width:2.87361789"
       id="g112"
       transform="matrix(0.12276433,0,0,-0.12276433,291.30763,189.225)" />
    <g
       style="stroke-width:2.87361789"
       id="g114"
       transform="matrix(0.12276433,0,0,-0.12276433,291.30763,189.225)" />
    <g
       style="stroke-width:2.87361789"
       id="g116"
       transform="matrix(0.12276433,0,0,-0.12276433,291.30763,189.225)" />
    <g
       id="g1845"
       transform="matrix(0.7016891,0.07366,0.07366,-0.7016891,-85.116409,142.6756)" />
    <g
       id="g1975"
       transform="matrix(0.33595027,0.10760428,0.10760428,-0.33595027,-84.657701,142.68962)" />
    <g
       id="g1995"
       transform="matrix(0.35277777,0,0,-0.35277777,-85.080002,145.47251)" />
    <g
       id="g2057"
       transform="matrix(0.09411405,-0.048387,-0.048387,-0.09411405,-60.909343,150.7005)" />
    <g
       id="g2119"
       transform="matrix(0.08787694,-0.00737306,-0.00737306,-0.08787694,-54.641484,144.32585)" />
    <g
       id="g2181"
       transform="matrix(0.06448778,0.02861028,0.02861028,-0.06448778,-45.818188,139.80605)" />
    <g
       id="g2243"
       transform="matrix(0.0493395,0.01910292,0.01910292,-0.0493395,-37.120367,143.84207)" />
    <g
       id="g2305"
       transform="matrix(0.04175125,-0.00694972,-0.00694972,-0.04175125,-29.792598,149.59284)" />
    <path
       inkscape:connector-curvature="0"
       id="path2317"
       style="fill:none;stroke:#ffffff;stroke-width:0.35146543;stroke-linecap:butt;stroke-linejoin:miter;stroke-miterlimit:10;stroke-dasharray:none;stroke-opacity:1"
       d="m -95.080123,155.47263 v -40.00049 h 82.000984 v 40.00049 z" />
    <g
       id="g4716"
       transform="matrix(0.35277777,0,0,-0.35277777,-68.177437,133.09448)">
      <g
         id="g4718" />
    </g>
    <g
       id="g5245"
       transform="matrix(1.9911868,0,0,1.9911868,251.30701,-86.371202)"
       style="stroke-width:0.50221306">
      <g
         id="g5148"
         transform="matrix(0.35277777,0,0,-0.35277777,-77.362543,133.23652)"
         style="stroke-width:0.50221306">
        <path
           d="m -0.70892,5.66927 c 0,1.40895 -2.9189,2.5511 -6.51964,2.5511 -3.60074,0 -6.51964,-1.14215 -6.51964,-2.5511 0,-1.40896 2.9189,-2.55111 6.51964,-2.55111 3.60074,0 6.51964,1.14215 6.51964,2.55111 z"
           style="fill:#604020;fill-opacity:1;fill-rule:nonzero;stroke:none;stroke-width:0.50221306"
           id="path5146"
           inkscape:connector-curvature="0" />
      </g>
      <g
         id="g5152"
         transform="matrix(0.35277777,0,0,-0.35277777,-77.362543,133.23652)"
         style="stroke-width:0.50221306">
        <path
           d="m 13.7482,5.66927 c 0,1.40895 -2.9189,2.5511 -6.51964,2.5511 -3.60074,0 -6.51964,-1.14215 -6.51964,-2.5511 0,-1.40896 2.9189,-2.55111 6.51964,-2.55111 3.60074,0 6.51964,1.14215 6.51964,2.55111 z"
           style="fill:#604020;fill-opacity:1;fill-rule:nonzero;stroke:none;stroke-width:0.50221306"
           id="path5150"
           inkscape:connector-curvature="0" />
      </g>
      <g
         id="g5156"
         transform="matrix(0.35277777,0,0,-0.35277777,-77.362543,133.23652)"
         style="stroke-width:0.50221306">
        <path
           d="m 9.77966,57.54398 c 0,2.0353 -1.14215,3.68522 -2.5511,3.68522 -1.40895,0 -2.5511,-1.64992 -2.5511,-3.68522 0,-2.0353 1.14215,-3.68522 2.5511,-3.68522 1.40895,0 2.5511,1.64992 2.5511,3.68522 z"
           style="fill:#604020;fill-opacity:1;fill-rule:nonzero;stroke:none;stroke-width:0.50221306"
           id="path5154"
           inkscape:connector-curvature="0" />
      </g>
      <g
         id="g5160"
         transform="matrix(0.35277777,0,0,-0.35277777,-77.362543,133.23652)"
         style="stroke-width:0.50221306">
        <path
           d="m -4.67746,57.54398 c 0,2.0353 -1.14215,3.68522 -2.5511,3.68522 -1.40895,0 -2.5511,-1.64992 -2.5511,-3.68522 0,-2.0353 1.14215,-3.68522 2.5511,-3.68522 1.40895,0 2.5511,1.64992 2.5511,3.68522 z"
           style="fill:#604020;fill-opacity:1;fill-rule:nonzero;stroke:none;stroke-width:0.50221306"
           id="path5158"
           inkscape:connector-curvature="0" />
      </g>
      <g
         id="g5164"
         transform="matrix(0.35277777,0,0,-0.35277777,-77.362543,133.23652)"
         style="stroke-width:0.50221306">
        <path
           d="M 25.08675,18.9923 C 24.52013,11.33855 9.77966,6.80338 9.49635,12.47266 c -0.56705,3.40147 3.11817,1.98405 6.80297,2.5511 3.4019,0.28332 8.78743,5.38597 8.78743,3.96854 z"
           style="fill:#604020;fill-opacity:1;fill-rule:nonzero;stroke:none;stroke-width:0.50221306"
           id="path5162"
           inkscape:connector-curvature="0" />
      </g>
      <path
         inkscape:connector-curvature="0"
         id="path5166"
         style="fill:#bf8040;fill-opacity:1;fill-rule:nonzero;stroke:none;stroke-width:0.17716961"
         d="m -71.412459,124.03643 c 0,6.60012 -2.400085,7.40015 -5.950084,7.40015 -3.549999,0 -5.950084,-0.80003 -5.950084,-7.40015 -0.09994,-6.60012 2.599983,-11.90017 5.950084,-11.90017 3.350101,0 6.050022,5.30005 5.950084,11.90017 z" />
      <g
         id="g5170"
         transform="matrix(0.35277777,0,0,-0.35277777,-77.362543,133.23652)"
         style="stroke-width:0.50221306">
        <path
           d="m 12.04747,20.1264 c 0,-8.50412 -5.10265,-9.63823 -12.04747,-9.63823 -6.94482,0 -12.04747,1.13411 -12.04747,9.63823 0,8.50371 5.66928,15.59041 12.04747,15.59041 6.37819,0 12.04747,-7.0867 12.04747,-15.59041 z"
           style="fill:#dfbf9f;fill-opacity:1;fill-rule:nonzero;stroke:none;stroke-width:0.50221306"
           id="path5168"
           inkscape:connector-curvature="0" />
      </g>
      <path
         sodipodi:nodetypes="cccscc"
         d="m -71.446489,131.30051 -11.832106,0.33138 c 1.654946,-0.78829 -0.318101,-3.77463 0.01332,-9.44199 2.362047,-3.38059 2.647328,1.54606 5.997429,1.54606 3.350102,0 2.972539,-4.83197 5.808047,-1.59341 0.645444,2.86695 -1.531678,8.08058 0.01331,9.15796 z"
         style="fill:#ad2c2c;fill-opacity:1;fill-rule:nonzero;stroke:none;stroke-width:0.17716961"
         id="path5172"
         inkscape:connector-curvature="0" />
      <path
         inkscape:connector-curvature="0"
         id="path5174"
         style="fill:#604020;fill-opacity:1;fill-rule:nonzero;stroke:none;stroke-width:0.17716961"
         d="m -72.691667,121.68114 c -0.674712,-0.24558 -1.589186,0.56508 -2.042548,1.81069 -0.453365,1.24561 -0.273935,2.45443 0.400777,2.7 0.674709,0.24558 1.589179,-0.56508 2.042548,-1.8107 0.453365,-1.2456 0.273929,-2.45442 -0.400777,-2.69999 z" />
      <g
         id="g5178"
         transform="matrix(0.35277777,0,0,-0.35277777,-77.362543,133.23652)"
         style="stroke-width:0.50221306">
        <path
           d="m -8.58644,19.9692 c 1.91257,0.6961 2.42119,4.12267 1.13606,7.65353 -1.28512,3.53087 -3.87733,5.82881 -5.7899,5.13269 -1.91255,-0.69611 -2.42119,-4.12268 -1.13606,-7.65354 1.28514,-3.53087 3.87734,-5.82881 5.7899,-5.13268 z"
           style="fill:#604020;fill-opacity:1;fill-rule:nonzero;stroke:none;stroke-width:0.50221306"
           id="path5176"
           inkscape:connector-curvature="0" />
      </g>
      <g
         id="g5182"
         transform="matrix(0.35277777,0,0,-0.35277777,-77.362543,133.23652)"
         style="stroke-width:0.50221306">
        <path
           d="m 6.51964,41.66983 c 0,2.03531 -2.9189,3.68523 -6.51964,3.68523 -3.60074,0 -6.51964,-1.64992 -6.51964,-3.68523 0,-2.03529 2.9189,-3.68521 6.51964,-3.68521 3.60074,0 6.51964,1.64992 6.51964,3.68521 z"
           style="fill:#dfbf9f;fill-opacity:1;fill-rule:nonzero;stroke:none;stroke-width:0.50221306"
           id="path5180"
           inkscape:connector-curvature="0" />
      </g>
      <g
         id="g5186"
         transform="matrix(0.35277777,0,0,-0.35277777,-77.362543,133.23652)"
         style="stroke-width:0.50221306">
        <path
           d="m 2.26778,45.35506 c 0,1.25247 -1.01531,2.26777 -2.26778,2.26777 -1.25247,0 -2.26778,-1.0153 -2.26778,-2.26777 0,-1.25249 1.01531,-2.26779 2.26778,-2.26779 1.25247,0 2.26778,1.0153 2.26778,2.26779 z"
           style="fill:#604020;fill-opacity:1;fill-rule:nonzero;stroke:none;stroke-width:0.50221306"
           id="path5184"
           inkscape:connector-curvature="0" />
      </g>
      <g
         id="g5190"
         transform="matrix(0.35277777,0,0,-0.35277777,-77.362543,133.23652)"
         style="stroke-width:0.50221306">
        <path
           d="m -2.97629,50.17395 c 0,0.78284 -0.63458,1.41742 -1.4174,1.41742 -0.78284,0 -1.41742,-0.63458 -1.41742,-1.41742 0,-0.78282 0.63458,-1.41742 1.41742,-1.41742 0.78282,0 1.4174,0.6346 1.4174,1.41742 z"
           style="fill:#604020;fill-opacity:1;fill-rule:nonzero;stroke:none;stroke-width:0.50221306"
           id="path5188"
           inkscape:connector-curvature="0" />
      </g>
      <g
         id="g5194"
         transform="matrix(0.35277777,0,0,-0.35277777,-77.362543,133.23652)"
         style="stroke-width:0.50221306">
        <path
           d="m 5.81111,50.17395 c 0,0.78284 -0.63458,1.41742 -1.41742,1.41742 -0.78282,0 -1.4174,-0.63458 -1.4174,-1.41742 0,-0.78282 0.63458,-1.41742 1.4174,-1.41742 0.78284,0 1.41742,0.6346 1.41742,1.41742 z"
           style="fill:#604020;fill-opacity:1;fill-rule:nonzero;stroke:none;stroke-width:0.50221306"
           id="path5192"
           inkscape:connector-curvature="0" />
      </g>
      <g
         id="g5198"
         transform="matrix(0.35277777,0,0,-0.35277777,-77.362543,133.23652)"
         style="stroke-width:0.50221306">
        <path
           d="m 4.1104,42.80351 c -0.8567,-2.35386 -3.45949,-3.56749 -5.81334,-2.71078 -1.25965,0.45849 -2.25231,1.45115 -2.7108,2.71078 h 0.44522 v 0 c 0.77102,-2.11839 3.1134,-3.21061 5.23178,-2.43961 1.13362,0.41264 2.02699,1.30599 2.43962,2.43961 z"
           style="fill:#604020;fill-opacity:1;fill-rule:nonzero;stroke:none;stroke-width:0.50221306"
           id="path5196"
           inkscape:connector-curvature="0" />
      </g>
      <path
         inkscape:connector-curvature="0"
         id="path5200"
         style="fill:#604020;fill-opacity:1;fill-rule:nonzero;stroke:none;stroke-width:0.17716961"
         d="m -69.830309,120.35183 c -0.31632,0.0475 -1.321136,-0.2397 -0.659733,-0.56017 0.593991,-0.0963 1.108166,-0.47642 1.250787,-1.04233 0.366806,-0.79487 -0.628429,-0.22706 -0.958844,-0.46987 0.441254,-0.22075 1.227653,-0.43885 1.397331,-0.79598 -0.926414,-0.0154 -2.03145,0.0571 -2.691719,-0.66051 -0.560783,-0.99328 -0.714321,-2.14374 -1.207118,-3.16796 -2.479807,-5.04445 -8.691222,-2.24468 -8.78128,1.97097 0.488546,-1.54604 2.668718,-3.52218 4.819637,-2.71441 5.253177,1.33834 2.047905,6.86626 4.630827,8.00722 0.973196,0.37471 1.780674,0.25903 2.200112,-0.56696 z"
         sodipodi:nodetypes="ccccccccccc" />
      <path
         sodipodi:nodetypes="ccccccccc"
         d="m -84.400596,120.20979 c 2.224598,-1.17921 -0.165189,-1.33265 -0.780437,-0.79762 -0.366806,-0.79487 1.196579,-1.60009 1.526994,-1.8429 -0.06249,-0.0314 -1.038269,0.082 -1.255293,-1.31679 1.446773,-0.20327 1.718285,0.34581 3.093956,-2.59747 2.479807,-5.04445 8.691222,-2.24468 8.78128,1.97097 -0.488546,-1.54604 -2.668718,-3.52218 -4.819637,-2.71441 -5.253177,1.33834 -2.379326,6.25076 -4.962248,7.39172 -0.973196,0.37471 -1.638636,-0.0724 -1.584615,-0.0935 z"
         style="fill:#604020;fill-opacity:1;fill-rule:nonzero;stroke:none;stroke-width:0.17716961"
         id="path5202"
         inkscape:connector-curvature="0" />
      <path
         inkscape:connector-curvature="0"
         id="path5204"
         style="fill:#e6e6e6;fill-opacity:1;fill-rule:nonzero;stroke:none;stroke-width:0.17716961"
         d="m -76.364081,122.49421 c 0,-0.17672 -0.143256,-0.31997 -0.319973,-0.31997 -0.176724,0 -0.31998,0.14325 -0.31998,0.31997 0,0.17672 0.143256,0.31998 0.31998,0.31998 0.176717,0 0.319973,-0.14326 0.319973,-0.31998 z m 0.549942,-0.25009 c 0,-0.17672 -0.143263,-0.31998 -0.31998,-0.31998 -0.176724,0 -0.31998,0.14326 -0.31998,0.31998 0,0.17671 0.143256,0.31997 0.31998,0.31997 0.176717,0 0.31998,-0.14326 0.31998,-0.31997 z m 0.500038,-0.35005 c 0,-0.17671 -0.143263,-0.31998 -0.31998,-0.31998 -0.176721,0 -0.31998,0.14327 -0.31998,0.31998 0,0.17672 0.143259,0.31998 0.31998,0.31998 0.176717,0 0.31998,-0.14326 0.31998,-0.31998 z m 0.500027,-0.34988 c 0,-0.17672 -0.143256,-0.31998 -0.319973,-0.31998 -0.176724,0 -0.319977,0.14326 -0.319977,0.31998 0,0.17671 0.143253,0.31998 0.319977,0.31998 0.176717,0 0.319973,-0.14327 0.319973,-0.31998 z m 0.500041,-0.40009 c 0,-0.17672 -0.143256,-0.31998 -0.31998,-0.31998 -0.176717,0 -0.319973,0.14326 -0.319973,0.31998 0,0.17671 0.143256,0.31998 0.319973,0.31998 0.176724,0 0.31998,-0.14327 0.31998,-0.31998 z m 0.499883,-0.3 c 0,-0.17671 -0.143256,-0.31998 -0.31998,-0.31998 -0.176717,0 -0.31998,0.14327 -0.31998,0.31998 0,0.17672 0.143263,0.31998 0.31998,0.31998 0.176724,0 0.31998,-0.14326 0.31998,-0.31998 z m 0.500041,-0.29999 c 0,-0.17671 -0.143263,-0.31997 -0.31998,-0.31997 -0.176717,0 -0.31998,0.14326 -0.31998,0.31997 0,0.17672 0.143263,0.31998 0.31998,0.31998 0.176717,0 0.31998,-0.14326 0.31998,-0.31998 z m 0.500038,-0.29998 c 0,-0.17673 -0.143263,-0.31998 -0.31998,-0.31998 -0.176717,0 -0.31998,0.14325 -0.31998,0.31998 0,0.17671 0.143263,0.31998 0.31998,0.31998 0.176717,0 0.31998,-0.14327 0.31998,-0.31998 z"
         sodipodi:nodetypes="ssssssssssssssssssssssssssssssssssssssss" />
      <path
         sodipodi:nodetypes="ssssssssssssssssssssssssssssssssssscscc"
         d="m -78.733683,122.39794 c 0,-0.17672 0.143256,-0.31997 0.319973,-0.31997 0.176724,0 0.31998,0.14325 0.31998,0.31997 0,0.17672 -0.143256,0.31998 -0.31998,0.31998 -0.176717,0 -0.319973,-0.14326 -0.319973,-0.31998 z m -0.549942,-0.25009 c 0,-0.17672 0.143263,-0.31998 0.31998,-0.31998 0.176724,0 0.31998,0.14326 0.31998,0.31998 0,0.17671 -0.143256,0.31997 -0.31998,0.31997 -0.176717,0 -0.31998,-0.14326 -0.31998,-0.31997 z m -0.500038,-0.35005 c 0,-0.17671 0.143263,-0.31998 0.31998,-0.31998 0.176721,0 0.31998,0.14327 0.31998,0.31998 0,0.17672 -0.143259,0.31998 -0.31998,0.31998 -0.176717,0 -0.31998,-0.14326 -0.31998,-0.31998 z m -0.500027,-0.34988 c 0,-0.17672 0.143256,-0.31998 0.319973,-0.31998 0.176724,0 0.319977,0.14326 0.319977,0.31998 0,0.17671 -0.143253,0.31998 -0.319977,0.31998 -0.176717,0 -0.319973,-0.14327 -0.319973,-0.31998 z m -0.500041,-0.40009 c 0,-0.17672 0.143256,-0.31998 0.31998,-0.31998 0.176717,0 0.319973,0.14326 0.319973,0.31998 0,0.17671 -0.143256,0.31998 -0.319973,0.31998 -0.176724,0 -0.31998,-0.14327 -0.31998,-0.31998 z m -0.499883,-0.3 c 0,-0.17671 0.143256,-0.31998 0.31998,-0.31998 0.176717,0 0.31998,0.14327 0.31998,0.31998 0,0.17672 -0.143263,0.31998 -0.31998,0.31998 -0.176724,0 -0.31998,-0.14326 -0.31998,-0.31998 z m -0.500041,-0.29999 c 0,-0.17671 0.143263,-0.31997 0.31998,-0.31997 0.176717,0 0.31998,0.14326 0.31998,0.31997 0,0.17672 -0.143263,0.31998 -0.31998,0.31998 -0.176717,0 -0.31998,-0.14326 -0.31998,-0.31998 z m -0.180058,-0.61996 c 0.176717,0 0.31998,0.14325 0.31998,0.31998 0,0.17671 -0.143263,0.31998 -0.31998,0.31998 -0.477172,-0.17384 -0.294275,-0.4885 0,-0.63996 z"
         style="fill:#e6e6e6;fill-opacity:1;fill-rule:nonzero;stroke:none;stroke-width:0.17716961"
         id="path5206"
         inkscape:connector-curvature="0" />
      <path
         inkscape:connector-curvature="0"
         id="path5208"
         style="fill:#e6e6e6;fill-opacity:1;fill-rule:nonzero;stroke:none;stroke-width:0.17716961"
         d="m -78.170608,122.63959 c 0,-0.17672 0.143256,-0.31997 0.319973,-0.31997 0.176724,0 0.31998,0.14325 0.31998,0.31997 0,0.17672 -0.143256,0.31998 -0.31998,0.31998 -0.176717,0 -0.319973,-0.14326 -0.319973,-0.31998 z"
         sodipodi:nodetypes="sssss" />
      <path
         sodipodi:nodetypes="sssss"
         d="m -77.577156,122.68201 c 0,-0.17672 0.143256,-0.31997 0.319973,-0.31997 0.176724,0 0.31998,0.14325 0.31998,0.31997 0,0.17672 -0.143256,0.31998 -0.31998,0.31998 -0.176717,0 -0.319973,-0.14326 -0.319973,-0.31998 z"
         style="fill:#e6e6e6;fill-opacity:1;fill-rule:nonzero;stroke:none;stroke-width:0.17716961"
         id="path5210"
         inkscape:connector-curvature="0" />
    </g>
  </g>
</svg>
