<?xml version="1.0" encoding="UTF-8" standalone="no"?>
<!-- Created with Inkscape (http://www.inkscape.org/) -->

<svg
   xmlns:dc="http://purl.org/dc/elements/1.1/"
   xmlns:cc="http://creativecommons.org/ns#"
   xmlns:rdf="http://www.w3.org/1999/02/22-rdf-syntax-ns#"
   xmlns:svg="http://www.w3.org/2000/svg"
   xmlns="http://www.w3.org/2000/svg"
   xmlns:sodipodi="http://sodipodi.sourceforge.net/DTD/sodipodi-0.dtd"
   xmlns:inkscape="http://www.inkscape.org/namespaces/inkscape"
   version="1.1"
   id="svg2"
   xml:space="preserve"
   width="87.571999"
   height="88.818665"
   viewBox="0 0 87.571999 88.818665"
   sodipodi:docname="Mouse_chocolate.svg"
   inkscape:version="0.92.2 5c3e80d, 2017-08-06"><metadata
     id="metadata8"><rdf:RDF><cc:Work
         rdf:about=""><dc:format>image/svg+xml</dc:format><dc:type
           rdf:resource="http://purl.org/dc/dcmitype/StillImage" /><dc:title /></cc:Work></rdf:RDF></metadata><defs
     id="defs6" /><sodipodi:namedview
     pagecolor="#ffffff"
     bordercolor="#666666"
     borderopacity="1"
     objecttolerance="10"
     gridtolerance="10"
     guidetolerance="10"
     inkscape:pageopacity="0"
     inkscape:pageshadow="2"
     inkscape:window-width="640"
     inkscape:window-height="480"
     id="namedview4"
     showgrid="false"
     inkscape:zoom="4.7572616"
     inkscape:cx="38.382229"
     inkscape:cy="34.166308"
     inkscape:current-layer="g10" /><g
     id="g10"
     inkscape:groupmode="layer"
     inkscape:label="Mouse_chocolate"
     transform="matrix(1.3333333,0,0,-1.3333333,0,88.818664)"><rect
       style="opacity:1;fill:#f5f5f5;fill-opacity:1;fill-rule:evenodd;stroke:none;stroke-width:5.6692915;stroke-linecap:round;stroke-miterlimit:4;stroke-dasharray:none;stroke-dashoffset:0;stroke-opacity:1"
       id="rect1644"
       width="90.020279"
       height="82.925858"
       x="-6.4638028"
       y="-70.786522"
       transform="scale(1,-1)" /><g
       id="g12"><path
         d="m 17.434,2.833 c 0,1.41 -2.918,2.551 -6.52,2.551 -3.602,0 -6.519,-1.141 -6.519,-2.551 0,-1.407 2.917,-2.551 6.519,-2.551 3.602,0 6.52,1.144 6.52,2.551 z"
         style="fill:#b4b4b4;fill-opacity:1;fill-rule:nonzero;stroke:none"
         id="path14"
         inkscape:connector-curvature="0" /><path
         d="m 31.891,2.833 c 0,1.41 -2.918,2.551 -6.52,2.551 -3.601,0 -6.519,-1.141 -6.519,-2.551 0,-1.407 2.918,-2.551 6.519,-2.551 3.602,0 6.52,1.144 6.52,2.551 z"
         style="fill:#b4b4b4;fill-opacity:1;fill-rule:nonzero;stroke:none"
         id="path16"
         inkscape:connector-curvature="0" /><path
         d="m 36.285,58.676 c 0,4.383 -3.555,7.938 -7.937,7.938 -4.383,0 -7.938,-3.555 -7.938,-7.938 0,-4.382 3.555,-7.937 7.938,-7.937 4.382,0 7.937,3.555 7.937,7.937 z"
         style="fill:#b4b4b4;fill-opacity:1;fill-rule:nonzero;stroke:none"
         id="path18"
         inkscape:connector-curvature="0" /><path
         d="m 32.598,58.676 c 0,2.348 -1.903,4.254 -4.25,4.254 -2.348,0 -4.254,-1.906 -4.254,-4.254 0,-2.347 1.906,-4.25 4.254,-4.25 2.347,0 4.25,1.903 4.25,4.25 z"
         style="fill:#8c8c8c;fill-opacity:1;fill-rule:nonzero;stroke:none"
         id="path20"
         inkscape:connector-curvature="0" /><path
         d="m 15.875,58.676 c 0,4.383 -3.555,7.938 -7.937,7.938 C 3.555,66.614 0,63.059 0,58.676 c 0,-4.382 3.555,-7.937 7.938,-7.937 4.382,0 7.937,3.555 7.937,7.937 z"
         style="fill:#b4b4b4;fill-opacity:1;fill-rule:nonzero;stroke:none"
         id="path22"
         inkscape:connector-curvature="0" /><path
         d="m 12.188,58.676 c 0,2.348 -1.903,4.254 -4.25,4.254 -2.348,0 -4.254,-1.906 -4.254,-4.254 0,-2.347 1.906,-4.25 4.254,-4.25 2.347,0 4.25,1.903 4.25,4.25 z"
         style="fill:#8c8c8c;fill-opacity:1;fill-rule:nonzero;stroke:none"
         id="path24"
         inkscape:connector-curvature="0" /><path
         d="M 28.008,10.63 C 35.094,21.091 40.195,38.977 49.297,43.227 56.949,46.63 65.68,34.27 63.75,34.157 44.59,58.903 39.996,16.329 29.793,9.809 Z"
         style="fill:#b4b4b4;fill-opacity:1;fill-rule:nonzero;stroke:none"
         id="path26"
         inkscape:connector-curvature="0" /><path
         d="M 35.008,23.243 C 35.008,4.536 28.203,2.266 18.141,2.266 8.078,2.266 1.277,4.536 1.277,23.243 0.992,41.954 8.645,56.977 18.141,56.977 c 9.496,0 17.152,-15.023 16.867,-33.734 z"
         style="fill:#8c8c8c;fill-opacity:1;fill-rule:nonzero;stroke:none"
         id="path28"
         inkscape:connector-curvature="0" /><path
         d="m 32.316,48.188 c 0,-6.234 -8.504,-15.59 -14.175,-18.14 -5.668,2.55 -14.172,11.906 -14.172,18.14 4.535,14.176 23.812,14.176 28.347,0 z"
         style="fill:#b4b4b4;fill-opacity:1;fill-rule:nonzero;stroke:none"
         id="path30"
         inkscape:connector-curvature="0" /><path
         d="m 32.797,22.641 c 1.285,3.532 0.773,6.961 -1.137,7.657 -1.914,0.695 -4.508,-1.602 -5.793,-5.133 -1.285,-3.531 -0.773,-6.957 1.137,-7.656 1.914,-0.696 4.508,1.605 5.793,5.132 z"
         style="fill:#b4b4b4;fill-opacity:1;fill-rule:nonzero;stroke:none"
         id="path32"
         inkscape:connector-curvature="0" /><path
         d="m 20.375,31.575 c 2.465,0.434 3.676,-1.438 6.141,-1.871 v 0.285 c -2.434,0.43 -3.707,2.016 -6.141,1.586 z m -4.465,0 c -2.465,0.434 -3.68,-1.438 -6.144,-1.871 v 0.285 c 2.437,0.43 3.707,2.016 6.144,1.586 z"
         style="fill:#464646;fill-opacity:1;fill-rule:nonzero;stroke:none"
         id="path34"
         inkscape:connector-curvature="0" /><path
         d="m 20.273,31.958 c 2.352,0.855 4.02,0.078 6.372,-0.778 v 0.286 c -2.344,0.851 -4.028,1.343 -6.372,0.492 z m -4.261,0 c -2.356,0.855 -4.02,0.078 -6.375,-0.778 v 0.286 c 2.347,0.851 4.031,1.343 6.375,0.492 z"
         style="fill:#464646;fill-opacity:1;fill-rule:nonzero;stroke:none"
         id="path36"
         inkscape:connector-curvature="0" /><path
         d="m 20.043,32.415 c 2.105,1.367 4.281,2.047 6.383,0.679 v 0.282 c -2.11,1.375 -4.27,0.414 -6.383,-0.961 z m -3.805,0 c -2.101,1.367 -4.277,2.047 -6.383,0.679 v 0.282 c 2.114,1.375 4.274,0.414 6.383,-0.961 z"
         style="fill:#464646;fill-opacity:1;fill-rule:nonzero;stroke:none"
         id="path38"
         inkscape:connector-curvature="0" /><path
         d="m 20.691,32.544 c 0,1.406 -1.14,2.55 -2.55,2.55 -1.407,0 -2.551,-1.144 -2.551,-2.55 0,-1.41 1.144,-2.555 2.551,-2.555 1.41,0 2.55,1.145 2.55,2.555 z"
         style="fill:#464646;fill-opacity:1;fill-rule:nonzero;stroke:none"
         id="path40"
         inkscape:connector-curvature="0" /><path
         d="m 26.078,44.786 c 0,0.785 -0.633,1.418 -1.418,1.418 -0.781,0 -1.414,-0.633 -1.414,-1.418 0,-0.781 0.633,-1.414 1.414,-1.414 0.785,0 1.418,0.633 1.418,1.414 z"
         style="fill:#464646;fill-opacity:1;fill-rule:nonzero;stroke:none"
         id="path42"
         inkscape:connector-curvature="0" /><path
         d="m 13.039,44.786 c 0,0.785 -0.633,1.418 -1.418,1.418 -0.781,0 -1.418,-0.633 -1.418,-1.418 0,-0.781 0.637,-1.414 1.418,-1.414 0.785,0 1.418,0.633 1.418,1.414 z"
         style="fill:#464646;fill-opacity:1;fill-rule:nonzero;stroke:none"
         id="path44"
         inkscape:connector-curvature="0" /><path
         d="M 14.5,29.278 1.27,13.067 8.762,7.028 20.484,21.387 c -1.882,1.848 -0.796,2.454 -0.57,3.653 z"
         style="fill:#754421;fill-opacity:1;fill-rule:evenodd;stroke:none"
         id="path46"
         inkscape:connector-curvature="0" /><g
         id="g48"
         transform="translate(0,66.613998)"><path
           d="m 3.117,-54.938 13.227,16.215"
           style="fill:none;stroke:#3a2210;stroke-width:0.375;stroke-linecap:butt;stroke-linejoin:miter;stroke-miterlimit:4;stroke-dasharray:none;stroke-opacity:1"
           id="path50"
           inkscape:connector-curvature="0" /></g><g
         id="g52"
         transform="translate(0,66.613998)"><path
           d="m 5.137,-56.559 13.226,16.211"
           style="fill:none;stroke:#3a2210;stroke-width:0.375;stroke-linecap:butt;stroke-linejoin:miter;stroke-miterlimit:4;stroke-dasharray:none;stroke-opacity:1"
           id="path54"
           inkscape:connector-curvature="0" /></g><g
         id="g56"
         transform="translate(0,66.613998)"><path
           d="m 7.051,-58.094 12.183,14.692"
           style="fill:none;stroke:#3a2210;stroke-width:0.375;stroke-linecap:butt;stroke-linejoin:miter;stroke-miterlimit:4;stroke-dasharray:none;stroke-opacity:1"
           id="path58"
           inkscape:connector-curvature="0" /></g><g
         id="g60"
         transform="translate(0,66.613998)"><path
           d="m 2.812,-51.871 7.262,-6.188"
           style="fill:none;stroke:#3a2210;stroke-width:0.375;stroke-linecap:butt;stroke-linejoin:miter;stroke-miterlimit:4;stroke-dasharray:none;stroke-opacity:1"
           id="path62"
           inkscape:connector-curvature="0" /></g><g
         id="g64"
         transform="translate(0,66.613998)"><path
           d="m 6.402,-47.398 7.262,-6.192"
           style="fill:none;stroke:#3a2210;stroke-width:0.375;stroke-linecap:butt;stroke-linejoin:miter;stroke-miterlimit:4;stroke-dasharray:none;stroke-opacity:1"
           id="path66"
           inkscape:connector-curvature="0" /></g><g
         id="g68"
         transform="translate(0,66.613998)"><path
           d="m 4.605,-49.637 7.266,-6.187"
           style="fill:none;stroke:#3a2210;stroke-width:0.375;stroke-linecap:butt;stroke-linejoin:miter;stroke-miterlimit:4;stroke-dasharray:none;stroke-opacity:1"
           id="path70"
           inkscape:connector-curvature="0" /></g><g
         id="g72"
         transform="translate(0,66.613998)"><path
           d="m 11.785,-40.695 7.266,-6.188"
           style="fill:none;stroke:#3a2210;stroke-width:0.375;stroke-linecap:butt;stroke-linejoin:miter;stroke-miterlimit:4;stroke-dasharray:none;stroke-opacity:1"
           id="path74"
           inkscape:connector-curvature="0" /></g><g
         id="g76"
         transform="translate(0,66.613998)"><path
           d="m 8.195,-45.164 7.266,-6.191"
           style="fill:none;stroke:#3a2210;stroke-width:0.375;stroke-linecap:butt;stroke-linejoin:miter;stroke-miterlimit:4;stroke-dasharray:none;stroke-opacity:1"
           id="path78"
           inkscape:connector-curvature="0" /></g><g
         id="g80"
         transform="translate(0,66.613998)"><path
           d="m 9.992,-42.93 7.262,-6.187"
           style="fill:none;stroke:#3a2210;stroke-width:0.375;stroke-linecap:butt;stroke-linejoin:miter;stroke-miterlimit:4;stroke-dasharray:none;stroke-opacity:1"
           id="path82"
           inkscape:connector-curvature="0" /></g><g
         id="g84"
         transform="translate(0,66.613998)"><path
           d="m 13.469,-38.59 5.867,-4.629"
           style="fill:none;stroke:#3a2210;stroke-width:0.375;stroke-linecap:butt;stroke-linejoin:miter;stroke-miterlimit:4;stroke-dasharray:none;stroke-opacity:1"
           id="path86"
           inkscape:connector-curvature="0" /></g><path
         d="M 10.414,25.165 C 9.129,28.696 6.539,30.993 4.625,30.298 2.711,29.602 2.203,26.173 3.488,22.641 c 1.285,-3.527 3.879,-5.828 5.789,-5.132 1.914,0.699 2.422,4.125 1.137,7.656 z"
         style="fill:#b4b4b4;fill-opacity:1;fill-rule:nonzero;stroke:none"
         id="path88"
         inkscape:connector-curvature="0" /></g></g></svg>