<?xml version="1.0" encoding="UTF-8" standalone="no"?>
<!-- Created with Inkscape (http://www.inkscape.org/) -->

<svg
   xmlns:dc="http://purl.org/dc/elements/1.1/"
   xmlns:cc="http://creativecommons.org/ns#"
   xmlns:rdf="http://www.w3.org/1999/02/22-rdf-syntax-ns#"
   xmlns:svg="http://www.w3.org/2000/svg"
   xmlns="http://www.w3.org/2000/svg"
   xmlns:sodipodi="http://sodipodi.sourceforge.net/DTD/sodipodi-0.dtd"
   xmlns:inkscape="http://www.inkscape.org/namespaces/inkscape"
   version="1.1"
   id="svg2"
   xml:space="preserve"
   width="95.032951"
   height="97.033272"
   viewBox="0 0 95.032952 97.033272"
   sodipodi:docname="nurse.svg"
   inkscape:version="0.92.2 5c3e80d, 2017-08-06"><metadata
     id="metadata8"><rdf:RDF><cc:Work
         rdf:about=""><dc:format>image/svg+xml</dc:format><dc:type
           rdf:resource="http://purl.org/dc/dcmitype/StillImage" /><dc:title></dc:title></cc:Work></rdf:RDF></metadata><defs
     id="defs6" /><sodipodi:namedview
     pagecolor="#ffffff"
     bordercolor="#666666"
     borderopacity="1"
     objecttolerance="10"
     gridtolerance="10"
     guidetolerance="10"
     inkscape:pageopacity="0"
     inkscape:pageshadow="2"
     inkscape:window-width="640"
     inkscape:window-height="480"
     id="namedview4"
     showgrid="false"
     fit-margin-top="1"
     fit-margin-left="1"
     fit-margin-right="1"
     fit-margin-bottom="1"
     inkscape:zoom="2.1582319"
     inkscape:cx="-57.170912"
     inkscape:cy="54.538094"
     inkscape:current-layer="g10" /><g
     id="g10"
     inkscape:groupmode="layer"
     inkscape:label="document"
     transform="matrix(1.3333333,0,0,-1.3333333,8.6693071,96.410821)"><g
       id="g20"
       transform="translate(18.142,-2.835)"><path
         d="m -0.70892,5.66927 c 0,1.40895 -2.9189,2.5511 -6.51964,2.5511 -3.60074,0 -6.51964,-1.14215 -6.51964,-2.5511 0,-1.40896 2.9189,-2.55111 6.51964,-2.55111 3.60074,0 6.51964,1.14215 6.51964,2.55111 z"
         style="fill:#b4b4b4;fill-opacity:1;fill-rule:nonzero;stroke:none"
         id="path22"
         inkscape:connector-curvature="0" /></g><g
       id="g24"
       transform="translate(18.142,-2.835)"><path
         d="m 13.7482,5.66927 c 0,1.40895 -2.9189,2.5511 -6.51964,2.5511 -3.60074,0 -6.51964,-1.14215 -6.51964,-2.5511 0,-1.40896 2.9189,-2.55111 6.51964,-2.55111 3.60074,0 6.51964,1.14215 6.51964,2.55111 z"
         style="fill:#b4b4b4;fill-opacity:1;fill-rule:nonzero;stroke:none"
         id="path26"
         inkscape:connector-curvature="0" /></g><g
       id="g28"
       transform="translate(18.142,-2.835)"><path
         d="m 18.1419,61.51251 c 0,4.38358 -3.55348,7.93706 -7.93705,7.93706 -4.38356,0 -7.93706,-3.55348 -7.93706,-7.93706 0,-4.38356 3.5535,-7.93706 7.93706,-7.93706 4.38357,0 7.93705,3.5535 7.93705,7.93706 z"
         style="fill:#b4b4b4;fill-opacity:1;fill-rule:nonzero;stroke:none"
         id="path30"
         inkscape:connector-curvature="0" /></g><g
       id="g32"
       transform="translate(18.142,-2.835)"><path
         d="m 14.4567,61.51251 c 0,2.34825 -1.9036,4.25185 -4.25185,4.25185 -2.34825,0 -4.25183,-1.9036 -4.25183,-4.25185 0,-2.34825 1.90358,-4.25183 4.25183,-4.25183 2.34825,0 4.25185,1.90358 4.25185,4.25183 z"
         style="fill:#8c8c8c;fill-opacity:1;fill-rule:nonzero;stroke:none"
         id="path34"
         inkscape:connector-curvature="0" /></g><g
       id="g36"
       transform="translate(18.142,-2.835)"><path
         d="m -2.26779,61.51251 c 0,4.38358 -3.5535,7.93706 -7.93706,7.93706 -4.38357,0 -7.93705,-3.55348 -7.93705,-7.93706 0,-4.38356 3.55348,-7.93706 7.93705,-7.93706 4.38356,0 7.93706,3.5535 7.93706,7.93706 z"
         style="fill:#b4b4b4;fill-opacity:1;fill-rule:nonzero;stroke:none"
         id="path38"
         inkscape:connector-curvature="0" /></g><g
       id="g40"
       transform="translate(18.142,-2.835)"><path
         d="m -5.95302,61.51251 c 0,2.34825 -1.90358,4.25185 -4.25183,4.25185 -2.34825,0 -4.25185,-1.9036 -4.25185,-4.25185 0,-2.34825 1.9036,-4.25183 4.25185,-4.25183 2.34825,0 4.25183,1.90358 4.25183,4.25183 z"
         style="fill:#8c8c8c;fill-opacity:1;fill-rule:nonzero;stroke:none"
         id="path42"
         inkscape:connector-curvature="0" /></g><g
       id="g44"
       transform="translate(18.142,-2.835)"><path
         d="M 9.86487,13.46489 C 16.95158,23.92453 22.0538,41.81169 31.1531,46.06355 38.80685,49.46503 47.53764,37.10612 45.60982,36.99237 26.44753,61.73917 21.85527,19.16228 11.65039,12.64264 Z"
         style="fill:#b4b4b4;fill-opacity:1;fill-rule:nonzero;stroke:none"
         id="path46"
         inkscape:connector-curvature="0" /></g><g
       id="g48"
       transform="translate(18.142,-2.835)"><path
         d="M 16.86638,26.079 C 16.86638,7.37 10.06299,5.1022 0,5.1022 -10.06299,5.1022 -16.86638,7.37 -16.86638,26.079 -17.14967,44.788 -9.49635,59.81177 0,59.81177 9.49635,59.81177 17.14967,44.788 16.86638,26.079 Z"
         style="fill:#8c8c8c;fill-opacity:1;fill-rule:nonzero;stroke:none"
         id="path50"
         inkscape:connector-curvature="0" /></g><g
       id="g52"
       transform="translate(18.142,-2.835)"><path
         d="M 14.17339,51.02432 C 14.17339,44.788 5.66927,35.43349 0,32.88239 c -5.66927,2.5511 -14.17339,11.90561 -14.17339,18.14193 4.53559,14.17342 23.81119,14.17342 28.34678,0 z"
         style="fill:#b4b4b4;fill-opacity:1;fill-rule:nonzero;stroke:none"
         id="path54"
         inkscape:connector-curvature="0" /></g><path
       style="fill:#f5f5f5;fill-rule:evenodd;stroke:none;stroke-width:0.75px;stroke-linecap:butt;stroke-linejoin:miter;stroke-opacity:1"
       d="M 2.8017832,38.031437 C 15.712063,29.644142 23.237364,30.387813 33.602049,37.791771 c 0,0 2.745666,-14.207326 1.1495,-21.134992 1.014684,-6.029701 4.074318,-8.2684726 4.074318,-8.2684726 C 29.23688,5.6686761 7.0288222,4.8400312 -2.7561573,9.2271371 c 0,0 2.65438818,1.8885049 3.9544865,8.1486389 -1.62694946,8.875214 1.603454,20.655661 1.603454,20.655661 z"
       id="path232"
       inkscape:connector-curvature="0"
       sodipodi:nodetypes="ccccccc" /><g
       id="g56"
       transform="translate(18.142,-2.835)"><path
         d="m 14.65302,25.47795 c 1.28512,3.53085 0.7765,6.95743 -1.13607,7.65353 -1.91256,0.69612 -4.50477,-1.60182 -5.7899,-5.13268 -1.28512,-3.53086 -0.7765,-6.95743 1.13606,-7.65354 1.91256,-0.69612 4.50478,1.60182 5.78991,5.13269 z"
         style="fill:#b4b4b4;fill-opacity:1;fill-rule:nonzero;stroke:none"
         id="path58"
         inkscape:connector-curvature="0" /></g><g
       id="g60"
       transform="translate(18.142,-2.835)"><path
         d="m -7.72705,27.9988 c -1.28513,3.53086 -3.87734,5.8288 -5.7899,5.13268 -1.91257,-0.6961 -2.42119,-4.12268 -1.13607,-7.65353 1.28513,-3.53087 3.87735,-5.82881 5.78991,-5.13269 1.91256,0.69611 2.42118,4.12268 1.13606,7.65354 z"
         style="fill:#b4b4b4;fill-opacity:1;fill-rule:nonzero;stroke:none"
         id="path62"
         inkscape:connector-curvature="0" /></g><g
       id="g64"
       transform="translate(18.142,-2.835)"><path
         d="m 2.2336,34.1467 c 2.46634,0.4334 3.67961,-1.43732 6.1455,-1.87116 v 0.28374 c -2.43473,0.4278 -3.70771,2.0152 -6.1455,1.58742 z"
         style="fill:#464646;fill-opacity:1;fill-rule:nonzero;stroke:none"
         id="path66"
         inkscape:connector-curvature="0" /></g><g
       id="g68"
       transform="translate(18.142,-2.835)"><path
         d="m -2.2336,34.1467 c -2.46634,0.4334 -3.68222,-1.43732 -6.1455,-1.87116 v 0.28374 c 2.43473,0.4278 3.70771,2.0152 6.1455,1.58742 z"
         style="fill:#464646;fill-opacity:1;fill-rule:nonzero;stroke:none"
         id="path70"
         inkscape:connector-curvature="0" /></g><g
       id="g72"
       transform="translate(18.142,-2.835)"><path
         d="m 2.13153,34.52907 c 2.35561,0.85641 4.0226,0.07957 6.37821,-0.77641 v 0.2833 c -2.34696,0.85341 -4.03081,1.3465 -6.37821,0.49311 z"
         style="fill:#464646;fill-opacity:1;fill-rule:nonzero;stroke:none"
         id="path74"
         inkscape:connector-curvature="0" /></g><g
       id="g76"
       transform="translate(18.142,-2.835)"><path
         d="m -2.13153,34.52907 c -2.35561,0.85641 -4.0226,0.07957 -6.37821,-0.77641 v 0.2833 c 2.34696,0.85341 4.03081,1.3465 6.37821,0.49311 z"
         style="fill:#464646;fill-opacity:1;fill-rule:nonzero;stroke:none"
         id="path78"
         inkscape:connector-curvature="0" /></g><g
       id="g80"
       transform="translate(18.142,-2.835)"><path
         d="m 1.90186,34.9884 c 2.10646,1.36641 4.28343,2.04377 6.38944,0.67737 v 0.28374 C 6.17664,37.32152 4.01654,36.36041 1.90186,34.9884 Z"
         style="fill:#464646;fill-opacity:1;fill-rule:nonzero;stroke:none"
         id="path82"
         inkscape:connector-curvature="0" /></g><g
       id="g84"
       transform="translate(18.142,-2.835)"><path
         d="m -1.90186,34.9884 c -2.10646,1.36641 -4.28343,2.04377 -6.38944,0.67737 v 0.28374 c 2.11466,1.37201 4.27476,0.4109 6.38944,-0.96111 z"
         style="fill:#464646;fill-opacity:1;fill-rule:nonzero;stroke:none"
         id="path86"
         inkscape:connector-curvature="0" /></g><g
       id="g88"
       transform="translate(18.142,-2.835)"><path
         d="m 2.5511,35.37683 c 0,1.40895 -1.14216,2.5511 -2.5511,2.5511 -1.40894,0 -2.5511,-1.14215 -2.5511,-2.5511 0,-1.40895 1.14216,-2.5511 2.5511,-2.5511 1.40894,0 2.5511,1.14215 2.5511,2.5511 z"
         style="fill:#464646;fill-opacity:1;fill-rule:nonzero;stroke:none"
         id="path90"
         inkscape:connector-curvature="0" /></g><g
       id="g92"
       transform="translate(18.142,-2.835)"><path
         d="m 7.93706,47.62242 c 0,0.78282 -0.6346,1.41742 -1.41742,1.41742 -0.78284,0 -1.41742,-0.6346 -1.41742,-1.41742 0,-0.78282 0.63458,-1.41742 1.41742,-1.41742 0.78282,0 1.41742,0.6346 1.41742,1.41742 z"
         style="fill:#464646;fill-opacity:1;fill-rule:nonzero;stroke:none"
         id="path94"
         inkscape:connector-curvature="0" /></g><g
       id="g96"
       transform="translate(18.142,-2.835)"><path
         d="m -5.10222,47.62242 c 0,0.78282 -0.63458,1.41742 -1.41742,1.41742 -0.78282,0 -1.41742,-0.6346 -1.41742,-1.41742 0,-0.78282 0.6346,-1.41742 1.41742,-1.41742 0.78284,0 1.41742,0.6346 1.41742,1.41742 z"
         style="fill:#464646;fill-opacity:1;fill-rule:nonzero;stroke:none"
         id="path98"
         inkscape:connector-curvature="0" /></g><rect
       style="opacity:1;fill:#dc143c;fill-opacity:1;fill-rule:evenodd;stroke:none;stroke-width:0.75"
       id="rect405"
       width="2.3966587"
       height="9.3469677"
       x="16.896441"
       y="-25.76408"
       transform="scale(1,-1)" /><rect
       transform="matrix(0,-1,-1,0,0,0)"
       y="-22.768253"
       x="-22.288925"
       height="9.3469677"
       width="2.3966587"
       id="rect407"
       style="opacity:1;fill:#dc143c;fill-opacity:1;fill-rule:evenodd;stroke:none;stroke-width:0.75" /><path
       style="fill:#f5f5f5;fill-rule:evenodd;stroke:none;stroke-width:0.75px;stroke-linecap:butt;stroke-linejoin:miter;stroke-opacity:1"
       d="m 5.2726487,50.68933 c 7.1589513,4.360678 19.8125423,4.734959 26.4830773,0.239666 0,0 12.133765,0.566744 10.66513,11.623794 C 31.53389,74.357906 5.5550939,74.555325 -5.7519805,63.151954 -5.5721204,52.320068 5.2726487,50.68933 5.2726487,50.68933 Z"
       id="path409"
       inkscape:connector-curvature="0"
       sodipodi:nodetypes="ccccc" /><rect
       transform="scale(1,-1)"
       y="-25.76408"
       x="16.896441"
       height="9.3469677"
       width="2.3966587"
       id="rect411"
       style="opacity:1;fill:#dc143c;fill-opacity:1;fill-rule:evenodd;stroke:none;stroke-width:0.75" /><rect
       style="opacity:1;fill:#dc143c;fill-opacity:1;fill-rule:evenodd;stroke:none;stroke-width:0.75"
       id="rect413"
       width="2.3966587"
       height="9.3469677"
       x="-22.288925"
       y="-22.768253"
       transform="matrix(0,-1,-1,0,0,0)" /><rect
       style="opacity:1;fill:#dc143c;fill-opacity:1;fill-rule:evenodd;stroke:none;stroke-width:0.75"
       id="rect415"
       width="2.3966587"
       height="9.3469677"
       x="16.896441"
       y="-67.764084"
       transform="scale(1,-1)" /><rect
       transform="matrix(0,-1,-1,0,0,0)"
       y="-22.768253"
       x="-64.288925"
       height="9.3469677"
       width="2.3966587"
       id="rect417"
       style="opacity:1;fill:#dc143c;fill-opacity:1;fill-rule:evenodd;stroke:none;stroke-width:0.75" /></g></svg>
