<?xml version="1.0" encoding="UTF-8" standalone="no"?>
<!-- Created with Inkscape (http://www.inkscape.org/) -->

<svg
   xmlns:dc="http://purl.org/dc/elements/1.1/"
   xmlns:cc="http://creativecommons.org/ns#"
   xmlns:rdf="http://www.w3.org/1999/02/22-rdf-syntax-ns#"
   xmlns:svg="http://www.w3.org/2000/svg"
   xmlns="http://www.w3.org/2000/svg"
   xmlns:xlink="http://www.w3.org/1999/xlink"
   xmlns:sodipodi="http://sodipodi.sourceforge.net/DTD/sodipodi-0.dtd"
   xmlns:inkscape="http://www.inkscape.org/namespaces/inkscape"
   version="1.1"
   id="svg2"
   xml:space="preserve"
   width="102.43597"
   height="106.13"
   viewBox="0 0 102.43597 106.13"
   sodipodi:docname="Passepartout.svg"
   inkscape:version="0.92.2 5c3e80d, 2017-08-06"><metadata
     id="metadata8"><rdf:RDF><cc:Work
         rdf:about=""><dc:format>image/svg+xml</dc:format><dc:type
           rdf:resource="http://purl.org/dc/dcmitype/StillImage" /><dc:title /></cc:Work></rdf:RDF></metadata><defs
     id="defs6"><pattern
       inkscape:collect="always"
       xlink:href="#Strips1_1white"
       id="pattern2358"
       patternTransform="matrix(-0.00476654,3.1852267,-66.732095,-0.0998614,198.04087,58.854567)" /><pattern
       inkscape:stockid="Stripes 1:1 white"
       id="Strips1_1white"
       patternTransform="translate(0,0) scale(10,10)"
       height="1"
       width="2"
       patternUnits="userSpaceOnUse"
       inkscape:collect="always"><rect
         id="rect1641"
         height="2"
         width="1"
         y="-0.5"
         x="0"
         style="fill:white;stroke:none" /></pattern><clipPath
       clipPathUnits="userSpaceOnUse"
       id="clipPath76"><path
         d="m 95.24538,-96.37926 c 8.50401,12.5858 14.62666,34.0161 25.51205,39.11829 9.18448,4.08229 24.15112,-10.54489 17.34801,-10.88487 -21.77027,23.81117 -23.81114,-24.83159 -36.05696,-32.65566 z"
         id="path74"
         inkscape:connector-curvature="0" /></clipPath></defs><sodipodi:namedview
     pagecolor="#ffffff"
     bordercolor="#666666"
     borderopacity="1"
     objecttolerance="10"
     gridtolerance="10"
     guidetolerance="10"
     inkscape:pageopacity="0"
     inkscape:pageshadow="2"
     inkscape:window-width="640"
     inkscape:window-height="480"
     id="namedview4"
     showgrid="false"
     inkscape:zoom="3.0502384"
     inkscape:cx="117.41567"
     inkscape:cy="23.646719"
     inkscape:current-layer="g10"
     fit-margin-top="0"
     fit-margin-left="0"
     fit-margin-right="0"
     fit-margin-bottom="0" /><g
     id="g10"
     inkscape:groupmode="layer"
     inkscape:label="80days"
     transform="matrix(1.3333333,0,0,-1.3333333,-235.54223,168.92266)"><rect
       style="opacity:1;fill:#f5f5f5;fill-opacity:1;fill-rule:evenodd;stroke:none;stroke-width:5.6692915;stroke-linecap:round;stroke-miterlimit:4;stroke-dasharray:none;stroke-dashoffset:0;stroke-opacity:1"
       id="rect1638"
       width="96.14003"
       height="92.69767"
       x="169.28021"
       y="-132.16982"
       transform="scale(1,-1)" /><g
       transform="translate(28.346,156.74)"
       id="g34" /><g
       transform="translate(28.346,156.74)"
       id="g54" /><path
       inkscape:connector-curvature="0"
       id="path174"
       style="fill:#b4b4b4;fill-opacity:1;fill-rule:nonzero;stroke:none"
       d="m 197.57621,50.15582 c 0,1.69073 -3.50267,3.06131 -7.82355,3.06131 -4.32088,0 -7.82355,-1.37058 -7.82355,-3.06131 0,-1.69074 3.50267,-3.06132 7.82355,-3.06132 4.32088,0 7.82355,1.37058 7.82355,3.06132 z" /><path
       inkscape:connector-curvature="0"
       id="path178"
       style="fill:#b4b4b4;fill-opacity:1;fill-rule:nonzero;stroke:none"
       d="m 214.9247,50.15582 c 0,1.69073 -3.50267,3.06131 -7.82354,3.06131 -4.32088,0 -7.82355,-1.37058 -7.82355,-3.06131 0,-1.69074 3.50267,-3.06132 7.82355,-3.06132 4.32087,0 7.82354,1.37058 7.82354,3.06132 z" /><path
       inkscape:connector-curvature="0"
       id="path182"
       style="fill:#b4b4b4;fill-opacity:1;fill-rule:nonzero;stroke:none"
       d="m 220.19714,117.16755 c 0,5.26027 -4.26418,9.52445 -9.52444,9.52445 -5.26026,0 -9.52444,-4.26418 -9.52444,-9.52445 0,-5.26025 4.26418,-9.52443 9.52444,-9.52443 5.26026,0 9.52444,4.26418 9.52444,9.52443 z" /><path
       inkscape:connector-curvature="0"
       id="path186"
       style="fill:#8c8c8c;fill-opacity:1;fill-rule:nonzero;stroke:none"
       d="m 215.7749,117.16755 c 0,2.8179 -2.28431,5.1022 -5.1022,5.1022 -2.8179,0 -5.1022,-2.2843 -5.1022,-5.1022 0,-2.8179 2.2843,-5.10219 5.1022,-5.10219 2.81789,0 5.1022,2.28429 5.1022,5.10219 z" /><path
       inkscape:connector-curvature="0"
       id="path190"
       style="fill:#b4b4b4;fill-opacity:1;fill-rule:nonzero;stroke:none"
       d="m 195.70556,117.16755 c 0,5.26027 -4.26416,9.52445 -9.52443,9.52445 -5.26027,0 -9.52445,-4.26418 -9.52445,-9.52445 0,-5.26025 4.26418,-9.52443 9.52445,-9.52443 5.26027,0 9.52443,4.26418 9.52443,9.52443 z" /><path
       inkscape:connector-curvature="0"
       id="path194"
       style="fill:#8c8c8c;fill-opacity:1;fill-rule:nonzero;stroke:none"
       d="m 191.28332,117.16755 c 0,2.8179 -2.28429,5.1022 -5.10219,5.1022 -2.8179,0 -5.1022,-2.2843 -5.1022,-5.1022 0,-2.8179 2.2843,-5.10219 5.1022,-5.10219 2.8179,0 5.10219,2.28429 5.10219,5.10219 z" /><path
       inkscape:connector-curvature="0"
       id="path198"
       style="fill:#b4b4b4;fill-opacity:1;fill-rule:nonzero;stroke:none"
       d="m 210.26473,59.51054 c 8.50403,12.55154 14.62668,34.0161 25.54581,39.11831 9.18449,4.08176 19.66141,-10.7489 17.34802,-10.8854 -22.99469,29.69609 -28.50539,-21.39605 -40.7512,-29.21959 z" /><path
       inkscape:connector-curvature="0"
       id="path202"
       style="fill:#8c8c8c;fill-opacity:1;fill-rule:nonzero;stroke:none"
       d="m 218.66651,74.64744 c 0,-22.45074 -8.16405,-25.17209 -20.23959,-25.17209 -12.07556,0 -20.2396,2.72135 -20.2396,25.17209 -0.33996,22.45074 8.84401,40.47922 20.2396,40.47922 11.39558,0 20.57954,-18.02848 20.23959,-40.47922 z" /><path
       d="m 218.66651,74.64744 c 0,-22.45074 -8.16405,-25.17209 -20.23959,-25.17209 -12.07556,0 -20.2396,2.72135 -20.2396,25.17209 -0.0213,1.403171 -0.005,2.789068 0.0461,4.154369 0.0514,1.3653 0.13816,2.710004 0.25859,4.03079 0.12042,1.320787 0.27448,2.617655 0.46038,3.887283 0.1859,1.269628 0.40365,2.512016 0.65146,3.723842 0.24781,1.211826 0.52569,2.393091 0.83184,3.540472 0.30615,1.147381 0.64057,2.260878 1.00149,3.33717 0.36092,1.076292 0.74833,2.115378 1.16045,3.113934 l 15.53296,-24.871519 16.12565,24.871519 c 0.41212,-0.998556 0.79953,-2.037642 1.16044,-3.113934 0.36092,-1.076292 0.69535,-2.189789 1.0015,-3.33717 0.30615,-1.147381 0.58402,-2.328646 0.83183,-3.540472 0.24782,-1.211826 0.46557,-2.454214 0.65147,-3.723842 0.1859,-1.269628 0.33996,-2.566496 0.46038,-3.887283 0.12042,-1.320786 0.20721,-2.66549 0.25859,-4.03079 0.0514,-1.365301 0.0673,-2.751198 0.0461,-4.154369 z"
       style="fill:#4169e1;fill-opacity:1;fill-rule:nonzero;stroke:none"
       id="path113"
       inkscape:connector-curvature="0"
       sodipodi:nodetypes="cscsssssscccsssssscc" /><path
       sodipodi:nodetypes="cscsssssscccsssssscc"
       inkscape:connector-curvature="0"
       id="path115"
       style="fill:url(#pattern2358);fill-opacity:1;fill-rule:nonzero;stroke:none"
       d="m 218.66651,74.64744 c 0,-22.45074 -8.16405,-25.17209 -20.23959,-25.17209 -12.07556,0 -20.2396,2.72135 -20.2396,25.17209 -0.0213,1.403171 -0.005,2.789064 0.0461,4.154374 0.0514,1.3653 0.13816,2.71 0.25859,4.03079 0.12042,1.32078 0.27448,2.61765 0.46038,3.88728 0.1859,1.26963 0.40365,2.51201 0.65146,3.72384 0.24781,1.21183 0.52569,2.39309 0.83184,3.54047 0.30615,1.14738 0.64057,2.26088 1.00149,3.33717 0.36092,1.07629 0.74833,2.11538 1.16045,3.113936 l 15.53296,-24.871519 16.12565,24.871519 c 0.41212,-0.998556 0.79953,-2.037646 1.16044,-3.113936 0.36092,-1.07629 0.69535,-2.18979 1.0015,-3.33717 0.30615,-1.14738 0.58402,-2.32864 0.83183,-3.54047 0.24782,-1.21183 0.46557,-2.45421 0.65147,-3.72384 0.1859,-1.26963 0.33996,-2.5665 0.46038,-3.88728 0.12042,-1.32079 0.20721,-2.66549 0.25859,-4.03079 0.0514,-1.36531 0.0673,-2.751203 0.0461,-4.154374 z" /><path
       inkscape:connector-curvature="0"
       id="path206"
       style="fill:#b4b4b4;fill-opacity:1;fill-rule:nonzero;stroke:none"
       d="m 215.43493,104.58177 c 0,-7.48359 -10.20491,-18.70896 -17.00801,-21.77028 -6.8031,3.06132 -17.00803,14.28669 -17.00803,21.77028 5.44269,17.00804 28.57335,17.00804 34.01604,0 z" /><path
       inkscape:connector-curvature="0"
       id="path210"
       style="fill:#b4b4b4;fill-opacity:1;fill-rule:nonzero;stroke:none"
       d="m 216.01054,73.9263 c 1.54211,4.23698 0.93173,8.3488 -1.36333,9.1841 -2.29506,0.83533 -5.40564,-1.9222 -6.94774,-6.15919 -1.54211,-4.237 -0.93173,-8.34881 1.36333,-9.18413 2.29506,-0.83531 5.40564,1.92222 6.94774,6.15922 z" /><path
       inkscape:connector-curvature="0"
       id="path214"
       style="fill:#b4b4b4;fill-opacity:1;fill-rule:nonzero;stroke:none"
       d="m 189.15436,76.95121 c -1.54211,4.23699 -4.65269,6.99452 -6.94775,6.15919 -2.29506,-0.8353 -2.90543,-4.94712 -1.36333,-9.1841 1.5421,-4.237 4.6527,-6.99453 6.94776,-6.15922 2.29504,0.83532 2.90542,4.94713 1.36332,9.18413 z" /><path
       inkscape:connector-curvature="0"
       id="path218"
       style="fill:#464646;fill-opacity:1;fill-rule:nonzero;stroke:none"
       d="m 201.10723,84.32865 c 2.9596,0.5201 4.41553,-1.72477 7.37459,-2.24537 v 0.34048 c -2.92168,0.51335 -4.44925,2.41823 -7.37459,1.90489 z" /><path
       inkscape:connector-curvature="0"
       id="path222"
       style="fill:#464646;fill-opacity:1;fill-rule:nonzero;stroke:none"
       d="m 195.74659,84.32865 c -2.95959,0.5201 -4.41864,-1.72477 -7.37459,-2.24537 v 0.34048 c 2.9217,0.51335 4.44927,2.41823 7.37459,1.90489 z" /><path
       inkscape:connector-curvature="0"
       id="path226"
       style="fill:#464646;fill-opacity:1;fill-rule:nonzero;stroke:none"
       d="m 200.98475,84.7875 c 2.8267,1.0277 4.8271,0.09549 7.65384,-0.93169 v 0.33995 c -2.81636,1.0241 -4.83699,1.61582 -7.65384,0.59174 z" /><path
       inkscape:connector-curvature="0"
       id="path230"
       style="fill:#464646;fill-opacity:1;fill-rule:nonzero;stroke:none"
       d="m 195.86907,84.7875 c -2.8267,1.0277 -4.8271,0.09549 -7.65382,-0.93169 v 0.33995 c 2.81635,1.0241 4.83697,1.61582 7.65382,0.59174 z" /><path
       inkscape:connector-curvature="0"
       id="path234"
       style="fill:#464646;fill-opacity:1;fill-rule:nonzero;stroke:none"
       d="m 200.70913,85.33871 c 2.52775,1.63968 5.1401,2.4525 7.66733,0.81282 v 0.3405 c -2.53762,1.64641 -5.12972,0.49309 -7.66733,-1.15332 z" /><path
       inkscape:connector-curvature="0"
       id="path238"
       style="fill:#464646;fill-opacity:1;fill-rule:nonzero;stroke:none"
       d="m 196.1447,85.33871 c -2.52775,1.63968 -5.14012,2.4525 -7.66734,0.81282 v 0.3405 c 2.53762,1.64641 5.12972,0.49309 7.66734,-1.15332 z" /><path
       inkscape:connector-curvature="0"
       id="path242"
       style="fill:#464646;fill-opacity:1;fill-rule:nonzero;stroke:none"
       d="m 201.48823,85.80482 c 0,1.69073 -1.37058,3.06132 -3.06131,3.06132 -1.69074,0 -3.06133,-1.37059 -3.06133,-3.06132 0,-1.69074 1.37059,-3.06131 3.06133,-3.06131 1.69073,0 3.06131,1.37057 3.06131,3.06131 z" /><path
       inkscape:connector-curvature="0"
       id="path246"
       style="fill:#464646;fill-opacity:1;fill-rule:nonzero;stroke:none"
       d="m 207.95135,100.49948 c 0,0.93937 -0.76151,1.70089 -1.70089,1.70089 -0.93937,0 -1.70089,-0.76152 -1.70089,-1.70089 0,-0.93937 0.76152,-1.70088 1.70089,-1.70088 0.93938,0 1.70089,0.76151 1.70089,1.70088 z" /><path
       inkscape:connector-curvature="0"
       id="path250"
       style="fill:#464646;fill-opacity:1;fill-rule:nonzero;stroke:none"
       d="m 192.30425,100.49948 c 0,0.93937 -0.7615,1.70089 -1.70088,1.70089 -0.93937,0 -1.7009,-0.76152 -1.7009,-1.70089 0,-0.93937 0.76153,-1.70088 1.7009,-1.70088 0.93938,0 1.70088,0.76151 1.70088,1.70088 z" /><g
       id="g256"
       transform="translate(28.346,156.74)"><path
         inkscape:connector-curvature="0"
         id="path258"
         style="fill:#800000;fill-opacity:1;fill-rule:nonzero;stroke:none"
         d="m 186.9957,-50.68419 c 0.82666,3.08482 -5.85826,7.5565 -14.93143,9.98789 -9.07317,2.43136 -17.09834,1.90165 -17.925,-1.18319 -0.82667,-3.08482 5.85826,-7.5565 14.93143,-9.98788 9.07316,-2.43137 17.09834,-1.90166 17.925,1.18318 z" /></g><g
       id="g260"
       transform="translate(28.346,156.74)"><path
         inkscape:connector-curvature="0"
         id="path262"
         style="fill:#800000;fill-opacity:1;fill-rule:nonzero;stroke:none"
         d="m 189.51913,-47.83861 c 0.82667,3.08483 -6.59381,7.75362 -16.57435,10.42815 -9.98053,2.67453 -18.74128,2.34192 -19.56792,-0.74291 -0.82666,-3.08483 6.59381,-7.75361 16.57434,-10.42814 9.98055,-2.67453 18.74127,-2.34194 19.56793,0.7429 z" /></g><g
       id="g264"
       transform="translate(28.346,156.74)"><path
         inkscape:connector-curvature="0"
         id="path266"
         style="fill:#800000;fill-opacity:1;fill-rule:nonzero;stroke:none"
         d="m 175.39723,-38.7721 c 0.38901,1.45174 -0.47246,2.94393 -1.92418,3.33295 -1.45173,0.38902 -2.94392,-0.47244 -3.33295,-1.92418 -0.38902,-1.45172 0.47245,-2.94392 1.92419,-3.33294 1.45171,-0.38901 2.94392,0.47245 3.33294,1.92417 z" /></g><path
       d="m 198.42692,49.47535 c -3.01889,0 -5.79331,0.170084 -8.25681,0.776004 -2.46351,0.605919 -4.29547,2.050098 -6.39133,3.391014 -2.30827,1.476815 -5.19325,10.5323 -5.19325,10.5323 23.24999,-6.701484 39.68277,0.266525 39.68277,0.266525 0,0 -3.41803,-9.055486 -5.19326,-10.798825 -1.77523,-1.74334 -3.92781,-2.785095 -6.39132,-3.391014 -2.4635,-0.60592 -5.23792,-0.776004 -8.2568,-0.776004"
       style="fill:#000080;fill-opacity:1;fill-rule:nonzero;stroke:none"
       id="path2360"
       inkscape:connector-curvature="0"
       sodipodi:nodetypes="cssccssc" /></g></svg>