<?xml version="1.0" encoding="UTF-8" standalone="no"?>
<!-- Created with Inkscape (http://www.inkscape.org/) -->

<svg
   xmlns:dc="http://purl.org/dc/elements/1.1/"
   xmlns:cc="http://creativecommons.org/ns#"
   xmlns:rdf="http://www.w3.org/1999/02/22-rdf-syntax-ns#"
   xmlns:svg="http://www.w3.org/2000/svg"
   xmlns="http://www.w3.org/2000/svg"
   xmlns:sodipodi="http://sodipodi.sourceforge.net/DTD/sodipodi-0.dtd"
   xmlns:inkscape="http://www.inkscape.org/namespaces/inkscape"
   version="1.1"
   id="svg2"
   xml:space="preserve"
   width="109.94499"
   height="115.06438"
   viewBox="0 0 109.94499 115.06438"
   sodipodi:docname="Phileas_Fogg.svg"
   inkscape:version="0.92.2 5c3e80d, 2017-08-06"><metadata
     id="metadata8"><rdf:RDF><cc:Work
         rdf:about=""><dc:format>image/svg+xml</dc:format><dc:type
           rdf:resource="http://purl.org/dc/dcmitype/StillImage" /><dc:title /></cc:Work></rdf:RDF></metadata><defs
     id="defs6"><clipPath
       clipPathUnits="userSpaceOnUse"
       id="clipPath76"><path
         d="m 95.24538,-96.37926 c 8.50401,12.5858 14.62666,34.0161 25.51205,39.11829 9.18448,4.08229 24.15112,-10.54489 17.34801,-10.88487 -21.77027,23.81117 -23.81114,-24.83159 -36.05696,-32.65566 z"
         id="path74"
         inkscape:connector-curvature="0" /></clipPath></defs><sodipodi:namedview
     pagecolor="#ffffff"
     bordercolor="#666666"
     borderopacity="1"
     objecttolerance="10"
     gridtolerance="10"
     guidetolerance="10"
     inkscape:pageopacity="0"
     inkscape:pageshadow="2"
     inkscape:window-width="640"
     inkscape:window-height="480"
     id="namedview4"
     showgrid="false"
     inkscape:zoom="3.8729935"
     inkscape:cx="117.1975"
     inkscape:cy="47.85312"
     inkscape:current-layer="g10"
     inkscape:snap-global="false"
     fit-margin-top="0"
     fit-margin-left="0"
     fit-margin-right="0"
     fit-margin-bottom="0" /><g
     id="g10"
     inkscape:groupmode="layer"
     inkscape:label="80days"
     transform="matrix(1.3333333,0,0,-1.3333333,-114.28256,176.26807)"><rect
       style="opacity:1;fill:#f5f5f5;fill-opacity:1;fill-rule:evenodd;stroke:none;stroke-width:5.6692915;stroke-linecap:round;stroke-miterlimit:4;stroke-dasharray:none;stroke-dashoffset:0;stroke-opacity:1"
       id="rect1636"
       width="96.049736"
       height="98.37352"
       x="79.902466"
       y="-135.75575"
       transform="scale(1,-1)" /><g
       transform="translate(28.346,156.74)"
       id="g34" /><g
       transform="translate(28.346,156.74)"
       id="g54" /><path
       inkscape:connector-curvature="0"
       id="path60"
       style="fill:#9c8364;fill-opacity:1;fill-rule:nonzero;stroke:none"
       d="m 129.88425,50.15582 c 0,1.69073 -3.50268,3.06131 -7.82355,3.06131 -4.32087,0 -7.82354,-1.37058 -7.82354,-3.06131 0,-1.69074 3.50267,-3.06132 7.82354,-3.06132 4.32087,0 7.82355,1.37058 7.82355,3.06132 z" /><path
       inkscape:connector-curvature="0"
       id="path64"
       style="fill:#9c8364;fill-opacity:1;fill-rule:nonzero;stroke:none"
       d="m 112.53574,50.15582 c 0,1.69073 -3.50267,3.06131 -7.82353,3.06131 -4.32088,0 -7.82355,-1.37058 -7.82355,-3.06131 0,-1.69074 3.50267,-3.06132 7.82355,-3.06132 4.32086,0 7.82353,1.37058 7.82353,3.06132 z" /><path
       inkscape:connector-curvature="0"
       id="path68"
       style="fill:#62523f;fill-opacity:1;fill-rule:nonzero;stroke:none"
       d="m 123.59138,60.36074 c 8.50401,12.5858 14.62666,34.0161 25.51205,39.11829 9.18448,4.08229 24.15112,-10.54489 17.34801,-10.88487 C 144.68117,112.40533 142.6403,63.76257 130.39448,55.9385 Z" /><g
       clip-path="url(#clipPath76)"
       id="g72"
       transform="translate(28.346,156.74)"><g
         id="g78"><path
           inkscape:connector-curvature="0"
           id="path80"
           style="fill:#cab7a0;fill-opacity:1;fill-rule:nonzero;stroke:none"
           d="m 105.51155,-72.34007 1.70088,2.94607 11.78336,-6.80302 -1.70087,-2.94606 z" /></g><g
         id="g82"><path
           inkscape:connector-curvature="0"
           id="path84"
           style="fill:#cab7a0;fill-opacity:1;fill-rule:nonzero;stroke:none"
           d="m 108.91258,-65.5369 1.70088,2.94608 11.78336,-6.80302 -1.70088,-2.94608 z" /></g><g
         id="g86"><path
           inkscape:connector-curvature="0"
           id="path88"
           style="fill:#cab7a0;fill-opacity:1;fill-rule:nonzero;stroke:none"
           d="m 113.38058,-58.24509 2.60592,2.18666 8.74595,-10.42279 -2.60591,-2.18666 z" /></g><g
         id="g90"><path
           inkscape:connector-curvature="0"
           id="path92"
           style="fill:#cab7a0;fill-opacity:1;fill-rule:nonzero;stroke:none"
           d="m 123.00334,-52.55687 3.35015,0.59068 2.36247,-13.39965 -3.35015,-0.59067 z" /></g><g
         id="g94"><path
           inkscape:connector-curvature="0"
           id="path96"
           style="fill:#cab7a0;fill-opacity:1;fill-rule:nonzero;stroke:none"
           d="m 139.13458,-56.05844 2.60592,-2.18666 -8.74596,-10.42278 -2.60591,2.18666 z" /></g><g
         id="g98"><path
           inkscape:connector-curvature="0"
           id="path100"
           style="fill:#cab7a0;fill-opacity:1;fill-rule:nonzero;stroke:none"
           d="m 97.00752,-89.34811 1.7009,2.94606 11.78336,-6.80301 -1.7009,-2.94608 z" /></g></g><path
       inkscape:connector-curvature="0"
       id="path104"
       style="fill:#9c8364;fill-opacity:1;fill-rule:nonzero;stroke:none"
       d="M 97.01264,90.79383 C 94.71758,91.62916 90.6695,86.2958 87.97088,78.88127 85.27225,71.46673 84.94512,64.7791 87.24018,63.94377 c 2.29506,-0.83532 6.34314,4.49804 9.04176,11.91258 2.69863,7.41453 3.02576,14.10217 0.7307,14.93748 z" /><path
       inkscape:connector-curvature="0"
       id="path108"
       style="fill:#9c8364;fill-opacity:1;fill-rule:nonzero;stroke:none"
       d="m 139.53274,63.94377 c 2.29504,0.83533 1.96792,7.52296 -0.7307,14.9375 -2.69864,7.41453 -6.74672,12.74789 -9.04178,11.91256 -2.29506,-0.83531 -1.96793,-7.52295 0.7307,-14.93748 2.69862,-7.41454 6.74672,-12.7479 9.04178,-11.91258 z" /><path
       inkscape:connector-curvature="0"
       id="path112"
       style="fill:#62523f;fill-opacity:1;fill-rule:nonzero;stroke:none"
       d="m 133.62604,74.64744 c 0,-22.45074 -8.16403,-25.17209 -20.23959,-25.17209 -12.07555,0 -20.23959,2.72135 -20.23959,25.17209 -0.33997,22.45074 8.84401,40.47922 20.23959,40.47922 11.39559,0 20.57956,-18.02848 20.23959,-40.47922 z" /><g
       id="g116"
       transform="translate(28.346,156.74)"><path
         inkscape:connector-curvature="0"
         id="path118"
         style="fill:#cab7a0;fill-opacity:1;fill-rule:nonzero;stroke:none"
         d="m 102.04848,-52.15823 c 0,-7.48359 -10.20493,-18.70896 -17.00803,-21.77028 -6.8031,3.06132 -17.00801,14.28669 -17.00801,21.77028 5.44269,17.00804 28.57335,17.00804 34.01604,0 z" /></g><g
       id="g120"
       transform="translate(28.346,156.74)"><path
         inkscape:connector-curvature="0"
         id="path122"
         style="fill:#9c8364;fill-opacity:1;fill-rule:nonzero;stroke:none"
         d="m 68.25354,-54.05327 c 0,0 10.26617,1.20783 12.12332,-0.37372 2.28223,-18.14111 2.28223,-18.14111 2.28223,-18.14111 -6.42887,3.9764 -13.26625,12.46693 -14.40555,18.51483 z" /></g><g
       id="g124"
       transform="translate(28.346,156.74)"><path
         inkscape:connector-curvature="0"
         id="path126"
         style="fill:#9c8364;fill-opacity:1;fill-rule:nonzero;stroke:none"
         d="m 101.82736,-54.05327 c 0,0 -10.26617,1.20783 -12.12332,-0.37372 -2.28223,-18.14111 -2.28223,-18.14111 -2.28223,-18.14111 6.42887,3.9764 13.26625,12.46693 14.40555,18.51483 z" /></g><g
       id="g128"
       transform="translate(28.346,156.74)"><path
         inkscape:connector-curvature="0"
         id="path130"
         style="fill:#42321f;fill-opacity:1;fill-rule:nonzero;stroke:none"
         d="m 88.10176,-70.93518 c 0,1.69073 -1.37057,3.06132 -3.06131,3.06132 -1.69073,0 -3.06131,-1.37059 -3.06131,-3.06132 0,-1.69074 1.37058,-3.06131 3.06131,-3.06131 1.69074,0 3.06131,1.37057 3.06131,3.06131 z" /></g><g
       id="g132"
       transform="translate(28.346,156.74)"><path
         inkscape:connector-curvature="0"
         id="path134"
         style="fill:#42321f;fill-opacity:1;fill-rule:nonzero;stroke:none"
         d="m 94.56488,-58.28142 c 0,0.93938 -0.7615,1.7009 -1.70088,1.7009 -0.93938,0 -1.70088,-0.76152 -1.70088,-1.7009 0,-0.93938 0.7615,-1.70088 1.70088,-1.70088 0.93938,0 1.70088,0.7615 1.70088,1.70088 z" /></g><g
       id="g136"
       transform="translate(28.346,156.74)"><path
         inkscape:connector-curvature="0"
         id="path138"
         style="fill:#42321f;fill-opacity:1;fill-rule:nonzero;stroke:none"
         d="m 78.9178,-58.28142 c 0,0.93938 -0.76152,1.7009 -1.7009,1.7009 -0.93937,0 -1.70088,-0.76152 -1.70088,-1.7009 0,-0.93938 0.76151,-1.70088 1.70088,-1.70088 0.93938,0 1.7009,0.7615 1.7009,1.70088 z" /></g><g
       id="g148"
       transform="translate(28.346,156.74)"><path
         inkscape:connector-curvature="0"
         id="path150"
         style="fill:#cab7a0;fill-opacity:1;fill-rule:nonzero;stroke:none"
         d="m 74.15504,-44.67465 c 0,2.2543 -1.82744,4.08174 -4.08174,4.08174 -2.2543,0 -4.08175,-1.82744 -4.08175,-4.08174 0,-2.25431 1.82745,-4.08175 4.08175,-4.08175 2.2543,0 4.08174,1.82744 4.08174,4.08175 z" /></g><g
       id="g152"
       transform="translate(28.346,156.74)"><path
         inkscape:connector-curvature="0"
         id="path154"
         style="fill:#9c8364;fill-opacity:1;fill-rule:nonzero;stroke:none"
         d="m 73.13461,-44.67465 c 0,1.69073 -1.37057,3.06131 -3.06131,3.06131 -1.69073,0 -3.06132,-1.37058 -3.06132,-3.06131 0,-1.69074 1.37059,-3.06131 3.06132,-3.06131 1.69074,0 3.06131,1.37057 3.06131,3.06131 z" /></g><path
       inkscape:connector-curvature="0"
       id="path160"
       style="fill:#191919;fill-opacity:1;fill-rule:nonzero;stroke:none;stroke-width:0.99999994"
       d="m 134.8899,104.71774 c 0.56749,2.11799 -7.21314,6.043 -17.3788,8.76685 -10.16566,2.72382 -18.866409,3.21496 -19.433907,1.09697 -0.567474,-2.11797 7.213137,-6.04296 17.378817,-8.76681 10.16565,-2.72384 18.86638,-3.21498 19.43389,-1.09701 z" /><path
       inkscape:connector-curvature="0"
       id="path164"
       style="fill:#191919;fill-opacity:1;fill-rule:nonzero;stroke:none;stroke-width:0.99999994"
       d="m 103.88559,113.24192 24.15874,-6.47324 6.92444,16.63956 -28.37694,7.60348 z" /><path
       inkscape:connector-curvature="0"
       id="path168"
       style="fill:#191919;fill-opacity:1;fill-rule:nonzero;stroke:none;stroke-width:0.99999994"
       d="m 135.03871,123.51412 c 0.45399,1.69431 -5.53014,4.76986 -13.36615,6.86947 -7.83602,2.09962 -14.55618,2.42819 -15.01017,0.73387 -0.454,-1.69432 5.53014,-4.76986 13.36615,-6.86948 7.83601,-2.09959 14.55619,-2.42819 15.01017,-0.73386 z" /><path
       d="m 139.53274,63.94377 c 2.29504,0.83533 1.96792,7.52296 -0.7307,14.9375 -2.69864,7.41453 -6.74672,12.74789 -9.04178,11.91256 -2.29506,-0.83531 -1.96793,-7.52295 0.7307,-14.93748 2.69862,-7.41454 6.74672,-12.7479 9.04178,-11.91258 z"
       style="fill:#9c8364;fill-opacity:1;fill-rule:nonzero;stroke:none"
       id="path119"
       inkscape:connector-curvature="0" /><path
       style="fill:none;fill-rule:evenodd;stroke:#a9a9a9;stroke-width:2.25;stroke-linecap:butt;stroke-linejoin:miter;stroke-opacity:1"
       d="m 127.7736,45.927853 c 0,0 -0.51246,22.980924 3.82733,29.146508 4.31827,2.169575 6.477,-7.360227 6.477,-7.360227"
       id="path121"
       inkscape:connector-curvature="0"
       sodipodi:nodetypes="ccc" /></g></svg>