<?xml version="1.0" encoding="UTF-8" standalone="no"?>
<!-- Created with Inkscape (http://www.inkscape.org/) -->

<svg
   xmlns:dc="http://purl.org/dc/elements/1.1/"
   xmlns:cc="http://creativecommons.org/ns#"
   xmlns:rdf="http://www.w3.org/1999/02/22-rdf-syntax-ns#"
   xmlns:svg="http://www.w3.org/2000/svg"
   xmlns="http://www.w3.org/2000/svg"
   xmlns:sodipodi="http://sodipodi.sourceforge.net/DTD/sodipodi-0.dtd"
   xmlns:inkscape="http://www.inkscape.org/namespaces/inkscape"
   version="1.1"
   id="svg2"
   xml:space="preserve"
   width="65.088272"
   height="95.722305"
   viewBox="0 0 65.08827 95.722305"
   sodipodi:docname="Roller_skates_koala.svg"
   inkscape:version="0.92.2 5c3e80d, 2017-08-06"><metadata
     id="metadata8"><rdf:RDF><cc:Work
         rdf:about=""><dc:format>image/svg+xml</dc:format><dc:type
           rdf:resource="http://purl.org/dc/dcmitype/StillImage" /><dc:title /></cc:Work></rdf:RDF></metadata><defs
     id="defs6" /><sodipodi:namedview
     pagecolor="#ffffff"
     bordercolor="#666666"
     borderopacity="1"
     objecttolerance="10"
     gridtolerance="10"
     guidetolerance="10"
     inkscape:pageopacity="0"
     inkscape:pageshadow="2"
     inkscape:window-width="640"
     inkscape:window-height="480"
     id="namedview4"
     showgrid="false"
     inkscape:zoom="4.5303781"
     inkscape:cx="94.038678"
     inkscape:cy="34.542651"
     inkscape:current-layer="g10"
     fit-margin-top="0"
     fit-margin-left="0"
     fit-margin-right="0"
     fit-margin-bottom="0" /><g
     id="g10"
     inkscape:groupmode="layer"
     inkscape:label="document"
     transform="matrix(1.3333333,0,0,-1.3333333,-6.2624587e-7,83.906597)"><rect
       style="opacity:1;fill:#f5f5f5;fill-opacity:1;fill-rule:evenodd;stroke:none;stroke-width:5.6692915;stroke-linecap:round;stroke-miterlimit:4;stroke-dasharray:none;stroke-dashoffset:0;stroke-opacity:1"
       id="rect1634"
       width="56.78334"
       height="75.159294"
       x="-2.8143342"
       y="-65.304214"
       transform="scale(1,-1)" /><g
       id="g28"
       transform="translate(24.408103,-3.1181607)"><path
         d="m 19.98453,59.52846 c 0,3.60074 -3.80736,6.51965 -8.50412,6.51965 -4.69676,0 -8.50412,-2.91891 -8.50412,-6.51965 0,-3.60074 3.80736,-6.51964 8.50412,-6.51964 4.69676,0 8.50412,2.9189 8.50412,6.51964 z"
         style="fill:#9f9f9f;fill-opacity:1;fill-rule:nonzero;stroke:none"
         id="path30"
         inkscape:connector-curvature="0" /></g><g
       id="g32"
       transform="translate(24.408103,-3.1181607)"><path
         d="m 15.73224,59.52846 c 0,1.8786 -1.90358,3.40147 -4.25183,3.40147 -2.34825,0 -4.25185,-1.52287 -4.25185,-3.40147 0,-1.8786 1.9036,-3.40148 4.25185,-3.40148 2.34825,0 4.25183,1.52288 4.25183,3.40148 z"
         style="fill:#d9d9d9;fill-opacity:1;fill-rule:nonzero;stroke:none"
         id="path34"
         inkscape:connector-curvature="0" /></g><g
       id="g36"
       transform="translate(24.408103,-3.1181607)"><path
         d="m -2.97629,59.52846 c 0,3.60074 -3.80736,6.51965 -8.50412,6.51965 -4.69676,0 -8.50412,-2.91891 -8.50412,-6.51965 0,-3.60074 3.80736,-6.51964 8.50412,-6.51964 4.69676,0 8.50412,2.9189 8.50412,6.51964 z"
         style="fill:#9f9f9f;fill-opacity:1;fill-rule:nonzero;stroke:none"
         id="path38"
         inkscape:connector-curvature="0" /></g><g
       id="g40"
       transform="translate(24.408103,-3.1181607)"><path
         d="m -7.22856,59.52846 c 0,1.8786 -1.9036,3.40147 -4.25185,3.40147 -2.34825,0 -4.25183,-1.52287 -4.25183,-3.40147 0,-1.8786 1.90358,-3.40148 4.25183,-3.40148 2.34825,0 4.25185,1.52288 4.25185,3.40148 z"
         style="fill:#d9d9d9;fill-opacity:1;fill-rule:nonzero;stroke:none"
         id="path42"
         inkscape:connector-curvature="0" /></g><g
       id="g44"
       transform="translate(24.408103,-3.1181607)"><path
         d="m -13.64473,39.53445 c -1.91255,0.69613 -5.28606,-3.74838 -7.53499,-9.92723 -2.24895,-6.17883 -2.5216,-11.75195 -0.60904,-12.44807 1.91256,-0.69611 5.28606,3.74838 7.53499,9.92723 2.24895,6.17883 2.52161,11.75197 0.60904,12.44807 z"
         style="fill:#9f9f9f;fill-opacity:1;fill-rule:nonzero;stroke:none"
         id="path46"
         inkscape:connector-curvature="0" /></g><g
       id="g48"
       transform="translate(24.408103,-3.1181607)"><path
         d="m -17.92186,17.26186 c 0.42838,1.17694 -0.65541,2.65188 -2.42072,3.2944 -1.76532,0.64252 -3.5436,0.20929 -3.972,-0.96765 -0.42837,-1.17694 0.65542,-2.65191 2.42074,-3.29441 1.7653,-0.64251 3.54361,-0.20928 3.97198,0.96766 z"
         style="fill:#505050;fill-opacity:1;fill-rule:nonzero;stroke:none"
         id="path50"
         inkscape:connector-curvature="0" /></g><g
       id="g52"
       transform="translate(24.408103,-3.1181607)"><path
         d="m 21.78876,17.15915 c 1.91256,0.69612 1.63991,6.26924 -0.60904,12.44807 -2.24893,6.17885 -5.62244,10.62336 -7.53499,9.92723 -1.91257,-0.6961 -1.63991,-6.26924 0.60904,-12.44807 2.24893,-6.17885 5.62243,-10.62334 7.53499,-9.92723 z"
         style="fill:#9f9f9f;fill-opacity:1;fill-rule:nonzero;stroke:none"
         id="path54"
         inkscape:connector-curvature="0" /></g><g
       id="g56"
       transform="translate(24.408103,-3.1181607)"><path
         d="m 24.31458,19.58861 c -0.4284,1.17694 -2.20668,1.61017 -3.972,0.96765 -1.76531,-0.64252 -2.8491,-2.11746 -2.42072,-3.2944 0.42837,-1.17694 2.20668,-1.61017 3.97198,-0.96766 1.76532,0.6425 2.84911,2.11747 2.42074,3.29441 z"
         style="fill:#505050;fill-opacity:1;fill-rule:nonzero;stroke:none"
         id="path58"
         inkscape:connector-curvature="0" /></g><g
       id="g60"
       transform="translate(24.408103,-3.1181607)"><path
         d="M 16.86638,26.079 C 16.86638,7.37 10.06299,5.1022 0,5.1022 -10.06299,5.1022 -16.86638,7.37 -16.86638,26.079 -17.14967,44.788 -9.49635,59.81177 0,59.81177 9.49635,59.81177 17.14967,44.788 16.86638,26.079 Z"
         style="fill:#9f9f9f;fill-opacity:1;fill-rule:nonzero;stroke:none"
         id="path62"
         inkscape:connector-curvature="0" /></g><g
       id="g64"
       transform="translate(24.408103,-3.1181607)"><path
         d="M 12.04747,20.1264 C 12.04747,11.62228 7.22856,7.65375 0,7.65375 c -7.22856,0 -12.04747,3.96853 -12.04747,12.47265 0,8.50371 4.81891,13.88968 12.04747,13.88968 6.37819,0 12.04747,-5.38597 12.04747,-13.88968 z"
         style="fill:#d9d9d9;fill-opacity:1;fill-rule:nonzero;stroke:none"
         id="path66"
         inkscape:connector-curvature="0" /></g><g
       id="g68"
       transform="translate(24.408103,-3.1181607)"><path
         d="m 15.59082,47.33911 c 0,7.045 -6.98015,12.75597 -15.59082,12.75597 -8.61067,0 -15.59082,-5.71097 -15.59082,-12.75597 0,-7.04501 6.98015,-12.75596 15.59082,-12.75596 8.61067,0 15.59082,5.71095 15.59082,12.75596 z"
         style="fill:#9f9f9f;fill-opacity:1;fill-rule:nonzero;stroke:none"
         id="path70"
         inkscape:connector-curvature="0" /></g><g
       id="g72"
       transform="translate(24.408103,-3.1181607)"><path
         d="M -4.25485,44.24646 C -5.05722,42.04701 -2.34433,39.99158 0,39.99158 c 2.34433,0 5.05722,2.05543 4.25485,4.25488 -0.59819,1.6497 -0.89016,2.73277 -2.12893,3.97156 -1.1735,1.17348 -3.07834,1.17348 -4.25184,0 -1.23877,-1.23879 -1.53074,-2.32186 -2.12893,-3.97156 z"
         style="fill:#404040;fill-opacity:1;fill-rule:nonzero;stroke:none"
         id="path74"
         inkscape:connector-curvature="0" /></g><g
       id="g76"
       transform="translate(24.408103,-3.1181607)"><path
         d="m -4.96078,49.3236 c 0,1.25247 -1.01531,2.26777 -2.26778,2.26777 -1.25247,0 -2.26779,-1.0153 -2.26779,-2.26777 0,-1.2525 1.01532,-2.2678 2.26779,-2.2678 1.25247,0 2.26778,1.0153 2.26778,2.2678 z"
         style="fill:#000000;fill-opacity:1;fill-rule:nonzero;stroke:none"
         id="path78"
         inkscape:connector-curvature="0" /></g><g
       id="g80"
       transform="translate(24.408103,-3.1181607)"><path
         d="m 9.49635,49.3236 c 0,1.25247 -1.01532,2.26777 -2.26779,2.26777 -1.25247,0 -2.26778,-1.0153 -2.26778,-2.26777 0,-1.2525 1.01531,-2.2678 2.26778,-2.2678 1.25247,0 2.26779,1.0153 2.26779,2.2678 z"
         style="fill:#000000;fill-opacity:1;fill-rule:nonzero;stroke:none"
         id="path82"
         inkscape:connector-curvature="0" /></g><g
       id="g84"
       transform="translate(24.408103,-3.1181607)"><path
         d="m -7.22856,49.89021 c 0,0.23482 -0.19037,0.42519 -0.42519,0.42519 -0.23482,0 -0.42518,-0.19037 -0.42518,-0.42519 0,-0.23483 0.19036,-0.42518 0.42518,-0.42518 0.23482,0 0.42519,0.19035 0.42519,0.42518 z"
         style="fill:#ffffff;fill-opacity:1;fill-rule:nonzero;stroke:none"
         id="path86"
         inkscape:connector-curvature="0" /></g><g
       id="g88"
       transform="translate(24.408103,-3.1181607)"><path
         d="m 7.22856,49.89021 c 0,0.23482 -0.19035,0.42519 -0.42518,0.42519 -0.23482,0 -0.42519,-0.19037 -0.42519,-0.42519 0,-0.23483 0.19037,-0.42518 0.42519,-0.42518 0.23483,0 0.42518,0.19035 0.42518,0.42518 z"
         style="fill:#ffffff;fill-opacity:1;fill-rule:nonzero;stroke:none"
         id="path90"
         inkscape:connector-curvature="0" /></g><g
       id="g92"
       transform="translate(24.408103,-3.1181607)"><path
         d="M 3.26003,39.40202 C 2.2186,38.16093 0.59361,37.56941 -1.00194,37.85074 c -1.05002,0.18513 -2.00156,0.73457 -2.68684,1.55128"
         style="fill:none;stroke:#404040;stroke-width:0.3985;stroke-linecap:butt;stroke-linejoin:miter;stroke-miterlimit:10;stroke-dasharray:none;stroke-opacity:1"
         id="path94"
         inkscape:connector-curvature="0" /></g><path
       sodipodi:nodetypes="ccccc"
       inkscape:connector-curvature="0"
       id="path287"
       d="m 14.918962,10.765875 6.689941,-0.333951 c -0.819907,-3.5065674 1.029192,-9.83655943 -1.675468,-15.6368344 -4.974659,2.396652 -13.0384278,-2.438671 -14.9968188,2.219828 -0.627021,6.470293 11.8389168,0.472406 9.9823458,13.7509574 z"
       style="fill:#87ceeb;fill-rule:evenodd;stroke:none;stroke-width:0.375;stroke-linecap:butt;stroke-linejoin:miter;stroke-opacity:1" /><path
       inkscape:connector-curvature="0"
       id="path289"
       d="m 11.161728,-1.1265864 -0.48095,2.560541"
       style="fill:none;fill-rule:evenodd;stroke:#000000;stroke-width:0.5625;stroke-linecap:butt;stroke-linejoin:miter;stroke-opacity:1" /><path
       inkscape:connector-curvature="0"
       id="path291"
       d="M 13.770102,-0.05345543 12.376974,2.2827336"
       style="fill:none;fill-rule:evenodd;stroke:#000000;stroke-width:0.5625;stroke-linecap:butt;stroke-linejoin:miter;stroke-opacity:1" /><path
       inkscape:connector-curvature="0"
       id="path293"
       d="m 15.514119,1.3874916 -1.825168,2.095996"
       style="fill:none;fill-rule:evenodd;stroke:#000000;stroke-width:0.5625;stroke-linecap:butt;stroke-linejoin:miter;stroke-opacity:1" /><path
       inkscape:connector-curvature="0"
       id="path295"
       d="m 16.761607,4.0606166 -2.432928,0.815453 v 0"
       style="fill:none;fill-rule:evenodd;stroke:#000000;stroke-width:0.5625;stroke-linecap:butt;stroke-linejoin:miter;stroke-opacity:1" /><path
       inkscape:connector-curvature="0"
       id="path297"
       d="m 17.577056,6.4935536 -2.816873,0.319186"
       style="fill:none;fill-rule:evenodd;stroke:#000000;stroke-width:0.5625;stroke-linecap:butt;stroke-linejoin:miter;stroke-opacity:1" /><ellipse
       ry="1.9387879"
       rx="1.8642191"
       transform="matrix(0.96161165,-0.274414,-0.274414,-0.96161165,0,0)"
       cy="4.1536846"
       cx="10.692863"
       id="ellipse299"
       style="opacity:1;fill:#000000;fill-opacity:1;fill-rule:evenodd;stroke:none;stroke-width:0.375;stroke-linecap:round;stroke-linejoin:round;stroke-miterlimit:4;stroke-dasharray:none;stroke-dashoffset:0;stroke-opacity:1" /><ellipse
       style="opacity:1;fill:#000000;fill-opacity:1;fill-rule:evenodd;stroke:none;stroke-width:0.375;stroke-linecap:round;stroke-linejoin:round;stroke-miterlimit:4;stroke-dasharray:none;stroke-dashoffset:0;stroke-opacity:1"
       id="ellipse301"
       cx="20.072208"
       cy="0.93325061"
       transform="matrix(0.96161165,-0.274414,-0.274414,-0.96161165,0,0)"
       rx="1.9224757"
       ry="1.999375" /><ellipse
       ry="0.87385267"
       rx="0.7767579"
       transform="matrix(0.96161165,-0.274414,-0.274414,-0.96161165,0,0)"
       cy="4.1373692"
       cx="10.654037"
       id="ellipse303"
       style="opacity:1;fill:#87ceeb;fill-opacity:1;fill-rule:evenodd;stroke:none;stroke-width:0.375;stroke-linecap:round;stroke-linejoin:round;stroke-miterlimit:4;stroke-dasharray:none;stroke-dashoffset:0;stroke-opacity:1" /><ellipse
       style="opacity:1;fill:#87ceeb;fill-opacity:1;fill-rule:evenodd;stroke:none;stroke-width:0.375;stroke-linecap:round;stroke-linejoin:round;stroke-miterlimit:4;stroke-dasharray:none;stroke-dashoffset:0;stroke-opacity:1"
       id="ellipse305"
       cx="20.208157"
       cy="0.99150866"
       transform="matrix(0.96161165,-0.274414,-0.274414,-0.96161165,0,0)"
       rx="0.7767579"
       ry="0.87385267" /><path
       inkscape:connector-curvature="0"
       id="path307"
       d="m 5.5771582,-4.1371964 -1.071768,-1.632782 1.680611,-0.479594 0.687559,1.984753 z"
       style="fill:#87ceeb;fill-rule:evenodd;stroke:none;stroke-width:0.75px;stroke-linecap:butt;stroke-linejoin:miter;stroke-opacity:1" /><path
       style="fill:#87ceeb;fill-rule:evenodd;stroke:none;stroke-width:0.375;stroke-linecap:butt;stroke-linejoin:miter;stroke-opacity:1"
       d="m 31.445332,10.765875 -6.689941,-0.333951 c 0.819907,-3.5065674 -1.029192,-9.83655943 1.675468,-15.6368344 4.974659,2.396652 13.038427,-2.438671 14.996818,2.219828 0.627021,6.470293 -11.838916,0.472406 -9.982345,13.7509574 z"
       id="path309"
       inkscape:connector-curvature="0"
       sodipodi:nodetypes="ccccc" /><path
       style="fill:none;fill-rule:evenodd;stroke:#000000;stroke-width:0.5625;stroke-linecap:butt;stroke-linejoin:miter;stroke-opacity:1"
       d="m 35.202566,-1.1265864 0.480949,2.560541"
       id="path311"
       inkscape:connector-curvature="0" /><path
       style="fill:none;fill-rule:evenodd;stroke:#000000;stroke-width:0.5625;stroke-linecap:butt;stroke-linejoin:miter;stroke-opacity:1"
       d="M 32.594192,-0.05345543 33.98732,2.2827336"
       id="path313"
       inkscape:connector-curvature="0" /><path
       style="fill:none;fill-rule:evenodd;stroke:#000000;stroke-width:0.5625;stroke-linecap:butt;stroke-linejoin:miter;stroke-opacity:1"
       d="m 30.850175,1.3874916 1.825168,2.095996"
       id="path315"
       inkscape:connector-curvature="0" /><path
       style="fill:none;fill-rule:evenodd;stroke:#000000;stroke-width:0.5625;stroke-linecap:butt;stroke-linejoin:miter;stroke-opacity:1"
       d="m 29.602687,4.0606166 2.432928,0.815453 v 0"
       id="path317"
       inkscape:connector-curvature="0" /><path
       style="fill:none;fill-rule:evenodd;stroke:#000000;stroke-width:0.5625;stroke-linecap:butt;stroke-linejoin:miter;stroke-opacity:1"
       d="m 28.787238,6.4935536 2.816873,0.319186"
       id="path319"
       inkscape:connector-curvature="0" /><ellipse
       style="opacity:1;fill:#000000;fill-opacity:1;fill-rule:evenodd;stroke:none;stroke-width:0.375;stroke-linecap:round;stroke-linejoin:round;stroke-miterlimit:4;stroke-dasharray:none;stroke-dashoffset:0;stroke-opacity:1"
       id="ellipse321"
       cx="-33.891544"
       cy="16.876696"
       transform="rotate(-164.0729)"
       rx="1.8642191"
       ry="1.9387879" /><ellipse
       ry="1.999375"
       rx="1.9224757"
       transform="rotate(-164.0729)"
       cy="13.65626"
       cx="-24.512249"
       id="ellipse323"
       style="opacity:1;fill:#000000;fill-opacity:1;fill-rule:evenodd;stroke:none;stroke-width:0.375;stroke-linecap:round;stroke-linejoin:round;stroke-miterlimit:4;stroke-dasharray:none;stroke-dashoffset:0;stroke-opacity:1" /><ellipse
       style="opacity:1;fill:#87ceeb;fill-opacity:1;fill-rule:evenodd;stroke:none;stroke-width:0.375;stroke-linecap:round;stroke-linejoin:round;stroke-miterlimit:4;stroke-dasharray:none;stroke-dashoffset:0;stroke-opacity:1"
       id="ellipse325"
       cx="-33.93037"
       cy="16.86038"
       transform="rotate(-164.0729)"
       rx="0.7767579"
       ry="0.87385267" /><ellipse
       ry="0.87385267"
       rx="0.7767579"
       transform="rotate(-164.0729)"
       cy="13.714518"
       cx="-24.376301"
       id="ellipse327"
       style="opacity:1;fill:#87ceeb;fill-opacity:1;fill-rule:evenodd;stroke:none;stroke-width:0.375;stroke-linecap:round;stroke-linejoin:round;stroke-miterlimit:4;stroke-dasharray:none;stroke-dashoffset:0;stroke-opacity:1" /><path
       style="fill:#87ceeb;fill-rule:evenodd;stroke:none;stroke-width:0.75px;stroke-linecap:butt;stroke-linejoin:miter;stroke-opacity:1"
       d="m 40.787135,-4.1371964 1.071768,-1.632782 -1.680611,-0.479594 -0.687559,1.984753 z"
       id="path329"
       inkscape:connector-curvature="0" /></g></svg>