<?xml version="1.0" encoding="UTF-8" standalone="no"?>
<!-- Created with Inkscape (http://www.inkscape.org/) -->

<svg
   xmlns:dc="http://purl.org/dc/elements/1.1/"
   xmlns:cc="http://creativecommons.org/ns#"
   xmlns:rdf="http://www.w3.org/1999/02/22-rdf-syntax-ns#"
   xmlns:svg="http://www.w3.org/2000/svg"
   xmlns="http://www.w3.org/2000/svg"
   xmlns:sodipodi="http://sodipodi.sourceforge.net/DTD/sodipodi-0.dtd"
   xmlns:inkscape="http://www.inkscape.org/namespaces/inkscape"
   version="1.1"
   id="svg2"
   xml:space="preserve"
   width="56.705822"
   height="93.226166"
   viewBox="0 0 56.70582 93.226166"
   sodipodi:docname="Roller_skates_pig.svg"
   inkscape:version="0.92.2 5c3e80d, 2017-08-06"><metadata
     id="metadata8"><rdf:RDF><cc:Work
         rdf:about=""><dc:format>image/svg+xml</dc:format><dc:type
           rdf:resource="http://purl.org/dc/dcmitype/StillImage" /><dc:title /></cc:Work></rdf:RDF></metadata><defs
     id="defs6" /><sodipodi:namedview
     pagecolor="#ffffff"
     bordercolor="#666666"
     borderopacity="1"
     objecttolerance="10"
     gridtolerance="10"
     guidetolerance="10"
     inkscape:pageopacity="0"
     inkscape:pageshadow="2"
     inkscape:window-width="640"
     inkscape:window-height="480"
     id="namedview4"
     showgrid="false"
     inkscape:zoom="2.0325613"
     inkscape:cx="93.331307"
     inkscape:cy="-9.0878461"
     inkscape:current-layer="g10"
     fit-margin-top="0"
     fit-margin-left="0"
     fit-margin-right="0"
     fit-margin-bottom="0" /><g
     id="g10"
     inkscape:groupmode="layer"
     inkscape:label="document"
     transform="matrix(1.3333333,0,0,-1.3333333,-69.726245,81.072024)"><rect
       style="opacity:1;fill:#f5f5f5;fill-opacity:1;fill-rule:evenodd;stroke:none;stroke-width:5.6692915;stroke-linecap:round;stroke-miterlimit:4;stroke-dasharray:none;stroke-dashoffset:0;stroke-opacity:1"
       id="rect1632"
       width="54.610905"
       height="84.868294"
       x="47.128788"
       y="-66.52787"
       transform="scale(1,-1)" /><g
       transform="translate(70.390103,-3.1181607)"
       id="g98"><g
         id="g100"><g
           id="g102"><g
             id="g104"><g
               id="g106"><path
                 inkscape:connector-curvature="0"
                 id="path108"
                 style="fill:none;stroke:#f1a48e;stroke-width:0.79701;stroke-linecap:butt;stroke-linejoin:miter;stroke-miterlimit:10;stroke-dasharray:none;stroke-opacity:1"
                 d="m 24.01276,16.80106 c 0.22102,-3.10389 -1.20504,-5.16449 -3.26566,-5.23847 -2.06105,-0.07657 -3.33661,0.81058 -3.84094,2.67871 -0.50476,1.86554 0.81621,3.5918 2.35258,3.73627 1.53377,0.14748 2.17436,-0.64623 2.46331,-1.93044 0.28936,-1.28419 -0.57529,-3.06451 -1.33524,-3.80416 -0.75954,-0.73964 -0.33696,-0.38842 -1.66658,-1.30411 -1.33221,-0.91524 -6.341,-0.61203 -7.73032,3.39024" /></g><g
               id="g110"><path
                 inkscape:connector-curvature="0"
                 id="path112"
                 style="fill:#f7cdc1;fill-opacity:1;fill-rule:nonzero;stroke:none"
                 d="M 17.00824,22.67752 C 17.00824,11.33855 9.92155,4.53558 0,4.53558 c -9.92155,0 -17.00824,6.80297 -17.00824,18.14194 0,14.1734 7.08669,19.84268 17.00824,19.84268 9.92155,0 17.00824,-5.66928 17.00824,-21.2601 z" /></g><g
               id="g114"><path
                 inkscape:connector-curvature="0"
                 id="path116"
                 style="fill:#f1a48e;fill-opacity:1;fill-rule:nonzero;stroke:none"
                 d="m -6.809,27.84505 c -1.67782,2.15144 -3.73885,2.34695 -4.59788,0.43945 -0.85859,-1.90791 -0.19249,-5.19608 1.48533,-7.3475 0.53591,-0.68343 1.13108,-1.19641 1.7293,-1.48534 0.38279,0.45631 1.1112,1.98708 1.1112,1.98708 0,0 2.00695,-0.71715 2.51432,-0.29198 0,0 -0.561,4.54684 -2.24227,6.69829 z" /></g><g
               id="g118"><path
                 inkscape:connector-curvature="0"
                 id="path120"
                 style="fill:#f1a48e;fill-opacity:1;fill-rule:nonzero;stroke:none"
                 d="m 6.809,27.84505 c 1.67782,2.15144 3.73885,2.34695 4.59788,0.43945 0.85859,-1.90791 0.19249,-5.19608 -1.48533,-7.3475 -0.53591,-0.68343 -1.13108,-1.19641 -1.7293,-1.48534 -0.38279,0.45631 -1.1112,1.98708 -1.1112,1.98708 0,0 -2.00695,-0.71715 -2.51432,-0.29198 0,0 0.561,4.54684 2.24227,6.69829 z" /></g><g
               id="g122"><path
                 inkscape:connector-curvature="0"
                 id="path124"
                 style="fill:#f7cdc1;fill-opacity:1;fill-rule:nonzero;stroke:none"
                 d="m 14.17339,46.48874 c 0,7.82785 -6.34555,14.1734 -14.17339,14.1734 -7.82784,0 -14.17339,-6.34555 -14.17339,-14.1734 0,-7.82785 6.34555,-14.1734 14.17339,-14.1734 7.82784,0 14.17339,6.34555 14.17339,14.1734 z" /></g><g
               id="g126"><path
                 inkscape:connector-curvature="0"
                 id="path128"
                 style="fill:#808080;fill-opacity:1;fill-rule:nonzero;stroke:none"
                 d="m -1.98405,51.59138 c 0,0.31318 -0.25387,0.56705 -0.56705,0.56705 -0.31317,0 -0.56705,-0.25387 -0.56705,-0.56705 0,-0.31317 0.25388,-0.56704 0.56705,-0.56704 0.31318,0 0.56705,0.25387 0.56705,0.56704 z" /></g><g
               id="g130"><path
                 inkscape:connector-curvature="0"
                 id="path132"
                 style="fill:#808080;fill-opacity:1;fill-rule:nonzero;stroke:none"
                 d="m 3.11815,51.59138 c 0,0.31318 -0.25388,0.56705 -0.56705,0.56705 -0.31318,0 -0.56705,-0.25387 -0.56705,-0.56705 0,-0.31317 0.25387,-0.56704 0.56705,-0.56704 0.31317,0 0.56705,0.25387 0.56705,0.56704 z" /></g><g
               id="g134"><path
                 inkscape:connector-curvature="0"
                 id="path136"
                 style="fill:#f1a48e;fill-opacity:1;fill-rule:nonzero;stroke:none"
                 d="m 5.1022,45.92168 c 0,2.19177 -2.28431,3.96852 -5.1022,3.96852 -2.81789,0 -5.1022,-1.77675 -5.1022,-3.96852 0,-2.19178 2.28431,-3.96852 5.1022,-3.96852 2.81789,0 5.1022,1.77674 5.1022,3.96852 z" /></g><g
               id="g138"><path
                 inkscape:connector-curvature="0"
                 id="path140"
                 style="fill:#808080;fill-opacity:1;fill-rule:nonzero;stroke:none"
                 d="m -0.7085,45.92168 c 0,0.548 -0.44423,0.99223 -0.99223,0.99223 -0.548,0 -0.99223,-0.44423 -0.99223,-0.99223 0,-0.54801 0.44423,-0.99224 0.99223,-0.99224 0.548,0 0.99223,0.44423 0.99223,0.99224 z" /></g><g
               id="g142"><path
                 inkscape:connector-curvature="0"
                 id="path144"
                 style="fill:#808080;fill-opacity:1;fill-rule:nonzero;stroke:none"
                 d="m 2.69296,45.92168 c 0,0.548 -0.44423,0.99223 -0.99223,0.99223 -0.548,0 -0.99223,-0.44423 -0.99223,-0.99223 0,-0.54801 0.44423,-0.99224 0.99223,-0.99224 0.548,0 0.99223,0.44423 0.99223,0.99224 z" /></g><g
               id="g146"><path
                 inkscape:connector-curvature="0"
                 id="path148"
                 style="fill:none;stroke:#808080;stroke-width:0.3985;stroke-linecap:butt;stroke-linejoin:miter;stroke-miterlimit:10;stroke-dasharray:none;stroke-opacity:1"
                 d="m 2.97629,41.3865 c -1.6859,-1.41465 -4.14498,-1.41465 -5.83086,0" /></g><g
               id="g150"><path
                 inkscape:connector-curvature="0"
                 id="path152"
                 style="fill:#f1a48e;fill-opacity:1;fill-rule:nonzero;stroke:none"
                 d="m 6.23631,57.8048 c 0,3.37898 7.78397,6.11738 7.78397,6.11738 0,0 1.00348,-11.1971 -3.47243,-11.1971 -2.35301,0 -4.31154,1.70375 -4.31154,5.07972 z" /></g><g
               id="g154"><path
                 inkscape:connector-curvature="0"
                 id="path156"
                 style="fill:#f7cdc1;fill-opacity:1;fill-rule:nonzero;stroke:none"
                 d="m 6.23631,57.8048 c 1.13369,3.37898 7.08672,5.12513 7.08672,4.55808 0,0 0.56705,-8.50413 -2.77518,-8.50413 C 8.19484,53.29213 6.23631,53.29213 6.23631,57.8048 Z" /></g><g
               id="g158"><path
                 inkscape:connector-curvature="0"
                 id="path160"
                 style="fill:#f1a48e;fill-opacity:1;fill-rule:nonzero;stroke:none"
                 d="m -6.23631,57.8048 c 0,3.37898 -7.78397,6.11738 -7.78397,6.11738 0,0 -1.00348,-11.1971 3.47243,-11.1971 2.35301,0 4.31154,1.70375 4.31154,5.07972 z" /></g><g
               id="g162"><path
                 inkscape:connector-curvature="0"
                 id="path164"
                 style="fill:#f7cdc1;fill-opacity:1;fill-rule:nonzero;stroke:none"
                 d="m -6.23631,57.8048 c -1.13369,3.37898 -7.08672,5.12513 -7.08672,4.55808 0,0 -0.56705,-8.50413 2.77518,-8.50413 2.35301,-0.56662 4.31154,-0.56662 4.31154,3.94605 z" /></g><g
               id="g166"><path
                 inkscape:connector-curvature="0"
                 id="path168"
                 style="fill:#f1a48e;fill-opacity:1;fill-rule:nonzero;stroke:none"
                 d="M 9.11617,4.25183 C 9.60233,6.06639 8.52551,7.93161 6.71095,8.41777 4.8964,8.90393 3.03117,7.82712 2.54501,6.01256 2.39056,5.43597 2.39056,4.82841 2.54501,4.25183 h 1.99057 c 0.86152,0.49739 1.68959,0.49739 2.55111,0 z" /></g><g
               id="g170"><path
                 inkscape:connector-curvature="0"
                 id="path172"
                 style="fill:#f1a48e;fill-opacity:1;fill-rule:nonzero;stroke:none"
                 d="m -9.11617,4.25183 c -0.48616,1.81456 0.59066,3.67978 2.40522,4.16594 1.81455,0.48616 3.67978,-0.59065 4.16594,-2.40521 0.15445,-0.57659 0.15445,-1.18415 0,-1.76073 h -1.99057 c -0.86152,0.49739 -1.68959,0.49739 -2.55111,0 z" /></g></g><g
             id="g174" /></g></g></g><path
       style="fill:#a9a9a9;fill-rule:evenodd;stroke:none;stroke-width:0.375;stroke-linecap:butt;stroke-linejoin:miter;stroke-opacity:1"
       d="m 62.708256,10.512052 6.689941,-0.333951 C 68.57829,6.6715343 70.427389,0.3415423 67.722729,-5.4587327 c -4.974659,2.396652 -13.038427,-2.438671 -14.996818,2.219828 -0.627021,6.470293 11.838916,0.472406 9.982345,13.7509567 z"
       id="path241"
       inkscape:connector-curvature="0"
       sodipodi:nodetypes="ccccc" /><path
       style="fill:none;fill-rule:evenodd;stroke:#000000;stroke-width:0.5625;stroke-linecap:butt;stroke-linejoin:miter;stroke-opacity:1"
       d="m 58.951022,-1.3804087 -0.480949,2.560541"
       id="path243"
       inkscape:connector-curvature="0" /><path
       style="fill:none;fill-rule:evenodd;stroke:#000000;stroke-width:0.5625;stroke-linecap:butt;stroke-linejoin:miter;stroke-opacity:1"
       d="m 61.559396,-0.3072777 -1.393128,2.336189"
       id="path245"
       inkscape:connector-curvature="0" /><path
       style="fill:none;fill-rule:evenodd;stroke:#000000;stroke-width:0.5625;stroke-linecap:butt;stroke-linejoin:miter;stroke-opacity:1"
       d="m 63.303413,1.1336693 -1.825168,2.095996"
       id="path249"
       inkscape:connector-curvature="0" /><path
       style="fill:none;fill-rule:evenodd;stroke:#000000;stroke-width:0.5625;stroke-linecap:butt;stroke-linejoin:miter;stroke-opacity:1"
       d="m 64.550901,3.8067943 -2.432928,0.815453 v 0"
       id="path251"
       inkscape:connector-curvature="0" /><path
       style="fill:none;fill-rule:evenodd;stroke:#000000;stroke-width:0.5625;stroke-linecap:butt;stroke-linejoin:miter;stroke-opacity:1"
       d="m 65.36635,6.2397313 -2.816873,0.319186"
       id="path253"
       inkscape:connector-curvature="0" /><ellipse
       style="opacity:1;fill:#000000;fill-opacity:1;fill-rule:evenodd;stroke:none;stroke-width:0.375;stroke-linecap:round;stroke-linejoin:round;stroke-miterlimit:4;stroke-dasharray:none;stroke-dashoffset:0;stroke-opacity:1"
       id="path255"
       cx="56.717258"
       cy="-8.7162867"
       transform="matrix(0.96161165,-0.274414,-0.274414,-0.96161165,0,0)"
       rx="1.8642191"
       ry="1.9387879" /><ellipse
       ry="1.999375"
       rx="1.9224757"
       transform="matrix(0.96161165,-0.274414,-0.274414,-0.96161165,0,0)"
       cy="-11.936723"
       cx="66.096603"
       id="ellipse257"
       style="opacity:1;fill:#000000;fill-opacity:1;fill-rule:evenodd;stroke:none;stroke-width:0.375;stroke-linecap:round;stroke-linejoin:round;stroke-miterlimit:4;stroke-dasharray:none;stroke-dashoffset:0;stroke-opacity:1" /><ellipse
       style="opacity:1;fill:#a9a9a9;fill-opacity:1;fill-rule:evenodd;stroke:none;stroke-width:0.375;stroke-linecap:round;stroke-linejoin:round;stroke-miterlimit:4;stroke-dasharray:none;stroke-dashoffset:0;stroke-opacity:1"
       id="path259"
       cx="56.678432"
       cy="-8.7326021"
       transform="matrix(0.96161165,-0.274414,-0.274414,-0.96161165,0,0)"
       rx="0.7767579"
       ry="0.87385267" /><ellipse
       ry="0.87385267"
       rx="0.7767579"
       transform="matrix(0.96161165,-0.274414,-0.274414,-0.96161165,0,0)"
       cy="-11.878465"
       cx="66.232552"
       id="ellipse261"
       style="opacity:1;fill:#a9a9a9;fill-opacity:1;fill-rule:evenodd;stroke:none;stroke-width:0.375;stroke-linecap:round;stroke-linejoin:round;stroke-miterlimit:4;stroke-dasharray:none;stroke-dashoffset:0;stroke-opacity:1" /><path
       style="fill:#a9a9a9;fill-rule:evenodd;stroke:none;stroke-width:0.75px;stroke-linecap:butt;stroke-linejoin:miter;stroke-opacity:1"
       d="m 53.366453,-4.3910187 -1.071768,-1.632782 1.680611,-0.479594 0.687559,1.984753 z"
       id="path263"
       inkscape:connector-curvature="0" /><path
       sodipodi:nodetypes="ccccc"
       inkscape:connector-curvature="0"
       id="path265"
       d="m 79.234626,10.512052 -6.689941,-0.333951 c 0.819907,-3.5065667 -1.029192,-9.8365587 1.675468,-15.6368337 4.974659,2.396652 13.038427,-2.438671 14.996818,2.219828 0.627021,6.470293 -11.838916,0.472406 -9.982345,13.7509567 z"
       style="fill:#a9a9a9;fill-rule:evenodd;stroke:none;stroke-width:0.375;stroke-linecap:butt;stroke-linejoin:miter;stroke-opacity:1" /><path
       inkscape:connector-curvature="0"
       id="path267"
       d="m 82.99186,-1.3804087 0.480949,2.560541"
       style="fill:none;fill-rule:evenodd;stroke:#000000;stroke-width:0.5625;stroke-linecap:butt;stroke-linejoin:miter;stroke-opacity:1" /><path
       inkscape:connector-curvature="0"
       id="path269"
       d="m 80.383486,-0.3072777 1.393128,2.336189"
       style="fill:none;fill-rule:evenodd;stroke:#000000;stroke-width:0.5625;stroke-linecap:butt;stroke-linejoin:miter;stroke-opacity:1" /><path
       inkscape:connector-curvature="0"
       id="path271"
       d="m 78.639469,1.1336693 1.825168,2.095996"
       style="fill:none;fill-rule:evenodd;stroke:#000000;stroke-width:0.5625;stroke-linecap:butt;stroke-linejoin:miter;stroke-opacity:1" /><path
       inkscape:connector-curvature="0"
       id="path273"
       d="m 77.391981,3.8067943 2.432928,0.815453 v 0"
       style="fill:none;fill-rule:evenodd;stroke:#000000;stroke-width:0.5625;stroke-linecap:butt;stroke-linejoin:miter;stroke-opacity:1" /><path
       inkscape:connector-curvature="0"
       id="path275"
       d="m 76.576532,6.2397313 2.816873,0.319186"
       style="fill:none;fill-rule:evenodd;stroke:#000000;stroke-width:0.5625;stroke-linecap:butt;stroke-linejoin:miter;stroke-opacity:1" /><ellipse
       ry="1.9387879"
       rx="1.8642191"
       transform="rotate(-164.0729)"
       cy="30.234829"
       cx="-79.776634"
       id="ellipse277"
       style="opacity:1;fill:#000000;fill-opacity:1;fill-rule:evenodd;stroke:none;stroke-width:0.375;stroke-linecap:round;stroke-linejoin:round;stroke-miterlimit:4;stroke-dasharray:none;stroke-dashoffset:0;stroke-opacity:1" /><ellipse
       style="opacity:1;fill:#000000;fill-opacity:1;fill-rule:evenodd;stroke:none;stroke-width:0.375;stroke-linecap:round;stroke-linejoin:round;stroke-miterlimit:4;stroke-dasharray:none;stroke-dashoffset:0;stroke-opacity:1"
       id="ellipse279"
       cx="-70.397339"
       cy="27.014393"
       transform="rotate(-164.0729)"
       rx="1.9224757"
       ry="1.999375" /><ellipse
       ry="0.87385267"
       rx="0.7767579"
       transform="rotate(-164.0729)"
       cy="30.218513"
       cx="-79.81546"
       id="ellipse281"
       style="opacity:1;fill:#a9a9a9;fill-opacity:1;fill-rule:evenodd;stroke:none;stroke-width:0.375;stroke-linecap:round;stroke-linejoin:round;stroke-miterlimit:4;stroke-dasharray:none;stroke-dashoffset:0;stroke-opacity:1" /><ellipse
       style="opacity:1;fill:#a9a9a9;fill-opacity:1;fill-rule:evenodd;stroke:none;stroke-width:0.375;stroke-linecap:round;stroke-linejoin:round;stroke-miterlimit:4;stroke-dasharray:none;stroke-dashoffset:0;stroke-opacity:1"
       id="ellipse283"
       cx="-70.261391"
       cy="27.072651"
       transform="rotate(-164.0729)"
       rx="0.7767579"
       ry="0.87385267" /><path
       inkscape:connector-curvature="0"
       id="path285"
       d="m 88.576429,-4.3910187 1.071768,-1.632782 -1.680611,-0.479594 -0.687559,1.984753 z"
       style="fill:#a9a9a9;fill-rule:evenodd;stroke:none;stroke-width:0.75px;stroke-linecap:butt;stroke-linejoin:miter;stroke-opacity:1" /></g></svg>