<?xml version="1.0" encoding="UTF-8" standalone="no"?>
<!-- Created with Inkscape (http://www.inkscape.org/) -->

<svg
   xmlns:dc="http://purl.org/dc/elements/1.1/"
   xmlns:cc="http://creativecommons.org/ns#"
   xmlns:rdf="http://www.w3.org/1999/02/22-rdf-syntax-ns#"
   xmlns:svg="http://www.w3.org/2000/svg"
   xmlns="http://www.w3.org/2000/svg"
   xmlns:sodipodi="http://sodipodi.sourceforge.net/DTD/sodipodi-0.dtd"
   xmlns:inkscape="http://www.inkscape.org/namespaces/inkscape"
   version="1.1"
   id="svg2"
   xml:space="preserve"
   width="57.256252"
   height="90.399963"
   viewBox="0 0 57.256253 90.399964"
   sodipodi:docname="muetze_pig.svg"
   inkscape:version="0.92.2 5c3e80d, 2017-08-06"><metadata
     id="metadata8"><rdf:RDF><cc:Work
         rdf:about=""><dc:format>image/svg+xml</dc:format><dc:type
           rdf:resource="http://purl.org/dc/dcmitype/StillImage" /><dc:title /></cc:Work></rdf:RDF></metadata><defs
     id="defs6" /><sodipodi:namedview
     pagecolor="#ffffff"
     bordercolor="#666666"
     borderopacity="1"
     objecttolerance="10"
     gridtolerance="10"
     guidetolerance="10"
     inkscape:pageopacity="0"
     inkscape:pageshadow="2"
     inkscape:window-width="640"
     inkscape:window-height="480"
     id="namedview4"
     showgrid="false"
     inkscape:snap-global="false"
     inkscape:zoom="6.4827935"
     inkscape:cx="35.51517"
     inkscape:cy="26.941167"
     inkscape:current-layer="g10"
     fit-margin-top="1"
     fit-margin-left="1"
     fit-margin-right="1"
     fit-margin-bottom="1" /><g
     id="g10"
     inkscape:groupmode="layer"
     inkscape:label="document"
     transform="matrix(1.3333333,0,0,-1.3333333,-62.198345,91.289071)"><path
       style="fill:none;fill-rule:evenodd;stroke:#000000;stroke-width:1.5;stroke-linecap:butt;stroke-linejoin:miter;stroke-opacity:1"
       d="M 68.246455,9.9923571 C 48.711502,8.4560394 56.589845,13.507697 56.589845,13.507697"
       id="path384"
       inkscape:connector-curvature="0"
       sodipodi:nodetypes="cc" /><path
       style="fill:none;fill-rule:evenodd;stroke:#000000;stroke-width:0.75px;stroke-linecap:butt;stroke-linejoin:miter;stroke-opacity:1"
       d="m 58.167432,9.7287064 0.613505,2.9880396 v 0"
       id="path386"
       inkscape:connector-curvature="0" /><path
       style="fill:none;fill-rule:evenodd;stroke:#000000;stroke-width:0.75px;stroke-linecap:butt;stroke-linejoin:miter;stroke-opacity:1"
       d="M 67.983526,9.9044734 67.370017,12.892512"
       id="path388"
       inkscape:connector-curvature="0" /><g
       id="g86"
       transform="matrix(0.75756784,0,0,0.75964073,70.218204,14.01137)"
       style="stroke-width:1.31821156"><path
         inkscape:connector-curvature="0"
         id="path88"
         style="fill:none;stroke:#f1a48e;stroke-width:1.05062783;stroke-linecap:butt;stroke-linejoin:miter;stroke-miterlimit:10;stroke-dasharray:none;stroke-opacity:1"
         d="m 24.01276,16.80106 c 0.22102,-3.10389 -1.20504,-5.16449 -3.26566,-5.23847 -2.06105,-0.07657 -3.33661,0.81058 -3.84094,2.67871 -0.50476,1.86554 0.81621,3.5918 2.35258,3.73627 1.53377,0.14748 2.17436,-0.64623 2.46331,-1.93044 0.28936,-1.28419 -0.57529,-3.06451 -1.33524,-3.80416 -0.75954,-0.73964 -0.33696,-0.38842 -1.66658,-1.30411 -1.33221,-0.91524 -6.341,-0.61203 -7.73032,3.39024" /></g><g
       id="g90"
       transform="matrix(0.75756784,0,0,0.75964073,70.218204,14.01137)"
       style="stroke-width:1.31821156"><path
         inkscape:connector-curvature="0"
         id="path92"
         style="fill:#f7cdc1;fill-opacity:1;fill-rule:nonzero;stroke:none;stroke-width:1.31821156"
         d="M 17.00824,22.67752 C 17.00824,11.33855 9.92155,4.53558 0,4.53558 c -9.92155,0 -17.00824,6.80297 -17.00824,18.14194 0,14.1734 7.08669,19.84268 17.00824,19.84268 9.92155,0 17.00824,-5.66928 17.00824,-21.2601 z" /></g><path
       style="fill:#b22222;fill-rule:evenodd;stroke:none;stroke-width:0.75px;stroke-linecap:butt;stroke-linejoin:miter;stroke-opacity:1"
       d="m 61.558045,43.615966 c 4.491275,-4.978091 12.468356,-6.979593 17.199651,-0.615826 1.148168,-0.654121 2.490662,-2.149295 2.293283,-3.387042 -3.381393,-6.962911 -18.566594,-6.801149 -21.794983,0.245052 -0.0651,1.389185 1.071921,3.118754 2.302049,3.757816 z"
       id="path441"
       inkscape:connector-curvature="0"
       sodipodi:nodetypes="ccccc" /><g
       id="g102"
       transform="matrix(0.75756784,0,0,0.75964073,70.218204,14.01137)"
       style="stroke-width:1.31821156"><path
         inkscape:connector-curvature="0"
         id="path104"
         style="fill:#f7cdc1;fill-opacity:1;fill-rule:nonzero;stroke:none;stroke-width:1.31821156"
         d="m 14.17339,46.48874 c 0,7.82785 -6.34555,14.1734 -14.17339,14.1734 -7.82784,0 -14.17339,-6.34555 -14.17339,-14.1734 0,-7.82785 6.34555,-14.1734 14.17339,-14.1734 7.82784,0 14.17339,6.34555 14.17339,14.1734 z" /></g><g
       id="g106"
       transform="matrix(0.75756784,0,0,0.75964073,70.218204,14.01137)"
       style="stroke-width:1.31821156"><path
         inkscape:connector-curvature="0"
         id="path108"
         style="fill:#808080;fill-opacity:1;fill-rule:nonzero;stroke:none;stroke-width:1.31821156"
         d="m -1.98405,51.59138 c 0,0.31318 -0.25387,0.56705 -0.56705,0.56705 -0.31317,0 -0.56705,-0.25387 -0.56705,-0.56705 0,-0.31317 0.25388,-0.56704 0.56705,-0.56704 0.31318,0 0.56705,0.25387 0.56705,0.56704 z" /></g><g
       id="g110"
       transform="matrix(0.75756784,0,0,0.75964073,70.218204,14.01137)"
       style="stroke-width:1.31821156"><path
         inkscape:connector-curvature="0"
         id="path112"
         style="fill:#808080;fill-opacity:1;fill-rule:nonzero;stroke:none;stroke-width:1.31821156"
         d="m 3.11815,51.59138 c 0,0.31318 -0.25388,0.56705 -0.56705,0.56705 -0.31318,0 -0.56705,-0.25387 -0.56705,-0.56705 0,-0.31317 0.25387,-0.56704 0.56705,-0.56704 0.31317,0 0.56705,0.25387 0.56705,0.56704 z" /></g><g
       id="g114"
       transform="matrix(0.75756784,0,0,0.75964073,70.218204,14.01137)"
       style="stroke-width:1.31821156"><path
         inkscape:connector-curvature="0"
         id="path116"
         style="fill:#f1a48e;fill-opacity:1;fill-rule:nonzero;stroke:none;stroke-width:1.31821156"
         d="m 5.1022,45.92168 c 0,2.19177 -2.28431,3.96852 -5.1022,3.96852 -2.81789,0 -5.1022,-1.77675 -5.1022,-3.96852 0,-2.19178 2.28431,-3.96852 5.1022,-3.96852 2.81789,0 5.1022,1.77674 5.1022,3.96852 z" /></g><g
       id="g118"
       transform="matrix(0.75756784,0,0,0.75964073,70.218204,14.01137)"
       style="stroke-width:1.31821156"><path
         inkscape:connector-curvature="0"
         id="path120"
         style="fill:#808080;fill-opacity:1;fill-rule:nonzero;stroke:none;stroke-width:1.31821156"
         d="m -0.7085,45.92168 c 0,0.548 -0.44423,0.99223 -0.99223,0.99223 -0.548,0 -0.99223,-0.44423 -0.99223,-0.99223 0,-0.54801 0.44423,-0.99224 0.99223,-0.99224 0.548,0 0.99223,0.44423 0.99223,0.99224 z" /></g><g
       id="g122"
       transform="matrix(0.75756784,0,0,0.75964073,70.218204,14.01137)"
       style="stroke-width:1.31821156"><path
         inkscape:connector-curvature="0"
         id="path124"
         style="fill:#808080;fill-opacity:1;fill-rule:nonzero;stroke:none;stroke-width:1.31821156"
         d="m 2.69296,45.92168 c 0,0.548 -0.44423,0.99223 -0.99223,0.99223 -0.548,0 -0.99223,-0.44423 -0.99223,-0.99223 0,-0.54801 0.44423,-0.99224 0.99223,-0.99224 0.548,0 0.99223,0.44423 0.99223,0.99224 z" /></g><g
       id="g126"
       transform="matrix(0.75756784,0,0,0.75964073,70.218204,14.01137)"
       style="stroke-width:1.31821156"><path
         inkscape:connector-curvature="0"
         id="path128"
         style="fill:none;stroke:#808080;stroke-width:0.5253073;stroke-linecap:butt;stroke-linejoin:miter;stroke-miterlimit:10;stroke-dasharray:none;stroke-opacity:1"
         d="m 2.97629,41.3865 c -1.6859,-1.41465 -4.14498,-1.41465 -5.83086,0" /></g><g
       id="g146"
       transform="matrix(0.75756784,0,0,0.75964073,70.218204,14.01137)"
       style="stroke-width:1.31821156"><path
         inkscape:connector-curvature="0"
         id="path148"
         style="fill:#f1a48e;fill-opacity:1;fill-rule:nonzero;stroke:none;stroke-width:1.31821156"
         d="M 9.11617,4.25183 C 9.60233,6.06639 8.52551,7.93161 6.71095,8.41777 4.8964,8.90393 3.03117,7.82712 2.54501,6.01256 2.39056,5.43597 2.39056,4.82841 2.54501,4.25183 h 1.99057 c 0.86152,0.49739 1.68959,0.49739 2.55111,0 z" /></g><g
       id="g150"
       transform="matrix(0.75756784,0,0,0.75964073,70.218204,14.01137)"
       style="stroke-width:1.31821156"><path
         inkscape:connector-curvature="0"
         id="path152"
         style="fill:#f1a48e;fill-opacity:1;fill-rule:nonzero;stroke:none;stroke-width:1.31821156"
         d="m -9.11617,4.25183 c -0.48616,1.81456 0.59066,3.67978 2.40522,4.16594 1.81455,0.48616 3.67978,-0.59065 4.16594,-2.40521 0.15445,-0.57659 0.15445,-1.18415 0,-1.76073 h -1.99057 c -0.86152,0.49739 -1.68959,0.49739 -2.55111,0 z" /></g><path
       style="fill:#b22222;fill-rule:evenodd;stroke:none;stroke-width:0.75px;stroke-linecap:butt;stroke-linejoin:miter;stroke-opacity:1"
       d="m 60.388794,53.548358 c 1.838698,1.606705 18.446417,1.907294 19.715223,-0.65585 0.756558,1.040806 0.324708,3.811976 -0.560625,4.702791 -2.136061,10.355101 -17.339957,9.391985 -18.687413,0.218753 -0.923384,-0.941629 -1.276196,-3.189508 -0.467185,-4.265694 z"
       id="path221"
       inkscape:connector-curvature="0"
       sodipodi:nodetypes="ccccc" /><ellipse
       style="opacity:1;fill:#b22222;fill-opacity:1;fill-rule:evenodd;stroke:none;stroke-width:0.75"
       id="path223"
       cx="70.098236"
       cy="-65.591003"
       transform="scale(1,-1)"
       rx="2.2892084"
       ry="2.014394" /><path
       style="fill:#b22222;fill-rule:evenodd;stroke:none;stroke-width:0.75px;stroke-linecap:butt;stroke-linejoin:miter;stroke-opacity:1"
       d="m 69.399257,36.810293 1.143834,-11.334698 1.934673,0.956419 1.631396,-0.484139 -1.278402,9.647985 z"
       id="path443"
       inkscape:connector-curvature="0"
       sodipodi:nodetypes="cccccc" /><path
       inkscape:connector-curvature="0"
       id="path445"
       d="M 70.341238,37.484977 69.60111,27.83699 67.935575,28.860877 66.035041,28.30927 67.313443,37.957255 Z"
       style="fill:#b22222;fill-rule:evenodd;stroke:none;stroke-width:0.75px;stroke-linecap:butt;stroke-linejoin:miter;stroke-opacity:1"
       sodipodi:nodetypes="cccccc" /><g
       id="g94"
       transform="matrix(0.75756784,0,0,0.75964073,70.218204,14.01137)"
       style="stroke-width:1.31821156"><path
         inkscape:connector-curvature="0"
         id="path96"
         style="fill:#f1a48e;fill-opacity:1;fill-rule:nonzero;stroke:none;stroke-width:1.31821156"
         d="m -6.809,27.84505 c -1.67782,2.15144 -3.73885,2.34695 -4.59788,0.43945 -0.85859,-1.90791 -0.19249,-5.19608 1.48533,-7.3475 0.53591,-0.68343 1.13108,-1.19641 1.7293,-1.48534 0.38279,0.45631 1.1112,1.98708 1.1112,1.98708 0,0 2.00695,-0.71715 2.51432,-0.29198 0,0 -0.561,4.54684 -2.24227,6.69829 z" /></g><g
       id="g98"
       transform="matrix(0.75756784,0,0,0.75964073,70.218204,14.01137)"
       style="stroke-width:1.31821156"><path
         inkscape:connector-curvature="0"
         id="path100"
         style="fill:#f1a48e;fill-opacity:1;fill-rule:nonzero;stroke:none;stroke-width:1.31821156"
         d="m 6.809,27.84505 c 1.67782,2.15144 3.73885,2.34695 4.59788,0.43945 0.85859,-1.90791 0.19249,-5.19608 -1.48533,-7.3475 -0.53591,-0.68343 -1.13108,-1.19641 -1.7293,-1.48534 -0.38279,0.45631 -1.1112,1.98708 -1.1112,1.98708 0,0 -2.00695,-0.71715 -2.51432,-0.29198 0,0 0.561,4.54684 2.24227,6.69829 z" /></g><path
       style="fill:#a9a9a9;fill-rule:evenodd;stroke:none;stroke-width:0.375;stroke-linecap:butt;stroke-linejoin:miter;stroke-opacity:1"
       d="m 63.993014,24.150589 5.068091,-0.253683 c -0.621137,-2.66373 0.779682,-7.47225 -1.269282,-11.878375 -3.768642,1.820594 -9.877494,-1.852514 -11.361108,1.686272 -0.475011,4.915098 8.968785,0.358858 7.562299,10.445786 z"
       id="path241"
       inkscape:connector-curvature="0"
       sodipodi:nodetypes="ccccc" /><path
       style="fill:none;fill-rule:evenodd;stroke:#000000;stroke-width:0.5625;stroke-linecap:butt;stroke-linejoin:miter;stroke-opacity:1"
       d="m 61.146659,15.116592 -0.364352,1.945091"
       id="path243"
       inkscape:connector-curvature="0" /><path
       style="fill:none;fill-rule:evenodd;stroke:#000000;stroke-width:0.5625;stroke-linecap:butt;stroke-linejoin:miter;stroke-opacity:1"
       d="M 63.122675,15.931786 62.06729,17.70645"
       id="path245"
       inkscape:connector-curvature="0" /><path
       style="fill:none;fill-rule:evenodd;stroke:#000000;stroke-width:0.5625;stroke-linecap:butt;stroke-linejoin:miter;stroke-opacity:1"
       d="m 64.443888,17.026388 -1.38269,1.592204"
       id="path249"
       inkscape:connector-curvature="0" /><path
       style="fill:none;fill-rule:evenodd;stroke:#000000;stroke-width:0.5625;stroke-linecap:butt;stroke-linejoin:miter;stroke-opacity:1"
       d="m 65.388947,19.057003 -1.84311,0.619451 v 0"
       id="path251"
       inkscape:connector-curvature="0" /><path
       style="fill:none;fill-rule:evenodd;stroke:#000000;stroke-width:0.5625;stroke-linecap:butt;stroke-linejoin:miter;stroke-opacity:1"
       d="m 66.006705,20.905161 -2.13397,0.242466"
       id="path253"
       inkscape:connector-curvature="0" /><path
       sodipodi:nodetypes="cc"
       inkscape:connector-curvature="0"
       id="path392"
       d="M 72.314496,9.9923571 C 91.849451,8.4560394 83.971109,13.507697 83.971109,13.507697"
       style="fill:none;fill-rule:evenodd;stroke:#000000;stroke-width:1.5;stroke-linecap:butt;stroke-linejoin:miter;stroke-opacity:1" /><path
       inkscape:connector-curvature="0"
       id="path394"
       d="m 82.393519,9.7287064 -0.613501,2.9880396 v 0"
       style="fill:none;fill-rule:evenodd;stroke:#000000;stroke-width:0.75px;stroke-linecap:butt;stroke-linejoin:miter;stroke-opacity:1" /><path
       inkscape:connector-curvature="0"
       id="path396"
       d="m 72.577425,9.9044734 0.613508,2.9880386"
       style="fill:none;fill-rule:evenodd;stroke:#000000;stroke-width:0.75px;stroke-linecap:butt;stroke-linejoin:miter;stroke-opacity:1" /><path
       sodipodi:nodetypes="ccccc"
       inkscape:connector-curvature="0"
       id="path398"
       d="m 76.567936,24.150589 -5.068091,-0.253683 c 0.621137,-2.66373 -0.779681,-7.47225 1.269282,-11.878375 3.768643,1.820594 9.877495,-1.852514 11.361109,1.686272 0.47501,4.915098 -8.968785,0.358858 -7.5623,10.445786 z"
       style="fill:#a9a9a9;fill-rule:evenodd;stroke:none;stroke-width:0.375;stroke-linecap:butt;stroke-linejoin:miter;stroke-opacity:1" /><path
       inkscape:connector-curvature="0"
       id="path400"
       d="m 79.414293,15.116592 0.364352,1.945091"
       style="fill:none;fill-rule:evenodd;stroke:#000000;stroke-width:0.5625;stroke-linecap:butt;stroke-linejoin:miter;stroke-opacity:1" /><path
       inkscape:connector-curvature="0"
       id="path402"
       d="m 77.438275,15.931786 1.055391,1.774664"
       style="fill:none;fill-rule:evenodd;stroke:#000000;stroke-width:0.5625;stroke-linecap:butt;stroke-linejoin:miter;stroke-opacity:1" /><path
       inkscape:connector-curvature="0"
       id="path404"
       d="m 76.117062,17.026388 1.38269,1.592204"
       style="fill:none;fill-rule:evenodd;stroke:#000000;stroke-width:0.5625;stroke-linecap:butt;stroke-linejoin:miter;stroke-opacity:1" /><path
       inkscape:connector-curvature="0"
       id="path406"
       d="m 75.172004,19.057003 1.843109,0.619451 v 0"
       style="fill:none;fill-rule:evenodd;stroke:#000000;stroke-width:0.5625;stroke-linecap:butt;stroke-linejoin:miter;stroke-opacity:1" /><path
       inkscape:connector-curvature="0"
       id="path408"
       d="m 74.554245,20.905161 2.13397,0.242466"
       style="fill:none;fill-rule:evenodd;stroke:#000000;stroke-width:0.5625;stroke-linecap:butt;stroke-linejoin:miter;stroke-opacity:1" /></g></svg>