<?xml version="1.0" encoding="UTF-8" standalone="no"?>
<!-- Created with Inkscape (http://www.inkscape.org/) -->

<svg
   xmlns:dc="http://purl.org/dc/elements/1.1/"
   xmlns:cc="http://creativecommons.org/ns#"
   xmlns:rdf="http://www.w3.org/1999/02/22-rdf-syntax-ns#"
   xmlns:svg="http://www.w3.org/2000/svg"
   xmlns="http://www.w3.org/2000/svg"
   xmlns:sodipodi="http://sodipodi.sourceforge.net/DTD/sodipodi-0.dtd"
   xmlns:inkscape="http://www.inkscape.org/namespaces/inkscape"
   version="1.1"
   id="svg2"
   xml:space="preserve"
   width="120.08271"
   height="112.2949"
   viewBox="0 0 120.08271 112.2949"
   sodipodi:docname="Vietruv Coati.svg"
   inkscape:version="0.92.2 5c3e80d, 2017-08-06"><metadata
     id="metadata8"><rdf:RDF><cc:Work
         rdf:about=""><dc:format>image/svg+xml</dc:format><dc:type
           rdf:resource="http://purl.org/dc/dcmitype/StillImage" /><dc:title /></cc:Work></rdf:RDF></metadata><defs
     id="defs6"><clipPath
       clipPathUnits="userSpaceOnUse"
       id="clipPath38"><path
         d="m 8.06465,15.85985 c 10.02623,7.74156 12.634,27.05136 21.71082,31.30624 7.65937,3.4045 20.14027,-8.79307 14.4684,-9.07637 C 26.08765,57.94667 24.49721,17.7081 14.17642,10.85973 9.11053,7.49759 -5.00056,3.16617 -3.99101,9.19835 c 0.9239,5.51659 5.43092,1.54805 12.05566,6.6615 z"
         id="path36"
         inkscape:connector-curvature="0" /></clipPath><clipPath
       clipPathUnits="userSpaceOnUse"
       id="clipPath158"><path
         d="m 8.06465,15.85985 c 10.02623,7.74156 12.634,27.05136 21.71082,31.30624 7.65937,3.4045 20.14027,-8.79307 14.4684,-9.07637 C 26.08765,57.94667 24.49721,17.7081 14.17642,10.85973 9.11053,7.49759 -5.00056,3.16617 -3.99101,9.19835 c 0.9239,5.51659 5.43092,1.54805 12.05566,6.6615 z"
         id="path156"
         inkscape:connector-curvature="0" /></clipPath></defs><sodipodi:namedview
     pagecolor="#ffffff"
     bordercolor="#666666"
     borderopacity="1"
     objecttolerance="10"
     gridtolerance="10"
     guidetolerance="10"
     inkscape:pageopacity="0"
     inkscape:pageshadow="2"
     inkscape:window-width="640"
     inkscape:window-height="480"
     id="namedview4"
     showgrid="false"
     inkscape:zoom="3.867431"
     inkscape:cx="96.055636"
     inkscape:cy="47.829488"
     inkscape:current-layer="layer2"
     fit-margin-top="0"
     fit-margin-left="0"
     fit-margin-right="0"
     fit-margin-bottom="0" /><g
     inkscape:groupmode="layer"
     id="layer2"
     inkscape:label="document 2"
     style="opacity:0.694"
     transform="translate(132.39241,12.062677)"><rect
       style="opacity:1;fill:#ffe4b5;fill-opacity:1;fill-rule:evenodd;stroke:none;stroke-width:0.25;stroke-opacity:1"
       id="rect118"
       width="120.08271"
       height="112.2949"
       x="-132.39241"
       y="-12.062677" /><g
       id="g5146"
       inkscape:transform-center-x="-34.956024"
       inkscape:transform-center-y="-16.249836"
       transform="rotate(14.680845,-14.892737,-375.54823)"><g
         transform="matrix(1.3333333,0,0,-1.3333333,32.227813,88.698706)"
         id="g28"><path
           inkscape:connector-curvature="0"
           id="path30"
           style="fill:#62523f;fill-opacity:1;fill-rule:nonzero;stroke:none"
           d="m 8.06465,15.85985 c 10.02623,7.74156 12.634,27.05136 21.71082,31.30624 7.65937,3.4045 20.14027,-8.79307 14.4684,-9.07637 C 26.08765,57.94667 24.49721,17.7081 14.17642,10.85973 9.11053,7.49759 -5.00056,3.16617 -3.99101,9.19835 c 0.9239,5.51659 5.43092,1.54805 12.05566,6.6615 z" /></g><g
         transform="matrix(1.3333333,0,0,-1.3333333,32.227813,88.698706)"
         id="g32"><g
           clip-path="url(#clipPath38)"
           id="g34"><g
             id="g40"><path
               inkscape:connector-curvature="0"
               id="path42"
               style="fill:#cab7a0;fill-opacity:1;fill-rule:nonzero;stroke:none"
               d="m 17.05927,34.20612 1.41741,2.45506 9.81951,-5.66928 -1.41741,-2.45507 z" /></g><g
             id="g44"><path
               inkscape:connector-curvature="0"
               id="path46"
               style="fill:#cab7a0;fill-opacity:1;fill-rule:nonzero;stroke:none"
               d="m 19.89346,39.87546 1.41742,2.45504 9.81949,-5.66926 -1.41742,-2.45506 z" /></g><g
             id="g48"><path
               inkscape:connector-curvature="0"
               id="path50"
               style="fill:#cab7a0;fill-opacity:1;fill-rule:nonzero;stroke:none"
               d="m 23.6168,45.95197 2.17162,1.82222 7.28832,-8.68575 -2.17162,-1.8222 z" /></g><g
             id="g52"><path
               inkscape:connector-curvature="0"
               id="path54"
               style="fill:#cab7a0;fill-opacity:1;fill-rule:nonzero;stroke:none"
               d="m 31.63574,50.69211 2.79181,0.49228 1.96889,-11.1664 -2.79183,-0.49228 z" /></g><g
             id="g56"><path
               inkscape:connector-curvature="0"
               id="path58"
               style="fill:#cab7a0;fill-opacity:1;fill-rule:nonzero;stroke:none"
               d="m 45.07855,47.77419 2.1716,-1.82222 -7.28833,-8.68573 -2.1716,1.8222 z" /></g><g
             id="g60"><path
               inkscape:connector-curvature="0"
               id="path62"
               style="fill:#cab7a0;fill-opacity:1;fill-rule:nonzero;stroke:none"
               d="m 9.9726,20.03271 1.41741,2.45507 9.81949,-5.66928 -1.41742,-2.45505 z" /></g><g
             id="g64"><path
               inkscape:connector-curvature="0"
               id="path66"
               style="fill:#cab7a0;fill-opacity:1;fill-rule:nonzero;stroke:none"
               d="m 12.807,27.11942 1.41743,2.45504 9.81948,-5.66926 -1.41741,-2.45507 z" /></g><g
             id="g68"><path
               inkscape:connector-curvature="0"
               id="path70"
               style="fill:#cab7a0;fill-opacity:1;fill-rule:nonzero;stroke:none"
               d="m 4.66722,15.31462 1.82222,2.1716 8.68576,-7.28833 -1.82222,-2.1716 z" /></g><g
             id="g72"><path
               inkscape:connector-curvature="0"
               id="path74"
               style="fill:#cab7a0;fill-opacity:1;fill-rule:nonzero;stroke:none"
               d="M -2.64473,12.70512 -0.18967,14.12256 5.47958,4.30307 3.02454,2.88564 Z" /></g></g></g></g><g
       style="display:inline"
       id="g148"
       transform="matrix(1.3333333,0,0,-1.3333333,-75.702466,88.3048)"><path
         inkscape:connector-curvature="0"
         id="path150"
         style="fill:#62523f;fill-opacity:1;fill-rule:nonzero;stroke:none"
         d="m 8.06465,15.85985 c 10.02623,7.74156 12.634,27.05136 21.71082,31.30624 7.65937,3.4045 20.14027,-8.79307 14.4684,-9.07637 C 26.08765,57.94667 24.49721,17.7081 14.17642,10.85973 9.11053,7.49759 -5.00056,3.16617 -3.99101,9.19835 c 0.9239,5.51659 5.43092,1.54805 12.05566,6.6615 z" /></g><g
       style="display:inline"
       id="g152"
       transform="matrix(1.3333333,0,0,-1.3333333,-75.702466,88.3048)"><g
         clip-path="url(#clipPath158)"
         id="g154"><g
           id="g160"><path
             inkscape:connector-curvature="0"
             id="path162"
             style="fill:#cab7a0;fill-opacity:1;fill-rule:nonzero;stroke:none"
             d="m 17.05927,34.20612 1.41741,2.45506 9.81951,-5.66928 -1.41741,-2.45507 z" /></g><g
           id="g164"><path
             inkscape:connector-curvature="0"
             id="path166"
             style="fill:#cab7a0;fill-opacity:1;fill-rule:nonzero;stroke:none"
             d="m 19.89346,39.87546 1.41742,2.45504 9.81949,-5.66926 -1.41742,-2.45506 z" /></g><g
           id="g168"><path
             inkscape:connector-curvature="0"
             id="path170"
             style="fill:#cab7a0;fill-opacity:1;fill-rule:nonzero;stroke:none"
             d="m 23.6168,45.95197 2.17162,1.82222 7.28832,-8.68575 -2.17162,-1.8222 z" /></g><g
           id="g172"><path
             inkscape:connector-curvature="0"
             id="path174"
             style="fill:#cab7a0;fill-opacity:1;fill-rule:nonzero;stroke:none"
             d="m 31.63574,50.69211 2.79181,0.49228 1.96889,-11.1664 -2.79183,-0.49228 z" /></g><g
           id="g176"><path
             inkscape:connector-curvature="0"
             id="path178"
             style="fill:#cab7a0;fill-opacity:1;fill-rule:nonzero;stroke:none"
             d="m 45.07855,47.77419 2.1716,-1.82222 -7.28833,-8.68573 -2.1716,1.8222 z" /></g><g
           id="g180"><path
             inkscape:connector-curvature="0"
             id="path182"
             style="fill:#cab7a0;fill-opacity:1;fill-rule:nonzero;stroke:none"
             d="m 9.9726,20.03271 1.41741,2.45507 9.81949,-5.66928 -1.41742,-2.45505 z" /></g><g
           id="g184"><path
             inkscape:connector-curvature="0"
             id="path186"
             style="fill:#cab7a0;fill-opacity:1;fill-rule:nonzero;stroke:none"
             d="m 12.807,27.11942 1.41743,2.45504 9.81948,-5.66926 -1.41741,-2.45507 z" /></g><g
           id="g188"><path
             inkscape:connector-curvature="0"
             id="path190"
             style="fill:#cab7a0;fill-opacity:1;fill-rule:nonzero;stroke:none"
             d="m 4.66722,15.31462 1.82222,2.1716 8.68576,-7.28833 -1.82222,-2.1716 z" /></g><g
           id="g192"><path
             inkscape:connector-curvature="0"
             id="path194"
             style="fill:#cab7a0;fill-opacity:1;fill-rule:nonzero;stroke:none"
             d="M -2.64473,12.70512 -0.18967,14.12256 5.47958,4.30307 3.02454,2.88564 Z" /></g></g></g><circle
       style="opacity:1;fill:none;fill-opacity:1;fill-rule:evenodd;stroke:#000000;stroke-width:0.25;stroke-opacity:1"
       id="path115"
       cx="-75.747284"
       cy="43.738037"
       r="41.027557" /><rect
       style="opacity:1;fill:none;fill-opacity:1;fill-rule:evenodd;stroke:#000000;stroke-width:0.25;stroke-opacity:1"
       id="rect117"
       width="69.055115"
       height="69.055115"
       x="-109.71561"
       y="15.104371" /></g><g
     id="g10"
     inkscape:groupmode="layer"
     inkscape:label="document"
     transform="matrix(1.3333333,0,0,-1.3333333,132.39241,95.21201)"
     style="display:inline"><g
       id="g140"
       transform="translate(-56.776851,-3.8666004)"><path
         inkscape:connector-curvature="0"
         id="path142"
         style="fill:#9c8364;fill-opacity:1;fill-rule:nonzero;stroke:none"
         d="m 13.7482,5.66927 c 0,1.40895 -2.9189,2.5511 -6.51964,2.5511 -3.60074,0 -6.51964,-1.14215 -6.51964,-2.5511 0,-1.40896 2.9189,-2.55111 6.51964,-2.55111 3.60074,0 6.51964,1.14215 6.51964,2.55111 z" /></g><g
       id="g144"
       transform="translate(-56.776851,-3.8666004)"><path
         inkscape:connector-curvature="0"
         id="path146"
         style="fill:#9c8364;fill-opacity:1;fill-rule:nonzero;stroke:none"
         d="m -0.70892,5.66927 c 0,1.40895 -2.9189,2.5511 -6.51964,2.5511 -3.60074,0 -6.51964,-1.14215 -6.51964,-2.5511 0,-1.40896 2.9189,-2.55111 6.51964,-2.55111 3.60074,0 6.51964,1.14215 6.51964,2.55111 z" /></g><g
       id="g196"
       transform="translate(-56.776851,-3.8666004)"><path
         inkscape:connector-curvature="0"
         id="path198"
         style="fill:#9c8364;fill-opacity:1;fill-rule:nonzero;stroke:none"
         d="m -13.64473,39.53445 c -1.91255,0.69613 -5.28606,-3.74838 -7.53499,-9.92723 -2.24895,-6.17883 -2.5216,-11.75195 -0.60904,-12.44807 1.91256,-0.69611 5.28606,3.74838 7.53499,9.92723 2.24895,6.17883 2.52161,11.75197 0.60904,12.44807 z" /></g><g
       id="g200"
       transform="translate(-56.776851,-3.8666004)"><path
         inkscape:connector-curvature="0"
         id="path202"
         style="fill:#9c8364;fill-opacity:1;fill-rule:nonzero;stroke:none"
         d="m 21.78876,17.15915 c 1.91256,0.69612 1.63991,6.26924 -0.60904,12.44807 -2.24893,6.17885 -5.62244,10.62336 -7.53499,9.92723 -1.91257,-0.6961 -1.63991,-6.26924 0.60904,-12.44807 2.24893,-6.17885 5.62243,-10.62334 7.53499,-9.92723 z" /></g><g
       id="g204"
       transform="translate(-56.776851,-3.8666004)"><path
         inkscape:connector-curvature="0"
         id="path206"
         style="fill:#62523f;fill-opacity:1;fill-rule:nonzero;stroke:none"
         d="M 16.86638,26.079 C 16.86638,7.37 10.06299,5.1022 0,5.1022 -10.06299,5.1022 -16.86638,7.37 -16.86638,26.079 -17.14967,44.788 -9.49635,59.81177 0,59.81177 9.49635,59.81177 17.14967,44.788 16.86638,26.079 Z" /></g><g
       id="g208"
       transform="translate(-56.776851,-3.8666004)"><g
         id="g210"><path
           inkscape:connector-curvature="0"
           id="path212"
           style="fill:#cab7a0;fill-opacity:1;fill-rule:nonzero;stroke:none"
           d="m -3.5574,59.81711 c 0.51779,1.8058 -0.16036,3.5845 -1.51471,3.97285 -1.35437,0.38834 -2.87203,-0.76071 -3.38982,-2.56653 -0.51779,-1.80581 0.16036,-3.5845 1.51471,-3.97285 1.35436,-0.38835 2.87202,0.76071 3.38982,2.56653 z" /></g><g
         id="g214"><path
           inkscape:connector-curvature="0"
           id="path216"
           style="fill:#9c8364;fill-opacity:1;fill-rule:nonzero;stroke:none"
           d="m -4.23845,60.01239 c 0.38834,1.35435 -0.08983,2.67964 -1.06805,2.96014 -0.97821,0.28049 -2.08603,-0.59003 -2.47438,-1.94438 -0.38836,-1.35435 0.08982,-2.67965 1.06805,-2.96014 0.97821,-0.28049 2.08603,0.59001 2.47438,1.94438 z" /></g><g
         id="g218"><path
           inkscape:connector-curvature="0"
           id="path220"
           style="fill:#cab7a0;fill-opacity:1;fill-rule:nonzero;stroke:none"
           d="M 13.62926,50.77216 C 16.10684,36.38896 -9.8307,38.48073 -18.0286,38.77573 c -3.46377,2.97628 3.29377,11.99643 3.29377,11.99643 4.53863,14.18164 23.82547,14.18164 28.36409,0 z" /></g><g
         id="g222"><path
           inkscape:connector-curvature="0"
           id="path224"
           style="fill:#9c8364;fill-opacity:1;fill-rule:nonzero;stroke:none"
           d="m 8.50412,41.25027 c 0,0 -5.6243,8.5409 -8.51837,8.58631 L -18.0286,38.77573 c 9.28919,-0.68601 18.83094,-1.01778 26.53272,2.47454 z" /></g><g
         id="g226"><path
           inkscape:connector-curvature="0"
           id="path228"
           style="fill:#9c8364;fill-opacity:1;fill-rule:nonzero;stroke:none"
           d="m -11.80913,56.19489 c 0,0 4.969,-0.18729 5.49929,-2.01865 L -19.48842,42.25375 c 0,0 3.2968,7.49199 7.67929,13.94114 z" /></g><g
         id="g230"><path
           inkscape:connector-curvature="0"
           id="path232"
           style="fill:#42321f;fill-opacity:1;fill-rule:nonzero;stroke:none"
           d="m -14.59857,41.18799 c 0,1.40895 -1.14215,2.5511 -2.5511,2.5511 -1.40895,0 -2.55112,-1.14215 -2.55112,-2.5511 0,-1.40895 1.14217,-2.5511 2.55112,-2.5511 1.40895,0 2.5511,1.14215 2.5511,2.5511 z" /></g><g
         id="g234"><path
           inkscape:connector-curvature="0"
           id="path236"
           style="fill:#42321f;fill-opacity:1;fill-rule:nonzero;stroke:none"
           d="m 1.33218,46.035 c 0,0.9393 -0.50755,1.70073 -1.13366,1.70073 -0.6261,0 -1.13365,-0.76143 -1.13365,-1.70073 0,-0.9393 0.50755,-1.70073 1.13365,-1.70073 0.62611,0 1.13366,0.76143 1.13366,1.70073 z" /></g><g
         id="g238"><path
           inkscape:connector-curvature="0"
           id="path240"
           style="fill:#42321f;fill-opacity:1;fill-rule:nonzero;stroke:none"
           d="m -9.77968,52.86694 c 0,0.86093 -0.44424,1.55886 -0.99223,1.55886 -0.54801,0 -0.99223,-0.69793 -0.99223,-1.55886 0,-0.86093 0.44422,-1.55885 0.99223,-1.55885 0.54799,0 0.99223,0.69792 0.99223,1.55885 z" /></g><g
         id="g242"><path
           inkscape:connector-curvature="0"
           id="path244"
           style="fill:#cab7a0;fill-opacity:1;fill-rule:nonzero;stroke:none"
           d="m 14.54584,52.36888 c 0.60412,2.10686 -0.12616,4.16462 -1.63115,4.59615 -1.50501,0.43153 -3.21475,-0.92653 -3.81888,-3.03339 -0.60413,-2.10686 0.12616,-4.16461 1.63115,-4.59614 1.505,-0.43155 3.21475,0.92652 3.81888,3.03338 z" /></g><g
         id="g246"><path
           inkscape:connector-curvature="0"
           id="path248"
           style="fill:#9c8364;fill-opacity:1;fill-rule:nonzero;stroke:none"
           d="m 13.72841,52.60327 c 0.43155,1.50501 -0.07266,2.96991 -1.12621,3.272 -1.05354,0.3021 -2.25743,-0.67303 -2.68896,-2.17803 -0.43155,-1.50499 0.07266,-2.9699 1.1262,-3.27199 1.05355,-0.3021 2.25744,0.67303 2.68897,2.17802 z" /></g></g></g><g
     inkscape:groupmode="layer"
     id="layer1"
     inkscape:label="document 1"
     style="display:inline;opacity:0.603"
     transform="translate(132.39241,12.062677)"><path
       d="m -109.92051,33.575397 c 1.82107,-2.011986 8.56652,1.126202 15.066554,7.009491 6.500065,5.883274 10.293014,12.283533 8.471935,14.295501 -1.821051,2.012009 -8.566523,-1.126201 -15.066549,-7.00949 -6.50007,-5.883275 -10.293,-12.283511 -8.47194,-14.295502 z"
       style="fill:#9c8364;fill-opacity:1;fill-rule:nonzero;stroke:none;stroke-width:1.33333325"
       id="path5148"
       inkscape:connector-curvature="0" /><path
       inkscape:connector-curvature="0"
       id="path22"
       style="fill:#9c8364;fill-opacity:1;fill-rule:nonzero;stroke:none;stroke-width:1.33333325"
       d="m -50.143336,73.060201 c -0.887457,-1.655765 -5.037087,-1.159462 -9.268593,1.108539 -4.231505,2.268002 -6.942321,5.448761 -6.054865,7.104526 0.887463,1.655777 5.037094,1.159474 9.268599,-1.108528 4.231506,-2.268001 6.942322,-5.44876 6.054859,-7.104537 z" /><path
       inkscape:connector-curvature="0"
       id="path26"
       style="fill:#9c8364;fill-opacity:1;fill-rule:nonzero;stroke:none;stroke-width:1.33333325"
       d="m -76.647693,80.745774 c 0,-1.8786 -3.891866,-3.401467 -8.692853,-3.401467 -4.800987,0 -8.692853,1.522867 -8.692853,3.401467 0,1.878613 3.891866,3.40148 8.692853,3.40148 4.800987,0 8.692853,-1.522867 8.692853,-3.40148 z" /><path
       inkscape:connector-curvature="0"
       id="path82"
       style="fill:#9c8364;fill-opacity:1;fill-rule:nonzero;stroke:none;stroke-width:1.33333325"
       d="m -40.977987,34.195609 c 1.526788,2.243504 -3.111035,8.060713 -10.359055,12.993227 -7.248014,4.932551 -14.361255,7.11236 -15.888024,4.868853 -1.526815,-2.243489 3.111035,-8.060713 10.359055,-12.993227 7.248014,-4.932551 14.361229,-7.112346 15.888024,-4.868853 z" /><path
       inkscape:connector-curvature="0"
       id="path86"
       style="fill:#62523f;fill-opacity:1;fill-rule:nonzero;stroke:none;stroke-width:1.33333325"
       d="m -53.21396,53.532801 c 0,24.945333 -9.071187,27.969066 -22.488506,27.969066 -13.41732,0 -22.488506,-3.023733 -22.488506,-27.969066 -0.37772,-24.945333 9.826706,-44.9770256 22.488506,-44.9770256 12.661799,0 22.866226,20.0316926 22.488506,44.9770256 z" /><g
       id="g90"
       transform="matrix(1.3333333,0,0,-1.3333333,-75.702466,88.3048)"><path
         inkscape:connector-curvature="0"
         id="path92"
         style="fill:#cab7a0;fill-opacity:1;fill-rule:nonzero;stroke:none"
         d="M 14.17339,51.02432 C 14.17339,44.788 5.66927,35.43349 0,32.88239 c -5.66927,2.5511 -14.17339,11.90561 -14.17339,18.14193 4.53559,14.17342 23.81119,14.17342 28.34678,0 z" /></g><g
       id="g94"
       transform="matrix(1.3333333,0,0,-1.3333333,-75.702466,88.3048)"><path
         inkscape:connector-curvature="0"
         id="path96"
         style="fill:#9c8364;fill-opacity:1;fill-rule:nonzero;stroke:none"
         d="m -13.98912,49.44513 c 0,0 8.55516,1.00651 10.10278,-0.31143 1.90187,-15.11762 1.90187,-15.11762 1.90187,-15.11762 -5.3574,3.31366 -11.05523,10.38912 -12.00465,15.42905 z" /></g><g
       id="g98"
       transform="matrix(1.3333333,0,0,-1.3333333,-75.702466,88.3048)"><path
         inkscape:connector-curvature="0"
         id="path100"
         style="fill:#9c8364;fill-opacity:1;fill-rule:nonzero;stroke:none"
         d="m 13.98912,49.44513 c 0,0 -8.55516,1.00651 -10.10278,-0.31143 C 1.98447,34.01608 1.98447,34.01608 1.98447,34.01608 7.34187,37.32974 13.0397,44.4052 13.98912,49.44513 Z" /></g><g
       id="g102"
       transform="matrix(1.3333333,0,0,-1.3333333,-75.702466,88.3048)"><path
         inkscape:connector-curvature="0"
         id="path104"
         style="fill:#42321f;fill-opacity:1;fill-rule:nonzero;stroke:none"
         d="m 2.5511,35.37683 c 0,1.40895 -1.14216,2.5511 -2.5511,2.5511 -1.40894,0 -2.5511,-1.14215 -2.5511,-2.5511 0,-1.40895 1.14216,-2.5511 2.5511,-2.5511 1.40894,0 2.5511,1.14215 2.5511,2.5511 z" /></g><g
       id="g106"
       transform="matrix(1.3333333,0,0,-1.3333333,-75.702466,88.3048)"><path
         inkscape:connector-curvature="0"
         id="path108"
         style="fill:#42321f;fill-opacity:1;fill-rule:nonzero;stroke:none"
         d="m 7.93706,45.92168 c 0,0.78282 -0.6346,1.41742 -1.41742,1.41742 -0.78284,0 -1.41742,-0.6346 -1.41742,-1.41742 0,-0.78284 0.63458,-1.41742 1.41742,-1.41742 0.78282,0 1.41742,0.63458 1.41742,1.41742 z" /></g><g
       id="g110"
       transform="matrix(1.3333333,0,0,-1.3333333,-75.702466,88.3048)"><path
         inkscape:connector-curvature="0"
         id="path112"
         style="fill:#42321f;fill-opacity:1;fill-rule:nonzero;stroke:none"
         d="m -5.10222,45.92168 c 0,0.78282 -0.63458,1.41742 -1.41742,1.41742 -0.78282,0 -1.41742,-0.6346 -1.41742,-1.41742 0,-0.78284 0.6346,-1.41742 1.41742,-1.41742 0.78284,0 1.41742,0.63458 1.41742,1.41742 z" /></g><g
       id="g114"
       transform="matrix(1.3333333,0,0,-1.3333333,-75.702466,88.3048)"><path
         inkscape:connector-curvature="0"
         id="path116"
         style="fill:#cab7a0;fill-opacity:1;fill-rule:nonzero;stroke:none"
         d="m 15.87413,57.26067 c 0,1.8786 -1.52287,3.40147 -3.40147,3.40147 -1.8786,0 -3.40148,-1.52287 -3.40148,-3.40147 0,-1.87861 1.52288,-3.40148 3.40148,-3.40148 1.8786,0 3.40147,1.52287 3.40147,3.40148 z" /></g><g
       id="g118"
       transform="matrix(1.3333333,0,0,-1.3333333,-75.702466,88.3048)"><path
         inkscape:connector-curvature="0"
         id="path120"
         style="fill:#cab7a0;fill-opacity:1;fill-rule:nonzero;stroke:none"
         d="m -9.07118,57.26067 c 0,1.8786 -1.52288,3.40147 -3.40148,3.40147 -1.8786,0 -3.40147,-1.52287 -3.40147,-3.40147 0,-1.87861 1.52287,-3.40148 3.40147,-3.40148 1.8786,0 3.40148,1.52287 3.40148,3.40148 z" /></g><g
       id="g122"
       transform="matrix(1.3333333,0,0,-1.3333333,-75.702466,88.3048)"><path
         inkscape:connector-curvature="0"
         id="path124"
         style="fill:#9c8364;fill-opacity:1;fill-rule:nonzero;stroke:none"
         d="m 15.02376,57.26067 c 0,1.40895 -1.14216,2.5511 -2.5511,2.5511 -1.40896,0 -2.55111,-1.14215 -2.55111,-2.5511 0,-1.40895 1.14215,-2.55112 2.55111,-2.55112 1.40894,0 2.5511,1.14217 2.5511,2.55112 z" /></g><g
       id="g126"
       transform="matrix(1.3333333,0,0,-1.3333333,-75.702466,88.3048)"><path
         inkscape:connector-curvature="0"
         id="path128"
         style="fill:#9c8364;fill-opacity:1;fill-rule:nonzero;stroke:none"
         d="m -9.92155,57.26067 c 0,1.40895 -1.14215,2.5511 -2.55111,2.5511 -1.40894,0 -2.5511,-1.14215 -2.5511,-2.5511 0,-1.40895 1.14216,-2.55112 2.5511,-2.55112 1.40896,0 2.55111,1.14217 2.55111,2.55112 z" /></g><path
       d="m -100.46679,73.060201 c 0.887455,-1.655765 5.037085,-1.159462 9.268591,1.108539 4.231505,2.268002 6.942321,5.448761 6.054865,7.104526 -0.887463,1.655777 -5.037094,1.159474 -9.268599,-1.108528 -4.231506,-2.268001 -6.942317,-5.44876 -6.054857,-7.104537 z"
       style="fill:#9c8364;fill-opacity:1;fill-rule:nonzero;stroke:none;stroke-width:1.33333325"
       id="path5150"
       inkscape:connector-curvature="0" /></g></svg>