<?xml version="1.0" encoding="UTF-8" standalone="no"?>
<!-- Created with Inkscape (http://www.inkscape.org/) -->

<svg
   xmlns:dc="http://purl.org/dc/elements/1.1/"
   xmlns:cc="http://creativecommons.org/ns#"
   xmlns:rdf="http://www.w3.org/1999/02/22-rdf-syntax-ns#"
   xmlns:svg="http://www.w3.org/2000/svg"
   xmlns="http://www.w3.org/2000/svg"
   xmlns:sodipodi="http://sodipodi.sourceforge.net/DTD/sodipodi-0.dtd"
   xmlns:inkscape="http://www.inkscape.org/namespaces/inkscape"
   version="1.1"
   id="svg2"
   xml:space="preserve"
   width="112.97516"
   height="168.00148"
   viewBox="0 0 112.97516 168.00148"
   sodipodi:docname="Wild_west_marmot.svg"
   inkscape:version="0.92.2 5c3e80d, 2017-08-06"><metadata
     id="metadata8"><rdf:RDF><cc:Work
         rdf:about=""><dc:format>image/svg+xml</dc:format><dc:type
           rdf:resource="http://purl.org/dc/dcmitype/StillImage" /><dc:title /></cc:Work></rdf:RDF></metadata><defs
     id="defs6"><clipPath
       clipPathUnits="userSpaceOnUse"
       id="clipPath116"><path
         d="M 0,0 H 558.92395 V 312.87485 H 0 Z"
         id="path114"
         inkscape:connector-curvature="0" /></clipPath><clipPath
       clipPathUnits="userSpaceOnUse"
       id="clipPath148"><path
         d="M 0,0 H 1280 V 640 H 0 Z"
         id="path146"
         inkscape:connector-curvature="0" /></clipPath></defs><sodipodi:namedview
     pagecolor="#ffffff"
     bordercolor="#666666"
     borderopacity="1"
     objecttolerance="10"
     gridtolerance="10"
     guidetolerance="10"
     inkscape:pageopacity="0"
     inkscape:pageshadow="2"
     inkscape:window-width="640"
     inkscape:window-height="480"
     id="namedview4"
     showgrid="false"
     fit-margin-top="0"
     fit-margin-left="0"
     fit-margin-right="0"
     fit-margin-bottom="0"
     inkscape:zoom="4.0610078"
     inkscape:cx="155.30911"
     inkscape:cy="12.184118"
     inkscape:current-layer="g10" /><g
     id="g10"
     inkscape:groupmode="layer"
     inkscape:label="WildWestMarmot"
     transform="matrix(1.3333333,0,0,-1.3333333,-222.86334,263.11646)"><rect
       style="opacity:1;fill:#e6e6e6;fill-opacity:1;fill-rule:evenodd;stroke:none;stroke-width:5.6692915;stroke-linecap:round;stroke-miterlimit:4;stroke-dasharray:none;stroke-dashoffset:0;stroke-opacity:1"
       id="rect1628"
       width="102.66367"
       height="136.59488"
       x="158.88222"
       y="-202.27592"
       transform="scale(1,-1)" /><g
       transform="translate(28.346,215.44)"
       id="g34" /><g
       id="g44"
       transform="matrix(1.7060073,0,0,1.7060073,202.44823,69.740347)"
       style="stroke-width:0.23475866"><g
         id="g46"
         style="stroke-width:0.23475866"><g
           id="g48"
           style="stroke-width:0.23475866"><path
             inkscape:connector-curvature="0"
             id="path50"
             style="fill:#69533d;fill-opacity:1;fill-rule:nonzero;stroke:none;stroke-width:0.23475866"
             d="m -0.70892,5.66927 c 0,1.40895 -2.9189,2.5511 -6.51964,2.5511 -3.60074,0 -6.51964,-1.14215 -6.51964,-2.5511 0,-1.40896 2.9189,-2.55111 6.51964,-2.55111 3.60074,0 6.51964,1.14215 6.51964,2.55111 z" /></g><g
           id="g52"
           style="stroke-width:0.23475866"><path
             inkscape:connector-curvature="0"
             id="path54"
             style="fill:#69533d;fill-opacity:1;fill-rule:nonzero;stroke:none;stroke-width:0.23475866"
             d="m 13.7482,5.66927 c 0,1.40895 -2.9189,2.5511 -6.51964,2.5511 -3.60074,0 -6.51964,-1.14215 -6.51964,-2.5511 0,-1.40896 2.9189,-2.55111 6.51964,-2.55111 3.60074,0 6.51964,1.14215 6.51964,2.55111 z" /></g><g
           id="g56"
           style="stroke-width:0.23475866"><path
             inkscape:connector-curvature="0"
             id="path58"
             style="fill:#69533d;fill-opacity:1;fill-rule:nonzero;stroke:none;stroke-width:0.23475866"
             d="m 9.77966,57.54398 c 0,2.0353 -1.14215,3.68522 -2.5511,3.68522 -1.40895,0 -2.5511,-1.64992 -2.5511,-3.68522 0,-2.0353 1.14215,-3.68522 2.5511,-3.68522 1.40895,0 2.5511,1.64992 2.5511,3.68522 z" /></g><g
           id="g60"
           style="stroke-width:0.23475866"><path
             inkscape:connector-curvature="0"
             id="path62"
             style="fill:#69533d;fill-opacity:1;fill-rule:nonzero;stroke:none;stroke-width:0.23475866"
             d="m -4.67746,57.54398 c 0,2.0353 -1.14215,3.68522 -2.5511,3.68522 -1.40895,0 -2.5511,-1.64992 -2.5511,-3.68522 0,-2.0353 1.14215,-3.68522 2.5511,-3.68522 1.40895,0 2.5511,1.64992 2.5511,3.68522 z" /></g><g
           id="g64"
           style="stroke-width:0.23475866"><path
             inkscape:connector-curvature="0"
             id="path66"
             style="fill:#69533d;fill-opacity:1;fill-rule:nonzero;stroke:none;stroke-width:0.23475866"
             d="M 25.10405,18.43692 C 24.537,10.78012 0.75693,6.24194 0.47319,11.91425 c -0.5666,3.40451 2.65621,0.54975 10.7265,1.70074 7.38731,1.05452 13.90436,6.24194 13.90436,4.82193" /></g><g
           id="g68"
           style="stroke-width:0.23475866"><path
             inkscape:connector-curvature="0"
             id="path70"
             style="fill:#d2a679;fill-opacity:1;fill-rule:nonzero;stroke:none;stroke-width:0.23475866"
             d="M 16.86638,26.079 C 16.86638,7.37 10.06299,5.1022 0,5.1022 -10.06299,5.1022 -16.86638,7.37 -16.86638,26.079 -17.14967,44.788 -9.49635,59.81177 0,59.81177 9.49635,59.81177 17.14967,44.788 16.86638,26.079 Z" /></g><g
           id="g72"
           style="stroke-width:0.23475866"><path
             inkscape:connector-curvature="0"
             id="path74"
             style="fill:#e9d2bc;fill-opacity:1;fill-rule:nonzero;stroke:none;stroke-width:0.23475866"
             d="m 12.04747,20.1264 c 0,-8.50412 -5.10265,-9.63823 -12.04747,-9.63823 -6.94482,0 -12.04747,1.13411 -12.04747,9.63823 0,8.50371 5.66928,15.59041 12.04747,15.59041 6.37819,0 12.04747,-7.0867 12.04747,-15.59041 z" /></g><g
           id="g76"
           style="stroke-width:0.23475866"><path
             inkscape:connector-curvature="0"
             id="path78"
             style="fill:#69533d;fill-opacity:1;fill-rule:nonzero;stroke:none;stroke-width:0.23475866"
             d="M 13.24028,32.75542 C 11.32771,33.45154 8.7355,31.1536 7.45038,27.62273 6.16525,24.09187 6.67387,20.6653 8.58644,19.9692 c 1.91256,-0.69613 4.50476,1.60181 5.7899,5.13268 1.28513,3.53086 0.77649,6.95743 -1.13606,7.65354 z" /></g><g
           id="g80"
           style="stroke-width:0.23475866"><path
             inkscape:connector-curvature="0"
             id="path82"
             style="fill:#69533d;fill-opacity:1;fill-rule:nonzero;stroke:none;stroke-width:0.23475866"
             d="m -8.58644,19.9692 c 1.91257,0.6961 2.42119,4.12267 1.13606,7.65353 -1.28512,3.53087 -3.87733,5.82881 -5.7899,5.13269 -1.91255,-0.69611 -2.42119,-4.12268 -1.13606,-7.65354 1.28514,-3.53087 3.87734,-5.82881 5.7899,-5.13268 z" /></g><g
           id="g84"
           style="stroke-width:0.23475866"><path
             inkscape:connector-curvature="0"
             id="path86"
             style="fill:#e9d2bc;fill-opacity:1;fill-rule:nonzero;stroke:none;stroke-width:0.23475866"
             d="m 6.51964,41.66983 c 0,2.03531 -2.9189,3.68523 -6.51964,3.68523 -3.60074,0 -6.51964,-1.64992 -6.51964,-3.68523 0,-2.03529 2.9189,-3.68521 6.51964,-3.68521 3.60074,0 6.51964,1.64992 6.51964,3.68521 z" /></g><g
           id="g88"
           style="stroke-width:0.23475866"><path
             inkscape:connector-curvature="0"
             id="path90"
             style="fill:#69533d;fill-opacity:1;fill-rule:nonzero;stroke:none;stroke-width:0.23475866"
             d="m 2.26778,45.35506 c 0,1.25247 -1.01531,2.26777 -2.26778,2.26777 -1.25247,0 -2.26778,-1.0153 -2.26778,-2.26777 0,-1.25249 1.01531,-2.26779 2.26778,-2.26779 1.25247,0 2.26778,1.0153 2.26778,2.26779 z" /></g><g
           id="g92"
           style="stroke-width:0.23475866"><path
             inkscape:connector-curvature="0"
             id="path94"
             style="fill:#69533d;fill-opacity:1;fill-rule:nonzero;stroke:none;stroke-width:0.23475866"
             d="m -2.97629,50.17395 c 0,0.78284 -0.63458,1.41742 -1.4174,1.41742 -0.78284,0 -1.41742,-0.63458 -1.41742,-1.41742 0,-0.78282 0.63458,-1.41742 1.41742,-1.41742 0.78282,0 1.4174,0.6346 1.4174,1.41742 z" /></g><g
           id="g96"
           style="stroke-width:0.23475866"><path
             inkscape:connector-curvature="0"
             id="path98"
             style="fill:#69533d;fill-opacity:1;fill-rule:nonzero;stroke:none;stroke-width:0.23475866"
             d="m 5.81111,50.17395 c 0,0.78284 -0.63458,1.41742 -1.41742,1.41742 -0.78282,0 -1.4174,-0.63458 -1.4174,-1.41742 0,-0.78282 0.63458,-1.41742 1.4174,-1.41742 0.78284,0 1.41742,0.6346 1.41742,1.41742 z" /></g><g
           id="g100"
           style="stroke-width:0.23475866"><path
             inkscape:connector-curvature="0"
             id="path102"
             style="fill:#69533d;fill-opacity:1;fill-rule:nonzero;stroke:none;stroke-width:0.23475866"
             d="m 4.1104,42.80351 c -0.8567,-2.35386 -3.45949,-3.56749 -5.81334,-2.71078 -1.25965,0.45849 -2.25231,1.45115 -2.7108,2.71078 h 0.44522 v 0 c 0.77102,-2.11839 3.1134,-3.21061 5.23178,-2.43961 1.13362,0.41264 2.02699,1.30599 2.43962,2.43961 z" /></g></g><g
         id="g104"
         style="stroke-width:0.23475866" /></g><g
       transform="matrix(0.13088488,0,0,0.13088488,167.14751,156.38676)"
       id="g108"
       style="stroke-width:0.23475866"><g
         id="g110"
         style="stroke-width:0.23475866"><g
           id="g112"
           style="stroke-width:0.23475866" /><g
           id="g134"
           style="stroke-width:0.23475866"><g
             id="g132"
             clip-path="url(#clipPath116)"
             style="stroke-width:0.23475866"><g
               id="g130"
               transform="matrix(1,0,0,-1,0,312.87485)"
               style="stroke-width:0.23475866"><g
                 id="g128"
                 style="stroke-width:0.23475866"><path
                   inkscape:connector-curvature="0"
                   id="path118"
                   style="fill:#925f1c;fill-opacity:1;fill-rule:nonzero;stroke:none;stroke-width:0.23475866"
                   d="m 233.57,6 c 37.184,12.996 76.809,23.551 132.325,18.215 L 303.215,239.57 233.57,6" /><path
                   inkscape:connector-curvature="0"
                   id="path120"
                   style="fill:#b97928;fill-opacity:1;fill-rule:nonzero;stroke:none;stroke-width:0.23475866"
                   d="m 0,167.68 c 14.23,-50.059 88.945,79.168 140.355,60 C 162.488,149.461 175.949,-0.277 233.57,0 c 53.098,15.777 32.696,52.574 74.465,65.895 25.492,3.652 15.031,-44.993 57.86,-47.68 44.402,14.426 35.355,157.144 53.035,235.715 49.949,13.39 76.058,-34.192 139.82,-43.395 C 569.691,370.477 61.191,332.848 0,167.68 Z" /><path
                   inkscape:connector-curvature="0"
                   id="path122"
                   style="fill:#ff8f03;fill-opacity:1;fill-rule:nonzero;stroke:none;stroke-width:0.23475866"
                   d="m 147.621,192.023 c 98.5,-14.921 188.031,-17.875 265.258,23.93 l 5.148,28.746 C 331.07,220.273 235.293,216.574 139.82,219.109 Z" /><g
                   id="g126"
                   style="stroke-width:0.23475866"><path
                     inkscape:connector-curvature="0"
                     id="path124"
                     style="fill:none;stroke:#541800;stroke-width:4.70145798;stroke-linecap:butt;stroke-linejoin:miter;stroke-miterlimit:4;stroke-dasharray:none;stroke-opacity:1"
                     d="m 139.82,219.109 c 92.59,-2.652 189.965,2.063 281.129,25.043" /></g></g></g></g></g></g></g><g
       transform="matrix(1.7060073,0,0,1.7060073,223.19498,60.068994)"
       id="g136"
       style="stroke-width:0.23475866"><g
         transform="matrix(0.49998,0.86601,-0.86601,0.49998,0,0)"
         id="g138"
         style="stroke-width:0.23475866"><g
           transform="scale(0.05536)"
           id="g140"
           style="stroke-width:0.23475866"><g
             id="g142"
             style="stroke-width:0.23475866"><g
               id="g144"
               style="stroke-width:0.23475866" /><g
               id="g158"
               style="stroke-width:0.23475866"><g
                 id="g156"
                 clip-path="url(#clipPath148)"
                 style="stroke-width:0.23475866"><g
                   id="g154"
                   transform="matrix(1,0,0,-1,0,640)"
                   style="stroke-width:0.23475866"><g
                     id="g152"
                     style="stroke-width:0.23475866"><path
                       inkscape:connector-curvature="0"
                       id="path150"
                       style="fill:#000000;fill-opacity:1;fill-rule:nonzero;stroke:none;stroke-width:0.23475866"
                       d="m 1228,198.699 c -1.102,1.403 -2.199,4 -2.602,5.903 -0.296,1.796 -1.296,3.898 -2,4.5 -0.796,0.699 -6,2.398 -11.597,4 -9.5,2.5 -10.403,2.597 -13.199,1.199 -3.5,-1.801 -9.903,-1.199 -12.602,1.199 -1.699,1.5 -14,1.602 -168.699,1 -161.199,-0.699 -166.903,-0.801 -170.602,-2.602 -4.898,-2.5 -9.398,-2.398 -13.597,0.204 l -3.403,2.097 -111.301,-0.398 C 613.5,215.5 607.102,215.398 605.199,213.699 c -1.801,-1.597 -6,-1.699 -71.5,-1.5 l -69.5,0.301 -4,3.199 C 457.898,217.5 455.801,219 455.5,219 c -0.301,0 -3.801,-2.199 -7.801,-4.801 -4,-2.699 -8.301,-5.5 -9.597,-6.199 l -2.5,-1.301 2.296,2.903 c 5.903,7.699 8.102,10.796 8.102,11.296 0,0.403 -3.102,3.204 -6.898,6.301 -3.801,3.102 -8.602,8.199 -10.801,11.199 -4.699,6.903 -6.903,8 -44,22.204 C 336,279 307.5,288 297.398,288 290,288 280.801,284.801 271.5,279 251.102,266.5 253.898,267.5 240.5,267.199 228.398,266.801 215.301,268 135,276.5 87.301,281.5 50.898,285.699 25.5,289 8,291.301 3.301,292.199 2.301,293.602 c -2.699,3.699 -2.602,8.5 0.5,22.796 4.398,19.704 7.597,41 15.699,103.102 2.801,21.602 3.602,23.5 9.199,23.5 3.102,0 39.403,-11.898 79.301,-26.102 16.801,-5.898 59.301,-21 94.5,-33.398 64.898,-22.898 125.199,-45 158,-57.699 38.699,-15 62.699,-23.801 64.898,-23.801 3.102,0 7.204,-3.301 8,-6.5 0.403,-1.602 1.903,-3 4.204,-4 4.597,-1.898 4.097,-2 5.898,1.5 2.5,4.898 4.699,3.699 -30.5,17.102 -37.199,14.296 -39.5,16 -39.5,29.898 0,6.801 0.301,8.102 2.898,11.801 3.204,4.699 9.5,8.199 14.704,8.199 4.898,0 11.296,-1.898 29.898,-9 22.199,-8.398 33.398,-13.301 38.199,-16.699 4.102,-2.801 4.199,-2.801 24.199,-3.403 21.903,-0.699 25.403,-1.398 33,-6.898 9,-6.602 12.5,-13.602 14.903,-29.301 1,-7.097 1.5,-8.199 4.699,-11.097 3.301,-3 4.398,-3.301 12.102,-3.903 C 603.5,275.602 618.5,275 682.5,273.898 c 38,-0.699 90.199,-1.296 116.102,-1.5 31.898,-0.097 47.796,-0.597 49.199,-1.296 1.097,-0.602 6.5,-1.602 11.801,-2.102 10.597,-1.102 15.699,-3.199 16.199,-6.699 0.699,-5 -7,-4.801 157,-4.801 121.898,0 153.597,0.301 153.898,1.199 0.602,1.801 12.102,1.602 15.301,-0.199 2,-1.199 9,-1.398 37.102,-1.5 39.5,0 35.898,1 35.898,-9.898 0,-5.204 0.5,-7.403 1.898,-9.301 1.5,-1.801 2.102,-4.602 2.403,-11.102 l 0.5,-8.699 h -6.699 c -3.602,0 -7.102,-0.398 -7.801,-0.801 -0.602,-0.398 -1.903,-5 -2.801,-10.199 -0.898,-5.199 -1.699,-9.5 -1.801,-9.602 -0.097,-0.097 -7.097,-0.398 -15.398,-0.699 l -15.301,-0.5 z m -717.801,80.903 c 7.903,0.796 8,0.898 8,12.199 0.102,9.898 -1.898,14.898 -8.301,20.597 -6.5,5.801 -12,7.602 -23.398,7.602 -7.801,0 -9.898,-0.398 -14.301,-2.602 -2.898,-1.398 -6.301,-4 -7.699,-5.796 -3,-3.903 -10.898,-24.102 -10.199,-26 0.597,-1.403 14.5,-5.602 18.597,-5.602 1.903,0 2.204,0.398 1.801,2.199 -2.301,9 -1.398,18.102 1.903,20.903 1.097,0.898 1.097,0.5 0.398,-2.301 -2.398,-8.199 -0.301,-16.5 5.199,-19.801 2.699,-1.602 5,-2 12.301,-2 5,0 12,0.301 15.699,0.602 z m -60.5,25.5 c 5.199,2.5 10.102,8.199 10.903,12.597 1.597,8.403 -2.602,15.102 -12.102,19.301 -13.301,6.102 -50.199,19.199 -55.102,19.699 -10.296,1.102 -18.398,-7 -18.398,-18.301 0,-6.597 2.602,-10.699 9.102,-13.898 10.796,-5.5 54.796,-21.398 59.296,-21.5 1.102,0 3.903,0.898 6.301,2.102 z" /></g></g></g></g></g></g></g><g
         transform="translate(-29.878,8.504)"
         id="g160"
         style="stroke-width:0.23475866" /></g></g></svg>