<?xml version="1.0" encoding="UTF-8" standalone="no"?>
<!-- Created with Inkscape (http://www.inkscape.org/) -->

<svg
   xmlns:dc="http://purl.org/dc/elements/1.1/"
   xmlns:cc="http://creativecommons.org/ns#"
   xmlns:rdf="http://www.w3.org/1999/02/22-rdf-syntax-ns#"
   xmlns:svg="http://www.w3.org/2000/svg"
   xmlns="http://www.w3.org/2000/svg"
   xmlns:sodipodi="http://sodipodi.sourceforge.net/DTD/sodipodi-0.dtd"
   xmlns:inkscape="http://www.inkscape.org/namespaces/inkscape"
   version="1.1"
   id="svg2"
   xml:space="preserve"
   width="60.749737"
   height="92.880943"
   viewBox="0 0 60.749737 92.880943"
   sodipodi:docname="Winter_marmot.svg"
   inkscape:version="0.92.2 5c3e80d, 2017-08-06"><metadata
     id="metadata8"><rdf:RDF><cc:Work
         rdf:about=""><dc:format>image/svg+xml</dc:format><dc:type
           rdf:resource="http://purl.org/dc/dcmitype/StillImage" /><dc:title /></cc:Work></rdf:RDF></metadata><defs
     id="defs6" /><sodipodi:namedview
     pagecolor="#ffffff"
     bordercolor="#666666"
     borderopacity="1"
     objecttolerance="10"
     gridtolerance="10"
     guidetolerance="10"
     inkscape:pageopacity="0"
     inkscape:pageshadow="2"
     inkscape:window-width="640"
     inkscape:window-height="480"
     id="namedview4"
     showgrid="false"
     inkscape:snap-global="false"
     inkscape:zoom="5.3734513"
     inkscape:cx="46.919976"
     inkscape:cy="52.067747"
     inkscape:current-layer="g10"
     fit-margin-top="1"
     fit-margin-left="1"
     fit-margin-right="1"
     fit-margin-bottom="1" /><g
     id="g10"
     inkscape:groupmode="layer"
     inkscape:label="document"
     transform="matrix(1.3333333,0,0,-1.3333333,2.678071,92.25849)"><rect
       style="opacity:1;fill:#f5f5f5;fill-opacity:1;fill-rule:evenodd;stroke:none;stroke-width:5.6692915;stroke-linecap:round;stroke-miterlimit:4;stroke-dasharray:none;stroke-dashoffset:0;stroke-opacity:1"
       id="rect1626"
       width="51.224064"
       height="74.393532"
       x="-4.38133"
       y="-71.972641"
       transform="scale(1,-1)" /><g
       id="g14"
       transform="translate(17.717,-2.835)"><g
         id="g16"><g
           id="g18"><g
             id="g20"><path
               inkscape:connector-curvature="0"
               id="path22"
               style="fill:#604020;fill-opacity:1;fill-rule:nonzero;stroke:none"
               d="m -0.70892,5.66927 c 0,1.40895 -2.9189,2.5511 -6.51964,2.5511 -3.60074,0 -6.51964,-1.14215 -6.51964,-2.5511 0,-1.40896 2.9189,-2.55111 6.51964,-2.55111 3.60074,0 6.51964,1.14215 6.51964,2.55111 z" /></g><g
             id="g24"><path
               inkscape:connector-curvature="0"
               id="path26"
               style="fill:#604020;fill-opacity:1;fill-rule:nonzero;stroke:none"
               d="m 13.7482,5.66927 c 0,1.40895 -2.9189,2.5511 -6.51964,2.5511 -3.60074,0 -6.51964,-1.14215 -6.51964,-2.5511 0,-1.40896 2.9189,-2.55111 6.51964,-2.55111 3.60074,0 6.51964,1.14215 6.51964,2.55111 z" /></g><g
             id="g28"><path
               inkscape:connector-curvature="0"
               id="path30"
               style="fill:#604020;fill-opacity:1;fill-rule:nonzero;stroke:none"
               d="m 9.77966,57.54398 c 0,2.0353 -1.14215,3.68522 -2.5511,3.68522 -1.40895,0 -2.5511,-1.64992 -2.5511,-3.68522 0,-2.0353 1.14215,-3.68522 2.5511,-3.68522 1.40895,0 2.5511,1.64992 2.5511,3.68522 z" /></g><g
             id="g32"><path
               inkscape:connector-curvature="0"
               id="path34"
               style="fill:#604020;fill-opacity:1;fill-rule:nonzero;stroke:none"
               d="m -4.67746,57.54398 c 0,2.0353 -1.14215,3.68522 -2.5511,3.68522 -1.40895,0 -2.5511,-1.64992 -2.5511,-3.68522 0,-2.0353 1.14215,-3.68522 2.5511,-3.68522 1.40895,0 2.5511,1.64992 2.5511,3.68522 z" /></g><g
             id="g36"><path
               inkscape:connector-curvature="0"
               id="path38"
               style="fill:#604020;fill-opacity:1;fill-rule:nonzero;stroke:none"
               d="M 25.08675,18.9923 C 24.52013,11.33855 9.77966,6.80338 9.49635,12.47266 c -0.56705,3.40147 3.11817,1.98405 6.80297,2.5511 3.4019,0.28332 8.78743,5.38597 8.78743,3.96854 z" /></g><g
             id="g40"><path
               inkscape:connector-curvature="0"
               id="path42"
               style="fill:#bf8040;fill-opacity:1;fill-rule:nonzero;stroke:none"
               d="M 16.86638,26.079 C 16.86638,7.37 10.06299,5.1022 0,5.1022 -10.06299,5.1022 -16.86638,7.37 -16.86638,26.079 -17.14967,44.788 -9.49635,59.81177 0,59.81177 9.49635,59.81177 17.14967,44.788 16.86638,26.079 Z" /></g><g
             id="g44"><path
               inkscape:connector-curvature="0"
               id="path46"
               style="fill:#dfbf9f;fill-opacity:1;fill-rule:nonzero;stroke:none"
               d="m 12.04747,20.1264 c 0,-8.50412 -5.10265,-9.63823 -12.04747,-9.63823 -6.94482,0 -12.04747,1.13411 -12.04747,9.63823 0,8.50371 5.66928,15.59041 12.04747,15.59041 6.37819,0 12.04747,-7.0867 12.04747,-15.59041 z" /></g><g
             id="g48"><path
               inkscape:connector-curvature="0"
               id="path50"
               style="fill:#604020;fill-opacity:1;fill-rule:nonzero;stroke:none"
               d="M 13.24028,32.75542 C 11.32771,33.45154 8.7355,31.1536 7.45038,27.62273 6.16525,24.09187 6.67387,20.6653 8.58644,19.9692 c 1.91256,-0.69613 4.50476,1.60181 5.7899,5.13268 1.28513,3.53086 0.77649,6.95743 -1.13606,7.65354 z" /></g><g
             id="g52"><path
               inkscape:connector-curvature="0"
               id="path54"
               style="fill:#604020;fill-opacity:1;fill-rule:nonzero;stroke:none"
               d="m -8.58644,19.9692 c 1.91257,0.6961 2.42119,4.12267 1.13606,7.65353 -1.28512,3.53087 -3.87733,5.82881 -5.7899,5.13269 -1.91255,-0.69611 -2.42119,-4.12268 -1.13606,-7.65354 1.28514,-3.53087 3.87734,-5.82881 5.7899,-5.13268 z" /></g><g
             id="g56"><path
               inkscape:connector-curvature="0"
               id="path58"
               style="fill:#dfbf9f;fill-opacity:1;fill-rule:nonzero;stroke:none"
               d="m 6.51964,41.66983 c 0,2.03531 -2.9189,3.68523 -6.51964,3.68523 -3.60074,0 -6.51964,-1.64992 -6.51964,-3.68523 0,-2.03529 2.9189,-3.68521 6.51964,-3.68521 3.60074,0 6.51964,1.64992 6.51964,3.68521 z" /></g><g
             id="g60"><path
               inkscape:connector-curvature="0"
               id="path62"
               style="fill:#604020;fill-opacity:1;fill-rule:nonzero;stroke:none"
               d="m 2.26778,45.35506 c 0,1.25247 -1.01531,2.26777 -2.26778,2.26777 -1.25247,0 -2.26778,-1.0153 -2.26778,-2.26777 0,-1.25249 1.01531,-2.26779 2.26778,-2.26779 1.25247,0 2.26778,1.0153 2.26778,2.26779 z" /></g><g
             id="g64"><path
               inkscape:connector-curvature="0"
               id="path66"
               style="fill:#604020;fill-opacity:1;fill-rule:nonzero;stroke:none"
               d="m -2.97629,50.17395 c 0,0.78284 -0.63458,1.41742 -1.4174,1.41742 -0.78284,0 -1.41742,-0.63458 -1.41742,-1.41742 0,-0.78282 0.63458,-1.41742 1.41742,-1.41742 0.78282,0 1.4174,0.6346 1.4174,1.41742 z" /></g><g
             id="g68"><path
               inkscape:connector-curvature="0"
               id="path70"
               style="fill:#604020;fill-opacity:1;fill-rule:nonzero;stroke:none"
               d="m 5.81111,50.17395 c 0,0.78284 -0.63458,1.41742 -1.41742,1.41742 -0.78282,0 -1.4174,-0.63458 -1.4174,-1.41742 0,-0.78282 0.63458,-1.41742 1.4174,-1.41742 0.78284,0 1.41742,0.6346 1.41742,1.41742 z" /></g><g
             id="g72"><path
               inkscape:connector-curvature="0"
               id="path74"
               style="fill:#604020;fill-opacity:1;fill-rule:nonzero;stroke:none"
               d="m 4.1104,42.80351 c -0.8567,-2.35386 -3.45949,-3.56749 -5.81334,-2.71078 -1.25965,0.45849 -2.25231,1.45115 -2.7108,2.71078 h 0.44522 v 0 c 0.77102,-2.11839 3.1134,-3.21061 5.23178,-2.43961 1.13362,0.41264 2.02699,1.30599 2.43962,2.43961 z" /></g></g><g
           id="g76" /></g></g><path
       style="fill:#191970;fill-rule:evenodd;stroke:none;stroke-width:0.74999994px;stroke-linecap:butt;stroke-linejoin:miter;stroke-opacity:1"
       d="m 2.9021662,36.698328 c 4.5193597,4.775508 5.5516892,12.093678 5.5516892,12.093678 5.1044436,3.365993 13.5745326,3.685174 18.7279776,0.385232 0,0 1.854677,-8.974912 6.144275,-12.511797 -1.411362,37.605857 -31.5946761,36.856031 -30.4239418,0.03289 z"
       id="path463"
       inkscape:connector-curvature="0"
       sodipodi:nodetypes="ccccc" /><ellipse
       style="opacity:1;fill:#b0c4de;fill-opacity:1;fill-rule:evenodd;stroke:none;stroke-width:0.74999994"
       id="ellipse467"
       cx="17.205402"
       cy="-65.076416"
       transform="scale(1,-1)"
       rx="4.0131383"
       ry="3.3674533" /><ellipse
       style="opacity:1;fill:#4169e1;fill-opacity:1;fill-rule:evenodd;stroke:none;stroke-width:0.74999994"
       id="path447"
       cx="-1.7255752"
       cy="-37.736595"
       transform="scale(-1)"
       rx="2.9841285"
       ry="2.5040035" /><ellipse
       ry="2.5040035"
       rx="2.9841285"
       transform="scale(-1)"
       cy="-38.047832"
       cx="-4.4059663"
       id="ellipse453"
       style="opacity:1;fill:#b0c4de;fill-opacity:1;fill-rule:evenodd;stroke:none;stroke-width:0.74999994" /><ellipse
       ry="2.5040035"
       rx="2.9841285"
       transform="scale(1,-1)"
       cy="-38.507065"
       cx="33.840611"
       id="ellipse449"
       style="opacity:1;fill:#4169e1;fill-opacity:1;fill-rule:evenodd;stroke:none;stroke-width:0.74999994" /><ellipse
       style="opacity:1;fill:#b0c4de;fill-opacity:1;fill-rule:evenodd;stroke:none;stroke-width:0.74999994"
       id="ellipse451"
       cx="31.083492"
       cy="-37.838776"
       transform="scale(1,-1)"
       rx="2.9841285"
       ry="2.5040035" /></g></svg>