<?xml version="1.0" encoding="UTF-8" standalone="no"?>
<!-- Created with Inkscape (http://www.inkscape.org/) -->

<svg
   xmlns:dc="http://purl.org/dc/elements/1.1/"
   xmlns:cc="http://creativecommons.org/ns#"
   xmlns:rdf="http://www.w3.org/1999/02/22-rdf-syntax-ns#"
   xmlns:svg="http://www.w3.org/2000/svg"
   xmlns="http://www.w3.org/2000/svg"
   xmlns:sodipodi="http://sodipodi.sourceforge.net/DTD/sodipodi-0.dtd"
   xmlns:inkscape="http://www.inkscape.org/namespaces/inkscape"
   version="1.1"
   id="svg2"
   xml:space="preserve"
   width="57.256252"
   height="90.399963"
   viewBox="0 0 57.256253 90.399964"
   sodipodi:docname="muetze_pig.svg"
   inkscape:version="0.92.2 5c3e80d, 2017-08-06"><metadata
     id="metadata8"><rdf:RDF><cc:Work
         rdf:about=""><dc:format>image/svg+xml</dc:format><dc:type
           rdf:resource="http://purl.org/dc/dcmitype/StillImage" /><dc:title></dc:title></cc:Work></rdf:RDF></metadata><defs
     id="defs6" /><sodipodi:namedview
     pagecolor="#ffffff"
     bordercolor="#666666"
     borderopacity="1"
     objecttolerance="10"
     gridtolerance="10"
     guidetolerance="10"
     inkscape:pageopacity="0"
     inkscape:pageshadow="2"
     inkscape:window-width="640"
     inkscape:window-height="480"
     id="namedview4"
     showgrid="false"
     inkscape:snap-global="false"
     inkscape:zoom="3.7343605"
     inkscape:cx="20.823344"
     inkscape:cy="61.819419"
     inkscape:current-layer="g10"
     fit-margin-top="1"
     fit-margin-left="1"
     fit-margin-right="1"
     fit-margin-bottom="1" /><g
     id="g10"
     inkscape:groupmode="layer"
     inkscape:label="document"
     transform="matrix(1.3333333,0,0,-1.3333333,-62.198345,91.289071)"><g
       id="g86"
       transform="translate(64.407,-2.835)"><path
         inkscape:connector-curvature="0"
         id="path88"
         style="fill:none;stroke:#f1a48e;stroke-width:0.79701;stroke-linecap:butt;stroke-linejoin:miter;stroke-miterlimit:10;stroke-dasharray:none;stroke-opacity:1"
         d="m 24.01276,16.80106 c 0.22102,-3.10389 -1.20504,-5.16449 -3.26566,-5.23847 -2.06105,-0.07657 -3.33661,0.81058 -3.84094,2.67871 -0.50476,1.86554 0.81621,3.5918 2.35258,3.73627 1.53377,0.14748 2.17436,-0.64623 2.46331,-1.93044 0.28936,-1.28419 -0.57529,-3.06451 -1.33524,-3.80416 -0.75954,-0.73964 -0.33696,-0.38842 -1.66658,-1.30411 -1.33221,-0.91524 -6.341,-0.61203 -7.73032,3.39024" /></g><g
       id="g90"
       transform="translate(64.407,-2.835)"><path
         inkscape:connector-curvature="0"
         id="path92"
         style="fill:#f7cdc1;fill-opacity:1;fill-rule:nonzero;stroke:none"
         d="M 17.00824,22.67752 C 17.00824,11.33855 9.92155,4.53558 0,4.53558 c -9.92155,0 -17.00824,6.80297 -17.00824,18.14194 0,14.1734 7.08669,19.84268 17.00824,19.84268 9.92155,0 17.00824,-5.66928 17.00824,-21.2601 z" /></g><path
       style="fill:#b22222;fill-rule:evenodd;stroke:none;stroke-width:0.75px;stroke-linecap:butt;stroke-linejoin:miter;stroke-opacity:1"
       d="m 52.975471,36.136839 c 5.928545,-6.553217 16.458402,-9.188018 22.703776,-0.81068 1.515598,-0.861093 3.287709,-2.829358 3.027165,-4.458742 -4.463485,-9.166058 -24.508159,-8.953113 -28.769677,0.322589 -0.08593,1.82874 1.41495,4.105564 3.038736,4.946833 z"
       id="path441"
       inkscape:connector-curvature="0"
       sodipodi:nodetypes="ccccc" /><g
       id="g102"
       transform="translate(64.407,-2.835)"><path
         inkscape:connector-curvature="0"
         id="path104"
         style="fill:#f7cdc1;fill-opacity:1;fill-rule:nonzero;stroke:none"
         d="m 14.17339,46.48874 c 0,7.82785 -6.34555,14.1734 -14.17339,14.1734 -7.82784,0 -14.17339,-6.34555 -14.17339,-14.1734 0,-7.82785 6.34555,-14.1734 14.17339,-14.1734 7.82784,0 14.17339,6.34555 14.17339,14.1734 z" /></g><g
       id="g106"
       transform="translate(64.407,-2.835)"><path
         inkscape:connector-curvature="0"
         id="path108"
         style="fill:#808080;fill-opacity:1;fill-rule:nonzero;stroke:none"
         d="m -1.98405,51.59138 c 0,0.31318 -0.25387,0.56705 -0.56705,0.56705 -0.31317,0 -0.56705,-0.25387 -0.56705,-0.56705 0,-0.31317 0.25388,-0.56704 0.56705,-0.56704 0.31318,0 0.56705,0.25387 0.56705,0.56704 z" /></g><g
       id="g110"
       transform="translate(64.407,-2.835)"><path
         inkscape:connector-curvature="0"
         id="path112"
         style="fill:#808080;fill-opacity:1;fill-rule:nonzero;stroke:none"
         d="m 3.11815,51.59138 c 0,0.31318 -0.25388,0.56705 -0.56705,0.56705 -0.31318,0 -0.56705,-0.25387 -0.56705,-0.56705 0,-0.31317 0.25387,-0.56704 0.56705,-0.56704 0.31317,0 0.56705,0.25387 0.56705,0.56704 z" /></g><g
       id="g114"
       transform="translate(64.407,-2.835)"><path
         inkscape:connector-curvature="0"
         id="path116"
         style="fill:#f1a48e;fill-opacity:1;fill-rule:nonzero;stroke:none"
         d="m 5.1022,45.92168 c 0,2.19177 -2.28431,3.96852 -5.1022,3.96852 -2.81789,0 -5.1022,-1.77675 -5.1022,-3.96852 0,-2.19178 2.28431,-3.96852 5.1022,-3.96852 2.81789,0 5.1022,1.77674 5.1022,3.96852 z" /></g><g
       id="g118"
       transform="translate(64.407,-2.835)"><path
         inkscape:connector-curvature="0"
         id="path120"
         style="fill:#808080;fill-opacity:1;fill-rule:nonzero;stroke:none"
         d="m -0.7085,45.92168 c 0,0.548 -0.44423,0.99223 -0.99223,0.99223 -0.548,0 -0.99223,-0.44423 -0.99223,-0.99223 0,-0.54801 0.44423,-0.99224 0.99223,-0.99224 0.548,0 0.99223,0.44423 0.99223,0.99224 z" /></g><g
       id="g122"
       transform="translate(64.407,-2.835)"><path
         inkscape:connector-curvature="0"
         id="path124"
         style="fill:#808080;fill-opacity:1;fill-rule:nonzero;stroke:none"
         d="m 2.69296,45.92168 c 0,0.548 -0.44423,0.99223 -0.99223,0.99223 -0.548,0 -0.99223,-0.44423 -0.99223,-0.99223 0,-0.54801 0.44423,-0.99224 0.99223,-0.99224 0.548,0 0.99223,0.44423 0.99223,0.99224 z" /></g><g
       id="g126"
       transform="translate(64.407,-2.835)"><path
         inkscape:connector-curvature="0"
         id="path128"
         style="fill:none;stroke:#808080;stroke-width:0.3985;stroke-linecap:butt;stroke-linejoin:miter;stroke-miterlimit:10;stroke-dasharray:none;stroke-opacity:1"
         d="m 2.97629,41.3865 c -1.6859,-1.41465 -4.14498,-1.41465 -5.83086,0" /></g><g
       id="g146"
       transform="translate(64.407,-2.835)"><path
         inkscape:connector-curvature="0"
         id="path148"
         style="fill:#f1a48e;fill-opacity:1;fill-rule:nonzero;stroke:none"
         d="M 9.11617,4.25183 C 9.60233,6.06639 8.52551,7.93161 6.71095,8.41777 4.8964,8.90393 3.03117,7.82712 2.54501,6.01256 2.39056,5.43597 2.39056,4.82841 2.54501,4.25183 h 1.99057 c 0.86152,0.49739 1.68959,0.49739 2.55111,0 z" /></g><g
       id="g150"
       transform="translate(64.407,-2.835)"><path
         inkscape:connector-curvature="0"
         id="path152"
         style="fill:#f1a48e;fill-opacity:1;fill-rule:nonzero;stroke:none"
         d="m -9.11617,4.25183 c -0.48616,1.81456 0.59066,3.67978 2.40522,4.16594 1.81455,0.48616 3.67978,-0.59065 4.16594,-2.40521 0.15445,-0.57659 0.15445,-1.18415 0,-1.76073 h -1.99057 c -0.86152,0.49739 -1.68959,0.49739 -2.55111,0 z" /></g><path
       style="fill:#b22222;fill-rule:evenodd;stroke:none;stroke-width:0.75px;stroke-linecap:butt;stroke-linejoin:miter;stroke-opacity:1"
       d="m 51.432043,49.211957 c 2.427107,2.115086 24.349525,2.510784 26.024367,-0.863368 0.998667,1.370129 0.428619,5.01813 -0.740033,6.190809 -2.81963,13.631577 -22.888983,12.36372 -24.667643,0.287969 -1.21888,-1.239571 -1.684596,-4.198706 -0.616691,-5.61541 z"
       id="path221"
       inkscape:connector-curvature="0"
       sodipodi:nodetypes="ccccc" /><ellipse
       style="opacity:1;fill:#b22222;fill-opacity:1;fill-rule:evenodd;stroke:none;stroke-width:0.75"
       id="path223"
       cx="64.248642"
       cy="-65.065033"
       transform="scale(1,-1)"
       rx="3.0217867"
       ry="2.651772" /><path
       style="fill:#b22222;fill-rule:evenodd;stroke:none;stroke-width:0.75px;stroke-linecap:butt;stroke-linejoin:miter;stroke-opacity:1"
       d="m 63.325979,27.177771 1.509876,-14.921129 2.553795,1.259041 2.153466,-0.637327 -1.687508,12.700722 z"
       id="path443"
       inkscape:connector-curvature="0"
       sodipodi:nodetypes="cccccc" /><path
       inkscape:connector-curvature="0"
       id="path445"
       d="m 64.569407,28.065933 -0.976979,-12.700723 -2.19853,1.347857 -2.508731,-0.726143 1.687508,12.700722 z"
       style="fill:#b22222;fill-rule:evenodd;stroke:none;stroke-width:0.75px;stroke-linecap:butt;stroke-linejoin:miter;stroke-opacity:1"
       sodipodi:nodetypes="cccccc" /><g
       id="g94"
       transform="translate(64.407,-2.835)"><path
         inkscape:connector-curvature="0"
         id="path96"
         style="fill:#f1a48e;fill-opacity:1;fill-rule:nonzero;stroke:none"
         d="m -6.809,27.84505 c -1.67782,2.15144 -3.73885,2.34695 -4.59788,0.43945 -0.85859,-1.90791 -0.19249,-5.19608 1.48533,-7.3475 0.53591,-0.68343 1.13108,-1.19641 1.7293,-1.48534 0.38279,0.45631 1.1112,1.98708 1.1112,1.98708 0,0 2.00695,-0.71715 2.51432,-0.29198 0,0 -0.561,4.54684 -2.24227,6.69829 z" /></g><g
       id="g98"
       transform="translate(64.407,-2.835)"><path
         inkscape:connector-curvature="0"
         id="path100"
         style="fill:#f1a48e;fill-opacity:1;fill-rule:nonzero;stroke:none"
         d="m 6.809,27.84505 c 1.67782,2.15144 3.73885,2.34695 4.59788,0.43945 0.85859,-1.90791 0.19249,-5.19608 -1.48533,-7.3475 -0.53591,-0.68343 -1.13108,-1.19641 -1.7293,-1.48534 -0.38279,0.45631 -1.1112,1.98708 -1.1112,1.98708 0,0 -2.00695,-0.71715 -2.51432,-0.29198 0,0 0.561,4.54684 2.24227,6.69829 z" /></g></g></svg>